  0
SECTION
  2
HEADER
  9
$ACADVER
  1
AC1032
  9
$ACADMAINTVER
 90
4
  9
$DWGCODEPAGE
  3
ANSI_1252
  9
$LASTSAVEDBY
  1
ezdxf
  9
$REQUIREDVERSIONS
160
0
  9
$INSBASE
 10
0.0
 20
0.0
 30
0.0
  9
$EXTMIN
 10
-100
 20
-100
 30
-100
  9
$EXTMAX
 10
100
 20
100
 30
100
  9
$LIMMIN
 10
0.0
 20
0.0
  9
$LIMMAX
 10
420.0
 20
297.0
  9
$ORTHOMODE
 70
0
  9
$REGENMODE
 70
1
  9
$FILLMODE
 70
1
  9
$QTEXTMODE
 70
0
  9
$MIRRTEXT
 70
1
  9
$LTSCALE
 40
1.0
  9
$ATTMODE
 70
1
  9
$TEXTSIZE
 40
2.5
  9
$TRACEWID
 40
1.0
  9
$TEXTSTYLE
  7
Standard
  9
$CLAYER
  8
0
  9
$CELTYPE
  6
ByLayer
  9
$CECOLOR
 62
256
  9
$CELTSCALE
 40
1.0
  9
$DISPSILH
 70
0
  9
$DIMSCALE
 40
1.0
  9
$DIMASZ
 40
2.5
  9
$DIMEXO
 40
0.625
  9
$DIMDLI
 40
3.75
  9
$DIMRND
 40
0.0
  9
$DIMDLE
 40
0.0
  9
$DIMEXE
 40
1.25
  9
$DIMTP
 40
0.0
  9
$DIMTM
 40
0.0
  9
$DIMTXT
 40
2.5
  9
$DIMCEN
 40
2.5
  9
$DIMTSZ
 40
0.0
  9
$DIMTOL
 70
0
  9
$DIMLIM
 70
0
  9
$DIMTIH
 70
0
  9
$DIMTOH
 70
0
  9
$DIMSE1
 70
0
  9
$DIMSE2
 70
0
  9
$DIMTAD
 70
1
  9
$DIMZIN
 70
8
  9
$DIMBLK
  1

  9
$DIMASO
 70
1
  9
$DIMSHO
 70
1
  9
$DIMPOST
  1

  9
$DIMAPOST
  1

  9
$DIMALT
 70
0
  9
$DIMALTD
 70
3
  9
$DIMALTF
 40
0.03937007874
  9
$DIMLFAC
 40
1.0
  9
$DIMTOFL
 70
1
  9
$DIMTVP
 40
0.0
  9
$DIMTIX
 70
0
  9
$DIMSOXD
 70
0
  9
$DIMSAH
 70
0
  9
$DIMBLK1
  1

  9
$DIMBLK2
  1

  9
$DIMSTYLE
  2
ISO-25
  9
$DIMCLRD
 70
0
  9
$DIMCLRE
 70
0
  9
$DIMCLRT
 70
0
  9
$DIMTFAC
 40
1.0
  9
$DIMGAP
 40
0.625
  9
$DIMJUST
 70
0
  9
$DIMSD1
 70
0
  9
$DIMSD2
 70
0
  9
$DIMTOLJ
 70
0
  9
$DIMTZIN
 70
8
  9
$DIMALTZ
 70
0
  9
$DIMALTTZ
 70
0
  9
$DIMUPT
 70
0
  9
$DIMDEC
 70
2
  9
$DIMTDEC
 70
2
  9
$DIMALTU
 70
2
  9
$DIMALTTD
 70
3
  9
$DIMTXSTY
  7
Standard
  9
$DIMAUNIT
 70
0
  9
$DIMADEC
 70
0
  9
$DIMALTRND
 40
0.0
  9
$DIMAZIN
 70
0
  9
$DIMDSEP
 70
44
  9
$DIMATFIT
 70
3
  9
$DIMFRAC
 70
0
  9
$DIMLDRBLK
  1

  9
$DIMLUNIT
 70
2
  9
$DIMLWD
 70
-2
  9
$DIMLWE
 70
-2
  9
$DIMTMOVE
 70
0
  9
$DIMFXL
 40
1.0
  9
$DIMFXLON
 70
0
  9
$DIMJOGANG
 40
0.785398163397
  9
$DIMTFILL
 70
0
  9
$DIMTFILLCLR
 70
0
  9
$DIMARCSYM
 70
0
  9
$DIMLTYPE
  6

  9
$DIMLTEX1
  6

  9
$DIMLTEX2
  6

  9
$DIMTXTDIRECTION
 70
0
  9
$LUNITS
 70
2
  9
$LUPREC
 70
4
  9
$SKETCHINC
 40
1.0
  9
$FILLETRAD
 40
10.0
  9
$AUNITS
 70
0
  9
$AUPREC
 70
2
  9
$MENU
  1
.
  9
$ELEVATION
 40
0.0
  9
$PELEVATION
 40
0.0
  9
$THICKNESS
 40
0.0
  9
$LIMCHECK
 70
0
  9
$CHAMFERA
 40
0.0
  9
$CHAMFERB
 40
0.0
  9
$CHAMFERC
 40
0.0
  9
$CHAMFERD
 40
0.0
  9
$SKPOLY
 70
0
  9
$TDCREATE
 40
2458945.7724189814
  9
$TDUCREATE
 40
2458532.153996898
  9
$TDUPDATE
 40
2458945.7724305554
  9
$TDUUPDATE
 40
2458532.1544311
  9
$TDINDWG
 40
0.0
  9
$TDUSRTIMER
 40
0.0
  9
$USRTIMER
 70
1
  9
$ANGBASE
 50
0.0
  9
$ANGDIR
 70
0
  9
$PDMODE
 70
0
  9
$PDSIZE
 40
0.0
  9
$PLINEWID
 40
0.0
  9
$SPLFRAME
 70
0
  9
$SPLINETYPE
 70
6
  9
$SPLINESEGS
 70
8
  9
$HANDSEED
  5
6C
  9
$SURFTAB1
 70
6
  9
$SURFTAB2
 70
6
  9
$SURFTYPE
 70
6
  9
$SURFU
 70
6
  9
$SURFV
 70
6
  9
$UCSBASE
  2

  9
$UCSNAME
  2

  9
$UCSORG
 10
0.0
 20
0.0
 30
0.0
  9
$UCSXDIR
 10
1.0
 20
0.0
 30
0.0
  9
$UCSYDIR
 10
0.0
 20
1.0
 30
0.0
  9
$UCSORTHOREF
  2

  9
$UCSORTHOVIEW
 70
0
  9
$UCSORGTOP
 10
0.0
 20
0.0
 30
0.0
  9
$UCSORGBOTTOM
 10
0.0
 20
0.0
 30
0.0
  9
$UCSORGLEFT
 10
0.0
 20
0.0
 30
0.0
  9
$UCSORGRIGHT
 10
0.0
 20
0.0
 30
0.0
  9
$UCSORGFRONT
 10
0.0
 20
0.0
 30
0.0
  9
$UCSORGBACK
 10
0.0
 20
0.0
 30
0.0
  9
$PUCSBASE
  2

  9
$PUCSNAME
  2

  9
$PUCSORG
 10
0.0
 20
0.0
 30
0.0
  9
$PUCSXDIR
 10
1.0
 20
0.0
 30
0.0
  9
$PUCSYDIR
 10
0.0
 20
1.0
 30
0.0
  9
$PUCSORTHOREF
  2

  9
$PUCSORTHOVIEW
 70
0
  9
$PUCSORGTOP
 10
0.0
 20
0.0
 30
0.0
  9
$PUCSORGBOTTOM
 10
0.0
 20
0.0
 30
0.0
  9
$PUCSORGLEFT
 10
0.0
 20
0.0
 30
0.0
  9
$PUCSORGRIGHT
 10
0.0
 20
0.0
 30
0.0
  9
$PUCSORGFRONT
 10
0.0
 20
0.0
 30
0.0
  9
$PUCSORGBACK
 10
0.0
 20
0.0
 30
0.0
  9
$USERI1
 70
0
  9
$USERI2
 70
0
  9
$USERI3
 70
0
  9
$USERI4
 70
0
  9
$USERI5
 70
0
  9
$USERR1
 40
0.0
  9
$USERR2
 40
0.0
  9
$USERR3
 40
0.0
  9
$USERR4
 40
0.0
  9
$USERR5
 40
0.0
  9
$WORLDVIEW
 70
1
  9
$SHADEDGE
 70
3
  9
$SHADEDIF
 70
70
  9
$TILEMODE
 70
1
  9
$MAXACTVP
 70
64
  9
$PINSBASE
 10
0.0
 20
0.0
 30
0.0
  9
$PLIMCHECK
 70
0
  9
$PEXTMIN
 10
1e+20
 20
1e+20
 30
1e+20
  9
$PEXTMAX
 10
-1e+20
 20
-1e+20
 30
-1e+20
  9
$PLIMMIN
 10
0.0
 20
0.0
  9
$PLIMMAX
 10
420.0
 20
297.0
  9
$UNITMODE
 70
0
  9
$VISRETAIN
 70
1
  9
$PLINEGEN
 70
0
  9
$PSLTSCALE
 70
1
  9
$TREEDEPTH
 70
3020
  9
$CMLSTYLE
  2
Standard
  9
$CMLJUST
 70
0
  9
$CMLSCALE
 40
20.0
  9
$PROXYGRAPHICS
 70
1
  9
$MEASUREMENT
 70
1
  9
$CELWEIGHT
370
-1
  9
$ENDCAPS
280
0
  9
$JOINSTYLE
280
0
  9
$LWDISPLAY
290
0
  9
$INSUNITS
 70
5
  9
$HYPERLINKBASE
  1

  9
$STYLESHEET
  1

  9
$XEDIT
290
1
  9
$CEPSNTYPE
380
0
  9
$PSTYLEMODE
290
1
  9
$FINGERPRINTGUID
  2
EC93A0BA-7784-11EA-ACD8-3C07545DF518
  9
$VERSIONGUID
  2
ECF6A66A-7784-11EA-ACD8-3C07545DF518
  9
$EXTNAMES
290
1
  9
$PSVPSCALE
 40
0.0
  9
$OLESTARTUP
290
0
  9
$SORTENTS
280
127
  9
$INDEXCTL
280
0
  9
$HIDETEXT
280
1
  9
$XCLIPFRAME
280
2
  9
$HALOGAP
280
0
  9
$OBSCOLOR
 70
257
  9
$OBSLTYPE
280
0
  9
$INTERSECTIONDISPLAY
280
0
  9
$INTERSECTIONCOLOR
 70
257
  9
$DIMASSOC
280
2
  9
$PROJECTNAME
  1

  9
$CAMERADISPLAY
290
0
  9
$LENSLENGTH
 40
50.0
  9
$CAMERAHEIGHT
 40
0.0
  9
$STEPSPERSEC
 40
24.0
  9
$STEPSIZE
 40
100.0
  9
$3DDWFPREC
 40
2.0
  9
$PSOLWIDTH
 40
0.005
  9
$PSOLHEIGHT
 40
0.08
  9
$LOFTANG1
 40
1.570796326795
  9
$LOFTANG2
 40
1.570796326795
  9
$LOFTMAG1
 40
0.0
  9
$LOFTMAG2
 40
0.0
  9
$LOFTPARAM
 70
7
  9
$LOFTNORMALS
280
1
  9
$LATITUDE
 40
37.795
  9
$LONGITUDE
 40
-122.394
  9
$NORTHDIRECTION
 40
0.0
  9
$TIMEZONE
 70
-8000
  9
$LIGHTGLYPHDISPLAY
280
1
  9
$TILEMODELIGHTSYNCH
280
1
  9
$CMATERIAL
347
20
  9
$SOLIDHIST
280
0
  9
$SHOWHIST
280
1
  9
$DWFFRAME
280
2
  9
$DGNFRAME
280
2
  9
$REALWORLDSCALE
290
1
  9
$INTERFERECOLOR
 62
256
  9
$CSHADOW
280
0
  9
$SHADOWPLANELOCATION
 40
0.0
  0
ENDSEC
  0
SECTION
  2
CLASSES
  0
CLASS
  1
ACDBDICTIONARYWDFLT
  2
AcDbDictionaryWithDefault
  3
ObjectDBX Classes
 90
0
 91
0
280
0
281
0
  0
CLASS
  1
SUN
  2
AcDbSun
  3
SCENEOE
 90
1153
 91
0
280
0
281
0
  0
CLASS
  1
VISUALSTYLE
  2
AcDbVisualStyle
  3
ObjectDBX Classes
 90
4095
 91
0
280
0
281
0
  0
CLASS
  1
MATERIAL
  2
AcDbMaterial
  3
ObjectDBX Classes
 90
1153
 91
0
280
0
281
0
  0
CLASS
  1
SCALE
  2
AcDbScale
  3
ObjectDBX Classes
 90
1153
 91
0
280
0
281
0
  0
CLASS
  1
TABLESTYLE
  2
AcDbTableStyle
  3
ObjectDBX Classes
 90
4095
 91
0
280
0
281
0
  0
CLASS
  1
MLEADERSTYLE
  2
AcDbMLeaderStyle
  3
ACDB_MLEADERSTYLE_CLASS
 90
4095
 91
0
280
0
281
0
  0
CLASS
  1
DICTIONARYVAR
  2
AcDbDictionaryVar
  3
ObjectDBX Classes
 90
0
 91
0
280
0
281
0
  0
CLASS
  1
CELLSTYLEMAP
  2
AcDbCellStyleMap
  3
ObjectDBX Classes
 90
1152
 91
0
280
0
281
0
  0
CLASS
  1
MENTALRAYRENDERSETTINGS
  2
AcDbMentalRayRenderSettings
  3
SCENEOE
 90
1024
 91
0
280
0
281
0
  0
CLASS
  1
ACDBDETAILVIEWSTYLE
  2
AcDbDetailViewStyle
  3
ObjectDBX Classes
 90
1025
 91
0
280
0
281
0
  0
CLASS
  1
ACDBSECTIONVIEWSTYLE
  2
AcDbSectionViewStyle
  3
ObjectDBX Classes
 90
1025
 91
0
280
0
281
0
  0
CLASS
  1
RASTERVARIABLES
  2
AcDbRasterVariables
  3
ISM
 90
0
 91
0
280
0
281
0
  0
CLASS
  1
LAYOUT
  2
AcDbLayout
  3
ObjectDBX Classes
 90
0
 91
0
280
0
281
0
  0
CLASS
  1
ACDBPLACEHOLDER
  2
AcDbPlaceHolder
  3
ObjectDBX Classes
 90
0
 91
0
280
0
281
0
  0
ENDSEC
  0
SECTION
  2
TABLES
  0
TABLE
  2
VPORT
  5
8
330
0
100
AcDbSymbolTable
 70
1
  0
VPORT
  5
6B
330
8
100
AcDbSymbolTableRecord
100
AcDbViewportTableRecord
  2
*Active
 70
0
 10
0.0
 20
0.0
 11
1.0
 21
1.0
 12
150.0
 22
268.48939134198014
 13
0.0
 23
0.0
 14
0.5
 24
0.5
 15
0.5
 25
0.5
 16
0.0
 26
0.0
 36
1.0
 17
0.0
 27
0.0
 37
0.0
 40
926.9787826839603
 41
1.34
 42
50.0
 43
0.0
 44
0.0
 50
0.0
 51
0.0
 71
0
 72
1000
 73
1
 74
3
 75
0
 76
0
 77
0
 78
0
281
0
 65
0
146
0.0
  0
ENDTAB
  0
TABLE
  2
LTYPE
  5
2
330
0
100
AcDbSymbolTable
 70
3
  0
LTYPE
  5
24
330
2
100
AcDbSymbolTableRecord
100
AcDbLinetypeTableRecord
  2
ByBlock
 70
0
  3

 72
65
 73
0
 40
0.0
  0
LTYPE
  5
25
330
2
100
AcDbSymbolTableRecord
100
AcDbLinetypeTableRecord
  2
ByLayer
 70
0
  3

 72
65
 73
0
 40
0.0
  0
LTYPE
  5
26
330
2
100
AcDbSymbolTableRecord
100
AcDbLinetypeTableRecord
  2
Continuous
 70
0
  3

 72
65
 73
0
 40
0.0
  0
ENDTAB
  0
TABLE
  2
LAYER
  5
1
330
0
100
AcDbSymbolTable
 70
2
  0
LAYER
  5
27
330
1
100
AcDbSymbolTableRecord
100
AcDbLayerTableRecord
  2
0
 70
0
 62
7
  6
Continuous
370
-3
390
13
347
21
  0
LAYER
  5
28
330
1
100
AcDbSymbolTableRecord
100
AcDbLayerTableRecord
  2
Defpoints
 70
0
 62
7
  6
Continuous
290
0
370
-3
390
13
347
21
  0
ENDTAB
  0
TABLE
  2
STYLE
  5
5
330
0
100
AcDbSymbolTable
 70
1
  0
STYLE
  5
29
330
5
100
AcDbSymbolTableRecord
100
AcDbTextStyleTableRecord
  2
Standard
 70
0
 40
0.0
 41
1.0
 50
0.0
 71
0
 42
2.5
  3
txt
  4

  0
ENDTAB
  0
TABLE
  2
VIEW
  5
7
330
0
100
AcDbSymbolTable
 70
0
  0
ENDTAB
  0
TABLE
  2
UCS
  5
6
330
0
100
AcDbSymbolTable
 70
0
  0
ENDTAB
  0
TABLE
  2
APPID
  5
3
330
0
100
AcDbSymbolTable
 70
1
  0
APPID
  5
2A
330
3
100
AcDbSymbolTableRecord
100
AcDbRegAppTableRecord
  2
ACAD
 70
0
  0
ENDTAB
  0
TABLE
  2
DIMSTYLE
  5
4
330
0
100
AcDbSymbolTable
 70
1
100
AcDbDimStyleTable
  0
DIMSTYLE
105
2B
330
4
100
AcDbSymbolTableRecord
100
AcDbDimStyleTableRecord
  2
Standard
 70
0
 40
1.0
 41
2.5
 42
0.625
 43
3.75
 44
1.25
 45
0.0
 46
0.0
 47
0.0
 48
0.0
 49
2.5
140
2.5
141
2.5
142
0.0
143
0.03937007874
144
1.0
145
0.0
146
1.0
147
0.625
148
0.0
 69
0
 70
0
 71
0
 72
0
 73
0
 74
0
 75
0
 76
0
 77
1
 78
8
 79
0
170
0
171
3
172
1
173
0
174
0
175
0
176
0
177
0
178
0
179
0
271
0
272
2
273
2
274
3
275
0
276
0
277
2
278
44
279
0
280
0
281
0
282
0
283
0
284
8
285
0
286
0
288
0
289
3
290
0
371
-2
372
-2
  0
ENDTAB
  0
TABLE
  2
BLOCK_RECORD
  5
9
330
0
100
AcDbSymbolTable
 70
2
  0
BLOCK_RECORD
  5
17
330
9
100
AcDbSymbolTableRecord
100
AcDbBlockTableRecord
  2
*Model_Space
340
1A
 70
0
280
1
281
1
  0
BLOCK_RECORD
  5
1B
330
9
100
AcDbSymbolTableRecord
100
AcDbBlockTableRecord
  2
*Paper_Space
340
1E
 70
0
280
1
281
1
  0
ENDTAB
  0
ENDSEC
  0
SECTION
  2
BLOCKS
  0
BLOCK
  5
18
330
17
100
AcDbEntity
  8
0
100
AcDbBlockBegin
  2
*Model_Space
 70
0
 10
0.0
 20
0.0
 30
0.0
  3
*Model_Space
  1

  0
ENDBLK
  5
19
330
17
100
AcDbEntity
  8
0
100
AcDbBlockEnd
  0
BLOCK
  5
1C
330
1B
100
AcDbEntity
  8
0
100
AcDbBlockBegin
  2
*Paper_Space
 70
0
 10
0.0
 20
0.0
 30
0.0
  3
*Paper_Space
  1

  0
ENDBLK
  5
1D
330
1B
100
AcDbEntity
  8
0
100
AcDbBlockEnd
  0
ENDSEC
  0
SECTION
  2
ENTITIES
  0
LWPOLYLINE
  5
2D
330
17
100
AcDbEntity
  8
0
100
AcDbPolyline
 90
2
 70
0
 43
0.0
 10
0.0
 20
-195.0
 10
0.0
 20
-195.0
  0
LWPOLYLINE
  5
2E
330
17
100
AcDbEntity
  8
0
100
AcDbPolyline
 90
2
 70
0
 43
0.0
 10
-33.07924102380673
 20
-205.0
 10
114.99533187807813
 20
-205.0
  0
LWPOLYLINE
  5
2F
330
17
100
AcDbEntity
  8
0
100
AcDbPolyline
 90
2
 70
0
 43
0.0
 10
1.4958237752717487
 20
-180.0
 10
56.37504155136146
 20
-180.0
  0
LWPOLYLINE
  5
30
330
17
100
AcDbEntity
  8
0
100
AcDbPolyline
 90
2
 70
0
 43
0.0
 10
1.4958237752717487
 20
-180.0
 10
56.37504155136146
 20
-180.0
  0
LWPOLYLINE
  5
31
330
17
100
AcDbEntity
  8
0
100
AcDbPolyline
 90
2
 70
0
 43
0.0
 10
3.4649216647189682
 20
-175.0
 10
213.62051099859767
 20
-175.0
  0
LWPOLYLINE
  5
32
330
17
100
AcDbEntity
  8
0
100
AcDbPolyline
 90
2
 70
0
 43
0.0
 10
3.4649216647189682
 20
-175.0
 10
213.62051099859767
 20
-175.0
  0
LWPOLYLINE
  5
33
330
17
100
AcDbEntity
  8
0
100
AcDbPolyline
 90
2
 70
0
 43
0.0
 10
100.12100289579128
 20
-205.0
 10
328.07924102380673
 20
-205.0
  0
LWPOLYLINE
  5
34
330
17
100
AcDbEntity
  8
0
100
AcDbPolyline
 90
5
 70
0
 43
0.0
 10
0.0
 20
-195.0
 10
1.0
 20
-195.0
 10
1.0
 20
-194.0
 10
0.0
 20
-194.0
 10
0.0
 20
-195.0
  0
LWPOLYLINE
  5
35
330
17
100
AcDbEntity
  8
0
100
AcDbPolyline
 90
2
 70
0
 43
0.0
 10
0.0
 20
-130.0
 10
0.0
 20
-85.0
  0
LWPOLYLINE
  5
36
330
17
100
AcDbEntity
  8
0
100
AcDbPolyline
 90
2
 70
0
 43
0.0
 10
30.0
 20
-130.0
 10
30.0
 20
-55.0
  0
LWPOLYLINE
  5
37
330
17
100
AcDbEntity
  8
0
100
AcDbPolyline
 90
2
 70
0
 43
0.0
 10
60.0
 20
-130.0
 10
60.0
 20
-55.0
  0
LWPOLYLINE
  5
38
330
17
100
AcDbEntity
  8
0
100
AcDbPolyline
 90
2
 70
0
 43
0.0
 10
90.0
 20
-130.0
 10
90.0
 20
-55.0
  0
LWPOLYLINE
  5
39
330
17
100
AcDbEntity
  8
0
100
AcDbPolyline
 90
2
 70
0
 43
0.0
 10
120.0
 20
-130.0
 10
120.0
 20
-55.0
  0
LWPOLYLINE
  5
3A
330
17
100
AcDbEntity
  8
0
100
AcDbPolyline
 90
2
 70
0
 43
0.0
 10
150.0
 20
-130.0
 10
150.0
 20
-55.0
  0
LWPOLYLINE
  5
3B
330
17
100
AcDbEntity
  8
0
100
AcDbPolyline
 90
2
 70
0
 43
0.0
 10
180.0
 20
-130.0
 10
180.0
 20
-55.0
  0
LWPOLYLINE
  5
3C
330
17
100
AcDbEntity
  8
0
100
AcDbPolyline
 90
2
 70
0
 43
0.0
 10
210.0
 20
-130.0
 10
210.0
 20
-95.0
  0
LWPOLYLINE
  5
3D
330
17
100
AcDbEntity
  8
0
100
AcDbPolyline
 90
2
 70
0
 43
0.0
 10
240.0
 20
-130.0
 10
240.0
 20
-95.0
  0
LWPOLYLINE
  5
3E
330
17
100
AcDbEntity
  8
0
100
AcDbPolyline
 90
2
 70
0
 43
0.0
 10
270.0
 20
-130.0
 10
270.0
 20
-95.0
  0
LWPOLYLINE
  5
3F
330
17
100
AcDbEntity
  8
0
100
AcDbPolyline
 90
2
 70
0
 43
0.0
 10
300.0
 20
-130.0
 10
300.0
 20
-95.0
  0
LWPOLYLINE
  5
40
330
17
100
AcDbEntity
  8
0
100
AcDbPolyline
 90
5
 70
0
 43
0.0
 10
0.0
 20
-130.0
 10
1.0
 20
-130.0
 10
1.0
 20
-129.0
 10
0.0
 20
-129.0
 10
0.0
 20
-130.0
  0
LWPOLYLINE
  5
41
330
17
100
AcDbEntity
  8
0
100
AcDbPolyline
 90
2
 70
0
 43
0.0
 10
0.0
 20
30.0
 10
0.0
 20
30.0
  0
LWPOLYLINE
  5
42
330
17
100
AcDbEntity
  8
0
100
AcDbPolyline
 90
2
 70
0
 43
0.0
 10
0.0
 20
30.0
 10
0.0
 20
80.0
  0
LWPOLYLINE
  5
43
330
17
100
AcDbEntity
  8
0
100
AcDbPolyline
 90
2
 70
0
 43
0.0
 10
300.0
 20
30.0
 10
300.0
 20
70.0
  0
LWPOLYLINE
  5
44
330
17
100
AcDbEntity
  8
0
100
AcDbPolyline
 90
2
 70
0
 43
0.0
 10
0.0
 20
30.0
 10
7.645823775271747
 20
30.0
  0
LWPOLYLINE
  5
45
330
17
100
AcDbEntity
  8
0
100
AcDbPolyline
 90
2
 70
0
 43
0.0
 10
0.0
 20
80.0
 10
7.645823775271747
 20
80.0
  0
LWPOLYLINE
  5
46
330
17
100
AcDbEntity
  8
0
100
AcDbPolyline
 90
2
 70
0
 43
0.0
 10
7.645823775271747
 20
80.0
 10
7.645823775271747
 20
80.0
  0
LWPOLYLINE
  5
47
330
17
100
AcDbEntity
  8
0
100
AcDbPolyline
 90
2
 70
0
 43
0.0
 10
7.645823775271747
 20
30.0
 10
30.0
 20
30.0
  0
LWPOLYLINE
  5
48
330
17
100
AcDbEntity
  8
0
100
AcDbPolyline
 90
2
 70
0
 43
0.0
 10
7.645823775271747
 20
80.0
 10
30.0
 20
80.0
  0
LWPOLYLINE
  5
49
330
17
100
AcDbEntity
  8
0
100
AcDbPolyline
 90
2
 70
0
 43
0.0
 10
30.0
 20
80.0
 10
30.0
 20
110.0
  0
LWPOLYLINE
  5
4A
330
17
100
AcDbEntity
  8
0
100
AcDbPolyline
 90
2
 70
0
 43
0.0
 10
30.0
 20
30.0
 10
106.15115324755007
 20
30.0
  0
LWPOLYLINE
  5
4B
330
17
100
AcDbEntity
  8
0
100
AcDbPolyline
 90
2
 70
0
 43
0.0
 10
30.0
 20
110.0
 10
106.15115324755007
 20
110.0
  0
LWPOLYLINE
  5
4C
330
17
100
AcDbEntity
  8
0
100
AcDbPolyline
 90
2
 70
0
 43
0.0
 10
106.15115324755007
 20
110.0
 10
106.15115324755007
 20
110.0
  0
LWPOLYLINE
  5
4D
330
17
100
AcDbEntity
  8
0
100
AcDbPolyline
 90
2
 70
0
 43
0.0
 10
106.15115324755007
 20
30.0
 10
108.26091489315348
 20
30.0
  0
LWPOLYLINE
  5
4E
330
17
100
AcDbEntity
  8
0
100
AcDbPolyline
 90
2
 70
0
 43
0.0
 10
106.15115324755007
 20
110.0
 10
108.26091489315348
 20
110.0
  0
LWPOLYLINE
  5
4F
330
17
100
AcDbEntity
  8
0
100
AcDbPolyline
 90
2
 70
0
 43
0.0
 10
108.26091489315348
 20
110.0
 10
108.26091489315348
 20
110.0
  0
LWPOLYLINE
  5
50
330
17
100
AcDbEntity
  8
0
100
AcDbPolyline
 90
2
 70
0
 43
0.0
 10
108.26091489315348
 20
30.0
 10
200.0
 20
30.0
  0
LWPOLYLINE
  5
51
330
17
100
AcDbEntity
  8
0
100
AcDbPolyline
 90
2
 70
0
 43
0.0
 10
108.26091489315348
 20
110.0
 10
200.0
 20
110.0
  0
LWPOLYLINE
  5
52
330
17
100
AcDbEntity
  8
0
100
AcDbPolyline
 90
2
 70
0
 43
0.0
 10
200.0
 20
110.0
 10
200.0
 20
70.0
  0
LWPOLYLINE
  5
53
330
17
100
AcDbEntity
  8
0
100
AcDbPolyline
 90
2
 70
0
 43
0.0
 10
200.0
 20
30.0
 10
207.5903606468389
 20
30.0
  0
LWPOLYLINE
  5
54
330
17
100
AcDbEntity
  8
0
100
AcDbPolyline
 90
2
 70
0
 43
0.0
 10
200.0
 20
70.0
 10
207.5903606468389
 20
70.0
  0
LWPOLYLINE
  5
55
330
17
100
AcDbEntity
  8
0
100
AcDbPolyline
 90
2
 70
0
 43
0.0
 10
207.5903606468389
 20
70.0
 10
207.5903606468389
 20
70.0
  0
LWPOLYLINE
  5
56
330
17
100
AcDbEntity
  8
0
100
AcDbPolyline
 90
2
 70
0
 43
0.0
 10
207.5903606468389
 20
30.0
 10
300.0
 20
30.0
  0
LWPOLYLINE
  5
57
330
17
100
AcDbEntity
  8
0
100
AcDbPolyline
 90
2
 70
0
 43
0.0
 10
207.5903606468389
 20
70.0
 10
300.0
 20
70.0
  0
LWPOLYLINE
  5
58
330
17
100
AcDbEntity
  8
0
100
AcDbPolyline
 90
2
 70
0
 43
0.0
 10
-10.0
 20
30.0
 10
-10.0
 20
0.0
  0
LWPOLYLINE
  5
59
330
17
100
AcDbEntity
  8
0
100
AcDbPolyline
 90
2
 70
0
 43
0.0
 10
10.0
 20
30.0
 10
10.0
 20
0.0
  0
LWPOLYLINE
  5
5A
330
17
100
AcDbEntity
  8
0
100
AcDbPolyline
 90
2
 70
0
 43
0.0
 10
20.0
 20
30.0
 10
20.0
 20
0.0
  0
LWPOLYLINE
  5
5B
330
17
100
AcDbEntity
  8
0
100
AcDbPolyline
 90
2
 70
0
 43
0.0
 10
40.0
 20
30.0
 10
40.0
 20
0.0
  0
LWPOLYLINE
  5
5C
330
17
100
AcDbEntity
  8
0
100
AcDbPolyline
 90
2
 70
0
 43
0.0
 10
190.0
 20
30.0
 10
190.0
 20
0.0
  0
LWPOLYLINE
  5
5D
330
17
100
AcDbEntity
  8
0
100
AcDbPolyline
 90
2
 70
0
 43
0.0
 10
210.0
 20
30.0
 10
210.0
 20
0.0
  0
LWPOLYLINE
  5
5E
330
17
100
AcDbEntity
  8
0
100
AcDbPolyline
 90
2
 70
0
 43
0.0
 10
290.0
 20
30.0
 10
290.0
 20
0.0
  0
LWPOLYLINE
  5
5F
330
17
100
AcDbEntity
  8
0
100
AcDbPolyline
 90
2
 70
0
 43
0.0
 10
310.0
 20
30.0
 10
310.0
 20
0.0
  0
LWPOLYLINE
  5
60
330
17
100
AcDbEntity
  8
0
100
AcDbPolyline
 90
5
 70
0
 43
0.0
 10
0.0
 20
30.0
 10
1.0
 20
30.0
 10
1.0
 20
31.0
 10
0.0
 20
31.0
 10
0.0
 20
30.0
  0
LWPOLYLINE
  5
61
330
17
100
AcDbEntity
  8
0
100
AcDbPolyline
 90
2
 70
0
 43
0.0
 10
0.0
 20
170.0
 10
0.0
 20
170.0
  0
LWPOLYLINE
  5
62
330
17
100
AcDbEntity
  8
0
100
AcDbPolyline
 90
2
 70
0
 43
0.0
 10
-33.07924102380673
 20
160.0
 10
114.99533187807813
 20
160.0
  0
LWPOLYLINE
  5
63
330
17
100
AcDbEntity
  8
0
100
AcDbPolyline
 90
2
 70
0
 43
0.0
 10
100.12100289579128
 20
160.0
 10
328.07924102380673
 20
160.0
  0
LWPOLYLINE
  5
64
330
17
100
AcDbEntity
  8
0
100
AcDbPolyline
 90
5
 70
0
 43
0.0
 10
0.0
 20
170.0
 10
1.0
 20
170.0
 10
1.0
 20
171.0
 10
0.0
 20
171.0
 10
0.0
 20
170.0
  0
LWPOLYLINE
  5
65
330
17
100
AcDbEntity
  8
0
100
AcDbPolyline
 90
2
 70
0
 43
0.0
 10
0.0
 20
587.1441157233919
 10
0.0
 20
587.1441157233919
  0
LWPOLYLINE
  5
66
330
17
100
AcDbEntity
  8
0
100
AcDbPolyline
 90
295
 70
0
 43
0.0
 10
27.672622763819092
 20
588.4153764391108
 10
28.181663869346757
 20
590.7223149095863
 10
28.64322417085428
 20
592.7385773011887
 10
29.18016035175879
 20
595.0841088053332
 10
29.68920145728645
 20
597.3077845276665
 10
30.150761758793976
 20
599.2485505031257
 10
30.687697939698488
 20
601.5062565222286
 10
31.196739045226145
 20
603.6466694964196
 10
31.658299346733674
 20
605.5119390557356
 10
32.19523552763819
 20
607.681819589797
 10
32.704276633165854
 20
609.7389698158457
 10
33.16583693467338
 20
611.5287429590187
 10
33.70277311557789
 20
613.6107980080383
 10
34.21181422110555
 20
615.5846854859448
 10
34.673374522613074
 20
617.2989622129745
 10
35.21031070351759
 20
619.2931917769524
 10
35.71935180904524
 20
621.1838165067168
 10
36.180912110552775
 20
622.8225968176034
 10
36.71784829145729
 20
624.7290008965397
 10
37.22688939698495
 20
626.5363628781618
 10
37.68844969849248
 20
628.0996467729053
 10
38.22538587939699
 20
629.9182253667999
 10
38.734426984924646
 20
631.6423246002797
 10
39.19598728643217
 20
633.1301120788801
 10
39.73292346733669
 20
634.8608651877329
 10
40.24196457286434
 20
636.5017016730704
 10
40.70352487437187
 20
637.9139927355277
 10
41.240461055276384
 20
639.556920359339
 10
41.74950216080405
 20
641.1144940965344
 10
42.211062462311574
 20
642.4512887428485
 10
42.74799864321608
 20
644.0063908816182
 10
43.25703974874374
 20
645.4807018706714
 10
43.71860005025127
 20
646.7420001008423
 10
44.25553623115579
 20
648.2092767545703
 10
44.76457733668344
 20
649.6003249954812
 10
45.22613763819097
 20
650.7861268095089
 10
45.76307381909548
 20
652.1655779781952
 10
46.272114924623146
 20
653.4733634709637
 10
46.733675226130664
 20
654.5836688688485
 10
47.270611407035176
 20
655.8752945524932
 10
47.77965251256284
 20
657.0998172971197
 10
48.241212814070366
 20
658.1346262788611
 10
48.77814899497488
 20
659.338426477464
 10
49.287190100502535
 20
660.479686473948
 10
49.74875040201007
 20
661.4389990395466
 10
50.28568658291458
 20
662.5549737531079
 10
50.79472768844223
 20
663.6129710014498
 10
51.25628798994976
 20
664.4967871509051
 10
51.79322417085427
 20
665.5249363794248
 10
52.30226527638194
 20
666.4996708796245
 10
52.76382557788946
 20
667.3079906129367
 10
53.80980286432163
 20
669.139786108472
 10
54.27136316582916
 20
669.872609425641
 10
55.31734045226133
 20
671.5333166879924
 10
55.77890075376886
 20
672.1906435890184
 10
56.824878040201035
 20
673.680262618186
 10
57.28643834170856
 20
674.2620931030688
 10
58.33241562814073
 20
675.5806238990524
 10
58.793975929648255
 20
676.086957967792
 10
59.839953216080424
 20
677.2344005305916
 10
60.301513517587956
 20
677.6652381831882
 10
61.34749080402013
 20
678.6415925128041
 10
61.80905110552766
 20
678.9969337492576
 10
62.85502839195983
 20
679.8021998456895
 10
63.31658869346735
 20
680.0820446659998
 10
64.36256597989953
 20
680.7162225292478
 10
64.82412628140705
 20
680.9205709334149
 10
65.87010356783924
 20
681.3836605634789
 10
66.33166386934676
 20
681.5125125515029
 10
67.37764115577892
 20
681.8045139483833
 10
67.83920145728645
 20
681.857869520264
 10
68.30076175879398
 20
681.9112250921447
 10
68.88517874371863
 20
681.9787826839603
 10
69.34673904522614
 20
681.9787826839603
 10
69.80829934673368
 20
681.9787826839603
 10
70.3927163316583
 20
681.9787826839603
 10
70.85427663316585
 20
681.9787826839603
 10
71.31583693467337
 20
681.9787826839603
 10
71.90025391959801
 20
681.9787826839603
 10
72.36181422110555
 20
681.9787826839603
 10
72.82337452261308
 20
681.9787826839603
 10
73.40779150753772
 20
681.9787826839603
 10
73.86935180904524
 20
681.9787826839603
 10
74.33091211055277
 20
681.9787826839603
 10
74.9153290954774
 20
681.9787826839603
 10
75.37688939698495
 20
681.9787826839603
 10
75.83844969849247
 20
681.9787826839603
 10
76.42286668341711
 20
681.9787826839603
 10
76.88442698492464
 20
681.9787826839603
 10
77.34598728643218
 20
681.9787826839603
 10
77.93040427135682
 20
681.9787826839603
 10
78.39196457286434
 20
681.9787826839603
 10
78.85352487437187
 20
681.9787826839603
 10
79.4379418592965
 20
681.9787826839603
 10
79.89950216080405
 20
681.9787826839603
 10
80.36106246231157
 20
681.9787826839603
 10
80.94547944723621
 20
681.9787826839603
 10
81.40703974874374
 20
681.9787826839603
 10
81.86860005025127
 20
681.9787826839603
 10
82.45301703517592
 20
681.9787826839603
 10
82.91457733668344
 20
681.9787826839603
 10
83.37613763819097
 20
681.9787826839603
 10
83.9605546231156
 20
681.9787826839603
 10
84.42211492462314
 20
681.9787826839603
 10
84.88367522613066
 20
681.9787826839603
 10
85.4680922110553
 20
681.9787826839603
 10
85.92965251256284
 20
681.9787826839603
 10
86.39121281407037
 20
681.9787826839603
 10
86.97562979899502
 20
681.9787826839603
 10
87.43719010050253
 20
681.9787826839603
 10
87.89875040201007
 20
681.9787826839603
 10
88.4831673869347
 20
681.9787826839603
 10
88.94472768844223
 20
681.9787826839603
 10
89.40628798994976
 20
681.9787826839603
 10
89.9907049748744
 20
681.9787826839603
 10
90.45226527638194
 20
681.9787826839603
 10
90.91382557788947
 20
681.9787826839603
 10
91.49824256281408
 20
681.9787826839603
 10
91.95980286432163
 20
681.9787826839603
 10
92.42136316582915
 20
681.9787826839603
 10
93.0057801507538
 20
681.9787826839603
 10
93.46734045226133
 20
681.9787826839603
 10
93.92890075376886
 20
681.9787826839603
 10
94.5133177386935
 20
681.9787826839603
 10
94.97487804020103
 20
681.9787826839603
 10
95.43643834170857
 20
681.9787826839603
 10
96.02085532663318
 20
681.9787826839603
 10
96.48241562814073
 20
681.9787826839603
 10
96.94397592964825
 20
681.9787826839603
 10
97.52839291457289
 20
681.9787826839603
 10
97.98995321608042
 20
681.9787826839603
 10
98.45151351758795
 20
681.9787826839603
 10
99.0359305025126
 20
681.9787826839603
 10
99.49749080402013
 20
681.9787826839603
 10
99.95905110552766
 20
681.9787826839603
 10
100.54346809045228
 20
681.9787826839603
 10
101.00502839195983
 20
681.9787826839603
 10
101.46658869346734
 20
681.9787826839603
 10
102.05100567839199
 20
681.9787826839603
 10
102.51256597989952
 20
681.9787826839603
 10
102.97412628140705
 20
681.9787826839603
 10
103.5585432663317
 20
681.9787826839603
 10
104.02010356783923
 20
681.9787826839603
 10
104.48166386934676
 20
681.9787826839603
 10
105.06608085427138
 20
681.9787826839603
 10
105.52764115577892
 20
681.9787826839603
 10
105.98920145728644
 20
681.9787826839603
 10
106.57361844221109
 20
681.9787826839603
 10
107.03517874371862
 20
681.9787826839603
 10
107.49673904522615
 20
681.9787826839603
 10
108.0811560301508
 20
681.9787826839603
 10
108.54271633165831
 20
681.9787826839603
 10
109.00427663316586
 20
681.9787826839603
 10
109.58869361809047
 20
681.9787826839603
 10
110.05025391959802
 20
681.9787826839603
 10
110.51181422110554
 20
681.9787826839603
 10
111.09623120603018
 20
681.9787826839603
 10
111.55779150753771
 20
681.9787826839603
 10
112.01935180904525
 20
681.9787826839603
 10
112.60376879396989
 20
681.9787826839603
 10
113.06532909547741
 20
681.9787826839603
 10
113.52688939698496
 20
681.9787826839603
 10
114.11130638190957
 20
681.9787826839603
 10
114.57286668341712
 20
681.9787826839603
 10
115.03442698492464
 20
681.9787826839603
 10
115.61884396984928
 20
681.9787826839603
 10
116.08040427135681
 20
681.9787826839603
 10
116.54196457286434
 20
681.9787826839603
 10
117.12638155778899
 20
681.9787826839603
 10
117.5879418592965
 20
681.9787826839603
 10
118.04950216080405
 20
681.9787826839603
 10
118.63391914572867
 20
681.9787826839603
 10
119.09547944723622
 20
681.9787826839603
 10
119.55703974874373
 20
681.9787826839603
 10
120.14145673366838
 20
681.9787826839603
 10
120.60301703517591
 20
681.9787826839603
 10
121.06457733668344
 20
681.9787826839603
 10
121.64899432160809
 20
681.9787826839603
 10
122.1105546231156
 20
681.9787826839603
 10
122.57211492462315
 20
681.9787826839603
 10
123.15653190954777
 20
681.9787826839603
 10
123.61809221105531
 20
681.9787826839603
 10
124.07965251256283
 20
681.9787826839603
 10
124.66406949748747
 20
681.9787826839603
 10
125.125629798995
 20
681.9787826839603
 10
125.58719010050254
 20
681.9787826839603
 10
126.17160708542718
 20
681.9787826839603
 10
126.6331673869347
 20
681.9787826839603
 10
127.09472768844222
 20
681.9787826839603
 10
127.67914467336686
 20
681.9787826839603
 10
128.1407049748744
 20
681.9787826839603
 10
128.60226527638193
 20
681.9787826839603
 10
129.18668226130657
 20
681.9787826839603
 10
129.6482425628141
 20
681.9787826839603
 10
130.10980286432164
 20
681.9787826839603
 10
130.69421984924628
 20
681.9787826839603
 10
131.1557801507538
 20
681.9787826839603
 10
131.61734045226132
 20
681.9787826839603
 10
132.20175743718596
 20
681.9787826839603
 10
132.6633177386935
 20
681.9787826839603
 10
133.12487804020103
 20
681.9787826839603
 10
133.70929502512567
 20
681.9787826839603
 10
134.1708553266332
 20
681.9787826839603
 10
134.63241562814073
 20
681.9787826839603
 10
135.21683261306535
 20
681.9787826839603
 10
135.6783929145729
 20
681.9787826839603
 10
136.13995321608041
 20
681.9787826839603
 10
136.72437020100506
 20
681.9787826839603
 10
137.1859305025126
 20
681.9787826839603
 10
137.64749080402012
 20
681.9787826839603
 10
138.23190778894477
 20
681.9787826839603
 10
138.69346809045228
 20
681.9787826839603
 10
139.15502839195983
 20
681.9787826839603
 10
139.73944537688445
 20
681.9787826839603
 10
140.201005678392
 20
681.9787826839603
 10
140.6625659798995
 20
681.9787826839603
 10
141.24698296482416
 20
681.9787826839603
 10
141.7085432663317
 20
681.9787826839603
 10
142.17010356783922
 20
681.9787826839603
 10
142.75452055276386
 20
681.9787826839603
 10
143.21608085427138
 20
681.9787826839603
 10
143.67764115577893
 20
681.9787826839603
 10
144.26205814070354
 20
681.9787826839603
 10
144.7236184422111
 20
681.9787826839603
 10
145.1851787437186
 20
681.9787826839603
 10
145.76959572864325
 20
681.9507484587351
 10
146.2311560301508
 20
681.9286076144729
 10
146.69271633165832
 20
681.9064667702106
 10
147.27713331658296
 20
681.7828407279446
 10
147.73869361809048
 20
681.6852034675392
 10
148.20025391959803
 20
681.5875662071336
 10
148.78467090452264
 20
681.3683483478269
 10
149.2462312060302
 20
681.1952146712783
 10
149.7077915075377
 20
681.0220809947298
 10
150.29220849246235
 20
680.7072713183823
 10
150.7537687939699
 20
680.4586412256905
 10
151.21532909547741
 20
680.2100111329987
 10
151.79974608040206
 20
679.7996096396106
 10
152.26130638190958
 20
679.4754831307757
 10
152.72286668341712
 20
679.1513566219409
 10
153.30728366834174
 20
678.6453633115117
 10
153.76884396984929
 20
678.2457403865335
 10
154.2304042713568
 20
677.8461174615553
 10
154.81482125628145
 20
677.2445323340856
 10
155.276381557789
 20
676.7694129929645
 10
155.7379418592965
 20
676.2942936518434
 10
156.32235884422116
 20
675.5971167073328
 10
156.78391914572867
 20
675.0465009500685
 10
157.24547944723622
 20
674.4958851928043
 10
157.82989643216084
 20
673.703116431253
 10
158.29145673366838
 20
673.0770042578455
 10
158.7530170351759
 20
672.4508920844381
 10
159.33743402010055
 20
671.562531505846
 10
159.7989943216081
 20
670.8609229162953
 10
160.2605546231156
 20
670.1593143267447
 10
160.84497160804025
 20
669.175361931112
 10
161.30653190954777
 20
668.3982569254184
 10
161.76809221105532
 20
667.6211519197248
 10
162.81406949748748
 20
665.6890062852142
 10
163.275629798995
 20
664.8364048633773
 10
164.3216070854272
 20
662.733170995683
 10
164.7831673869347
 20
661.8050731577032
 10
165.82914467336687
 20
659.5307510568248
 10
166.29070497487442
 20
658.5271568027016
 10
167.33668226130658
 20
656.0817464686396
 10
167.7982425628141
 20
655.0026557983734
 10
168.8442198492463
 20
652.3861572311273
 10
169.3057801507538
 20
651.231570144718
 10
170.35175743718597
 20
648.443983344288
 10
170.8133177386935
 20
647.2138998417354
 10
171.85929502512568
 20
644.2552248081214
 10
172.3208553266332
 20
642.9496448894258
 10
173.36683261306536
 20
639.8198816226279
 10
173.8283929145729
 20
638.438805287789
 10
174.87437020100506
 20
635.1379537878075
 10
175.3359305025126
 20
633.6813810368257
 10
176.38190778894477
 20
630.20944130366
 10
176.8434680904523
 20
628.677372136535
 10
177.88944537688445
 20
625.0343441701855
 10
178.351005678392
 20
623.4267785869172
 10
179.39698296482416
 20
619.6126623873841
 10
179.8585432663317
 20
617.9296003879729
 10
180.90452055276387
 20
613.9443959552553
 10
181.3660808542714
 20
612.1858375397009
 10
182.35250919597993
 20
608.2661684080077
 10
182.41205814070355
 20
608.0295448737998
 10
182.8736184422111
 20
606.195490042102
 10
183.86004678391964
 20
602.1144729687906
 10
183.91959572864326
 20
601.868109143017
 10
184.3811560301508
 20
599.9585578951762
 10
185.36758437185935
 20
595.7161928802462
 10
185.42713331658297
 20
595.4600887629072
 10
185.88869361809049
 20
593.4750410989233
 10
186.87512195979903
 20
589.071328142375
 10
186.93467090452265
 20
588.8054837334705
  0
LWPOLYLINE
  5
67
330
17
100
AcDbEntity
  8
0
100
AcDbPolyline
 90
586
 70
0
 43
0.0
 10
-23.149989999999995
 20
587.1440522775722
 10
-21.642452412060297
 20
577.4799265302411
 10
-20.134914824120596
 20
567.6169421947429
 10
-18.627377236180898
 20
557.5550992710779
 10
-17.1198396482412
 20
547.2943977592458
 10
-15.612302060301502
 20
536.8348376592468
 10
-14.104764472361806
 20
526.1764189710808
 10
-12.597226884422106
 20
515.3191416947478
 10
-11.089689296482408
 20
504.26300583024783
 10
-9.58215170854271
 20
493.00801137758094
 10
-8.07461412060301
 20
481.5541583367471
 10
-7.999238241206022
 20
480.9715304849296
 10
-6.567076532663311
 20
469.90144670774623
 10
-6.491700653266324
 20
469.30887605843
 10
-5.059538944723613
 20
458.04987649057847
 10
-4.984163065326619
 20
457.4473630437633
 10
-3.552001356783915
 20
445.9994476852437
 10
-3.476625477386925
 20
445.38699144092976
 10
-2.0444637688442135
 20
433.75016029174196
 10
-1.9690878894472235
 20
433.1277612499292
 10
-0.5369261809045156
 20
421.30201431007333
 10
-0.46155030150752197
 20
420.6696724707617
 10
1e-05
 20
416.79755990181536
 10
0.9706114070351823
 20
408.65500974023763
 10
1.0459872864321724
 20
408.0127251034272
 10
1.507547587939699
 20
404.0797283279138
 10
2.4781489949748803
 20
395.809146582235
 10
2.553524874371874
 20
395.15691914792575
 10
3.0150851758793977
 20
391.16303816584536
 10
3.9856865829145782
 20
382.7644248360654
 10
4.061062462311575
 20
382.1022546042574
 10
4.522622763819096
 20
378.0474894156099
 10
5.49322417085428
 20
378.0474894156099
 10
5.56860005025127
 20
378.0474894156099
 10
6.030160351758795
 20
378.0474894156099
 10
7.076137638190971
 20
378.0474894156099
 10
7.537697939698494
 20
378.0474894156099
 10
8.583675226130666
 20
378.0474894156099
 10
9.045235527638193
 20
378.0474894156099
 10
10.091212814070367
 20
378.0474894156099
 10
10.552773115577892
 20
378.0474894156099
 10
11.598750402010069
 20
378.0474894156099
 10
12.06031070351759
 20
378.0474894156099
 10
13.106287989949763
 20
378.0474894156099
 10
13.567848291457288
 20
378.0474894156099
 10
14.613825577889465
 20
378.0474894156099
 10
15.075385879396988
 20
378.0474894156099
 10
16.12136316582916
 20
378.0474894156099
 10
16.582923467336688
 20
378.0474894156099
 10
17.62890075376886
 20
378.0474894156099
 10
18.090461055276386
 20
378.0474894156099
 10
19.136438341708562
 20
378.0474894156099
 10
19.597998643216084
 20
378.0474894156099
 10
20.643975929648256
 20
378.0474894156099
 10
21.105536231155785
 20
378.0474894156099
 10
22.151513517587958
 20
378.0474894156099
 10
22.613073819095483
 20
378.0474894156099
 10
23.150009999999995
 20
378.0474894156099
 10
23.65905110552766
 20
378.0474894156099
 10
24.12061140703518
 20
378.0474894156099
 10
24.657547587939693
 20
378.0474894156099
 10
25.166588693467354
 20
378.0474894156099
 10
25.62814899497488
 20
378.0474894156099
 10
26.165085175879394
 20
378.0474894156099
 10
26.674126281407048
 20
378.0474894156099
 10
27.135686582914577
 20
378.0474894156099
 10
27.672622763819092
 20
378.0474894156099
 10
28.181663869346757
 20
378.0474894156099
 10
28.64322417085428
 20
378.0474894156099
 10
29.18016035175879
 20
378.0474894156099
 10
29.68920145728645
 20
378.0474894156099
 10
30.150761758793976
 20
378.0474894156099
 10
30.687697939698488
 20
378.0474894156099
 10
31.196739045226145
 20
378.0474894156099
 10
31.658299346733674
 20
378.0474894156099
 10
32.19523552763819
 20
378.0474894156099
 10
32.704276633165854
 20
378.0474894156099
 10
33.16583693467338
 20
378.0474894156099
 10
33.70277311557789
 20
378.0474894156099
 10
34.21181422110555
 20
378.0474894156099
 10
34.673374522613074
 20
378.0474894156099
 10
35.21031070351759
 20
378.0474894156099
 10
35.71935180904524
 20
378.0474894156099
 10
36.180912110552775
 20
378.0474894156099
 10
36.71784829145729
 20
378.0474894156099
 10
37.22688939698495
 20
378.0474894156099
 10
37.68844969849248
 20
378.0474894156099
 10
38.22538587939699
 20
378.0474894156099
 10
38.734426984924646
 20
378.0474894156099
 10
39.19598728643217
 20
378.0474894156099
 10
39.73292346733669
 20
378.0474894156099
 10
40.24196457286434
 20
378.0474894156099
 10
40.70352487437187
 20
378.0474894156099
 10
41.240461055276384
 20
378.0474894156099
 10
41.74950216080405
 20
378.0474894156099
 10
42.211062462311574
 20
378.0474894156099
 10
42.74799864321608
 20
378.0474894156099
 10
43.25703974874374
 20
378.0474894156099
 10
43.71860005025127
 20
378.0474894156099
 10
44.25553623115579
 20
378.0474894156099
 10
44.76457733668344
 20
378.0474894156099
 10
45.22613763819097
 20
378.0474894156099
 10
45.76307381909548
 20
378.0474894156099
 10
46.272114924623146
 20
378.0474894156099
 10
46.733675226130664
 20
378.0474894156099
 10
47.270611407035176
 20
378.0474894156099
 10
47.77965251256284
 20
378.0474894156099
 10
48.241212814070366
 20
378.0474894156099
 10
48.77814899497488
 20
378.0474894156099
 10
49.287190100502535
 20
378.0474894156099
 10
49.74875040201007
 20
378.0474894156099
 10
50.28568658291458
 20
378.0474894156099
 10
50.79472768844223
 20
378.0474894156099
 10
51.25628798994976
 20
378.0474894156099
 10
51.79322417085427
 20
378.0474894156099
 10
52.30226527638194
 20
378.0474894156099
 10
52.76382557788946
 20
378.0474894156099
 10
53.80980286432163
 20
378.0474894156099
 10
54.27136316582916
 20
378.0474894156099
 10
55.31734045226133
 20
378.0474894156099
 10
55.77890075376886
 20
378.0474894156099
 10
56.824878040201035
 20
378.0474894156099
 10
57.28643834170856
 20
378.0474894156099
 10
58.33241562814073
 20
378.0474894156099
 10
58.793975929648255
 20
378.0474894156099
 10
59.839953216080424
 20
378.0474894156099
 10
60.301513517587956
 20
378.0474894156099
 10
61.34749080402013
 20
378.0474894156099
 10
61.80905110552766
 20
378.0474894156099
 10
62.85502839195983
 20
378.0474894156099
 10
63.31658869346735
 20
378.0474894156099
 10
64.36256597989953
 20
378.0474894156099
 10
64.82412628140705
 20
378.0474894156099
 10
65.87010356783924
 20
378.0474894156099
 10
66.33166386934676
 20
378.0474894156099
 10
67.37764115577892
 20
378.0474894156099
 10
67.83920145728645
 20
378.0474894156099
 10
68.30076175879398
 20
358.69564927755073
 10
68.88517874371863
 20
363.54279772140455
 10
69.34673904522614
 20
367.37097410044214
 10
69.80829934673368
 20
371.1991504794798
 10
70.3927163316583
 20
375.9507071062928
 10
70.85427663316585
 20
379.70338706918744
 10
71.31583693467337
 20
383.45606703208193
 10
71.90025391959801
 20
388.1120318418542
 10
72.36181422110555
 20
391.78921538860556
 10
72.82337452261308
 20
395.4663989353569
 10
73.40779150753772
 20
400.02677192808846
 10
73.86935180904524
 20
403.6284590586966
 10
74.33091211055277
 20
407.23014618930483
 10
74.9153290954774
 20
411.6949273649955
 10
75.37688939698495
 20
415.2211180794608
 10
75.83844969849247
 20
418.74730879392575
 10
76.42286668341711
 20
423.1164981525758
 10
76.88442698492464
 20
426.5671924508977
 10
77.34598728643218
 20
430.01788674921966
 10
77.93040427135682
 20
434.291484290829
 10
78.39196457286434
 20
437.66668217300776
 10
78.85352487437187
 20
441.0418800551866
 10
79.4379418592965
 20
445.21988577975503
 10
79.89950216080405
 20
448.51958724579083
 10
80.36106246231157
 20
451.8192887118264
 10
80.94547944723621
 20
455.90170261935407
 10
81.40703974874374
 20
459.12590766924666
 10
81.86860005025127
 20
462.3501127191392
 10
82.45301703517592
 20
466.33693480962614
 10
82.91457733668344
 20
469.4856434433755
 10
83.37613763819097
 20
472.63435207712496
 10
83.9605546231156
 20
476.525582350571
 10
84.42211492462314
 20
479.5987945681774
 10
84.88367522613066
 20
482.67200678578365
 10
85.4680922110553
 20
486.467645242189
 10
85.92965251256284
 20
489.4653610436522
 10
86.39121281407037
 20
492.4630768451153
 10
86.97562979899502
 20
496.16312348447997
 10
87.43719010050253
 20
499.0853428697999
 10
87.89875040201007
 20
502.0075622551199
 10
88.4831673869347
 20
505.61201707744374
 10
88.94472768844223
 20
508.4587400466206
 10
89.40628798994976
 20
511.3054630157975
 10
89.9907049748744
 20
514.8143260210807
 10
90.45226527638194
 20
517.5855525741143
 10
90.91382557788947
 20
520.3567791271481
 10
91.49824256281408
 20
523.7700503153903
 10
91.95980286432163
 20
526.465780452281
 10
92.42136316582915
 20
529.1615105891715
 10
93.0057801507538
 20
532.4791899603731
 10
93.46734045226133
 20
535.0994236811206
 10
93.92890075376886
 20
537.7196574018681
 10
94.5133177386935
 20
540.9417449560289
 10
94.97487804020103
 20
543.4864822606332
 10
95.43643834170857
 20
546.0312195652375
 10
96.02085532663318
 20
549.1577153023574
 10
96.48241562814073
 20
551.6269561908186
 10
96.94397592964825
 20
554.0961970792798
 10
97.52839291457289
 20
557.1271009993592
 10
97.98995321608042
 20
559.5208454716773
 10
98.45151351758795
 20
561.9145899439953
 10
99.0359305025126
 20
564.8499020470339
 10
99.49749080402013
 20
567.1681501032087
 10
99.95905110552766
 20
569.4863981593837
 10
100.54346809045228
 20
572.3261184453813
 10
101.00502839195983
 20
574.5688700854132
 10
101.46658869346734
 20
576.8116217254449
 10
102.05100567839199
 20
579.5557501944018
 10
102.51256597989952
 20
581.7230054182904
 10
102.97412628140705
 20
583.890260642179
 10
103.5585432663317
 20
586.5387972940953
 10
111.09623120603018
 20
586.7449396533434
 10
111.55779150753771
 20
584.6088991570732
 10
112.01935180904525
 20
582.472858660803
 10
112.60376879396989
 20
579.7682535584363
 10
113.06532909547741
 20
577.5567166460231
 10
113.52688939698496
 20
575.3451797336098
 10
114.11130638190957
 20
572.5449828142026
 10
114.57286668341712
 20
570.257949485646
 10
115.03442698492464
 20
567.9709161570896
 10
115.61884396984928
 20
565.0751274206414
 10
116.08040427135681
 20
562.7125976759418
 10
116.54196457286434
 20
560.3500679312422
 10
117.12638155778899
 20
557.3586873777532
 10
117.5879418592965
 20
554.9206612169106
 10
118.04950216080405
 20
552.4826350560679
 10
118.63391914572867
 20
549.3956626855385
 10
119.09547944723622
 20
546.8821401085526
 10
119.55703974874373
 20
544.3686175315668
 10
120.14145673366838
 20
541.1860533439963
 10
120.60301703517591
 20
538.5970343508673
 10
121.06457733668344
 20
536.0080153577383
 10
121.64899432160809
 20
532.729859353127
 10
122.1105546231156
 20
530.0653439438549
 10
122.57211492462315
 20
527.4008285345828
 10
123.15653190954777
 20
524.0270807129309
 10
123.61809221105531
 20
521.2870688875155
 10
124.07965251256283
 20
518.5470570621002
 10
124.66406949748747
 20
515.0777174234073
 10
125.125629798995
 20
512.262209181849
 10
125.58719010050254
 20
509.4467009402908
 10
126.17160708542718
 20
505.8817694845574
 10
126.6331673869347
 20
502.990764826856
 10
127.09472768844222
 20
500.0997601691546
 10
127.67914467336686
 20
496.4392368963803
 10
128.1407049748744
 20
493.47273582253536
 10
128.60226527638193
 20
490.50623474869064
 10
129.18668226130657
 20
486.75011965887535
 10
129.6482425628141
 20
483.7081221688877
 10
130.10980286432164
 20
480.66612467889985
 10
130.69421984924628
 20
476.81441777204407
 10
131.1557801507538
 20
473.6969238659133
 10
131.61734045226132
 20
470.5794299597825
 10
132.20175743718596
 20
466.63213123588594
 10
132.6633177386935
 20
463.4391409136118
 10
133.12487804020103
 20
460.2461505913378
 10
133.70929502512567
 20
456.20326005040056
 10
134.1708553266332
 20
452.93477331198335
 10
134.63241562814073
 20
449.66628657356597
 10
135.21683261306535
 20
445.52780421558793
 10
135.6783929145729
 20
442.1838210610274
 10
136.13995321608041
 20
438.8398379064671
 10
136.72437020100506
 20
434.6057637314482
 10
137.1859305025126
 20
431.18628416074455
 10
137.64749080402012
 20
427.7668045900411
 10
138.23190778894477
 20
423.4371385979814
 10
138.69346809045228
 20
419.942162611135
 10
139.15502839195983
 20
416.4471866242884
 10
139.73944537688445
 20
412.0219288151884
 10
140.201005678392
 20
408.45145641219835
 10
140.6625659798995
 20
404.88098400920853
 10
141.24698296482416
 20
400.36013438306725
 10
141.7085432663317
 20
396.7141655639342
 10
142.17010356783922
 20
393.0681967448014
 10
142.75452055276386
 20
388.45175530161947
 10
143.21608085427138
 20
384.7302900663435
 10
143.67764115577893
 20
381.0088248310673
 10
144.26205814070354
 20
376.2967915708448
 10
144.7236184422111
 20
372.49982991942557
 10
145.1851787437186
 20
368.70286826800657
 10
145.76959572864325
 20
363.89524319074326
 10
146.2311560301508
 20
360.0227851231808
 10
146.69271633165832
 20
356.1503270556186
 10
147.27713331658296
 20
351.2471101613144
 10
147.73869361809048
 20
347.29915567760895
 10
148.20025391959803
 20
343.3512011939033
 10
148.78467090452264
 20
338.3523924825584
 10
149.2462312060302
 20
334.3289415827097
 10
149.7077915075377
 20
330.3054906828612
 10
150.29220849246235
 20
325.21109015447547
 10
150.7537687939699
 20
321.1121428384836
 10
151.21532909547741
 20
317.0131955224919
 10
151.79974608040206
 20
311.82320317706535
 10
152.26130638190958
 20
307.6487594449306
 10
152.72286668341712
 20
303.4743157127956
 10
153.30728366834174
 20
298.1887315503286
 10
153.76884396984929
 20
293.93879140205036
 10
154.2304042713568
 20
289.68885125377244
 10
154.81482125628145
 20
284.3076752742643
 10
155.276381557789
 20
279.98223870984316
 10
155.7379418592965
 20
275.6568021454223
 10
156.32235884422116
 20
270.18003434887373
 10
156.78391914572867
 20
265.7791013683095
 10
157.24547944723622
 20
261.37816838774506
 10
157.82989643216084
 20
255.80580877415565
 10
158.29145673366838
 20
251.32937937744816
 10
158.7530170351759
 20
246.85294998074096
 10
159.33743402010055
 20
241.18499855011066
 10
159.7989943216081
 20
236.63307273725985
 10
160.2605546231156
 20
232.08114692440932
 10
160.84497160804025
 20
226.31760367673814
 10
161.30653190954777
 20
226.18202539187325
 10
161.76809221105532
 20
226.0464471070083
 10
162.81406949748748
 20
225.73920273170359
 10
163.275629798995
 20
225.60362444683875
 10
164.3216070854272
 20
225.29638007153403
 10
164.7831673869347
 20
225.16080178666908
 10
165.82914467336687
 20
224.85355741136448
 10
166.29070497487442
 20
224.71797912649953
 10
167.33668226130658
 20
224.4107347511948
 10
167.7982425628141
 20
224.27515646632997
 10
168.8442198492463
 20
223.96791209102525
 10
169.3057801507538
 20
223.83233380616042
 10
170.35175743718597
 20
223.5250894308557
 10
170.8133177386935
 20
223.38951114599075
 10
171.85929502512568
 20
223.08226677068603
 10
172.3208553266332
 20
222.9466884858212
 10
173.36683261306536
 20
222.63944411051648
 10
173.8283929145729
 20
222.50386582565164
 10
174.87437020100506
 20
222.19662145034692
 10
175.3359305025126
 20
222.06104316548198
 10
176.38190778894477
 20
221.75379879017737
 10
176.8434680904523
 20
221.61822050531242
 10
177.88944537688445
 20
221.3109761300077
 10
178.351005678392
 20
221.17539784514287
 10
179.39698296482416
 20
220.86815346983815
 10
179.8585432663317
 20
220.7325751849732
 10
180.90452055276387
 20
220.4253308096686
 10
181.3660808542714
 20
220.28975252480365
 10
182.35250919597993
 20
219.99999999999994
 10
182.41205814070355
 20
219.99999999999994
 10
182.8736184422111
 20
219.99999999999994
 10
183.86004678391964
 20
219.99999999999994
 10
183.91959572864326
 20
219.99999999999994
 10
184.3811560301508
 20
219.99999999999994
 10
185.36758437185935
 20
219.99999999999994
 10
185.42713331658297
 20
219.99999999999994
 10
185.88869361809049
 20
219.99999999999994
 10
186.87512195979903
 20
219.99999999999994
 10
186.93467090452265
 20
219.99999999999994
 10
187.3962312060302
 20
219.99999999999994
 10
188.38265954773874
 20
219.99999999999994
 10
188.44220849246236
 20
219.99999999999994
 10
188.9037687939699
 20
219.99999999999994
 10
189.89019713567845
 20
219.99999999999994
 10
189.94974608040206
 20
219.99999999999994
 10
190.41130638190958
 20
219.99999999999994
 10
191.39773472361813
 20
219.99999999999994
 10
191.45728366834174
 20
219.99999999999994
 10
191.9188439698493
 20
219.99999999999994
 10
192.90527231155784
 20
219.99999999999994
 10
192.96482125628145
 20
219.99999999999994
 10
193.426381557789
 20
219.99999999999994
 10
194.41280989949755
 20
219.99999999999994
 10
194.47235884422116
 20
219.99999999999994
 10
194.93391914572868
 20
219.99999999999994
 10
195.92034748743723
 20
219.99999999999994
 10
195.97989643216084
 20
219.99999999999994
 10
196.4414567336684
 20
219.99999999999994
 10
197.42788507537693
 20
219.99999999999994
 10
197.48743402010055
 20
219.99999999999994
 10
197.9489943216081
 20
219.99999999999994
 10
198.93542266331661
 20
219.99999999999994
 10
198.99497160804026
 20
219.99999999999994
 10
199.45653190954778
 20
219.99999999999994
 10
200.44296025125632
 20
219.99999999999994
 10
200.50250919597994
 20
219.99999999999994
 10
200.9640694974875
 20
219.99999999999994
 10
201.95049783919603
 20
219.99999999999994
 10
202.01004678391965
 20
219.99999999999994
 10
202.4716070854272
 20
219.99999999999994
 10
203.4580354271357
 20
219.99999999999994
 10
203.51758437185936
 20
219.99999999999994
 10
203.97914467336687
 20
219.99999999999994
 10
204.96557301507542
 20
219.99999999999994
 10
205.02512195979904
 20
219.99999999999994
 10
205.48668226130658
 20
219.99999999999994
 10
206.47311060301513
 20
219.99999999999994
 10
206.53265954773875
 20
219.99999999999994
 10
206.9942198492463
 20
219.99999999999994
 10
207.9806481909548
 20
219.99999999999994
 10
208.04019713567845
 20
219.99999999999994
 10
208.50175743718597
 20
219.99999999999994
 10
209.48818577889452
 20
219.99999999999994
 10
209.54773472361813
 20
219.99999999999994
 10
210.00929502512568
 20
219.99999999999994
 10
210.99572336683423
 20
219.99999999999994
 10
211.05527231155784
 20
219.99999999999994
 10
211.51683261306536
 20
219.99999999999994
 10
212.5032609547739
 20
219.99999999999994
 10
212.56280989949755
 20
219.99999999999994
 10
213.02437020100507
 20
219.99999999999994
 10
214.01079854271362
 20
219.99999999999994
 10
214.07034748743723
 20
219.99999999999994
 10
214.53190778894478
 20
219.99999999999994
 10
215.51833613065332
 20
219.99999999999994
 10
215.57788507537694
 20
219.99999999999994
 10
216.03944537688446
 20
219.99999999999994
 10
217.025873718593
 20
219.99999999999994
 10
217.08542266331662
 20
219.99999999999994
 10
217.54698296482417
 20
219.99999999999994
 10
218.5334113065327
 20
219.99999999999994
 10
218.59296025125633
 20
219.99999999999994
 10
218.65250919597995
 20
219.99999999999994
 10
219.05452055276388
 20
219.99999999999994
 10
220.04094889447242
 20
219.99999999999994
 10
220.10049783919604
 20
219.99999999999994
 10
220.16004678391965
 20
219.99999999999994
 10
220.56205814070356
 20
219.99999999999994
 10
221.5484864824121
 20
219.99999999999994
 10
221.60803542713572
 20
219.99999999999994
 10
221.66758437185936
 20
219.99999999999994
 10
222.06959572864326
 20
219.99999999999994
 10
223.0560240703518
 20
219.99999999999994
 10
223.11557301507543
 20
219.99999999999994
 10
223.17512195979904
 20
219.99999999999994
 10
223.57713331658297
 20
219.99999999999994
 10
224.56356165829152
 20
219.99999999999994
 10
224.62311060301514
 20
219.99999999999994
 10
224.68265954773875
 20
219.99999999999994
 10
225.08467090452265
 20
219.99999999999994
 10
226.0710992462312
 20
219.99999999999994
 10
226.13064819095482
 20
219.99999999999994
 10
226.19019713567846
 20
219.99999999999994
 10
226.59220849246236
 20
219.99999999999994
 10
227.5786368341709
 20
219.99999999999994
 10
227.63818577889452
 20
219.99999999999994
 10
227.69773472361814
 20
219.99999999999994
 10
228.09974608040207
 20
219.99999999999994
 10
229.08617442211062
 20
219.99999999999994
 10
229.14572336683423
 20
219.99999999999994
 10
229.20527231155785
 20
219.99999999999994
 10
229.60728366834175
 20
219.99999999999994
 10
230.5937120100503
 20
219.99999999999994
 10
230.6532609547739
 20
219.99999999999994
 10
230.71280989949756
 20
219.99999999999994
 10
231.11482125628146
 20
219.99999999999994
 10
232.10124959799
 20
219.99999999999994
 10
232.16079854271362
 20
219.99999999999994
 10
232.22034748743724
 20
219.99999999999994
 10
232.62235884422117
 20
219.99999999999994
 10
233.6087871859297
 20
219.99999999999994
 10
233.66833613065333
 20
219.99999999999994
 10
233.72788507537695
 20
219.99999999999994
 10
234.12989643216085
 20
219.99999999999994
 10
235.1163247738694
 20
219.99999999999994
 10
235.175873718593
 20
219.99999999999994
 10
235.23542266331663
 20
219.99999999999994
 10
235.63743402010056
 20
219.99999999999994
 10
236.6238623618091
 20
219.99999999999994
 10
236.68341130653272
 20
219.99999999999994
 10
236.74296025125633
 20
230.2822554590232
 10
237.14497160804027
 20
343.14612254944194
 10
238.13139994974878
 20
348.95380784254223
 10
238.19094889447243
 20
349.3044075930443
 10
238.25049783919604
 20
349.6550073435461
 10
239.63893753768846
 20
357.6610739739675
 10
239.6984864824121
 20
358.00444705653376
 10
239.75803542713572
 20
358.3478201390999
 10
241.14647512562814
 20
366.1853902042791
 10
241.20602407035182
 20
366.5215366189098
 10
241.26557301507543
 20
366.8576830335403
 10
242.65401271356788
 20
374.5267565334781
 10
242.71356165829152
 20
374.85567628017304
 10
242.77311060301514
 20
375.1845960268679
 10
244.16155030150756
 20
382.68517296156267
 10
244.2210992462312
 20
383.0068660403219
 10
244.28064819095482
 20
383.328559119081
 10
245.66908788944724
 20
390.66063948853474
 10
245.7286368341709
 20
390.9751058993585
 10
245.78818577889453
 20
391.28957231018194
 10
247.17662547738698
 20
398.45315611439264
 10
247.23617442211062
 20
398.7603958572805
 10
247.29572336683424
 20
399.0676356001683
 10
248.68416306532666
 20
406.0627228391366
 10
248.7437120100503
 20
406.36273591408883
 10
248.80326095477392
 20
406.66274898904084
 10
250.19170065326634
 20
413.48933966276707
 10
250.25124959799
 20
413.78212606978366
 10
250.31079854271363
 20
414.0749124768
 10
251.69923824120607
 20
420.73300658528416
 10
251.75878718592972
 20
421.018566324365
 10
251.81833613065334
 20
421.30412606344566
 10
253.20677582914576
 20
427.7937236066864
 10
253.2663247738694
 20
428.0720566778315
 10
253.32587371859302
 20
428.35038974897645
 10
254.71431341708544
 20
434.6714907269767
 10
254.7738623618091
 20
434.9425971301863
 10
254.83341130653272
 20
435.2137035333956
 10
256.2218510050252
 20
441.366307946153
 10
256.2813999497488
 20
441.63018768142643
 10
256.34094889447243
 20
441.8940674167002
 10
257.7293885929649
 20
447.878175264215
 10
257.78893753768847
 20
448.13482833155285
 10
257.8484864824121
 20
448.39148139889085
 10
259.23692618090456
 20
454.20709268116485
 10
259.29647512562815
 20
454.456519080567
 10
259.3560240703518
 20
454.7059454799694
 10
260.7444637688443
 20
460.35306019699965
 10
260.8040127135679
 20
460.595259928466
 10
260.86356165829153
 20
460.8374596599327
 10
262.252001356784
 20
466.31607781172113
 10
262.31155030150757
 20
466.55105087525186
 10
262.3710992462312
 20
466.7860239387828
 10
263.75953894472366
 20
472.0961455253285
 10
263.81908788944725
 20
472.32389192092353
 10
263.8786368341709
 20
472.55163831651885
 10
265.2670765326634
 20
477.69326333782317
 10
265.326625477387
 20
477.9137830654826
 10
265.3861744221106
 20
478.1343027931422
 10
266.7746141206031
 20
483.1074312492035
 10
266.83416306532666
 20
483.3207243089272
 10
266.8937120100503
 20
483.53401736865106
 10
268.28215170854276
 20
488.3386492594709
 10
268.34170065326634
 20
488.54471565125897
 10
268.40124959799
 20
488.7507820430472
 10
269.7896892964825
 20
493.3869173686252
 10
269.8492382412061
 20
493.5857570924775
 10
269.9087871859297
 20
493.78459681633007
 10
271.2972268844222
 20
498.2522355766654
 10
271.35677582914576
 20
498.44384863258205
 10
271.4163247738694
 20
498.6354616884989
 10
272.80476447236185
 20
502.9346038835917
 10
272.86431341708544
 20
503.11899027157267
 10
272.9238623618091
 20
503.30337665955386
 10
274.3123020603016
 20
507.43402228940477
 10
274.3718510050252
 20
507.6111820094501
 10
274.43139994974877
 20
507.7883417294954
 10
275.81983964824127
 20
511.7504907941039
 10
275.87938859296486
 20
511.9204238462135
 10
275.93893753768845
 20
512.0903568983231
 10
277.32737723618095
 20
515.8840093976886
 10
277.38692618090454
 20
516.0467157818625
 10
277.4464751256281
 20
516.2094221660365
 10
278.8349148241207
 20
519.8345781001601
 10
278.8944637688443
 20
519.9900578163983
 10
278.95401271356786
 20
520.1455375326366
 10
280.34245241206037
 20
523.6021969015192
 10
280.40200135678396
 20
523.7504499498217
 10
280.46155030150754
 20
523.8987029981243
 10
281.84999000000005
 20
527.1868658017643
 10
281.90953894472364
 20
527.3278921821312
 10
281.9690878894472
 20
527.4689185624982
 10
283.4170765326634
 20
530.7223845133258
 10
283.47662547738696
 20
530.8561842257569
 10
284.92461412060305
 20
533.9339269434081
 10
284.98416306532664
 20
534.0604999879035
 10
286.43215170854273
 20
536.9625194723758
 10
286.4917006532663
 20
537.0818658489355
 10
287.93968929648247
 20
539.8081621002303
 10
287.99923824120606
 20
539.9202818088545
 10
289.44722688442215
 20
542.4708548269718
 10
289.50677582914574
 20
542.5757478676603
 10
290.95476447236183
 20
544.9505976525991
 10
291.0143134170854
 20
545.0482640253518
 10
292.46230206030157
 20
547.2473905771124
 10
292.52185100502516
 20
547.3378302819294
 10
293.96983964824125
 20
549.3612336005134
 10
294.02938859296484
 20
549.4444466373949
 10
295.4773772361809
 20
551.2921267227993
 10
295.5369261809045
 20
551.3681130917449
 10
296.98491482412066
 20
553.0400699439732
 10
297.04446376884425
 20
553.1088296449833
 10
298.49245241206035
 20
554.6050632640311
 10
298.55200135678393
 20
554.6665962971055
 10
299.99999
 20
555.9871066829776
 10
300.0595389447236
 20
556.0414130481164
 10
301.56707653266335
 20
557.2332798980121
 10
303.07461412060303
 20
558.2421968467953
 10
304.5821517085427
 20
558.2691217733757
 10
306.08968929648245
 20
558.2691217733757
 10
307.5972268844221
 20
558.2691217733757
 10
309.1047644723618
 20
558.2691217733757
 10
310.61230206030154
 20
558.2691217733757
 10
312.1198396482412
 20
558.2691217733757
 10
313.6273772361809
 20
558.2691217733757
 10
315.13491482412064
 20
558.2691217733757
 10
316.6424524120603
 20
558.2691217733757
 10
318.14999
 20
558.2691217733757
  0
LWPOLYLINE
  5
68
330
17
100
AcDbEntity
  8
0
100
AcDbPolyline
 90
5
 70
0
 43
0.0
 10
0.0
 20
587.1441157233919
 10
1.0
 20
587.1441157233919
 10
1.0
 20
588.1441157233919
 10
0.0
 20
588.1441157233919
 10
0.0
 20
587.1441157233919
  0
LWPOLYLINE
  5
69
330
17
100
AcDbEntity
  8
0
100
AcDbPolyline
 90
200
 70
0
 43
0.0
 10
1e-05
 20
725.6342002803339
 10
1.507547587939699
 20
725.5022907413891
 10
3.0150851758793977
 20
725.3703812024444
 10
4.522622763819096
 20
725.2384716634997
 10
6.030160351758795
 20
725.1065621245549
 10
7.537697939698494
 20
724.9746525856102
 10
9.045235527638193
 20
724.8427430466655
 10
10.552773115577892
 20
724.7108335077207
 10
12.06031070351759
 20
724.578923968776
 10
13.567848291457288
 20
724.4470144298313
 10
15.075385879396988
 20
724.3151048908866
 10
16.582923467336688
 20
724.1831953519419
 10
18.090461055276386
 20
724.0512858129971
 10
19.597998643216084
 20
723.9193762740524
 10
21.105536231155785
 20
723.7874667351077
 10
22.613073819095483
 20
723.6555571961629
 10
24.12061140703518
 20
723.5236476572182
 10
25.62814899497488
 20
723.3917381182736
 10
27.135686582914577
 20
723.2598285793288
 10
28.64322417085428
 20
723.1279190403841
 10
30.150761758793976
 20
740.3545562816516
 10
31.658299346733674
 20
740.1909884533602
 10
33.16583693467338
 20
740.0274206250687
 10
34.673374522613074
 20
739.8638527967772
 10
36.180912110552775
 20
739.7002849684858
 10
37.68844969849248
 20
739.5367171401944
 10
39.19598728643217
 20
739.3731493119029
 10
40.70352487437187
 20
739.2095814836114
 10
42.211062462311574
 20
739.0460136553199
 10
43.71860005025127
 20
738.8824458270285
 10
45.22613763819097
 20
738.7188779987371
 10
46.733675226130664
 20
738.5553101704456
 10
48.241212814070366
 20
738.3917423421541
 10
49.74875040201007
 20
738.2281745138627
 10
51.25628798994976
 20
738.0646066855712
 10
52.76382557788946
 20
737.9010388572798
 10
54.27136316582916
 20
737.7374710289882
 10
55.77890075376886
 20
737.5739032006968
 10
57.28643834170856
 20
737.4103353724054
 10
58.793975929648255
 20
737.2467675441139
 10
60.301513517587956
 20
737.0831997158225
 10
61.80905110552766
 20
736.919631887531
 10
63.31658869346735
 20
736.7560640592395
 10
64.82412628140705
 20
736.5924962309481
 10
66.33166386934676
 20
736.4289284026567
 10
67.83920145728645
 20
736.2653605743652
 10
69.34673904522614
 20
736.1017927460737
 10
70.85427663316585
 20
735.9382249177822
 10
72.36181422110555
 20
735.7746570894908
 10
73.86935180904524
 20
735.6110892611994
 10
75.37688939698495
 20
735.4475214329079
 10
76.88442698492464
 20
735.2839536046164
 10
78.39196457286434
 20
735.120385776325
 10
79.89950216080405
 20
734.9568179480335
 10
81.40703974874374
 20
734.7932501197421
 10
82.91457733668344
 20
734.6296822914506
 10
84.42211492462314
 20
734.4661144631591
 10
85.92965251256284
 20
734.3025466348677
 10
87.43719010050253
 20
734.1389788065762
 10
88.94472768844223
 20
733.9754109782848
 10
90.45226527638194
 20
733.8118431499934
 10
91.95980286432163
 20
733.6482753217018
 10
93.46734045226133
 20
733.4847074934104
 10
94.97487804020103
 20
733.321139665119
 10
96.48241562814073
 20
733.1575718368275
 10
97.98995321608042
 20
732.9940040085361
 10
99.49749080402013
 20
732.8304361802445
 10
101.00502839195983
 20
732.6668683519531
 10
102.51256597989952
 20
732.5033005236617
 10
104.02010356783923
 20
732.3397326953702
 10
105.52764115577892
 20
732.1761648670788
 10
107.03517874371862
 20
732.0125970387872
 10
108.54271633165831
 20
731.8490292104958
 10
110.05025391959802
 20
731.6854613822044
 10
111.55779150753771
 20
731.521893553913
 10
113.06532909547741
 20
731.3583257256215
 10
114.57286668341712
 20
731.19475789733
 10
116.08040427135681
 20
731.0311900690385
 10
117.5879418592965
 20
730.8676222407471
 10
119.09547944723622
 20
730.7040544124557
 10
120.60301703517591
 20
730.5404865841642
 10
122.1105546231156
 20
730.3769187558727
 10
123.61809221105531
 20
730.2133509275812
 10
125.125629798995
 20
730.0497830992898
 10
126.6331673869347
 20
729.8862152709984
 10
128.1407049748744
 20
729.7226474427068
 10
129.6482425628141
 20
729.5590796144154
 10
131.1557801507538
 20
729.395511786124
 10
132.6633177386935
 20
729.2319439578325
 10
134.1708553266332
 20
729.0683761295411
 10
135.6783929145729
 20
728.9048083012495
 10
137.1859305025126
 20
728.7412404729581
 10
138.69346809045228
 20
728.5776726446667
 10
140.201005678392
 20
728.4141048163752
 10
141.7085432663317
 20
728.2505369880838
 10
143.21608085427138
 20
728.0869691597923
 10
144.7236184422111
 20
727.9234013315008
 10
146.2311560301508
 20
727.7598335032094
 10
147.73869361809048
 20
727.596265674918
 10
149.2462312060302
 20
727.4326978466265
 10
150.7537687939699
 20
727.269130018335
 10
152.26130638190958
 20
727.1055621900435
 10
153.76884396984929
 20
726.9419943617521
 10
155.276381557789
 20
726.7784265334607
 10
156.78391914572867
 20
726.6148587051692
 10
158.29145673366838
 20
726.4512908768777
 10
159.7989943216081
 20
726.2877230485863
 10
161.30653190954777
 20
726.1241552202948
 10
162.81406949748748
 20
725.9605873920034
 10
164.3216070854272
 20
725.797019563712
 10
165.82914467336687
 20
725.6334517354204
 10
167.33668226130658
 20
725.469883907129
 10
168.8442198492463
 20
725.3063160788375
 10
170.35175743718597
 20
725.1427482505461
 10
171.85929502512568
 20
724.9791804222547
 10
173.36683261306536
 20
724.8156125939631
 10
174.87437020100506
 20
724.6520447656717
 10
176.38190778894477
 20
724.4884769373803
 10
177.88944537688445
 20
724.3249091090888
 10
179.39698296482416
 20
724.1613412807974
 10
180.90452055276387
 20
723.9977734525058
 10
182.41205814070355
 20
723.8342056242144
 10
183.91959572864326
 20
723.670637795923
 10
185.42713331658297
 20
723.5070699676315
 10
186.93467090452265
 20
723.3435021393401
 10
188.44220849246236
 20
723.1799343110486
 10
189.94974608040206
 20
723.0163664827571
 10
191.45728366834174
 20
722.8527986544657
 10
192.96482125628145
 20
722.6892308261743
 10
194.47235884422116
 20
722.5256629978828
 10
195.97989643216084
 20
722.3620951695913
 10
197.48743402010055
 20
722.1985273412998
 10
198.99497160804026
 20
722.0349595130084
 10
200.50250919597994
 20
739.383332029787
 10
202.01004678391965
 20
739.2619752539579
 10
203.51758437185936
 20
739.1406184781288
 10
205.02512195979904
 20
739.0192617022996
 10
206.53265954773875
 20
738.8979049264705
 10
208.04019713567845
 20
738.7765481506412
 10
209.54773472361813
 20
738.6551913748121
 10
211.05527231155784
 20
738.5338345989829
 10
212.56280989949755
 20
738.4124778231538
 10
214.07034748743723
 20
738.2911210473247
 10
215.57788507537694
 20
738.1697642714955
 10
217.08542266331662
 20
738.0484074956664
 10
218.59296025125633
 20
737.9270507198372
 10
220.10049783919604
 20
737.8056939440081
 10
221.60803542713572
 20
737.684337168179
 10
223.11557301507543
 20
737.5629803923498
 10
224.62311060301514
 20
737.4416236165207
 10
226.13064819095482
 20
737.3202668406915
 10
227.63818577889452
 20
737.1989100648624
 10
229.14572336683423
 20
737.0775532890333
 10
230.6532609547739
 20
736.9561965132041
 10
232.16079854271362
 20
736.834839737375
 10
233.66833613065333
 20
736.7134829615458
 10
235.175873718593
 20
736.5921261857167
 10
236.68341130653272
 20
736.4707694098876
 10
238.19094889447243
 20
736.3494126340584
 10
239.6984864824121
 20
736.2280558582293
 10
241.20602407035182
 20
736.1066990824
 10
242.71356165829152
 20
735.9853423065709
 10
244.2210992462312
 20
735.8639855307417
 10
245.7286368341709
 20
735.7426287549126
 10
247.23617442211062
 20
735.6212719790835
 10
248.7437120100503
 20
735.4999152032543
 10
250.25124959799
 20
735.3785584274252
 10
251.75878718592972
 20
735.257201651596
 10
253.2663247738694
 20
735.1358448757669
 10
254.7738623618091
 20
735.0144880999378
 10
256.2813999497488
 20
734.8931313241086
 10
257.78893753768847
 20
734.7717745482795
 10
259.29647512562815
 20
734.6504177724503
 10
260.8040127135679
 20
734.5290609966212
 10
262.31155030150757
 20
734.4077042207921
 10
263.81908788944725
 20
734.2863474449629
 10
265.326625477387
 20
734.1649906691338
 10
266.83416306532666
 20
734.0436338933046
 10
268.34170065326634
 20
733.9222771174755
 10
269.8492382412061
 20
733.8009203416462
 10
271.35677582914576
 20
733.6795635658171
 10
272.86431341708544
 20
733.558206789988
 10
274.3718510050252
 20
733.4368500141588
 10
275.87938859296486
 20
733.3154932383297
 10
277.38692618090454
 20
733.1941364625006
 10
278.8944637688443
 20
733.0727796866714
 10
280.40200135678396
 20
732.9514229108423
 10
281.90953894472364
 20
732.8300661350131
 10
283.4170765326634
 20
732.708709359184
 10
284.92461412060305
 20
732.5873525833548
 10
286.43215170854273
 20
732.4659958075257
 10
287.93968929648247
 20
732.3446390316966
 10
289.44722688442215
 20
732.2232822558674
 10
290.95476447236183
 20
732.1019254800383
 10
292.46230206030157
 20
731.9805687042091
 10
293.96983964824125
 20
731.85921192838
 10
295.4773772361809
 20
731.7378551525509
 10
296.98491482412066
 20
731.6164983767217
 10
298.49245241206035
 20
731.4951416008926
 10
299.99999
 20
731.3737848250634
  0
LWPOLYLINE
  5
6A
330
17
100
AcDbEntity
  8
0
100
AcDbPolyline
 90
5
 70
0
 43
0.0
 10
0.0
 20
731.9787826839603
 10
1.0
 20
731.9787826839603
 10
1.0
 20
732.9787826839603
 10
0.0
 20
732.9787826839603
 10
0.0
 20
731.9787826839603
  0
ENDSEC
  0
SECTION
  2
OBJECTS
  0
DICTIONARY
  5
A
330
0
100
AcDbDictionary
281
1
  3
ACAD_COLOR
350
B
  3
ACAD_GROUP
350
C
  3
ACAD_LAYOUT
350
D
  3
ACAD_MATERIAL
350
E
  3
ACAD_MLEADERSTYLE
350
F
  3
ACAD_MLINESTYLE
350
10
  3
ACAD_PLOTSETTINGS
350
11
  3
ACAD_PLOTSTYLENAME
350
12
  3
ACAD_SCALELIST
350
14
  3
ACAD_TABLESTYLE
350
15
  3
ACAD_VISUALSTYLE
350
16
  0
DICTIONARY
  5
B
330
A
100
AcDbDictionary
281
1
  0
DICTIONARY
  5
C
330
A
100
AcDbDictionary
281
1
  0
DICTIONARY
  5
D
330
A
100
AcDbDictionary
281
1
  3
Model
350
1A
  3
Layout1
350
1E
  0
DICTIONARY
  5
E
330
A
100
AcDbDictionary
281
1
  3
ByBlock
350
1F
  3
ByLayer
350
20
  3
Global
350
21
  0
DICTIONARY
  5
F
330
A
100
AcDbDictionary
281
1
  3
Standard
350
2C
  0
DICTIONARY
  5
10
330
A
100
AcDbDictionary
281
1
  3
Standard
350
22
  0
DICTIONARY
  5
11
330
A
100
AcDbDictionary
281
1
  0
ACDBDICTIONARYWDFLT
  5
12
330
A
100
AcDbDictionary
281
1
  3
Normal
350
13
100
AcDbDictionaryWithDefault
340
13
  0
ACDBPLACEHOLDER
  5
13
330
12
  0
DICTIONARY
  5
14
330
A
100
AcDbDictionary
281
1
  0
DICTIONARY
  5
15
330
A
100
AcDbDictionary
281
1
  0
DICTIONARY
  5
16
330
A
100
AcDbDictionary
281
1
  0
LAYOUT
  5
1A
330
D
100
AcDbPlotSettings
  1

  2
Adobe PDF
  4
A4
  6

 40
3.175
 41
3.175
 42
3.175
 43
3.175
 44
209.91
 45
297.03
 46
0.0
 47
0.0
 48
0.0
 49
0.0
140
0.0
141
0.0
142
1.0
143
1.0
 70
1024
 72
0
 73
1
 74
5
  7

 75
16
 76
0
 77
2
 78
300
147
1.0
148
0.0
149
0.0
100
AcDbLayout
  1
Model
 70
1
 71
0
 10
-3.175
 20
-3.175
 11
293.857
 21
206.735
 12
0.0
 22
0.0
 32
0.0
 14
29.068
 24
20.356
 34
0.0
 15
261.614
 25
183.204
 35
0.0
146
0.0
 13
0.0
 23
0.0
 33
0.0
 16
1.0
 26
0.0
 36
0.0
 17
0.0
 27
1.0
 37
0.0
 76
1
330
17
  0
LAYOUT
  5
1E
330
D
100
AcDbPlotSettings
  1

  2
Adobe PDF
  4
A4
  6

 40
3.175
 41
3.175
 42
3.175
 43
3.175
 44
209.91
 45
297.03
 46
0.0
 47
0.0
 48
0.0
 49
0.0
140
0.0
141
0.0
142
1.0
143
1.0
 70
0
 72
0
 73
1
 74
5
  7

 75
16
 76
0
 77
2
 78
300
147
1.0
148
0.0
149
0.0
100
AcDbLayout
  1
Layout1
 70
1
 71
1
 10
-3.175
 20
-3.175
 11
293.857
 21
206.735
 12
0.0
 22
0.0
 32
0.0
 14
29.068
 24
20.356
 34
0.0
 15
261.614
 25
183.204
 35
0.0
146
0.0
 13
0.0
 23
0.0
 33
0.0
 16
1.0
 26
0.0
 36
0.0
 17
0.0
 27
1.0
 37
0.0
 76
1
330
1B
  0
MATERIAL
  5
1F
102
{ACAD_REACTORS
330
E
102
}
330
E
100
AcDbMaterial
  1
ByBlock
  2

 70
0
 40
1.0
 71
1
 41
1.0
 91
-1023410177
 42
1.0
 72
1
  3

 73
1
 74
1
 75
1
 44
0.5
 73
0
 45
1.0
 46
1.0
 77
1
  4

 78
1
 79
1
170
1
 48
1.0
171
1
  6

172
1
173
1
174
1
140
1.0
141
1.0
175
1
  7

176
1
177
1
178
1
143
1.0
179
1
  8

270
1
271
1
272
1
145
1.0
146
1.0
273
1
  9

274
1
275
1
276
1
 42
1.0
 72
1
  3

 73
1
 74
1
 75
1
 94
63
  0
MATERIAL
  5
20
102
{ACAD_REACTORS
330
E
102
}
330
E
100
AcDbMaterial
  1
ByLayer
  2

 70
0
 40
1.0
 71
1
 41
1.0
 91
-1023410177
 42
1.0
 72
1
  3

 73
1
 74
1
 75
1
 44
0.5
 73
0
 45
1.0
 46
1.0
 77
1
  4

 78
1
 79
1
170
1
 48
1.0
171
1
  6

172
1
173
1
174
1
140
1.0
141
1.0
175
1
  7

176
1
177
1
178
1
143
1.0
179
1
  8

270
1
271
1
272
1
145
1.0
146
1.0
273
1
  9

274
1
275
1
276
1
 42
1.0
 72
1
  3

 73
1
 74
1
 75
1
 94
63
  0
MATERIAL
  5
21
102
{ACAD_REACTORS
330
E
102
}
330
E
100
AcDbMaterial
  1
Global
  2

 70
0
 40
1.0
 71
1
 41
1.0
 91
-1023410177
 42
1.0
 72
1
  3

 73
1
 74
1
 75
1
 44
0.5
 73
0
 45
1.0
 46
1.0
 77
1
  4

 78
1
 79
1
170
1
 48
1.0
171
1
  6

172
1
173
1
174
1
140
1.0
141
1.0
175
1
  7

176
1
177
1
178
1
143
1.0
179
1
  8

270
1
271
1
272
1
145
1.0
146
1.0
273
1
  9

274
1
275
1
276
1
 42
1.0
 72
1
  3

 73
1
 74
1
 75
1
 94
63
  0
MLINESTYLE
  5
22
102
{ACAD_REACTORS
330
10
102
}
330
10
100
AcDbMlineStyle
  2
Standard
 70
0
  3

 62
256
 51
90.0
 52
90.0
 71
2
 49
0.5
 62
256
  6
BYLAYER
 49
-0.5
 62
256
  6
BYLAYER
  0
MLEADERSTYLE
  5
2C
102
{ACAD_REACTORS
330
F
102
}
330
F
100
AcDbMLeaderStyle
179
2
170
2
171
1
172
0
 90
2
 40
0.0
 41
0.0
173
1
 91
-1056964608
 92
-2
290
1
 42
2.0
291
1
 43
8.0
  3
Standard
 44
4.0
300

342
29
174
1
175
1
176
0
178
1
 93
-1056964608
 45
4.0
292
0
297
0
 46
4.0
 94
-1056964608
 47
1.0
 49
0.0
140
1.0
294
1
141
0.0
177
0
142
1.0
295
0
296
0
143
3.75
271
0
272
9
272
9
  0
ENDSEC
  0
EOF
