  0
SECTION
  2
HEADER
  9
$ACADVER
  1
AC1032
  9
$ACADMAINTVER
 90
4
  9
$DWGCODEPAGE
  3
ANSI_1252
  9
$LASTSAVEDBY
  1
ezdxf
  9
$REQUIREDVERSIONS
160
0
  9
$INSBASE
 10
0.0
 20
0.0
 30
0.0
  9
$EXTMIN
 10
-100
 20
-100
 30
-100
  9
$EXTMAX
 10
100
 20
100
 30
100
  9
$LIMMIN
 10
0.0
 20
0.0
  9
$LIMMAX
 10
420.0
 20
297.0
  9
$ORTHOMODE
 70
0
  9
$REGENMODE
 70
1
  9
$FILLMODE
 70
1
  9
$QTEXTMODE
 70
0
  9
$MIRRTEXT
 70
1
  9
$LTSCALE
 40
1.0
  9
$ATTMODE
 70
1
  9
$TEXTSIZE
 40
2.5
  9
$TRACEWID
 40
1.0
  9
$TEXTSTYLE
  7
Standard
  9
$CLAYER
  8
0
  9
$CELTYPE
  6
ByLayer
  9
$CECOLOR
 62
256
  9
$CELTSCALE
 40
1.0
  9
$DISPSILH
 70
0
  9
$DIMSCALE
 40
1.0
  9
$DIMASZ
 40
2.5
  9
$DIMEXO
 40
0.625
  9
$DIMDLI
 40
3.75
  9
$DIMRND
 40
0.0
  9
$DIMDLE
 40
0.0
  9
$DIMEXE
 40
1.25
  9
$DIMTP
 40
0.0
  9
$DIMTM
 40
0.0
  9
$DIMTXT
 40
2.5
  9
$DIMCEN
 40
2.5
  9
$DIMTSZ
 40
0.0
  9
$DIMTOL
 70
0
  9
$DIMLIM
 70
0
  9
$DIMTIH
 70
0
  9
$DIMTOH
 70
0
  9
$DIMSE1
 70
0
  9
$DIMSE2
 70
0
  9
$DIMTAD
 70
1
  9
$DIMZIN
 70
8
  9
$DIMBLK
  1

  9
$DIMASO
 70
1
  9
$DIMSHO
 70
1
  9
$DIMPOST
  1

  9
$DIMAPOST
  1

  9
$DIMALT
 70
0
  9
$DIMALTD
 70
3
  9
$DIMALTF
 40
0.03937007874
  9
$DIMLFAC
 40
1.0
  9
$DIMTOFL
 70
1
  9
$DIMTVP
 40
0.0
  9
$DIMTIX
 70
0
  9
$DIMSOXD
 70
0
  9
$DIMSAH
 70
0
  9
$DIMBLK1
  1

  9
$DIMBLK2
  1

  9
$DIMSTYLE
  2
ISO-25
  9
$DIMCLRD
 70
0
  9
$DIMCLRE
 70
0
  9
$DIMCLRT
 70
0
  9
$DIMTFAC
 40
1.0
  9
$DIMGAP
 40
0.625
  9
$DIMJUST
 70
0
  9
$DIMSD1
 70
0
  9
$DIMSD2
 70
0
  9
$DIMTOLJ
 70
0
  9
$DIMTZIN
 70
8
  9
$DIMALTZ
 70
0
  9
$DIMALTTZ
 70
0
  9
$DIMUPT
 70
0
  9
$DIMDEC
 70
2
  9
$DIMTDEC
 70
2
  9
$DIMALTU
 70
2
  9
$DIMALTTD
 70
3
  9
$DIMTXSTY
  7
Standard
  9
$DIMAUNIT
 70
0
  9
$DIMADEC
 70
0
  9
$DIMALTRND
 40
0.0
  9
$DIMAZIN
 70
0
  9
$DIMDSEP
 70
44
  9
$DIMATFIT
 70
3
  9
$DIMFRAC
 70
0
  9
$DIMLDRBLK
  1

  9
$DIMLUNIT
 70
2
  9
$DIMLWD
 70
-2
  9
$DIMLWE
 70
-2
  9
$DIMTMOVE
 70
0
  9
$DIMFXL
 40
1.0
  9
$DIMFXLON
 70
0
  9
$DIMJOGANG
 40
0.785398163397
  9
$DIMTFILL
 70
0
  9
$DIMTFILLCLR
 70
0
  9
$DIMARCSYM
 70
0
  9
$DIMLTYPE
  6

  9
$DIMLTEX1
  6

  9
$DIMLTEX2
  6

  9
$DIMTXTDIRECTION
 70
0
  9
$LUNITS
 70
2
  9
$LUPREC
 70
4
  9
$SKETCHINC
 40
1.0
  9
$FILLETRAD
 40
10.0
  9
$AUNITS
 70
0
  9
$AUPREC
 70
2
  9
$MENU
  1
.
  9
$ELEVATION
 40
0.0
  9
$PELEVATION
 40
0.0
  9
$THICKNESS
 40
0.0
  9
$LIMCHECK
 70
0
  9
$CHAMFERA
 40
0.0
  9
$CHAMFERB
 40
0.0
  9
$CHAMFERC
 40
0.0
  9
$CHAMFERD
 40
0.0
  9
$SKPOLY
 70
0
  9
$TDCREATE
 40
2458928.8409606484
  9
$TDUCREATE
 40
2458532.153996898
  9
$TDUPDATE
 40
2458928.8409606484
  9
$TDUUPDATE
 40
2458532.1544311
  9
$TDINDWG
 40
0.0
  9
$TDUSRTIMER
 40
0.0
  9
$USRTIMER
 70
1
  9
$ANGBASE
 50
0.0
  9
$ANGDIR
 70
0
  9
$PDMODE
 70
0
  9
$PDSIZE
 40
0.0
  9
$PLINEWID
 40
0.0
  9
$SPLFRAME
 70
0
  9
$SPLINETYPE
 70
6
  9
$SPLINESEGS
 70
8
  9
$HANDSEED
  5
57
  9
$SURFTAB1
 70
6
  9
$SURFTAB2
 70
6
  9
$SURFTYPE
 70
6
  9
$SURFU
 70
6
  9
$SURFV
 70
6
  9
$UCSBASE
  2

  9
$UCSNAME
  2

  9
$UCSORG
 10
0.0
 20
0.0
 30
0.0
  9
$UCSXDIR
 10
1.0
 20
0.0
 30
0.0
  9
$UCSYDIR
 10
0.0
 20
1.0
 30
0.0
  9
$UCSORTHOREF
  2

  9
$UCSORTHOVIEW
 70
0
  9
$UCSORGTOP
 10
0.0
 20
0.0
 30
0.0
  9
$UCSORGBOTTOM
 10
0.0
 20
0.0
 30
0.0
  9
$UCSORGLEFT
 10
0.0
 20
0.0
 30
0.0
  9
$UCSORGRIGHT
 10
0.0
 20
0.0
 30
0.0
  9
$UCSORGFRONT
 10
0.0
 20
0.0
 30
0.0
  9
$UCSORGBACK
 10
0.0
 20
0.0
 30
0.0
  9
$PUCSBASE
  2

  9
$PUCSNAME
  2

  9
$PUCSORG
 10
0.0
 20
0.0
 30
0.0
  9
$PUCSXDIR
 10
1.0
 20
0.0
 30
0.0
  9
$PUCSYDIR
 10
0.0
 20
1.0
 30
0.0
  9
$PUCSORTHOREF
  2

  9
$PUCSORTHOVIEW
 70
0
  9
$PUCSORGTOP
 10
0.0
 20
0.0
 30
0.0
  9
$PUCSORGBOTTOM
 10
0.0
 20
0.0
 30
0.0
  9
$PUCSORGLEFT
 10
0.0
 20
0.0
 30
0.0
  9
$PUCSORGRIGHT
 10
0.0
 20
0.0
 30
0.0
  9
$PUCSORGFRONT
 10
0.0
 20
0.0
 30
0.0
  9
$PUCSORGBACK
 10
0.0
 20
0.0
 30
0.0
  9
$USERI1
 70
0
  9
$USERI2
 70
0
  9
$USERI3
 70
0
  9
$USERI4
 70
0
  9
$USERI5
 70
0
  9
$USERR1
 40
0.0
  9
$USERR2
 40
0.0
  9
$USERR3
 40
0.0
  9
$USERR4
 40
0.0
  9
$USERR5
 40
0.0
  9
$WORLDVIEW
 70
1
  9
$SHADEDGE
 70
3
  9
$SHADEDIF
 70
70
  9
$TILEMODE
 70
1
  9
$MAXACTVP
 70
64
  9
$PINSBASE
 10
0.0
 20
0.0
 30
0.0
  9
$PLIMCHECK
 70
0
  9
$PEXTMIN
 10
1e+20
 20
1e+20
 30
1e+20
  9
$PEXTMAX
 10
-1e+20
 20
-1e+20
 30
-1e+20
  9
$PLIMMIN
 10
0.0
 20
0.0
  9
$PLIMMAX
 10
420.0
 20
297.0
  9
$UNITMODE
 70
0
  9
$VISRETAIN
 70
1
  9
$PLINEGEN
 70
0
  9
$PSLTSCALE
 70
1
  9
$TREEDEPTH
 70
3020
  9
$CMLSTYLE
  2
Standard
  9
$CMLJUST
 70
0
  9
$CMLSCALE
 40
20.0
  9
$PROXYGRAPHICS
 70
1
  9
$MEASUREMENT
 70
1
  9
$CELWEIGHT
370
-1
  9
$ENDCAPS
280
0
  9
$JOINSTYLE
280
0
  9
$LWDISPLAY
290
0
  9
$INSUNITS
 70
6
  9
$HYPERLINKBASE
  1

  9
$STYLESHEET
  1

  9
$XEDIT
290
1
  9
$CEPSNTYPE
380
0
  9
$PSTYLEMODE
290
1
  9
$FINGERPRINTGUID
  2
E4FFF854-6A36-11EA-926E-3C07545DF518
  9
$VERSIONGUID
  2
E55C86A8-6A36-11EA-8F75-3C07545DF518
  9
$EXTNAMES
290
1
  9
$PSVPSCALE
 40
0.0
  9
$OLESTARTUP
290
0
  9
$SORTENTS
280
127
  9
$INDEXCTL
280
0
  9
$HIDETEXT
280
1
  9
$XCLIPFRAME
280
2
  9
$HALOGAP
280
0
  9
$OBSCOLOR
 70
257
  9
$OBSLTYPE
280
0
  9
$INTERSECTIONDISPLAY
280
0
  9
$INTERSECTIONCOLOR
 70
257
  9
$DIMASSOC
280
2
  9
$PROJECTNAME
  1

  9
$CAMERADISPLAY
290
0
  9
$LENSLENGTH
 40
50.0
  9
$CAMERAHEIGHT
 40
0.0
  9
$STEPSPERSEC
 40
24.0
  9
$STEPSIZE
 40
100.0
  9
$3DDWFPREC
 40
2.0
  9
$PSOLWIDTH
 40
0.005
  9
$PSOLHEIGHT
 40
0.08
  9
$LOFTANG1
 40
1.570796326795
  9
$LOFTANG2
 40
1.570796326795
  9
$LOFTMAG1
 40
0.0
  9
$LOFTMAG2
 40
0.0
  9
$LOFTPARAM
 70
7
  9
$LOFTNORMALS
280
1
  9
$LATITUDE
 40
37.795
  9
$LONGITUDE
 40
-122.394
  9
$NORTHDIRECTION
 40
0.0
  9
$TIMEZONE
 70
-8000
  9
$LIGHTGLYPHDISPLAY
280
1
  9
$TILEMODELIGHTSYNCH
280
1
  9
$CMATERIAL
347
20
  9
$SOLIDHIST
280
0
  9
$SHOWHIST
280
1
  9
$DWFFRAME
280
2
  9
$DGNFRAME
280
2
  9
$REALWORLDSCALE
290
1
  9
$INTERFERECOLOR
 62
256
  9
$CSHADOW
280
0
  9
$SHADOWPLANELOCATION
 40
0.0
  0
ENDSEC
  0
SECTION
  2
CLASSES
  0
CLASS
  1
ACDBDICTIONARYWDFLT
  2
AcDbDictionaryWithDefault
  3
ObjectDBX Classes
 90
0
 91
0
280
0
281
0
  0
CLASS
  1
SUN
  2
AcDbSun
  3
SCENEOE
 90
1153
 91
0
280
0
281
0
  0
CLASS
  1
VISUALSTYLE
  2
AcDbVisualStyle
  3
ObjectDBX Classes
 90
4095
 91
0
280
0
281
0
  0
CLASS
  1
MATERIAL
  2
AcDbMaterial
  3
ObjectDBX Classes
 90
1153
 91
0
280
0
281
0
  0
CLASS
  1
SCALE
  2
AcDbScale
  3
ObjectDBX Classes
 90
1153
 91
0
280
0
281
0
  0
CLASS
  1
TABLESTYLE
  2
AcDbTableStyle
  3
ObjectDBX Classes
 90
4095
 91
0
280
0
281
0
  0
CLASS
  1
MLEADERSTYLE
  2
AcDbMLeaderStyle
  3
ACDB_MLEADERSTYLE_CLASS
 90
4095
 91
0
280
0
281
0
  0
CLASS
  1
DICTIONARYVAR
  2
AcDbDictionaryVar
  3
ObjectDBX Classes
 90
0
 91
0
280
0
281
0
  0
CLASS
  1
CELLSTYLEMAP
  2
AcDbCellStyleMap
  3
ObjectDBX Classes
 90
1152
 91
0
280
0
281
0
  0
CLASS
  1
MENTALRAYRENDERSETTINGS
  2
AcDbMentalRayRenderSettings
  3
SCENEOE
 90
1024
 91
0
280
0
281
0
  0
CLASS
  1
ACDBDETAILVIEWSTYLE
  2
AcDbDetailViewStyle
  3
ObjectDBX Classes
 90
1025
 91
0
280
0
281
0
  0
CLASS
  1
ACDBSECTIONVIEWSTYLE
  2
AcDbSectionViewStyle
  3
ObjectDBX Classes
 90
1025
 91
0
280
0
281
0
  0
CLASS
  1
RASTERVARIABLES
  2
AcDbRasterVariables
  3
ISM
 90
0
 91
0
280
0
281
0
  0
CLASS
  1
LAYOUT
  2
AcDbLayout
  3
ObjectDBX Classes
 90
0
 91
0
280
0
281
0
  0
CLASS
  1
ACDBPLACEHOLDER
  2
AcDbPlaceHolder
  3
ObjectDBX Classes
 90
0
 91
0
280
0
281
0
  0
ENDSEC
  0
SECTION
  2
TABLES
  0
TABLE
  2
VPORT
  5
8
330
0
100
AcDbSymbolTable
 70
1
  0
VPORT
  5
23
330
8
100
AcDbSymbolTableRecord
100
AcDbViewportTableRecord
  2
*Active
 70
0
 10
0.0
 20
0.0
 11
1.0
 21
1.0
 12
70.0
 22
50.0
 13
0.0
 23
0.0
 14
0.5
 24
0.5
 15
0.5
 25
0.5
 16
0.0
 26
0.0
 36
1.0
 17
0.0
 27
0.0
 37
0.0
 40
1.0
 41
1.34
 42
50.0
 43
0.0
 44
0.0
 50
0.0
 51
0.0
 71
0
 72
1000
 73
1
 74
3
 75
0
 76
0
 77
0
 78
0
281
0
 65
0
146
0.0
  0
ENDTAB
  0
TABLE
  2
LTYPE
  5
2
330
0
100
AcDbSymbolTable
 70
3
  0
LTYPE
  5
24
330
2
100
AcDbSymbolTableRecord
100
AcDbLinetypeTableRecord
  2
ByBlock
 70
0
  3

 72
65
 73
0
 40
0.0
  0
LTYPE
  5
25
330
2
100
AcDbSymbolTableRecord
100
AcDbLinetypeTableRecord
  2
ByLayer
 70
0
  3

 72
65
 73
0
 40
0.0
  0
LTYPE
  5
26
330
2
100
AcDbSymbolTableRecord
100
AcDbLinetypeTableRecord
  2
Continuous
 70
0
  3

 72
65
 73
0
 40
0.0
  0
ENDTAB
  0
TABLE
  2
LAYER
  5
1
330
0
100
AcDbSymbolTable
 70
2
  0
LAYER
  5
27
330
1
100
AcDbSymbolTableRecord
100
AcDbLayerTableRecord
  2
0
 70
0
 62
7
  6
Continuous
370
-3
390
13
347
21
  0
LAYER
  5
28
330
1
100
AcDbSymbolTableRecord
100
AcDbLayerTableRecord
  2
Defpoints
 70
0
 62
7
  6
Continuous
290
0
370
-3
390
13
347
21
  0
ENDTAB
  0
TABLE
  2
STYLE
  5
5
330
0
100
AcDbSymbolTable
 70
1
  0
STYLE
  5
29
330
5
100
AcDbSymbolTableRecord
100
AcDbTextStyleTableRecord
  2
Standard
 70
0
 40
0.0
 41
1.0
 50
0.0
 71
0
 42
2.5
  3
txt
  4

  0
ENDTAB
  0
TABLE
  2
VIEW
  5
7
330
0
100
AcDbSymbolTable
 70
0
  0
ENDTAB
  0
TABLE
  2
UCS
  5
6
330
0
100
AcDbSymbolTable
 70
0
  0
ENDTAB
  0
TABLE
  2
APPID
  5
3
330
0
100
AcDbSymbolTable
 70
1
  0
APPID
  5
2A
330
3
100
AcDbSymbolTableRecord
100
AcDbRegAppTableRecord
  2
ACAD
 70
0
  0
ENDTAB
  0
TABLE
  2
DIMSTYLE
  5
4
330
0
100
AcDbSymbolTable
 70
1
100
AcDbDimStyleTable
  0
DIMSTYLE
105
2B
330
4
100
AcDbSymbolTableRecord
100
AcDbDimStyleTableRecord
  2
Standard
 70
0
 40
1.0
 41
2.5
 42
0.625
 43
3.75
 44
1.25
 45
0.0
 46
0.0
 47
0.0
 48
0.0
 49
2.5
140
2.5
141
2.5
142
0.0
143
0.03937007874
144
1.0
145
0.0
146
1.0
147
0.625
148
0.0
 69
0
 70
0
 71
0
 72
0
 73
0
 74
0
 75
0
 76
0
 77
1
 78
8
 79
0
170
0
171
3
172
1
173
0
174
0
175
0
176
0
177
0
178
0
179
0
271
0
272
2
273
2
274
3
275
0
276
0
277
2
278
44
279
0
280
0
281
0
282
0
283
0
284
8
285
0
286
0
288
0
289
3
290
0
371
-2
372
-2
  0
ENDTAB
  0
TABLE
  2
BLOCK_RECORD
  5
9
330
0
100
AcDbSymbolTable
 70
2
  0
BLOCK_RECORD
  5
17
330
9
100
AcDbSymbolTableRecord
100
AcDbBlockTableRecord
  2
*Model_Space
340
1A
 70
0
280
1
281
1
  0
BLOCK_RECORD
  5
1B
330
9
100
AcDbSymbolTableRecord
100
AcDbBlockTableRecord
  2
*Paper_Space
340
1E
 70
0
280
1
281
1
  0
ENDTAB
  0
ENDSEC
  0
SECTION
  2
BLOCKS
  0
BLOCK
  5
18
330
17
100
AcDbEntity
  8
0
100
AcDbBlockBegin
  2
*Model_Space
 70
0
 10
0.0
 20
0.0
 30
0.0
  3
*Model_Space
  1

  0
ENDBLK
  5
19
330
17
100
AcDbEntity
  8
0
100
AcDbBlockEnd
  0
BLOCK
  5
1C
330
1B
100
AcDbEntity
  8
0
100
AcDbBlockBegin
  2
*Paper_Space
 70
0
 10
0.0
 20
0.0
 30
0.0
  3
*Paper_Space
  1

  0
ENDBLK
  5
1D
330
1B
100
AcDbEntity
  8
0
100
AcDbBlockEnd
  0
ENDSEC
  0
SECTION
  2
ENTITIES
  0
LWPOLYLINE
  5
2D
330
17
100
AcDbEntity
  8
0
100
AcDbPolyline
 90
2
 70
0
 43
0.0
 10
0.0
 20
30.0
 10
0.0
 20
30.0
  0
LWPOLYLINE
  5
2E
330
17
100
AcDbEntity
  8
0
100
AcDbPolyline
 90
2
 70
0
 43
0.0
 10
0.0
 20
30.0
 10
0.0
 20
80.0
  0
LWPOLYLINE
  5
2F
330
17
100
AcDbEntity
  8
0
100
AcDbPolyline
 90
2
 70
0
 43
0.0
 10
300.0
 20
30.0
 10
300.0
 20
70.0
  0
LWPOLYLINE
  5
30
330
17
100
AcDbEntity
  8
0
100
AcDbPolyline
 90
2
 70
0
 43
0.0
 10
0.0
 20
30.0
 10
7.645823775271737
 20
30.0
  0
LWPOLYLINE
  5
31
330
17
100
AcDbEntity
  8
0
100
AcDbPolyline
 90
2
 70
0
 43
0.0
 10
0.0
 20
80.0
 10
7.645823775271737
 20
80.0
  0
LWPOLYLINE
  5
32
330
17
100
AcDbEntity
  8
0
100
AcDbPolyline
 90
2
 70
0
 43
0.0
 10
7.645823775271737
 20
80.0
 10
7.645823775271737
 20
80.0
  0
LWPOLYLINE
  5
33
330
17
100
AcDbEntity
  8
0
100
AcDbPolyline
 90
2
 70
0
 43
0.0
 10
7.645823775271737
 20
30.0
 10
30.0
 20
30.0
  0
LWPOLYLINE
  5
34
330
17
100
AcDbEntity
  8
0
100
AcDbPolyline
 90
2
 70
0
 43
0.0
 10
7.645823775271737
 20
80.0
 10
30.0
 20
80.0
  0
LWPOLYLINE
  5
35
330
17
100
AcDbEntity
  8
0
100
AcDbPolyline
 90
2
 70
0
 43
0.0
 10
30.0
 20
80.0
 10
30.0
 20
110.0
  0
LWPOLYLINE
  5
36
330
17
100
AcDbEntity
  8
0
100
AcDbPolyline
 90
2
 70
0
 43
0.0
 10
30.0
 20
30.0
 10
106.15115324755007
 20
30.0
  0
LWPOLYLINE
  5
37
330
17
100
AcDbEntity
  8
0
100
AcDbPolyline
 90
2
 70
0
 43
0.0
 10
30.0
 20
110.0
 10
106.15115324755007
 20
110.0
  0
LWPOLYLINE
  5
38
330
17
100
AcDbEntity
  8
0
100
AcDbPolyline
 90
2
 70
0
 43
0.0
 10
106.15115324755007
 20
110.0
 10
106.15115324755007
 20
110.0
  0
LWPOLYLINE
  5
39
330
17
100
AcDbEntity
  8
0
100
AcDbPolyline
 90
2
 70
0
 43
0.0
 10
106.15115324755007
 20
30.0
 10
108.26091489315348
 20
30.0
  0
LWPOLYLINE
  5
3A
330
17
100
AcDbEntity
  8
0
100
AcDbPolyline
 90
2
 70
0
 43
0.0
 10
106.15115324755007
 20
110.0
 10
108.26091489315348
 20
110.0
  0
LWPOLYLINE
  5
3B
330
17
100
AcDbEntity
  8
0
100
AcDbPolyline
 90
2
 70
0
 43
0.0
 10
108.26091489315348
 20
110.0
 10
108.26091489315348
 20
110.0
  0
LWPOLYLINE
  5
3C
330
17
100
AcDbEntity
  8
0
100
AcDbPolyline
 90
2
 70
0
 43
0.0
 10
108.26091489315348
 20
30.0
 10
200.0
 20
30.0
  0
LWPOLYLINE
  5
3D
330
17
100
AcDbEntity
  8
0
100
AcDbPolyline
 90
2
 70
0
 43
0.0
 10
108.26091489315348
 20
110.0
 10
200.0
 20
110.0
  0
LWPOLYLINE
  5
3E
330
17
100
AcDbEntity
  8
0
100
AcDbPolyline
 90
2
 70
0
 43
0.0
 10
200.0
 20
110.0
 10
200.0
 20
70.0
  0
LWPOLYLINE
  5
3F
330
17
100
AcDbEntity
  8
0
100
AcDbPolyline
 90
2
 70
0
 43
0.0
 10
200.0
 20
30.0
 10
207.5903606468389
 20
30.0
  0
LWPOLYLINE
  5
40
330
17
100
AcDbEntity
  8
0
100
AcDbPolyline
 90
2
 70
0
 43
0.0
 10
200.0
 20
70.0
 10
207.5903606468389
 20
70.0
  0
LWPOLYLINE
  5
41
330
17
100
AcDbEntity
  8
0
100
AcDbPolyline
 90
2
 70
0
 43
0.0
 10
207.5903606468389
 20
70.0
 10
207.5903606468389
 20
70.0
  0
LWPOLYLINE
  5
42
330
17
100
AcDbEntity
  8
0
100
AcDbPolyline
 90
2
 70
0
 43
0.0
 10
207.5903606468389
 20
30.0
 10
300.0
 20
30.0
  0
LWPOLYLINE
  5
43
330
17
100
AcDbEntity
  8
0
100
AcDbPolyline
 90
2
 70
0
 43
0.0
 10
207.5903606468389
 20
70.0
 10
300.0
 20
70.0
  0
LWPOLYLINE
  5
44
330
17
100
AcDbEntity
  8
0
100
AcDbPolyline
 90
2
 70
0
 43
0.0
 10
-10.0
 20
30.0
 10
-10.0
 20
0.0
  0
LWPOLYLINE
  5
45
330
17
100
AcDbEntity
  8
0
100
AcDbPolyline
 90
2
 70
0
 43
0.0
 10
10.0
 20
30.0
 10
10.0
 20
0.0
  0
LWPOLYLINE
  5
46
330
17
100
AcDbEntity
  8
0
100
AcDbPolyline
 90
2
 70
0
 43
0.0
 10
20.0
 20
30.0
 10
20.0
 20
0.0
  0
LWPOLYLINE
  5
47
330
17
100
AcDbEntity
  8
0
100
AcDbPolyline
 90
2
 70
0
 43
0.0
 10
40.0
 20
30.0
 10
40.0
 20
0.0
  0
LWPOLYLINE
  5
48
330
17
100
AcDbEntity
  8
0
100
AcDbPolyline
 90
2
 70
0
 43
0.0
 10
190.0
 20
30.0
 10
190.0
 20
0.0
  0
LWPOLYLINE
  5
49
330
17
100
AcDbEntity
  8
0
100
AcDbPolyline
 90
2
 70
0
 43
0.0
 10
210.0
 20
30.0
 10
210.0
 20
0.0
  0
LWPOLYLINE
  5
4A
330
17
100
AcDbEntity
  8
0
100
AcDbPolyline
 90
2
 70
0
 43
0.0
 10
290.0
 20
30.0
 10
290.0
 20
0.0
  0
LWPOLYLINE
  5
4B
330
17
100
AcDbEntity
  8
0
100
AcDbPolyline
 90
2
 70
0
 43
0.0
 10
310.0
 20
30.0
 10
310.0
 20
0.0
  0
LWPOLYLINE
  5
4C
330
17
100
AcDbEntity
  8
0
100
AcDbPolyline
 90
5
 70
0
 43
0.0
 10
0.0
 20
30.0
 10
1.0
 20
30.0
 10
1.0
 20
31.0
 10
0.0
 20
31.0
 10
0.0
 20
30.0
  0
LWPOLYLINE
  5
4D
330
17
100
AcDbEntity
  8
0
100
AcDbPolyline
 90
2
 70
0
 43
0.0
 10
0.0
 20
81.0
 10
0.0
 20
81.0
  0
LWPOLYLINE
  5
4E
330
17
100
AcDbEntity
  8
0
100
AcDbPolyline
 90
2
 70
0
 43
0.0
 10
-33.07924102380673
 20
71.0
 10
114.99533187807813
 20
71.0
  0
LWPOLYLINE
  5
4F
330
17
100
AcDbEntity
  8
0
100
AcDbPolyline
 90
2
 70
0
 43
0.0
 10
100.12100289579128
 20
71.0
 10
328.07924102380673
 20
71.0
  0
LWPOLYLINE
  5
50
330
17
100
AcDbEntity
  8
0
100
AcDbPolyline
 90
5
 70
0
 43
0.0
 10
0.0
 20
81.0
 10
1.0
 20
81.0
 10
1.0
 20
82.0
 10
0.0
 20
82.0
 10
0.0
 20
81.0
  0
LWPOLYLINE
  5
51
330
17
100
AcDbEntity
  8
0
100
AcDbPolyline
 90
2
 70
0
 43
0.0
 10
0.0
 20
498.14411572339196
 10
0.0
 20
498.14411572339196
  0
LWPOLYLINE
  5
52
330
17
100
AcDbEntity
  8
0
100
AcDbPolyline
 90
295
 70
0
 43
0.0
 10
27.672622763819092
 20
499.41537643911084
 10
28.181663869346757
 20
501.7223149095864
 10
28.64322417085428
 20
503.73857730118874
 10
29.18016035175879
 20
506.0841088053333
 10
29.68920145728645
 20
508.30778452766657
 10
30.150761758793976
 20
510.2485505031257
 10
30.687697939698488
 20
512.5062565222286
 10
31.196739045226145
 20
514.6466694964196
 10
31.658299346733674
 20
516.5119390557358
 10
32.19523552763819
 20
518.681819589797
 10
32.704276633165854
 20
520.7389698158458
 10
33.16583693467338
 20
522.5287429590187
 10
33.70277311557789
 20
524.6107980080383
 10
34.21181422110555
 20
526.5846854859448
 10
34.673374522613074
 20
528.2989622129746
 10
35.21031070351759
 20
530.2931917769525
 10
35.71935180904524
 20
532.1838165067168
 10
36.180912110552775
 20
533.8225968176034
 10
36.71784829145729
 20
535.7290008965397
 10
37.22688939698495
 20
537.5363628781618
 10
37.68844969849248
 20
539.0996467729053
 10
38.22538587939699
 20
540.9182253667999
 10
38.734426984924646
 20
542.6423246002797
 10
39.19598728643217
 20
544.1301120788801
 10
39.73292346733669
 20
545.860865187733
 10
40.24196457286434
 20
547.5017016730704
 10
40.70352487437187
 20
548.9139927355277
 10
41.240461055276384
 20
550.5569203593391
 10
41.74950216080405
 20
552.1144940965344
 10
42.211062462311574
 20
553.4512887428486
 10
42.74799864321608
 20
555.0063908816184
 10
43.25703974874374
 20
556.4807018706715
 10
43.71860005025127
 20
557.7420001008425
 10
44.25553623115579
 20
559.2092767545704
 10
44.76457733668344
 20
560.6003249954812
 10
45.22613763819097
 20
561.786126809509
 10
45.76307381909548
 20
563.1655779781952
 10
46.272114924623146
 20
564.4733634709638
 10
46.733675226130664
 20
565.5836688688486
 10
47.270611407035176
 20
566.8752945524933
 10
47.77965251256284
 20
568.0998172971197
 10
48.241212814070366
 20
569.1346262788612
 10
48.77814899497488
 20
570.3384264774642
 10
49.287190100502535
 20
571.4796864739482
 10
49.74875040201007
 20
572.4389990395466
 10
50.28568658291458
 20
573.5549737531079
 10
50.79472768844223
 20
574.6129710014498
 10
51.25628798994976
 20
575.4967871509051
 10
51.79322417085427
 20
576.5249363794248
 10
52.30226527638194
 20
577.4996708796245
 10
52.76382557788946
 20
578.3079906129367
 10
53.80980286432163
 20
580.1397861084721
 10
54.27136316582916
 20
580.872609425641
 10
55.31734045226133
 20
582.5333166879925
 10
55.77890075376886
 20
583.1906435890184
 10
56.824878040201035
 20
584.6802626181861
 10
57.28643834170856
 20
585.2620931030689
 10
58.33241562814073
 20
586.5806238990525
 10
58.793975929648255
 20
587.086957967792
 10
59.839953216080424
 20
588.2344005305918
 10
60.301513517587956
 20
588.6652381831882
 10
61.34749080402013
 20
589.6415925128042
 10
61.80905110552766
 20
589.9969337492576
 10
62.85502839195983
 20
590.8021998456895
 10
63.31658869346735
 20
591.0820446659998
 10
64.36256597989953
 20
591.716222529248
 10
64.82412628140705
 20
591.9205709334149
 10
65.87010356783924
 20
592.383660563479
 10
66.33166386934676
 20
592.5125125515029
 10
67.37764115577892
 20
592.8045139483834
 10
67.83920145728645
 20
592.8578695202641
 10
68.30076175879398
 20
592.9112250921448
 10
68.88517874371863
 20
592.9787826839603
 10
69.34673904522614
 20
592.9787826839603
 10
69.80829934673368
 20
592.9787826839603
 10
70.3927163316583
 20
592.9787826839603
 10
70.85427663316585
 20
592.9787826839603
 10
71.31583693467337
 20
592.9787826839603
 10
71.90025391959801
 20
592.9787826839603
 10
72.36181422110555
 20
592.9787826839603
 10
72.82337452261308
 20
592.9787826839603
 10
73.40779150753772
 20
592.9787826839603
 10
73.86935180904524
 20
592.9787826839603
 10
74.33091211055277
 20
592.9787826839603
 10
74.9153290954774
 20
592.9787826839603
 10
75.37688939698495
 20
592.9787826839603
 10
75.83844969849247
 20
592.9787826839603
 10
76.42286668341711
 20
592.9787826839603
 10
76.88442698492464
 20
592.9787826839603
 10
77.34598728643218
 20
592.9787826839603
 10
77.93040427135682
 20
592.9787826839603
 10
78.39196457286434
 20
592.9787826839603
 10
78.85352487437187
 20
592.9787826839603
 10
79.4379418592965
 20
592.9787826839603
 10
79.89950216080405
 20
592.9787826839603
 10
80.36106246231157
 20
592.9787826839603
 10
80.94547944723621
 20
592.9787826839603
 10
81.40703974874374
 20
592.9787826839603
 10
81.86860005025127
 20
592.9787826839603
 10
82.45301703517592
 20
592.9787826839603
 10
82.91457733668344
 20
592.9787826839603
 10
83.37613763819097
 20
592.9787826839603
 10
83.9605546231156
 20
592.9787826839603
 10
84.42211492462314
 20
592.9787826839603
 10
84.88367522613066
 20
592.9787826839603
 10
85.4680922110553
 20
592.9787826839603
 10
85.92965251256284
 20
592.9787826839603
 10
86.39121281407037
 20
592.9787826839603
 10
86.97562979899502
 20
592.9787826839603
 10
87.43719010050253
 20
592.9787826839603
 10
87.89875040201007
 20
592.9787826839603
 10
88.4831673869347
 20
592.9787826839603
 10
88.94472768844223
 20
592.9787826839603
 10
89.40628798994976
 20
592.9787826839603
 10
89.9907049748744
 20
592.9787826839603
 10
90.45226527638194
 20
592.9787826839603
 10
90.91382557788947
 20
592.9787826839603
 10
91.49824256281408
 20
592.9787826839603
 10
91.95980286432163
 20
592.9787826839603
 10
92.42136316582915
 20
592.9787826839603
 10
93.0057801507538
 20
592.9787826839603
 10
93.46734045226133
 20
592.9787826839603
 10
93.92890075376886
 20
592.9787826839603
 10
94.5133177386935
 20
592.9787826839603
 10
94.97487804020103
 20
592.9787826839603
 10
95.43643834170857
 20
592.9787826839603
 10
96.02085532663318
 20
592.9787826839603
 10
96.48241562814073
 20
592.9787826839603
 10
96.94397592964825
 20
592.9787826839603
 10
97.52839291457289
 20
592.9787826839603
 10
97.98995321608042
 20
592.9787826839603
 10
98.45151351758795
 20
592.9787826839603
 10
99.0359305025126
 20
592.9787826839603
 10
99.49749080402013
 20
592.9787826839603
 10
99.95905110552766
 20
592.9787826839603
 10
100.54346809045228
 20
592.9787826839603
 10
101.00502839195983
 20
592.9787826839603
 10
101.46658869346734
 20
592.9787826839603
 10
102.05100567839199
 20
592.9787826839603
 10
102.51256597989952
 20
592.9787826839603
 10
102.97412628140705
 20
592.9787826839603
 10
103.5585432663317
 20
592.9787826839603
 10
104.02010356783923
 20
592.9787826839603
 10
104.48166386934676
 20
592.9787826839603
 10
105.06608085427138
 20
592.9787826839603
 10
105.52764115577892
 20
592.9787826839603
 10
105.98920145728644
 20
592.9787826839603
 10
106.57361844221109
 20
592.9787826839603
 10
107.03517874371862
 20
592.9787826839603
 10
107.49673904522615
 20
592.9787826839603
 10
108.0811560301508
 20
592.9787826839603
 10
108.54271633165831
 20
592.9787826839603
 10
109.00427663316586
 20
592.9787826839603
 10
109.58869361809047
 20
592.9787826839603
 10
110.05025391959802
 20
592.9787826839603
 10
110.51181422110554
 20
592.9787826839603
 10
111.09623120603018
 20
592.9787826839603
 10
111.55779150753771
 20
592.9787826839603
 10
112.01935180904525
 20
592.9787826839603
 10
112.60376879396989
 20
592.9787826839603
 10
113.06532909547741
 20
592.9787826839603
 10
113.52688939698496
 20
592.9787826839603
 10
114.11130638190957
 20
592.9787826839603
 10
114.57286668341712
 20
592.9787826839603
 10
115.03442698492464
 20
592.9787826839603
 10
115.61884396984928
 20
592.9787826839603
 10
116.08040427135681
 20
592.9787826839603
 10
116.54196457286434
 20
592.9787826839603
 10
117.12638155778899
 20
592.9787826839603
 10
117.5879418592965
 20
592.9787826839603
 10
118.04950216080405
 20
592.9787826839603
 10
118.63391914572867
 20
592.9787826839603
 10
119.09547944723622
 20
592.9787826839603
 10
119.55703974874373
 20
592.9787826839603
 10
120.14145673366838
 20
592.9787826839603
 10
120.60301703517591
 20
592.9787826839603
 10
121.06457733668344
 20
592.9787826839603
 10
121.64899432160809
 20
592.9787826839603
 10
122.1105546231156
 20
592.9787826839603
 10
122.57211492462315
 20
592.9787826839603
 10
123.15653190954777
 20
592.9787826839603
 10
123.61809221105531
 20
592.9787826839603
 10
124.07965251256283
 20
592.9787826839603
 10
124.66406949748747
 20
592.9787826839603
 10
125.125629798995
 20
592.9787826839603
 10
125.58719010050254
 20
592.9787826839603
 10
126.17160708542718
 20
592.9787826839603
 10
126.6331673869347
 20
592.9787826839603
 10
127.09472768844222
 20
592.9787826839603
 10
127.67914467336686
 20
592.9787826839603
 10
128.1407049748744
 20
592.9787826839603
 10
128.60226527638193
 20
592.9787826839603
 10
129.18668226130657
 20
592.9787826839603
 10
129.6482425628141
 20
592.9787826839603
 10
130.10980286432164
 20
592.9787826839603
 10
130.69421984924628
 20
592.9787826839603
 10
131.1557801507538
 20
592.9787826839603
 10
131.61734045226132
 20
592.9787826839603
 10
132.20175743718596
 20
592.9787826839603
 10
132.6633177386935
 20
592.9787826839603
 10
133.12487804020103
 20
592.9787826839603
 10
133.70929502512567
 20
592.9787826839603
 10
134.1708553266332
 20
592.9787826839603
 10
134.63241562814073
 20
592.9787826839603
 10
135.21683261306535
 20
592.9787826839603
 10
135.6783929145729
 20
592.9787826839603
 10
136.13995321608041
 20
592.9787826839603
 10
136.72437020100506
 20
592.9787826839603
 10
137.1859305025126
 20
592.9787826839603
 10
137.64749080402012
 20
592.9787826839603
 10
138.23190778894477
 20
592.9787826839603
 10
138.69346809045228
 20
592.9787826839603
 10
139.15502839195983
 20
592.9787826839603
 10
139.73944537688445
 20
592.9787826839603
 10
140.201005678392
 20
592.9787826839603
 10
140.6625659798995
 20
592.9787826839603
 10
141.24698296482416
 20
592.9787826839603
 10
141.7085432663317
 20
592.9787826839603
 10
142.17010356783922
 20
592.9787826839603
 10
142.75452055276386
 20
592.9787826839603
 10
143.21608085427138
 20
592.9787826839603
 10
143.67764115577893
 20
592.9787826839603
 10
144.26205814070354
 20
592.9787826839603
 10
144.7236184422111
 20
592.9787826839603
 10
145.1851787437186
 20
592.9787826839603
 10
145.76959572864325
 20
592.9507484587352
 10
146.2311560301508
 20
592.928607614473
 10
146.69271633165832
 20
592.9064667702107
 10
147.27713331658296
 20
592.7828407279446
 10
147.73869361809048
 20
592.6852034675392
 10
148.20025391959803
 20
592.5875662071337
 10
148.78467090452264
 20
592.368348347827
 10
149.2462312060302
 20
592.1952146712783
 10
149.7077915075377
 20
592.0220809947298
 10
150.29220849246235
 20
591.7072713183823
 10
150.7537687939699
 20
591.4586412256906
 10
151.21532909547741
 20
591.2100111329988
 10
151.79974608040206
 20
590.7996096396106
 10
152.26130638190958
 20
590.4754831307757
 10
152.72286668341712
 20
590.151356621941
 10
153.30728366834174
 20
589.6453633115117
 10
153.76884396984929
 20
589.2457403865335
 10
154.2304042713568
 20
588.8461174615554
 10
154.81482125628145
 20
588.2445323340856
 10
155.276381557789
 20
587.7694129929646
 10
155.7379418592965
 20
587.2942936518435
 10
156.32235884422116
 20
586.5971167073329
 10
156.78391914572867
 20
586.0465009500687
 10
157.24547944723622
 20
585.4958851928043
 10
157.82989643216084
 20
584.703116431253
 10
158.29145673366838
 20
584.0770042578456
 10
158.7530170351759
 20
583.4508920844381
 10
159.33743402010055
 20
582.562531505846
 10
159.7989943216081
 20
581.8609229162954
 10
160.2605546231156
 20
581.1593143267448
 10
160.84497160804025
 20
580.1753619311121
 10
161.30653190954777
 20
579.3982569254185
 10
161.76809221105532
 20
578.6211519197249
 10
162.81406949748748
 20
576.6890062852142
 10
163.275629798995
 20
575.8364048633773
 10
164.3216070854272
 20
573.7331709956832
 10
164.7831673869347
 20
572.8050731577033
 10
165.82914467336687
 20
570.5307510568249
 10
166.29070497487442
 20
569.5271568027017
 10
167.33668226130658
 20
567.0817464686396
 10
167.7982425628141
 20
566.0026557983734
 10
168.8442198492463
 20
563.3861572311274
 10
169.3057801507538
 20
562.231570144718
 10
170.35175743718597
 20
559.443983344288
 10
170.8133177386935
 20
558.2138998417354
 10
171.85929502512568
 20
555.2552248081215
 10
172.3208553266332
 20
553.9496448894258
 10
173.36683261306536
 20
550.8198816226279
 10
173.8283929145729
 20
549.438805287789
 10
174.87437020100506
 20
546.1379537878076
 10
175.3359305025126
 20
544.6813810368257
 10
176.38190778894477
 20
541.2094413036601
 10
176.8434680904523
 20
539.677372136535
 10
177.88944537688445
 20
536.0343441701856
 10
178.351005678392
 20
534.4267785869173
 10
179.39698296482416
 20
530.6126623873841
 10
179.8585432663317
 20
528.9296003879729
 10
180.90452055276387
 20
524.9443959552555
 10
181.3660808542714
 20
523.185837539701
 10
182.35250919597993
 20
519.2661684080078
 10
182.41205814070355
 20
519.0295448737998
 10
182.8736184422111
 20
517.195490042102
 10
183.86004678391964
 20
513.1144729687907
 10
183.91959572864326
 20
512.8681091430171
 10
184.3811560301508
 20
510.95855789517634
 10
185.36758437185935
 20
506.7161928802463
 10
185.42713331658297
 20
506.4600887629073
 10
185.88869361809049
 20
504.4750410989233
 10
186.87512195979903
 20
500.0713281423751
 10
186.93467090452265
 20
499.80548373347057
  0
LWPOLYLINE
  5
53
330
17
100
AcDbEntity
  8
0
100
AcDbPolyline
 90
586
 70
0
 43
0.0
 10
-23.149989999999995
 20
498.1440522775723
 10
-21.642452412060297
 20
488.47992653024113
 10
-20.134914824120596
 20
478.616942194743
 10
-18.627377236180898
 20
468.5550992710779
 10
-17.1198396482412
 20
458.29439775924584
 10
-15.612302060301502
 20
447.83483765924683
 10
-14.104764472361806
 20
437.1764189710808
 10
-12.597226884422106
 20
426.3191416947478
 10
-11.089689296482408
 20
415.26300583024795
 10
-9.58215170854271
 20
404.00801137758106
 10
-8.07461412060301
 20
392.55415833674715
 10
-7.999238241206022
 20
391.97153048492964
 10
-6.567076532663311
 20
380.90144670774635
 10
-6.491700653266324
 20
380.30887605843003
 10
-5.059538944723613
 20
369.0498764905785
 10
-4.984163065326619
 20
368.4473630437634
 10
-3.552001356783915
 20
356.99944768524375
 10
-3.476625477386925
 20
356.3869914409298
 10
-2.0444637688442135
 20
344.750160291742
 10
-1.9690878894472235
 20
344.1277612499292
 10
-0.5369261809045156
 20
332.30201431007333
 10
-0.46155030150752197
 20
331.6696724707617
 10
1e-05
 20
327.7975599018154
 10
0.9706114070351823
 20
319.6550097402377
 10
1.0459872864321724
 20
319.01272510342733
 10
1.507547587939699
 20
315.07972832791387
 10
2.4781489949748803
 20
306.80914658223503
 10
2.553524874371874
 20
306.1569191479258
 10
3.0150851758793977
 20
302.16303816584536
 10
3.9856865829145782
 20
293.7644248360655
 10
4.061062462311575
 20
293.1022546042574
 10
4.522622763819096
 20
289.0474894156099
 10
5.49322417085428
 20
289.0474894156099
 10
5.56860005025127
 20
289.0474894156099
 10
6.030160351758795
 20
289.0474894156099
 10
7.076137638190971
 20
289.0474894156099
 10
7.537697939698494
 20
289.0474894156099
 10
8.583675226130666
 20
289.0474894156099
 10
9.045235527638193
 20
289.0474894156099
 10
10.091212814070367
 20
289.0474894156099
 10
10.552773115577892
 20
289.0474894156099
 10
11.598750402010069
 20
289.0474894156099
 10
12.06031070351759
 20
289.0474894156099
 10
13.106287989949763
 20
289.0474894156099
 10
13.567848291457288
 20
289.0474894156099
 10
14.613825577889465
 20
289.0474894156099
 10
15.075385879396988
 20
289.0474894156099
 10
16.12136316582916
 20
289.0474894156099
 10
16.582923467336688
 20
289.0474894156099
 10
17.62890075376886
 20
289.0474894156099
 10
18.090461055276386
 20
289.0474894156099
 10
19.136438341708562
 20
289.0474894156099
 10
19.597998643216084
 20
289.0474894156099
 10
20.643975929648256
 20
289.0474894156099
 10
21.105536231155785
 20
289.0474894156099
 10
22.151513517587958
 20
289.0474894156099
 10
22.613073819095483
 20
289.0474894156099
 10
23.150009999999995
 20
289.0474894156099
 10
23.65905110552766
 20
289.0474894156099
 10
24.12061140703518
 20
289.0474894156099
 10
24.657547587939693
 20
289.0474894156099
 10
25.166588693467354
 20
289.0474894156099
 10
25.62814899497488
 20
289.0474894156099
 10
26.165085175879394
 20
289.0474894156099
 10
26.674126281407048
 20
289.0474894156099
 10
27.135686582914577
 20
289.0474894156099
 10
27.672622763819092
 20
289.0474894156099
 10
28.181663869346757
 20
289.0474894156099
 10
28.64322417085428
 20
289.0474894156099
 10
29.18016035175879
 20
289.0474894156099
 10
29.68920145728645
 20
289.0474894156099
 10
30.150761758793976
 20
289.0474894156099
 10
30.687697939698488
 20
289.0474894156099
 10
31.196739045226145
 20
289.0474894156099
 10
31.658299346733674
 20
289.0474894156099
 10
32.19523552763819
 20
289.0474894156099
 10
32.704276633165854
 20
289.0474894156099
 10
33.16583693467338
 20
289.0474894156099
 10
33.70277311557789
 20
289.0474894156099
 10
34.21181422110555
 20
289.0474894156099
 10
34.673374522613074
 20
289.0474894156099
 10
35.21031070351759
 20
289.0474894156099
 10
35.71935180904524
 20
289.0474894156099
 10
36.180912110552775
 20
289.0474894156099
 10
36.71784829145729
 20
289.0474894156099
 10
37.22688939698495
 20
289.0474894156099
 10
37.68844969849248
 20
289.0474894156099
 10
38.22538587939699
 20
289.0474894156099
 10
38.734426984924646
 20
289.0474894156099
 10
39.19598728643217
 20
289.0474894156099
 10
39.73292346733669
 20
289.0474894156099
 10
40.24196457286434
 20
289.0474894156099
 10
40.70352487437187
 20
289.0474894156099
 10
41.240461055276384
 20
289.0474894156099
 10
41.74950216080405
 20
289.0474894156099
 10
42.211062462311574
 20
289.0474894156099
 10
42.74799864321608
 20
289.0474894156099
 10
43.25703974874374
 20
289.0474894156099
 10
43.71860005025127
 20
289.0474894156099
 10
44.25553623115579
 20
289.0474894156099
 10
44.76457733668344
 20
289.0474894156099
 10
45.22613763819097
 20
289.0474894156099
 10
45.76307381909548
 20
289.0474894156099
 10
46.272114924623146
 20
289.0474894156099
 10
46.733675226130664
 20
289.0474894156099
 10
47.270611407035176
 20
289.0474894156099
 10
47.77965251256284
 20
289.0474894156099
 10
48.241212814070366
 20
289.0474894156099
 10
48.77814899497488
 20
289.0474894156099
 10
49.287190100502535
 20
289.0474894156099
 10
49.74875040201007
 20
289.0474894156099
 10
50.28568658291458
 20
289.0474894156099
 10
50.79472768844223
 20
289.0474894156099
 10
51.25628798994976
 20
289.0474894156099
 10
51.79322417085427
 20
289.0474894156099
 10
52.30226527638194
 20
289.0474894156099
 10
52.76382557788946
 20
289.0474894156099
 10
53.80980286432163
 20
289.0474894156099
 10
54.27136316582916
 20
289.0474894156099
 10
55.31734045226133
 20
289.0474894156099
 10
55.77890075376886
 20
289.0474894156099
 10
56.824878040201035
 20
289.0474894156099
 10
57.28643834170856
 20
289.0474894156099
 10
58.33241562814073
 20
289.0474894156099
 10
58.793975929648255
 20
289.0474894156099
 10
59.839953216080424
 20
289.0474894156099
 10
60.301513517587956
 20
289.0474894156099
 10
61.34749080402013
 20
289.0474894156099
 10
61.80905110552766
 20
289.0474894156099
 10
62.85502839195983
 20
289.0474894156099
 10
63.31658869346735
 20
289.0474894156099
 10
64.36256597989953
 20
289.0474894156099
 10
64.82412628140705
 20
289.0474894156099
 10
65.87010356783924
 20
289.0474894156099
 10
66.33166386934676
 20
289.0474894156099
 10
67.37764115577892
 20
289.0474894156099
 10
67.83920145728645
 20
289.0474894156099
 10
68.30076175879398
 20
269.69564927755073
 10
68.88517874371863
 20
274.5427977214046
 10
69.34673904522614
 20
278.37097410044214
 10
69.80829934673368
 20
282.19915047947984
 10
70.3927163316583
 20
286.95070710629284
 10
70.85427663316585
 20
290.70338706918756
 10
71.31583693467337
 20
294.456067032082
 10
71.90025391959801
 20
299.1120318418542
 10
72.36181422110555
 20
302.7892153886056
 10
72.82337452261308
 20
306.46639893535695
 10
73.40779150753772
 20
311.02677192808846
 10
73.86935180904524
 20
314.62845905869665
 10
74.33091211055277
 20
318.23014618930495
 10
74.9153290954774
 20
322.6949273649956
 10
75.37688939698495
 20
326.2211180794608
 10
75.83844969849247
 20
329.74730879392587
 10
76.42286668341711
 20
334.1164981525758
 10
76.88442698492464
 20
337.5671924508978
 10
77.34598728643218
 20
341.01788674921977
 10
77.93040427135682
 20
345.291484290829
 10
78.39196457286434
 20
348.66668217300776
 10
78.85352487437187
 20
352.04188005518665
 10
79.4379418592965
 20
356.21988577975503
 10
79.89950216080405
 20
359.51958724579083
 10
80.36106246231157
 20
362.8192887118265
 10
80.94547944723621
 20
366.9017026193542
 10
81.40703974874374
 20
370.1259076692467
 10
81.86860005025127
 20
373.35011271913925
 10
82.45301703517592
 20
377.3369348096262
 10
82.91457733668344
 20
380.4856434433756
 10
83.37613763819097
 20
383.634352077125
 10
83.9605546231156
 20
387.5255823505711
 10
84.42211492462314
 20
390.5987945681775
 10
84.88367522613066
 20
393.67200678578365
 10
85.4680922110553
 20
397.46764524218906
 10
85.92965251256284
 20
400.46536104365225
 10
86.39121281407037
 20
403.4630768451154
 10
86.97562979899502
 20
407.16312348448
 10
87.43719010050253
 20
410.08534286979994
 10
87.89875040201007
 20
413.00756225512
 10
88.4831673869347
 20
416.61201707744374
 10
88.94472768844223
 20
419.4587400466206
 10
89.40628798994976
 20
422.30546301579756
 10
89.9907049748744
 20
425.81432602108066
 10
90.45226527638194
 20
428.58555257411444
 10
90.91382557788947
 20
431.35677912714823
 10
91.49824256281408
 20
434.77005031539034
 10
91.95980286432163
 20
437.465780452281
 10
92.42136316582915
 20
440.16151058917154
 10
93.0057801507538
 20
443.47918996037316
 10
93.46734045226133
 20
446.09942368112064
 10
93.92890075376886
 20
448.7196574018682
 10
94.5133177386935
 20
451.94174495602897
 10
94.97487804020103
 20
454.48648226063324
 10
95.43643834170857
 20
457.03121956523756
 10
96.02085532663318
 20
460.1577153023575
 10
96.48241562814073
 20
462.62695619081876
 10
96.94397592964825
 20
465.0961970792799
 10
97.52839291457289
 20
468.1271009993592
 10
97.98995321608042
 20
470.52084547167726
 10
98.45151351758795
 20
472.9145899439954
 10
99.0359305025126
 20
475.8499020470339
 10
99.49749080402013
 20
478.1681501032088
 10
99.95905110552766
 20
480.4863981593837
 10
100.54346809045228
 20
483.3261184453813
 10
101.00502839195983
 20
485.5688700854132
 10
101.46658869346734
 20
487.8116217254449
 10
102.05100567839199
 20
490.55575019440187
 10
102.51256597989952
 20
492.7230054182905
 10
102.97412628140705
 20
494.8902606421791
 10
103.5585432663317
 20
497.53879729409533
 10
111.09623120603018
 20
497.74493965334347
 10
111.55779150753771
 20
495.60889915707327
 10
112.01935180904525
 20
493.47285866080307
 10
112.60376879396989
 20
490.76825355843636
 10
113.06532909547741
 20
488.5567166460232
 10
113.52688939698496
 20
486.3451797336098
 10
114.11130638190957
 20
483.5449828142027
 10
114.57286668341712
 20
481.25794948564607
 10
115.03442698492464
 20
478.9709161570897
 10
115.61884396984928
 20
476.0751274206414
 10
116.08040427135681
 20
473.7125976759418
 10
116.54196457286434
 20
471.3500679312422
 10
117.12638155778899
 20
468.35868737775326
 10
117.5879418592965
 20
465.92066121691073
 10
118.04950216080405
 20
463.482635056068
 10
118.63391914572867
 20
460.3956626855386
 10
119.09547944723622
 20
457.88214010855256
 10
119.55703974874373
 20
455.36861753156677
 10
120.14145673366838
 20
452.18605334399626
 10
120.60301703517591
 20
449.59703435086726
 10
121.06457733668344
 20
447.0080153577383
 10
121.64899432160809
 20
443.7298593531271
 10
122.1105546231156
 20
441.06534394385505
 10
122.57211492462315
 20
438.40082853458284
 10
123.15653190954777
 20
435.027080712931
 10
123.61809221105531
 20
432.28706888751555
 10
124.07965251256283
 20
429.5470570621003
 10
124.66406949748747
 20
426.0777174234074
 10
125.125629798995
 20
423.26220918184913
 10
125.58719010050254
 20
420.44670094029084
 10
126.17160708542718
 20
416.8817694845575
 10
126.6331673869347
 20
413.9907648268561
 10
127.09472768844222
 20
411.09976016915465
 10
127.67914467336686
 20
407.4392368963804
 10
128.1407049748744
 20
404.47273582253547
 10
128.60226527638193
 20
401.50623474869064
 10
129.18668226130657
 20
397.7501196588754
 10
129.6482425628141
 20
394.7081221688877
 10
130.10980286432164
 20
391.6661246788999
 10
130.69421984924628
 20
387.8144177720442
 10
131.1557801507538
 20
384.69692386591333
 10
131.61734045226132
 20
381.57942995978254
 10
132.20175743718596
 20
377.632131235886
 10
132.6633177386935
 20
374.4391409136118
 10
133.12487804020103
 20
371.24615059133794
 10
133.70929502512567
 20
367.2032600504006
 10
134.1708553266332
 20
363.93477331198346
 10
134.63241562814073
 20
360.666286573566
 10
135.21683261306535
 20
356.52780421558805
 10
135.6783929145729
 20
353.1838210610275
 10
136.13995321608041
 20
349.83983790646715
 10
136.72437020100506
 20
345.6057637314482
 10
137.1859305025126
 20
342.18628416074455
 10
137.64749080402012
 20
338.76680459004115
 10
138.23190778894477
 20
334.43713859798146
 10
138.69346809045228
 20
330.94216261113513
 10
139.15502839195983
 20
327.44718662428846
 10
139.73944537688445
 20
323.02192881518846
 10
140.201005678392
 20
319.45145641219847
 10
140.6625659798995
 20
315.88098400920865
 10
141.24698296482416
 20
311.3601343830673
 10
141.7085432663317
 20
307.7141655639343
 10
142.17010356783922
 20
304.06819674480147
 10
142.75452055276386
 20
299.4517553016195
 10
143.21608085427138
 20
295.7302900663435
 10
143.67764115577893
 20
292.0088248310674
 10
144.26205814070354
 20
287.29679157084485
 10
144.7236184422111
 20
283.4998299194257
 10
145.1851787437186
 20
279.7028682680067
 10
145.76959572864325
 20
274.89524319074326
 10
146.2311560301508
 20
271.0227851231808
 10
146.69271633165832
 20
267.15032705561873
 10
147.27713331658296
 20
262.2471101613145
 10
147.73869361809048
 20
258.29915567760906
 10
148.20025391959803
 20
254.35120119390336
 10
148.78467090452264
 20
249.35239248255846
 10
149.2462312060302
 20
245.32894158270975
 10
149.7077915075377
 20
241.30549068286126
 10
150.29220849246235
 20
236.21109015447553
 10
150.7537687939699
 20
232.11214283848363
 10
151.21532909547741
 20
228.01319552249197
 10
151.79974608040206
 20
222.8232031770654
 10
152.26130638190958
 20
218.64875944493065
 10
152.72286668341712
 20
214.47431571279566
 10
153.30728366834174
 20
209.18873155032867
 10
153.76884396984929
 20
204.9387914020504
 10
154.2304042713568
 20
200.6888512537725
 10
154.81482125628145
 20
195.30767527426434
 10
155.276381557789
 20
190.98223870984322
 10
155.7379418592965
 20
186.65680214542238
 10
156.32235884422116
 20
181.1800343488738
 10
156.78391914572867
 20
176.77910136830957
 10
157.24547944723622
 20
172.37816838774512
 10
157.82989643216084
 20
166.8058087741557
 10
158.29145673366838
 20
162.32937937744822
 10
158.7530170351759
 20
157.85294998074102
 10
159.33743402010055
 20
152.18499855011072
 10
159.7989943216081
 20
147.6330727372599
 10
160.2605546231156
 20
143.08114692440938
 10
160.84497160804025
 20
137.3176036767382
 10
161.30653190954777
 20
137.1820253918733
 10
161.76809221105532
 20
137.04644710700836
 10
162.81406949748748
 20
136.73920273170364
 10
163.275629798995
 20
136.6036244468388
 10
164.3216070854272
 20
136.2963800715341
 10
164.7831673869347
 20
136.16080178666914
 10
165.82914467336687
 20
135.85355741136453
 10
166.29070497487442
 20
135.71797912649959
 10
167.33668226130658
 20
135.41073475119487
 10
167.7982425628141
 20
135.27515646633003
 10
168.8442198492463
 20
134.9679120910253
 10
169.3057801507538
 20
134.83233380616048
 10
170.35175743718597
 20
134.52508943085576
 10
170.8133177386935
 20
134.3895111459908
 10
171.85929502512568
 20
134.0822667706861
 10
172.3208553266332
 20
133.94668848582126
 10
173.36683261306536
 20
133.63944411051654
 10
173.8283929145729
 20
133.5038658256517
 10
174.87437020100506
 20
133.19662145034698
 10
175.3359305025126
 20
133.06104316548203
 10
176.38190778894477
 20
132.75379879017743
 10
176.8434680904523
 20
132.61822050531248
 10
177.88944537688445
 20
132.31097613000776
 10
178.351005678392
 20
132.17539784514292
 10
179.39698296482416
 20
131.8681534698382
 10
179.8585432663317
 20
131.73257518497326
 10
180.90452055276387
 20
131.42533080966865
 10
181.3660808542714
 20
131.2897525248037
 10
182.35250919597993
 20
131.0
 10
182.41205814070355
 20
131.0
 10
182.8736184422111
 20
131.0
 10
183.86004678391964
 20
131.0
 10
183.91959572864326
 20
131.0
 10
184.3811560301508
 20
131.0
 10
185.36758437185935
 20
131.0
 10
185.42713331658297
 20
131.0
 10
185.88869361809049
 20
131.0
 10
186.87512195979903
 20
131.0
 10
186.93467090452265
 20
131.0
 10
187.3962312060302
 20
131.0
 10
188.38265954773874
 20
131.0
 10
188.44220849246236
 20
131.0
 10
188.9037687939699
 20
131.0
 10
189.89019713567845
 20
131.0
 10
189.94974608040206
 20
131.0
 10
190.41130638190958
 20
131.0
 10
191.39773472361813
 20
131.0
 10
191.45728366834174
 20
131.0
 10
191.9188439698493
 20
131.0
 10
192.90527231155784
 20
131.0
 10
192.96482125628145
 20
131.0
 10
193.426381557789
 20
131.0
 10
194.41280989949755
 20
131.0
 10
194.47235884422116
 20
131.0
 10
194.93391914572868
 20
131.0
 10
195.92034748743723
 20
131.0
 10
195.97989643216084
 20
131.0
 10
196.4414567336684
 20
131.0
 10
197.42788507537693
 20
131.0
 10
197.48743402010055
 20
131.0
 10
197.9489943216081
 20
131.0
 10
198.93542266331661
 20
131.0
 10
198.99497160804026
 20
131.0
 10
199.45653190954778
 20
131.0
 10
200.44296025125632
 20
131.0
 10
200.50250919597994
 20
131.0
 10
200.9640694974875
 20
131.0
 10
201.95049783919603
 20
131.0
 10
202.01004678391965
 20
131.0
 10
202.4716070854272
 20
131.0
 10
203.4580354271357
 20
131.0
 10
203.51758437185936
 20
131.0
 10
203.97914467336687
 20
131.0
 10
204.96557301507542
 20
131.0
 10
205.02512195979904
 20
131.0
 10
205.48668226130658
 20
131.0
 10
206.47311060301513
 20
131.0
 10
206.53265954773875
 20
131.0
 10
206.9942198492463
 20
131.0
 10
207.9806481909548
 20
131.0
 10
208.04019713567845
 20
131.0
 10
208.50175743718597
 20
131.0
 10
209.48818577889452
 20
131.0
 10
209.54773472361813
 20
131.0
 10
210.00929502512568
 20
131.0
 10
210.99572336683423
 20
131.0
 10
211.05527231155784
 20
131.0
 10
211.51683261306536
 20
131.0
 10
212.5032609547739
 20
131.0
 10
212.56280989949755
 20
131.0
 10
213.02437020100507
 20
131.0
 10
214.01079854271362
 20
131.0
 10
214.07034748743723
 20
131.0
 10
214.53190778894478
 20
131.0
 10
215.51833613065332
 20
131.0
 10
215.57788507537694
 20
131.0
 10
216.03944537688446
 20
131.0
 10
217.025873718593
 20
131.0
 10
217.08542266331662
 20
131.0
 10
217.54698296482417
 20
131.0
 10
218.5334113065327
 20
131.0
 10
218.59296025125633
 20
131.0
 10
218.65250919597995
 20
131.0
 10
219.05452055276388
 20
131.0
 10
220.04094889447242
 20
131.0
 10
220.10049783919604
 20
131.0
 10
220.16004678391965
 20
131.0
 10
220.56205814070356
 20
131.0
 10
221.5484864824121
 20
131.0
 10
221.60803542713572
 20
131.0
 10
221.66758437185936
 20
131.0
 10
222.06959572864326
 20
131.0
 10
223.0560240703518
 20
131.0
 10
223.11557301507543
 20
131.0
 10
223.17512195979904
 20
131.0
 10
223.57713331658297
 20
131.0
 10
224.56356165829152
 20
131.0
 10
224.62311060301514
 20
131.0
 10
224.68265954773875
 20
131.0
 10
225.08467090452265
 20
131.0
 10
226.0710992462312
 20
131.0
 10
226.13064819095482
 20
131.0
 10
226.19019713567846
 20
131.0
 10
226.59220849246236
 20
131.0
 10
227.5786368341709
 20
131.0
 10
227.63818577889452
 20
131.0
 10
227.69773472361814
 20
131.0
 10
228.09974608040207
 20
131.0
 10
229.08617442211062
 20
131.0
 10
229.14572336683423
 20
131.0
 10
229.20527231155785
 20
131.0
 10
229.60728366834175
 20
131.0
 10
230.5937120100503
 20
131.0
 10
230.6532609547739
 20
131.0
 10
230.71280989949756
 20
131.0
 10
231.11482125628146
 20
131.0
 10
232.10124959799
 20
131.0
 10
232.16079854271362
 20
131.0
 10
232.22034748743724
 20
131.0
 10
232.62235884422117
 20
131.0
 10
233.6087871859297
 20
131.0
 10
233.66833613065333
 20
131.0
 10
233.72788507537695
 20
131.0
 10
234.12989643216085
 20
131.0
 10
235.1163247738694
 20
131.0
 10
235.175873718593
 20
131.0
 10
235.23542266331663
 20
131.0
 10
235.63743402010056
 20
131.0
 10
236.6238623618091
 20
131.0
 10
236.68341130653272
 20
131.0
 10
236.74296025125633
 20
141.28225545902325
 10
237.14497160804027
 20
254.146122549442
 10
238.13139994974878
 20
259.9538078425423
 10
238.19094889447243
 20
260.3044075930443
 10
238.25049783919604
 20
260.65500734354623
 10
239.63893753768846
 20
268.6610739739675
 10
239.6984864824121
 20
269.0044470565338
 10
239.75803542713572
 20
269.3478201391
 10
241.14647512562814
 20
277.1853902042791
 10
241.20602407035182
 20
277.52153661890986
 10
241.26557301507543
 20
277.8576830335403
 10
242.65401271356788
 20
285.5267565334782
 10
242.71356165829152
 20
285.85567628017316
 10
242.77311060301514
 20
286.18459602686795
 10
244.16155030150756
 20
293.68517296156267
 10
244.2210992462312
 20
294.00686604032194
 10
244.28064819095482
 20
294.32855911908104
 10
245.66908788944724
 20
301.6606394885348
 10
245.7286368341709
 20
301.9751058993586
 10
245.78818577889453
 20
302.289572310182
 10
247.17662547738698
 20
309.4531561143927
 10
247.23617442211062
 20
309.76039585728057
 10
247.29572336683424
 20
310.0676356001683
 10
248.68416306532666
 20
317.06272283913665
 10
248.7437120100503
 20
317.36273591408883
 10
248.80326095477392
 20
317.6627489890409
 10
250.19170065326634
 20
324.48933966276707
 10
250.25124959799
 20
324.7821260697837
 10
250.31079854271363
 20
325.0749124768001
 10
251.69923824120607
 20
331.7330065852842
 10
251.75878718592972
 20
332.018566324365
 10
251.81833613065334
 20
332.3041260634457
 10
253.20677582914576
 20
338.7937236066865
 10
253.2663247738694
 20
339.0720566778316
 10
253.32587371859302
 20
339.3503897489765
 10
254.71431341708544
 20
345.67149072697674
 10
254.7738623618091
 20
345.9425971301863
 10
254.83341130653272
 20
346.2137035333957
 10
256.2218510050252
 20
352.36630794615303
 10
256.2813999497488
 20
352.6301876814265
 10
256.34094889447243
 20
352.89406741670024
 10
257.7293885929649
 20
358.8781752642151
 10
257.78893753768847
 20
359.13482833155285
 10
257.8484864824121
 20
359.3914813988909
 10
259.23692618090456
 20
365.2070926811649
 10
259.29647512562815
 20
365.4565190805671
 10
259.3560240703518
 20
365.7059454799695
 10
260.7444637688443
 20
371.35306019699965
 10
260.8040127135679
 20
371.5952599284661
 10
260.86356165829153
 20
371.83745965993273
 10
262.252001356784
 20
377.31607781172113
 10
262.31155030150757
 20
377.5510508752519
 10
262.3710992462312
 20
377.78602393878293
 10
263.75953894472366
 20
383.09614552532855
 10
263.81908788944725
 20
383.32389192092364
 10
263.8786368341709
 20
383.5516383165189
 10
265.2670765326634
 20
388.6932633378233
 10
265.326625477387
 20
388.9137830654827
 10
265.3861744221106
 20
389.1343027931423
 10
266.7746141206031
 20
394.10743124920356
 10
266.83416306532666
 20
394.32072430892725
 10
266.8937120100503
 20
394.5340173686511
 10
268.28215170854276
 20
399.33864925947097
 10
268.34170065326634
 20
399.544715651259
 10
268.40124959799
 20
399.75078204304725
 10
269.7896892964825
 20
404.3869173686252
 10
269.8492382412061
 20
404.5857570924776
 10
269.9087871859297
 20
404.7845968163301
 10
271.2972268844222
 20
409.25223557666544
 10
271.35677582914576
 20
409.4438486325821
 10
271.4163247738694
 20
409.63546168849894
 10
272.80476447236185
 20
413.93460388359176
 10
272.86431341708544
 20
414.1189902715728
 10
272.9238623618091
 20
414.3033766595539
 10
274.3123020603016
 20
418.4340222894049
 10
274.3718510050252
 20
418.61118200945015
 10
274.43139994974877
 20
418.78834172949547
 10
275.81983964824127
 20
422.75049079410394
 10
275.87938859296486
 20
422.92042384621357
 10
275.93893753768845
 20
423.0903568983232
 10
277.32737723618095
 20
426.8840093976887
 10
277.38692618090454
 20
427.0467157818626
 10
277.4464751256281
 20
427.2094221660365
 10
278.8349148241207
 20
430.8345781001601
 10
278.8944637688443
 20
430.99005781639835
 10
278.95401271356786
 20
431.1455375326366
 10
280.34245241206037
 20
434.6021969015192
 10
280.40200135678396
 20
434.7504499498218
 10
280.46155030150754
 20
434.8987029981244
 10
281.84999000000005
 20
438.1868658017644
 10
281.90953894472364
 20
438.3278921821313
 10
281.9690878894472
 20
438.4689185624982
 10
283.4170765326634
 20
441.72238451332584
 10
283.47662547738696
 20
441.856184225757
 10
284.92461412060305
 20
444.9339269434081
 10
284.98416306532664
 20
445.06049998790365
 10
286.43215170854273
 20
447.96251947237585
 10
286.4917006532663
 20
448.08186584893565
 10
287.93968929648247
 20
450.8081621002304
 10
287.99923824120606
 20
450.92028180885455
 10
289.44722688442215
 20
453.4708548269719
 10
289.50677582914574
 20
453.5757478676604
 10
290.95476447236183
 20
455.9505976525991
 10
291.0143134170854
 20
456.0482640253519
 10
292.46230206030157
 20
458.2473905771124
 10
292.52185100502516
 20
458.3378302819295
 10
293.96983964824125
 20
460.3612336005135
 10
294.02938859296484
 20
460.444446637395
 10
295.4773772361809
 20
462.29212672279925
 10
295.5369261809045
 20
462.368113091745
 10
296.98491482412066
 20
464.04006994397326
 10
297.04446376884425
 20
464.10882964498336
 10
298.49245241206035
 20
465.6050632640312
 10
298.55200135678393
 20
465.66659629710546
 10
299.99999
 20
466.9871066829777
 10
300.0595389447236
 20
467.0414130481164
 10
301.56707653266335
 20
468.2332798980122
 10
303.07461412060303
 20
469.24219684679537
 10
304.5821517085427
 20
469.2691217733758
 10
306.08968929648245
 20
469.2691217733758
 10
307.5972268844221
 20
469.2691217733758
 10
309.1047644723618
 20
469.2691217733758
 10
310.61230206030154
 20
469.2691217733758
 10
312.1198396482412
 20
469.2691217733758
 10
313.6273772361809
 20
469.2691217733758
 10
315.13491482412064
 20
469.2691217733758
 10
316.6424524120603
 20
469.2691217733758
 10
318.14999
 20
469.2691217733758
  0
LWPOLYLINE
  5
54
330
17
100
AcDbEntity
  8
0
100
AcDbPolyline
 90
5
 70
0
 43
0.0
 10
0.0
 20
498.14411572339196
 10
1.0
 20
498.14411572339196
 10
1.0
 20
499.14411572339196
 10
0.0
 20
499.14411572339196
 10
0.0
 20
498.14411572339196
  0
LWPOLYLINE
  5
55
330
17
100
AcDbEntity
  8
0
100
AcDbPolyline
 90
200
 70
0
 43
0.0
 10
1e-05
 20
636.6342002803339
 10
1.507547587939699
 20
636.5022907413891
 10
3.0150851758793977
 20
636.3703812024444
 10
4.522622763819096
 20
636.2384716634997
 10
6.030160351758795
 20
636.1065621245549
 10
7.537697939698494
 20
635.9746525856102
 10
9.045235527638193
 20
635.8427430466655
 10
10.552773115577892
 20
635.7108335077207
 10
12.06031070351759
 20
635.578923968776
 10
13.567848291457288
 20
635.4470144298313
 10
15.075385879396988
 20
635.3151048908866
 10
16.582923467336688
 20
635.1831953519419
 10
18.090461055276386
 20
635.0512858129971
 10
19.597998643216084
 20
634.9193762740524
 10
21.105536231155785
 20
634.7874667351077
 10
22.613073819095483
 20
634.6555571961629
 10
24.12061140703518
 20
634.5236476572182
 10
25.62814899497488
 20
634.3917381182736
 10
27.135686582914577
 20
634.2598285793288
 10
28.64322417085428
 20
634.1279190403841
 10
30.150761758793976
 20
651.3545562816516
 10
31.658299346733674
 20
651.1909884533602
 10
33.16583693467338
 20
651.0274206250687
 10
34.673374522613074
 20
650.8638527967772
 10
36.180912110552775
 20
650.7002849684858
 10
37.68844969849248
 20
650.5367171401944
 10
39.19598728643217
 20
650.3731493119029
 10
40.70352487437187
 20
650.2095814836114
 10
42.211062462311574
 20
650.0460136553199
 10
43.71860005025127
 20
649.8824458270285
 10
45.22613763819097
 20
649.7188779987371
 10
46.733675226130664
 20
649.5553101704456
 10
48.241212814070366
 20
649.3917423421541
 10
49.74875040201007
 20
649.2281745138627
 10
51.25628798994976
 20
649.0646066855712
 10
52.76382557788946
 20
648.9010388572798
 10
54.27136316582916
 20
648.7374710289882
 10
55.77890075376886
 20
648.5739032006968
 10
57.28643834170856
 20
648.4103353724054
 10
58.793975929648255
 20
648.2467675441139
 10
60.301513517587956
 20
648.0831997158225
 10
61.80905110552766
 20
647.919631887531
 10
63.31658869346735
 20
647.7560640592395
 10
64.82412628140705
 20
647.5924962309481
 10
66.33166386934676
 20
647.4289284026567
 10
67.83920145728645
 20
647.2653605743652
 10
69.34673904522614
 20
647.1017927460737
 10
70.85427663316585
 20
646.9382249177822
 10
72.36181422110555
 20
646.7746570894908
 10
73.86935180904524
 20
646.6110892611994
 10
75.37688939698495
 20
646.4475214329079
 10
76.88442698492464
 20
646.2839536046164
 10
78.39196457286434
 20
646.120385776325
 10
79.89950216080405
 20
645.9568179480335
 10
81.40703974874374
 20
645.7932501197421
 10
82.91457733668344
 20
645.6296822914506
 10
84.42211492462314
 20
645.4661144631591
 10
85.92965251256284
 20
645.3025466348677
 10
87.43719010050253
 20
645.1389788065762
 10
88.94472768844223
 20
644.9754109782848
 10
90.45226527638194
 20
644.8118431499934
 10
91.95980286432163
 20
644.6482753217018
 10
93.46734045226133
 20
644.4847074934104
 10
94.97487804020103
 20
644.321139665119
 10
96.48241562814073
 20
644.1575718368275
 10
97.98995321608042
 20
643.9940040085361
 10
99.49749080402013
 20
643.8304361802445
 10
101.00502839195983
 20
643.6668683519531
 10
102.51256597989952
 20
643.5033005236617
 10
104.02010356783923
 20
643.3397326953702
 10
105.52764115577892
 20
643.1761648670788
 10
107.03517874371862
 20
643.0125970387872
 10
108.54271633165831
 20
642.8490292104958
 10
110.05025391959802
 20
642.6854613822044
 10
111.55779150753771
 20
642.521893553913
 10
113.06532909547741
 20
642.3583257256215
 10
114.57286668341712
 20
642.19475789733
 10
116.08040427135681
 20
642.0311900690385
 10
117.5879418592965
 20
641.8676222407471
 10
119.09547944723622
 20
641.7040544124557
 10
120.60301703517591
 20
641.5404865841642
 10
122.1105546231156
 20
641.3769187558727
 10
123.61809221105531
 20
641.2133509275812
 10
125.125629798995
 20
641.0497830992898
 10
126.6331673869347
 20
640.8862152709984
 10
128.1407049748744
 20
640.7226474427068
 10
129.6482425628141
 20
640.5590796144154
 10
131.1557801507538
 20
640.395511786124
 10
132.6633177386935
 20
640.2319439578325
 10
134.1708553266332
 20
640.0683761295411
 10
135.6783929145729
 20
639.9048083012495
 10
137.1859305025126
 20
639.7412404729581
 10
138.69346809045228
 20
639.5776726446667
 10
140.201005678392
 20
639.4141048163752
 10
141.7085432663317
 20
639.2505369880838
 10
143.21608085427138
 20
639.0869691597923
 10
144.7236184422111
 20
638.9234013315008
 10
146.2311560301508
 20
638.7598335032094
 10
147.73869361809048
 20
638.596265674918
 10
149.2462312060302
 20
638.4326978466265
 10
150.7537687939699
 20
638.269130018335
 10
152.26130638190958
 20
638.1055621900435
 10
153.76884396984929
 20
637.9419943617521
 10
155.276381557789
 20
637.7784265334607
 10
156.78391914572867
 20
637.6148587051692
 10
158.29145673366838
 20
637.4512908768777
 10
159.7989943216081
 20
637.2877230485863
 10
161.30653190954777
 20
637.1241552202948
 10
162.81406949748748
 20
636.9605873920034
 10
164.3216070854272
 20
636.797019563712
 10
165.82914467336687
 20
636.6334517354204
 10
167.33668226130658
 20
636.469883907129
 10
168.8442198492463
 20
636.3063160788375
 10
170.35175743718597
 20
636.1427482505461
 10
171.85929502512568
 20
635.9791804222547
 10
173.36683261306536
 20
635.8156125939631
 10
174.87437020100506
 20
635.6520447656717
 10
176.38190778894477
 20
635.4884769373803
 10
177.88944537688445
 20
635.3249091090888
 10
179.39698296482416
 20
635.1613412807974
 10
180.90452055276387
 20
634.9977734525058
 10
182.41205814070355
 20
634.8342056242144
 10
183.91959572864326
 20
634.670637795923
 10
185.42713331658297
 20
634.5070699676315
 10
186.93467090452265
 20
634.3435021393401
 10
188.44220849246236
 20
634.1799343110486
 10
189.94974608040206
 20
634.0163664827571
 10
191.45728366834174
 20
633.8527986544657
 10
192.96482125628145
 20
633.6892308261743
 10
194.47235884422116
 20
633.5256629978828
 10
195.97989643216084
 20
633.3620951695913
 10
197.48743402010055
 20
633.1985273412998
 10
198.99497160804026
 20
633.0349595130084
 10
200.50250919597994
 20
650.383332029787
 10
202.01004678391965
 20
650.2619752539579
 10
203.51758437185936
 20
650.1406184781288
 10
205.02512195979904
 20
650.0192617022996
 10
206.53265954773875
 20
649.8979049264705
 10
208.04019713567845
 20
649.7765481506412
 10
209.54773472361813
 20
649.6551913748121
 10
211.05527231155784
 20
649.5338345989829
 10
212.56280989949755
 20
649.4124778231538
 10
214.07034748743723
 20
649.2911210473247
 10
215.57788507537694
 20
649.1697642714955
 10
217.08542266331662
 20
649.0484074956664
 10
218.59296025125633
 20
648.9270507198372
 10
220.10049783919604
 20
648.8056939440081
 10
221.60803542713572
 20
648.684337168179
 10
223.11557301507543
 20
648.5629803923498
 10
224.62311060301514
 20
648.4416236165207
 10
226.13064819095482
 20
648.3202668406915
 10
227.63818577889452
 20
648.1989100648624
 10
229.14572336683423
 20
648.0775532890333
 10
230.6532609547739
 20
647.9561965132041
 10
232.16079854271362
 20
647.834839737375
 10
233.66833613065333
 20
647.7134829615458
 10
235.175873718593
 20
647.5921261857167
 10
236.68341130653272
 20
647.4707694098876
 10
238.19094889447243
 20
647.3494126340584
 10
239.6984864824121
 20
647.2280558582293
 10
241.20602407035182
 20
647.1066990824
 10
242.71356165829152
 20
646.9853423065709
 10
244.2210992462312
 20
646.8639855307417
 10
245.7286368341709
 20
646.7426287549126
 10
247.23617442211062
 20
646.6212719790835
 10
248.7437120100503
 20
646.4999152032543
 10
250.25124959799
 20
646.3785584274252
 10
251.75878718592972
 20
646.257201651596
 10
253.2663247738694
 20
646.1358448757669
 10
254.7738623618091
 20
646.0144880999378
 10
256.2813999497488
 20
645.8931313241086
 10
257.78893753768847
 20
645.7717745482795
 10
259.29647512562815
 20
645.6504177724503
 10
260.8040127135679
 20
645.5290609966212
 10
262.31155030150757
 20
645.4077042207921
 10
263.81908788944725
 20
645.2863474449629
 10
265.326625477387
 20
645.1649906691338
 10
266.83416306532666
 20
645.0436338933046
 10
268.34170065326634
 20
644.9222771174755
 10
269.8492382412061
 20
644.8009203416462
 10
271.35677582914576
 20
644.6795635658171
 10
272.86431341708544
 20
644.558206789988
 10
274.3718510050252
 20
644.4368500141588
 10
275.87938859296486
 20
644.3154932383297
 10
277.38692618090454
 20
644.1941364625006
 10
278.8944637688443
 20
644.0727796866714
 10
280.40200135678396
 20
643.9514229108423
 10
281.90953894472364
 20
643.8300661350131
 10
283.4170765326634
 20
643.708709359184
 10
284.92461412060305
 20
643.5873525833548
 10
286.43215170854273
 20
643.4659958075257
 10
287.93968929648247
 20
643.3446390316966
 10
289.44722688442215
 20
643.2232822558674
 10
290.95476447236183
 20
643.1019254800383
 10
292.46230206030157
 20
642.9805687042091
 10
293.96983964824125
 20
642.85921192838
 10
295.4773772361809
 20
642.7378551525509
 10
296.98491482412066
 20
642.6164983767217
 10
298.49245241206035
 20
642.4951416008926
 10
299.99999
 20
642.3737848250634
  0
LWPOLYLINE
  5
56
330
17
100
AcDbEntity
  8
0
100
AcDbPolyline
 90
5
 70
0
 43
0.0
 10
0.0
 20
642.9787826839603
 10
1.0
 20
642.9787826839603
 10
1.0
 20
643.9787826839603
 10
0.0
 20
643.9787826839603
 10
0.0
 20
642.9787826839603
  0
ENDSEC
  0
SECTION
  2
OBJECTS
  0
DICTIONARY
  5
A
330
0
100
AcDbDictionary
281
1
  3
ACAD_COLOR
350
B
  3
ACAD_GROUP
350
C
  3
ACAD_LAYOUT
350
D
  3
ACAD_MATERIAL
350
E
  3
ACAD_MLEADERSTYLE
350
F
  3
ACAD_MLINESTYLE
350
10
  3
ACAD_PLOTSETTINGS
350
11
  3
ACAD_PLOTSTYLENAME
350
12
  3
ACAD_SCALELIST
350
14
  3
ACAD_TABLESTYLE
350
15
  3
ACAD_VISUALSTYLE
350
16
  0
DICTIONARY
  5
B
330
A
100
AcDbDictionary
281
1
  0
DICTIONARY
  5
C
330
A
100
AcDbDictionary
281
1
  0
DICTIONARY
  5
D
330
A
100
AcDbDictionary
281
1
  3
Model
350
1A
  3
Layout1
350
1E
  0
DICTIONARY
  5
E
330
A
100
AcDbDictionary
281
1
  3
ByBlock
350
1F
  3
ByLayer
350
20
  3
Global
350
21
  0
DICTIONARY
  5
F
330
A
100
AcDbDictionary
281
1
  3
Standard
350
2C
  0
DICTIONARY
  5
10
330
A
100
AcDbDictionary
281
1
  3
Standard
350
22
  0
DICTIONARY
  5
11
330
A
100
AcDbDictionary
281
1
  0
ACDBDICTIONARYWDFLT
  5
12
330
A
100
AcDbDictionary
281
1
  3
Normal
350
13
100
AcDbDictionaryWithDefault
340
13
  0
ACDBPLACEHOLDER
  5
13
330
12
  0
DICTIONARY
  5
14
330
A
100
AcDbDictionary
281
1
  0
DICTIONARY
  5
15
330
A
100
AcDbDictionary
281
1
  0
DICTIONARY
  5
16
330
A
100
AcDbDictionary
281
1
  0
LAYOUT
  5
1A
330
D
100
AcDbPlotSettings
  1

  2
Adobe PDF
  4
A4
  6

 40
3.175
 41
3.175
 42
3.175
 43
3.175
 44
209.91
 45
297.03
 46
0.0
 47
0.0
 48
0.0
 49
0.0
140
0.0
141
0.0
142
1.0
143
1.0
 70
1024
 72
0
 73
1
 74
5
  7

 75
16
 76
0
 77
2
 78
300
147
1.0
148
0.0
149
0.0
100
AcDbLayout
  1
Model
 70
1
 71
0
 10
-3.175
 20
-3.175
 11
293.857
 21
206.735
 12
0.0
 22
0.0
 32
0.0
 14
29.068
 24
20.356
 34
0.0
 15
261.614
 25
183.204
 35
0.0
146
0.0
 13
0.0
 23
0.0
 33
0.0
 16
1.0
 26
0.0
 36
0.0
 17
0.0
 27
1.0
 37
0.0
 76
1
330
17
  0
LAYOUT
  5
1E
330
D
100
AcDbPlotSettings
  1

  2
Adobe PDF
  4
A4
  6

 40
3.175
 41
3.175
 42
3.175
 43
3.175
 44
209.91
 45
297.03
 46
0.0
 47
0.0
 48
0.0
 49
0.0
140
0.0
141
0.0
142
1.0
143
1.0
 70
0
 72
0
 73
1
 74
5
  7

 75
16
 76
0
 77
2
 78
300
147
1.0
148
0.0
149
0.0
100
AcDbLayout
  1
Layout1
 70
1
 71
1
 10
-3.175
 20
-3.175
 11
293.857
 21
206.735
 12
0.0
 22
0.0
 32
0.0
 14
29.068
 24
20.356
 34
0.0
 15
261.614
 25
183.204
 35
0.0
146
0.0
 13
0.0
 23
0.0
 33
0.0
 16
1.0
 26
0.0
 36
0.0
 17
0.0
 27
1.0
 37
0.0
 76
1
330
1B
  0
MATERIAL
  5
1F
102
{ACAD_REACTORS
330
E
102
}
330
E
100
AcDbMaterial
  1
ByBlock
  2

 70
0
 40
1.0
 71
1
 41
1.0
 91
-1023410177
 42
1.0
 72
1
  3

 73
1
 74
1
 75
1
 44
0.5
 73
0
 45
1.0
 46
1.0
 77
1
  4

 78
1
 79
1
170
1
 48
1.0
171
1
  6

172
1
173
1
174
1
140
1.0
141
1.0
175
1
  7

176
1
177
1
178
1
143
1.0
179
1
  8

270
1
271
1
272
1
145
1.0
146
1.0
273
1
  9

274
1
275
1
276
1
 42
1.0
 72
1
  3

 73
1
 74
1
 75
1
 94
63
  0
MATERIAL
  5
20
102
{ACAD_REACTORS
330
E
102
}
330
E
100
AcDbMaterial
  1
ByLayer
  2

 70
0
 40
1.0
 71
1
 41
1.0
 91
-1023410177
 42
1.0
 72
1
  3

 73
1
 74
1
 75
1
 44
0.5
 73
0
 45
1.0
 46
1.0
 77
1
  4

 78
1
 79
1
170
1
 48
1.0
171
1
  6

172
1
173
1
174
1
140
1.0
141
1.0
175
1
  7

176
1
177
1
178
1
143
1.0
179
1
  8

270
1
271
1
272
1
145
1.0
146
1.0
273
1
  9

274
1
275
1
276
1
 42
1.0
 72
1
  3

 73
1
 74
1
 75
1
 94
63
  0
MATERIAL
  5
21
102
{ACAD_REACTORS
330
E
102
}
330
E
100
AcDbMaterial
  1
Global
  2

 70
0
 40
1.0
 71
1
 41
1.0
 91
-1023410177
 42
1.0
 72
1
  3

 73
1
 74
1
 75
1
 44
0.5
 73
0
 45
1.0
 46
1.0
 77
1
  4

 78
1
 79
1
170
1
 48
1.0
171
1
  6

172
1
173
1
174
1
140
1.0
141
1.0
175
1
  7

176
1
177
1
178
1
143
1.0
179
1
  8

270
1
271
1
272
1
145
1.0
146
1.0
273
1
  9

274
1
275
1
276
1
 42
1.0
 72
1
  3

 73
1
 74
1
 75
1
 94
63
  0
MLINESTYLE
  5
22
102
{ACAD_REACTORS
330
10
102
}
330
10
100
AcDbMlineStyle
  2
Standard
 70
0
  3

 62
256
 51
90.0
 52
90.0
 71
2
 49
0.5
 62
256
  6
BYLAYER
 49
-0.5
 62
256
  6
BYLAYER
  0
MLEADERSTYLE
  5
2C
102
{ACAD_REACTORS
330
F
102
}
330
F
100
AcDbMLeaderStyle
179
2
170
2
171
1
172
0
 90
2
 40
0.0
 41
0.0
173
1
 91
-1056964608
 92
-2
290
1
 42
2.0
291
1
 43
8.0
  3
Standard
 44
4.0
300

342
29
174
1
175
1
176
0
178
1
 93
-1056964608
 45
4.0
292
0
297
0
 46
4.0
 94
-1056964608
 47
1.0
 49
0.0
140
1.0
294
1
141
0.0
177
0
142
1.0
295
0
296
0
143
3.75
271
0
272
9
272
9
  0
ENDSEC
  0
EOF
