  0
SECTION
  2
HEADER
  9
$ACADVER
  1
AC1032
  9
$ACADMAINTVER
 90
4
  9
$DWGCODEPAGE
  3
ANSI_1252
  9
$LASTSAVEDBY
  1
ezdxf
  9
$REQUIREDVERSIONS
160
0
  9
$INSBASE
 10
0.0
 20
0.0
 30
0.0
  9
$EXTMIN
 10
-100
 20
-100
 30
-100
  9
$EXTMAX
 10
100
 20
100
 30
100
  9
$LIMMIN
 10
0.0
 20
0.0
  9
$LIMMAX
 10
420.0
 20
297.0
  9
$ORTHOMODE
 70
0
  9
$REGENMODE
 70
1
  9
$FILLMODE
 70
1
  9
$QTEXTMODE
 70
0
  9
$MIRRTEXT
 70
1
  9
$LTSCALE
 40
1.0
  9
$ATTMODE
 70
1
  9
$TEXTSIZE
 40
2.5
  9
$TRACEWID
 40
1.0
  9
$TEXTSTYLE
  7
Standard
  9
$CLAYER
  8
0
  9
$CELTYPE
  6
ByLayer
  9
$CECOLOR
 62
256
  9
$CELTSCALE
 40
1.0
  9
$DISPSILH
 70
0
  9
$DIMSCALE
 40
1.0
  9
$DIMASZ
 40
2.5
  9
$DIMEXO
 40
0.625
  9
$DIMDLI
 40
3.75
  9
$DIMRND
 40
0.0
  9
$DIMDLE
 40
0.0
  9
$DIMEXE
 40
1.25
  9
$DIMTP
 40
0.0
  9
$DIMTM
 40
0.0
  9
$DIMTXT
 40
2.5
  9
$DIMCEN
 40
2.5
  9
$DIMTSZ
 40
0.0
  9
$DIMTOL
 70
0
  9
$DIMLIM
 70
0
  9
$DIMTIH
 70
0
  9
$DIMTOH
 70
0
  9
$DIMSE1
 70
0
  9
$DIMSE2
 70
0
  9
$DIMTAD
 70
1
  9
$DIMZIN
 70
8
  9
$DIMBLK
  1

  9
$DIMASO
 70
1
  9
$DIMSHO
 70
1
  9
$DIMPOST
  1

  9
$DIMAPOST
  1

  9
$DIMALT
 70
0
  9
$DIMALTD
 70
3
  9
$DIMALTF
 40
0.03937007874
  9
$DIMLFAC
 40
1.0
  9
$DIMTOFL
 70
1
  9
$DIMTVP
 40
0.0
  9
$DIMTIX
 70
0
  9
$DIMSOXD
 70
0
  9
$DIMSAH
 70
0
  9
$DIMBLK1
  1

  9
$DIMBLK2
  1

  9
$DIMSTYLE
  2
ISO-25
  9
$DIMCLRD
 70
0
  9
$DIMCLRE
 70
0
  9
$DIMCLRT
 70
0
  9
$DIMTFAC
 40
1.0
  9
$DIMGAP
 40
0.625
  9
$DIMJUST
 70
0
  9
$DIMSD1
 70
0
  9
$DIMSD2
 70
0
  9
$DIMTOLJ
 70
0
  9
$DIMTZIN
 70
8
  9
$DIMALTZ
 70
0
  9
$DIMALTTZ
 70
0
  9
$DIMUPT
 70
0
  9
$DIMDEC
 70
2
  9
$DIMTDEC
 70
2
  9
$DIMALTU
 70
2
  9
$DIMALTTD
 70
3
  9
$DIMTXSTY
  7
Standard
  9
$DIMAUNIT
 70
0
  9
$DIMADEC
 70
0
  9
$DIMALTRND
 40
0.0
  9
$DIMAZIN
 70
0
  9
$DIMDSEP
 70
44
  9
$DIMATFIT
 70
3
  9
$DIMFRAC
 70
0
  9
$DIMLDRBLK
  1

  9
$DIMLUNIT
 70
2
  9
$DIMLWD
 70
-2
  9
$DIMLWE
 70
-2
  9
$DIMTMOVE
 70
0
  9
$DIMFXL
 40
1.0
  9
$DIMFXLON
 70
0
  9
$DIMJOGANG
 40
0.785398163397
  9
$DIMTFILL
 70
0
  9
$DIMTFILLCLR
 70
0
  9
$DIMARCSYM
 70
0
  9
$DIMLTYPE
  6

  9
$DIMLTEX1
  6

  9
$DIMLTEX2
  6

  9
$DIMTXTDIRECTION
 70
0
  9
$LUNITS
 70
2
  9
$LUPREC
 70
4
  9
$SKETCHINC
 40
1.0
  9
$FILLETRAD
 40
10.0
  9
$AUNITS
 70
0
  9
$AUPREC
 70
2
  9
$MENU
  1
.
  9
$ELEVATION
 40
0.0
  9
$PELEVATION
 40
0.0
  9
$THICKNESS
 40
0.0
  9
$LIMCHECK
 70
0
  9
$CHAMFERA
 40
0.0
  9
$CHAMFERB
 40
0.0
  9
$CHAMFERC
 40
0.0
  9
$CHAMFERD
 40
0.0
  9
$SKPOLY
 70
0
  9
$TDCREATE
 40
2458931.7384375
  9
$TDUCREATE
 40
2458532.153996898
  9
$TDUPDATE
 40
2458931.7384375
  9
$TDUUPDATE
 40
2458532.1544311
  9
$TDINDWG
 40
0.0
  9
$TDUSRTIMER
 40
0.0
  9
$USRTIMER
 70
1
  9
$ANGBASE
 50
0.0
  9
$ANGDIR
 70
0
  9
$PDMODE
 70
0
  9
$PDSIZE
 40
0.0
  9
$PLINEWID
 40
0.0
  9
$SPLFRAME
 70
0
  9
$SPLINETYPE
 70
6
  9
$SPLINESEGS
 70
8
  9
$HANDSEED
  5
8F
  9
$SURFTAB1
 70
6
  9
$SURFTAB2
 70
6
  9
$SURFTYPE
 70
6
  9
$SURFU
 70
6
  9
$SURFV
 70
6
  9
$UCSBASE
  2

  9
$UCSNAME
  2

  9
$UCSORG
 10
0.0
 20
0.0
 30
0.0
  9
$UCSXDIR
 10
1.0
 20
0.0
 30
0.0
  9
$UCSYDIR
 10
0.0
 20
1.0
 30
0.0
  9
$UCSORTHOREF
  2

  9
$UCSORTHOVIEW
 70
0
  9
$UCSORGTOP
 10
0.0
 20
0.0
 30
0.0
  9
$UCSORGBOTTOM
 10
0.0
 20
0.0
 30
0.0
  9
$UCSORGLEFT
 10
0.0
 20
0.0
 30
0.0
  9
$UCSORGRIGHT
 10
0.0
 20
0.0
 30
0.0
  9
$UCSORGFRONT
 10
0.0
 20
0.0
 30
0.0
  9
$UCSORGBACK
 10
0.0
 20
0.0
 30
0.0
  9
$PUCSBASE
  2

  9
$PUCSNAME
  2

  9
$PUCSORG
 10
0.0
 20
0.0
 30
0.0
  9
$PUCSXDIR
 10
1.0
 20
0.0
 30
0.0
  9
$PUCSYDIR
 10
0.0
 20
1.0
 30
0.0
  9
$PUCSORTHOREF
  2

  9
$PUCSORTHOVIEW
 70
0
  9
$PUCSORGTOP
 10
0.0
 20
0.0
 30
0.0
  9
$PUCSORGBOTTOM
 10
0.0
 20
0.0
 30
0.0
  9
$PUCSORGLEFT
 10
0.0
 20
0.0
 30
0.0
  9
$PUCSORGRIGHT
 10
0.0
 20
0.0
 30
0.0
  9
$PUCSORGFRONT
 10
0.0
 20
0.0
 30
0.0
  9
$PUCSORGBACK
 10
0.0
 20
0.0
 30
0.0
  9
$USERI1
 70
0
  9
$USERI2
 70
0
  9
$USERI3
 70
0
  9
$USERI4
 70
0
  9
$USERI5
 70
0
  9
$USERR1
 40
0.0
  9
$USERR2
 40
0.0
  9
$USERR3
 40
0.0
  9
$USERR4
 40
0.0
  9
$USERR5
 40
0.0
  9
$WORLDVIEW
 70
1
  9
$SHADEDGE
 70
3
  9
$SHADEDIF
 70
70
  9
$TILEMODE
 70
1
  9
$MAXACTVP
 70
64
  9
$PINSBASE
 10
0.0
 20
0.0
 30
0.0
  9
$PLIMCHECK
 70
0
  9
$PEXTMIN
 10
1e+20
 20
1e+20
 30
1e+20
  9
$PEXTMAX
 10
-1e+20
 20
-1e+20
 30
-1e+20
  9
$PLIMMIN
 10
0.0
 20
0.0
  9
$PLIMMAX
 10
420.0
 20
297.0
  9
$UNITMODE
 70
0
  9
$VISRETAIN
 70
1
  9
$PLINEGEN
 70
0
  9
$PSLTSCALE
 70
1
  9
$TREEDEPTH
 70
3020
  9
$CMLSTYLE
  2
Standard
  9
$CMLJUST
 70
0
  9
$CMLSCALE
 40
20.0
  9
$PROXYGRAPHICS
 70
1
  9
$MEASUREMENT
 70
1
  9
$CELWEIGHT
370
-1
  9
$ENDCAPS
280
0
  9
$JOINSTYLE
280
0
  9
$LWDISPLAY
290
0
  9
$INSUNITS
 70
5
  9
$HYPERLINKBASE
  1

  9
$STYLESHEET
  1

  9
$XEDIT
290
1
  9
$CEPSNTYPE
380
0
  9
$PSTYLEMODE
290
1
  9
$FINGERPRINTGUID
  2
C46DA3AE-6C7D-11EA-9BFE-3C07545DF518
  9
$VERSIONGUID
  2
C4A3432E-6C7D-11EA-9BFE-3C07545DF518
  9
$EXTNAMES
290
1
  9
$PSVPSCALE
 40
0.0
  9
$OLESTARTUP
290
0
  9
$SORTENTS
280
127
  9
$INDEXCTL
280
0
  9
$HIDETEXT
280
1
  9
$XCLIPFRAME
280
2
  9
$HALOGAP
280
0
  9
$OBSCOLOR
 70
257
  9
$OBSLTYPE
280
0
  9
$INTERSECTIONDISPLAY
280
0
  9
$INTERSECTIONCOLOR
 70
257
  9
$DIMASSOC
280
2
  9
$PROJECTNAME
  1

  9
$CAMERADISPLAY
290
0
  9
$LENSLENGTH
 40
50.0
  9
$CAMERAHEIGHT
 40
0.0
  9
$STEPSPERSEC
 40
24.0
  9
$STEPSIZE
 40
100.0
  9
$3DDWFPREC
 40
2.0
  9
$PSOLWIDTH
 40
0.005
  9
$PSOLHEIGHT
 40
0.08
  9
$LOFTANG1
 40
1.570796326795
  9
$LOFTANG2
 40
1.570796326795
  9
$LOFTMAG1
 40
0.0
  9
$LOFTMAG2
 40
0.0
  9
$LOFTPARAM
 70
7
  9
$LOFTNORMALS
280
1
  9
$LATITUDE
 40
37.795
  9
$LONGITUDE
 40
-122.394
  9
$NORTHDIRECTION
 40
0.0
  9
$TIMEZONE
 70
-8000
  9
$LIGHTGLYPHDISPLAY
280
1
  9
$TILEMODELIGHTSYNCH
280
1
  9
$CMATERIAL
347
20
  9
$SOLIDHIST
280
0
  9
$SHOWHIST
280
1
  9
$DWFFRAME
280
2
  9
$DGNFRAME
280
2
  9
$REALWORLDSCALE
290
1
  9
$INTERFERECOLOR
 62
256
  9
$CSHADOW
280
0
  9
$SHADOWPLANELOCATION
 40
0.0
  0
ENDSEC
  0
SECTION
  2
CLASSES
  0
CLASS
  1
ACDBDICTIONARYWDFLT
  2
AcDbDictionaryWithDefault
  3
ObjectDBX Classes
 90
0
 91
0
280
0
281
0
  0
CLASS
  1
SUN
  2
AcDbSun
  3
SCENEOE
 90
1153
 91
0
280
0
281
0
  0
CLASS
  1
VISUALSTYLE
  2
AcDbVisualStyle
  3
ObjectDBX Classes
 90
4095
 91
0
280
0
281
0
  0
CLASS
  1
MATERIAL
  2
AcDbMaterial
  3
ObjectDBX Classes
 90
1153
 91
0
280
0
281
0
  0
CLASS
  1
SCALE
  2
AcDbScale
  3
ObjectDBX Classes
 90
1153
 91
0
280
0
281
0
  0
CLASS
  1
TABLESTYLE
  2
AcDbTableStyle
  3
ObjectDBX Classes
 90
4095
 91
0
280
0
281
0
  0
CLASS
  1
MLEADERSTYLE
  2
AcDbMLeaderStyle
  3
ACDB_MLEADERSTYLE_CLASS
 90
4095
 91
0
280
0
281
0
  0
CLASS
  1
DICTIONARYVAR
  2
AcDbDictionaryVar
  3
ObjectDBX Classes
 90
0
 91
0
280
0
281
0
  0
CLASS
  1
CELLSTYLEMAP
  2
AcDbCellStyleMap
  3
ObjectDBX Classes
 90
1152
 91
0
280
0
281
0
  0
CLASS
  1
MENTALRAYRENDERSETTINGS
  2
AcDbMentalRayRenderSettings
  3
SCENEOE
 90
1024
 91
0
280
0
281
0
  0
CLASS
  1
ACDBDETAILVIEWSTYLE
  2
AcDbDetailViewStyle
  3
ObjectDBX Classes
 90
1025
 91
0
280
0
281
0
  0
CLASS
  1
ACDBSECTIONVIEWSTYLE
  2
AcDbSectionViewStyle
  3
ObjectDBX Classes
 90
1025
 91
0
280
0
281
0
  0
CLASS
  1
RASTERVARIABLES
  2
AcDbRasterVariables
  3
ISM
 90
0
 91
0
280
0
281
0
  0
CLASS
  1
LAYOUT
  2
AcDbLayout
  3
ObjectDBX Classes
 90
0
 91
0
280
0
281
0
  0
CLASS
  1
ACDBPLACEHOLDER
  2
AcDbPlaceHolder
  3
ObjectDBX Classes
 90
0
 91
0
280
0
281
0
  0
ENDSEC
  0
SECTION
  2
TABLES
  0
TABLE
  2
VPORT
  5
8
330
0
100
AcDbSymbolTable
 70
1
  0
VPORT
  5
8D
330
8
100
AcDbSymbolTableRecord
100
AcDbViewportTableRecord
  2
*Active
 70
0
 10
0.0
 20
0.0
 11
1.0
 21
1.0
 12
280.0
 22
8424.787884165553
 13
0.0
 23
0.0
 14
0.5
 24
0.5
 15
0.5
 25
0.5
 16
0.0
 26
0.0
 36
1.0
 17
0.0
 27
0.0
 37
0.0
 40
17269.575768331106
 41
1.34
 42
50.0
 43
0.0
 44
0.0
 50
0.0
 51
0.0
 71
0
 72
1000
 73
1
 74
3
 75
0
 76
0
 77
0
 78
0
281
0
 65
0
146
0.0
  0
ENDTAB
  0
TABLE
  2
LTYPE
  5
2
330
0
100
AcDbSymbolTable
 70
3
  0
LTYPE
  5
24
330
2
100
AcDbSymbolTableRecord
100
AcDbLinetypeTableRecord
  2
ByBlock
 70
0
  3

 72
65
 73
0
 40
0.0
  0
LTYPE
  5
25
330
2
100
AcDbSymbolTableRecord
100
AcDbLinetypeTableRecord
  2
ByLayer
 70
0
  3

 72
65
 73
0
 40
0.0
  0
LTYPE
  5
26
330
2
100
AcDbSymbolTableRecord
100
AcDbLinetypeTableRecord
  2
Continuous
 70
0
  3

 72
65
 73
0
 40
0.0
  0
ENDTAB
  0
TABLE
  2
LAYER
  5
1
330
0
100
AcDbSymbolTable
 70
2
  0
LAYER
  5
27
330
1
100
AcDbSymbolTableRecord
100
AcDbLayerTableRecord
  2
0
 70
0
 62
7
  6
Continuous
370
-3
390
13
347
21
  0
LAYER
  5
28
330
1
100
AcDbSymbolTableRecord
100
AcDbLayerTableRecord
  2
Defpoints
 70
0
 62
7
  6
Continuous
290
0
370
-3
390
13
347
21
  0
ENDTAB
  0
TABLE
  2
STYLE
  5
5
330
0
100
AcDbSymbolTable
 70
1
  0
STYLE
  5
29
330
5
100
AcDbSymbolTableRecord
100
AcDbTextStyleTableRecord
  2
Standard
 70
0
 40
0.0
 41
1.0
 50
0.0
 71
0
 42
2.5
  3
txt
  4

  0
ENDTAB
  0
TABLE
  2
VIEW
  5
7
330
0
100
AcDbSymbolTable
 70
0
  0
ENDTAB
  0
TABLE
  2
UCS
  5
6
330
0
100
AcDbSymbolTable
 70
0
  0
ENDTAB
  0
TABLE
  2
APPID
  5
3
330
0
100
AcDbSymbolTable
 70
2
  0
APPID
  5
2A
330
3
100
AcDbSymbolTableRecord
100
AcDbRegAppTableRecord
  2
ACAD
 70
0
  0
APPID
  5
8E
330
3
100
AcDbSymbolTableRecord
100
AcDbRegAppTableRecord
  2
HATCHBACKGROUNDCOLOR
 70
0
  0
ENDTAB
  0
TABLE
  2
DIMSTYLE
  5
4
330
0
100
AcDbSymbolTable
 70
1
100
AcDbDimStyleTable
  0
DIMSTYLE
105
2B
330
4
100
AcDbSymbolTableRecord
100
AcDbDimStyleTableRecord
  2
Standard
 70
0
 40
1.0
 41
2.5
 42
0.625
 43
3.75
 44
1.25
 45
0.0
 46
0.0
 47
0.0
 48
0.0
 49
2.5
140
2.5
141
2.5
142
0.0
143
0.03937007874
144
1.0
145
0.0
146
1.0
147
0.625
148
0.0
 69
0
 70
0
 71
0
 72
0
 73
0
 74
0
 75
0
 76
0
 77
1
 78
8
 79
0
170
0
171
3
172
1
173
0
174
0
175
0
176
0
177
0
178
0
179
0
271
0
272
2
273
2
274
3
275
0
276
0
277
2
278
44
279
0
280
0
281
0
282
0
283
0
284
8
285
0
286
0
288
0
289
3
290
0
371
-2
372
-2
  0
ENDTAB
  0
TABLE
  2
BLOCK_RECORD
  5
9
330
0
100
AcDbSymbolTable
 70
2
  0
BLOCK_RECORD
  5
17
330
9
100
AcDbSymbolTableRecord
100
AcDbBlockTableRecord
  2
*Model_Space
340
1A
 70
0
280
1
281
1
  0
BLOCK_RECORD
  5
1B
330
9
100
AcDbSymbolTableRecord
100
AcDbBlockTableRecord
  2
*Paper_Space
340
1E
 70
0
280
1
281
1
  0
ENDTAB
  0
ENDSEC
  0
SECTION
  2
BLOCKS
  0
BLOCK
  5
18
330
17
100
AcDbEntity
  8
0
100
AcDbBlockBegin
  2
*Model_Space
 70
0
 10
0.0
 20
0.0
 30
0.0
  3
*Model_Space
  1

  0
ENDBLK
  5
19
330
17
100
AcDbEntity
  8
0
100
AcDbBlockEnd
  0
BLOCK
  5
1C
330
1B
100
AcDbEntity
  8
0
100
AcDbBlockBegin
  2
*Paper_Space
 70
0
 10
0.0
 20
0.0
 30
0.0
  3
*Paper_Space
  1

  0
ENDBLK
  5
1D
330
1B
100
AcDbEntity
  8
0
100
AcDbBlockEnd
  0
ENDSEC
  0
SECTION
  2
ENTITIES
  0
LWPOLYLINE
  5
2D
330
17
100
AcDbEntity
  8
0
100
AcDbPolyline
 90
2
 70
0
 43
0.0
 10
0.0
 20
-210.0
 10
0.0
 20
-210.0
  0
LWPOLYLINE
  5
2E
330
17
100
AcDbEntity
  8
0
100
AcDbPolyline
 90
2
 70
0
 43
0.0
 10
-56.67577994332124
 20
-180.0
 10
456.67577994332123
 20
-180.0
  0
LWPOLYLINE
  5
2F
330
17
100
AcDbEntity
  8
0
100
AcDbPolyline
 90
2
 70
0
 43
0.0
 10
-0.5551781342760087
 20
-170.0
 10
400.55517813427605
 20
-170.0
  0
LWPOLYLINE
  5
30
330
17
100
AcDbEntity
  8
0
100
AcDbPolyline
 90
2
 70
0
 43
0.0
 10
23.40462126270891
 20
-160.0
 10
376.5953787372911
 20
-160.0
  0
LWPOLYLINE
  5
31
330
17
100
AcDbEntity
  8
0
100
AcDbPolyline
 90
2
 70
0
 43
0.0
 10
53.55537352401545
 20
-150.0
 10
346.4446264759846
 20
-150.0
  0
LWPOLYLINE
  5
32
330
17
100
AcDbEntity
  8
0
100
AcDbPolyline
 90
2
 70
0
 43
0.0
 10
99.78652699135215
 20
-145.0
 10
300.2134730086479
 20
-145.0
  0
LWPOLYLINE
  5
33
330
17
100
AcDbEntity
  8
0
100
AcDbPolyline
 90
5
 70
0
 43
0.0
 10
0.0
 20
-210.0
 10
1.0
 20
-210.0
 10
1.0
 20
-209.0
 10
0.0
 20
-209.0
 10
0.0
 20
-210.0
  0
LWPOLYLINE
  5
34
330
17
100
AcDbEntity
  8
0
100
AcDbPolyline
 90
2
 70
0
 43
0.0
 10
0.0
 20
-130.0
 10
0.0
 20
-58.0
  0
LWPOLYLINE
  5
35
330
17
100
AcDbEntity
  8
0
100
AcDbPolyline
 90
2
 70
0
 43
0.0
 10
25.0
 20
-130.0
 10
25.0
 20
-58.0
  0
LWPOLYLINE
  5
36
330
17
100
AcDbEntity
  8
0
100
AcDbPolyline
 90
2
 70
0
 43
0.0
 10
50.0
 20
-130.0
 10
50.0
 20
-58.0
  0
LWPOLYLINE
  5
37
330
17
100
AcDbEntity
  8
0
100
AcDbPolyline
 90
2
 70
0
 43
0.0
 10
75.0
 20
-130.0
 10
75.0
 20
-58.0
  0
LWPOLYLINE
  5
38
330
17
100
AcDbEntity
  8
0
100
AcDbPolyline
 90
2
 70
0
 43
0.0
 10
100.0
 20
-130.0
 10
100.0
 20
-58.0
  0
LWPOLYLINE
  5
39
330
17
100
AcDbEntity
  8
0
100
AcDbPolyline
 90
2
 70
0
 43
0.0
 10
125.0
 20
-130.0
 10
125.0
 20
-58.0
  0
LWPOLYLINE
  5
3A
330
17
100
AcDbEntity
  8
0
100
AcDbPolyline
 90
2
 70
0
 43
0.0
 10
150.0
 20
-130.0
 10
150.0
 20
-58.0
  0
LWPOLYLINE
  5
3B
330
17
100
AcDbEntity
  8
0
100
AcDbPolyline
 90
2
 70
0
 43
0.0
 10
175.0
 20
-130.0
 10
175.0
 20
-58.0
  0
LWPOLYLINE
  5
3C
330
17
100
AcDbEntity
  8
0
100
AcDbPolyline
 90
2
 70
0
 43
0.0
 10
200.0
 20
-130.0
 10
200.0
 20
-58.0
  0
LWPOLYLINE
  5
3D
330
17
100
AcDbEntity
  8
0
100
AcDbPolyline
 90
2
 70
0
 43
0.0
 10
225.0
 20
-130.0
 10
225.0
 20
-58.0
  0
LWPOLYLINE
  5
3E
330
17
100
AcDbEntity
  8
0
100
AcDbPolyline
 90
2
 70
0
 43
0.0
 10
250.0
 20
-130.0
 10
250.0
 20
-58.0
  0
LWPOLYLINE
  5
3F
330
17
100
AcDbEntity
  8
0
100
AcDbPolyline
 90
2
 70
0
 43
0.0
 10
275.0
 20
-130.0
 10
275.0
 20
-58.0
  0
LWPOLYLINE
  5
40
330
17
100
AcDbEntity
  8
0
100
AcDbPolyline
 90
2
 70
0
 43
0.0
 10
300.0
 20
-130.0
 10
300.0
 20
-58.0
  0
LWPOLYLINE
  5
41
330
17
100
AcDbEntity
  8
0
100
AcDbPolyline
 90
2
 70
0
 43
0.0
 10
325.0
 20
-130.0
 10
325.0
 20
-58.0
  0
LWPOLYLINE
  5
42
330
17
100
AcDbEntity
  8
0
100
AcDbPolyline
 90
2
 70
0
 43
0.0
 10
350.0
 20
-130.0
 10
350.0
 20
-58.0
  0
LWPOLYLINE
  5
43
330
17
100
AcDbEntity
  8
0
100
AcDbPolyline
 90
2
 70
0
 43
0.0
 10
375.0
 20
-130.0
 10
375.0
 20
-58.0
  0
LWPOLYLINE
  5
44
330
17
100
AcDbEntity
  8
0
100
AcDbPolyline
 90
2
 70
0
 43
0.0
 10
400.0
 20
-130.0
 10
400.0
 20
-58.0
  0
LWPOLYLINE
  5
45
330
17
100
AcDbEntity
  8
0
100
AcDbPolyline
 90
5
 70
0
 43
0.0
 10
0.0
 20
-130.0
 10
1.0
 20
-130.0
 10
1.0
 20
-129.0
 10
0.0
 20
-129.0
 10
0.0
 20
-130.0
  0
LWPOLYLINE
  5
46
330
17
100
AcDbEntity
  8
0
100
AcDbPolyline
 90
2
 70
0
 43
0.0
 10
0.0
 20
30.0
 10
0.0
 20
30.0
  0
LWPOLYLINE
  5
47
330
17
100
AcDbEntity
  8
0
100
AcDbPolyline
 90
2
 70
0
 43
0.0
 10
0.0
 20
30.0
 10
0.0
 20
110.0
  0
LWPOLYLINE
  5
48
330
17
100
AcDbEntity
  8
0
100
AcDbPolyline
 90
2
 70
0
 43
0.0
 10
400.0
 20
30.0
 10
400.0
 20
110.0
  0
LWPOLYLINE
  5
49
330
17
100
AcDbEntity
  8
0
100
AcDbPolyline
 90
2
 70
0
 43
0.0
 10
0.0
 20
30.0
 10
400.0
 20
30.0
  0
LWPOLYLINE
  5
4A
330
17
100
AcDbEntity
  8
0
100
AcDbPolyline
 90
2
 70
0
 43
0.0
 10
0.0
 20
110.0
 10
400.0
 20
110.0
  0
LWPOLYLINE
  5
4B
330
17
100
AcDbEntity
  8
0
100
AcDbPolyline
 90
2
 70
0
 43
0.0
 10
-10.0
 20
30.0
 10
-10.0
 20
0.0
  0
LWPOLYLINE
  5
4C
330
17
100
AcDbEntity
  8
0
100
AcDbPolyline
 90
2
 70
0
 43
0.0
 10
10.0
 20
30.0
 10
10.0
 20
0.0
  0
LWPOLYLINE
  5
4D
330
17
100
AcDbEntity
  8
0
100
AcDbPolyline
 90
2
 70
0
 43
0.0
 10
390.0
 20
30.0
 10
390.0
 20
0.0
  0
LWPOLYLINE
  5
4E
330
17
100
AcDbEntity
  8
0
100
AcDbPolyline
 90
2
 70
0
 43
0.0
 10
410.0
 20
30.0
 10
410.0
 20
0.0
  0
LWPOLYLINE
  5
4F
330
17
100
AcDbEntity
  8
0
100
AcDbPolyline
 90
5
 70
0
 43
0.0
 10
0.0
 20
30.0
 10
1.0
 20
30.0
 10
1.0
 20
31.0
 10
0.0
 20
31.0
 10
0.0
 20
30.0
  0
LWPOLYLINE
  5
50
330
17
100
AcDbEntity
  8
0
100
AcDbPolyline
 90
2
 70
0
 43
0.0
 10
0.0
 20
160.0
 10
0.0
 20
160.0
  0
LWPOLYLINE
  5
51
330
17
100
AcDbEntity
  8
0
100
AcDbPolyline
 90
5
 70
0
 43
0.0
 10
0.0
 20
160.0
 10
1.0
 20
160.0
 10
1.0
 20
161.0
 10
0.0
 20
161.0
 10
0.0
 20
160.0
  0
LWPOLYLINE
  5
52
330
17
100
AcDbEntity
  8
0
100
AcDbPolyline
 90
2
 70
0
 43
0.0
 10
0.0
 20
210.0
 10
0.0
 20
210.0
  0
LWPOLYLINE
  5
53
330
17
100
AcDbEntity
  8
0
100
AcDbPolyline
 90
600
 70
0
 43
0.0
 10
-31.99999
 20
210.00167999995674
 10
-29.98993984924623
 20
545.9931617665796
 10
-27.979889698492464
 20
878.5907901820245
 10
-25.969839547738694
 20
1207.7945652462913
 10
-23.959789396984924
 20
1533.6044869593802
 10
-21.949739246231154
 20
1856.0205553212913
 10
-19.939689095477384
 20
2175.042770332024
 10
-17.929638944723617
 20
2490.671131991579
 10
-15.919588793969847
 20
2802.9056402999554
 10
-13.909538643216077
 20
3111.7462952571545
 10
-11.899488492462307
 20
3417.193096863176
 10
-9.88943834170854
 20
3719.2460451180186
 10
-7.879388190954771
 20
4017.905140021683
 10
-5.869338040201001
 20
4313.170381574169
 10
-3.859287889447234
 20
4605.041769775478
 10
-1.8492377386934642
 20
4893.519304625609
 10
1e-05
 20
5155.796518531267
 10
0.16081241206030938
 20
5178.602986124562
 10
2.010060150753769
 20
5437.757852245629
 10
2.1708625628140794
 20
5460.292814272337
 10
4.020110301507538
 20
5716.3253326088125
 10
4.180912713567849
 20
5738.588789068935
 10
6.030160452261307
 20
5991.498959620818
 10
6.1909628643216195
 20
6013.490910514354
 10
8.040210603015076
 20
6263.278733281645
 10
8.20101301507539
 20
6284.999178608594
 10
10.050260753768846
 20
6531.664653591295
 10
10.211063165829152
 20
6553.113593351656
 10
12.060310904522614
 20
6796.656720549768
 10
12.221113316582922
 20
6817.834154743542
 10
14.070361055276383
 20
7058.25493415706
 10
14.231163467336692
 20
7079.160862784247
 10
16.080411206030153
 20
7316.4592944131755
 10
16.241213618090462
 20
7337.093717473776
 10
18.090461356783923
 20
7571.269801318114
 10
18.251263768844233
 20
7591.632718812128
 10
20.100511507537693
 20
7822.686454871874
 10
20.261313919598003
 20
7842.7778667993
 10
22.11056165829146
 20
8070.709255074455
 10
22.271364070351773
 20
8090.529161435295
 10
24.12061180904523
 20
8315.338201925857
 10
24.281414221105535
 20
8334.886602720111
 10
26.130661959799
 20
8556.573295426084
 10
26.291464371859306
 20
8575.85019065375
 10
28.140712110552766
 20
8794.41453557513
 10
28.301514522613076
 20
8813.41992523621
 10
30.150762261306536
 20
9028.861922373
 10
30.311564673366846
 20
9047.595806467492
 10
32.00001
 20
9241.453077291786
 10
32.16081241206031
 20
9259.915455819691
 10
32.321614824120616
 20
9278.377834347597
 10
34.010060150753766
 20
9469.384262953887
 10
34.17086256281408
 20
9487.575135915207
 10
34.331664974874386
 20
9505.766008876524
 10
36.020110301507536
 20
9693.92159526481
 10
36.18091271356785
 20
9711.840962659542
 10
36.341715125628156
 20
9729.760330054274
 10
38.030160452261306
 20
9915.065074224553
 10
38.19096286432162
 20
9932.7129360527
 10
38.351765276381926
 20
9950.360797880845
 10
40.040210603015076
 20
10132.81469983312
 10
40.20101301507539
 20
10150.191056094678
 10
40.361815427135696
 20
10167.567412356235
 10
42.050260753768846
 20
10347.170472090509
 10
42.21106316582915
 20
10364.275322785481
 10
42.371865577889466
 20
10381.380173480453
 10
44.060310904522616
 20
10558.13239099672
 10
44.22111331658292
 20
10574.965736125103
 10
44.381915728643236
 20
10591.799081253488
 10
46.07036105527638
 20
10765.700456551749
 10
46.23116346733669
 20
10782.262296113548
 10
46.391965879397006
 20
10798.824135675346
 10
48.08041120603015
 20
10969.874668755605
 10
48.24121361809046
 20
10986.165002750817
 10
48.402016030150776
 20
11002.455336746028
 10
50.09046135678392
 20
11170.655027608282
 10
50.25126376884423
 20
11186.673856036907
 10
50.41206618090453
 20
11202.692684465528
 10
52.10051150753769
 20
11368.04153310978
 10
52.261313919598
 20
11383.788855971816
 10
52.4221163316583
 20
11399.536178833852
 10
54.11056165829146
 20
11562.0341852601
 10
54.27136407035177
 20
11577.510002555551
 10
54.43216648241207
 20
11592.985819851
 10
56.12061180904523
 20
11752.63298405924
 10
56.281414221105535
 20
11767.837295788104
 10
56.44221663316584
 20
11783.041607516967
 10
58.130661959799
 20
11939.837929507206
 10
58.291464371859306
 20
11954.770735669481
 10
58.45226678391961
 20
11969.703541831757
 10
60.14071211055277
 20
12123.649021603991
 10
60.301514522613076
 20
12138.310322199679
 10
60.46231693467338
 20
12152.971622795369
 10
62.15076226130654
 20
12304.0662603496
 10
62.311564673366846
 20
12318.456055378703
 10
62.47236708542715
 20
12332.845850407806
 10
64.16081241206031
 20
12481.089645744032
 10
64.32161482412062
 20
12495.207935206547
 10
64.48241723618092
 20
12509.326224669063
 10
66.17086256281408
 20
12654.719177787281
 10
66.33166497487439
 20
12668.565961683213
 10
66.49246738693469
 20
12682.412745579142
 10
68.18091271356785
 20
12824.954856479359
 10
68.34171512562816
 20
12838.5301348087
 10
68.50251753768846
 20
12852.105413138042
 10
70.19096286432162
 20
12991.796681820253
 10
70.35176527638193
 20
13005.100454583007
 10
70.51256768844223
 20
13018.404227345764
 10
72.20101301507539
 20
13155.244653809972
 10
72.3618154271357
 20
13168.27692100614
 10
72.522617839196
 20
13181.309188202309
 10
74.21106316582916
 20
13315.298772448512
 10
74.37186557788947
 20
13328.059534078093
 10
74.53266798994977
 20
13340.820295707676
 10
76.22111331658292
 20
13471.959037735873
 10
76.38191572864324
 20
13484.448293798869
 10
76.54271814070354
 20
13496.937549861865
 10
78.2311634673367
 20
13625.225449672056
 10
78.391965879397
 20
13637.443200168464
 10
78.55276829145731
 20
13649.660950664871
 10
80.24121361809046
 20
13775.098008257064
 10
80.40201603015078
 20
13787.044253186885
 10
80.56281844221107
 20
13798.990498116707
 10
82.25126376884424
 20
13921.576713490893
 10
82.41206618090453
 20
13933.251452854127
 10
82.57286859296484
 20
13944.926192217361
 10
84.261313919598
 20
14064.66156537354
 10
84.4221163316583
 20
14076.064799170188
 10
84.58291874371861
 20
14087.468032966834
 10
86.27136407035178
 20
14204.352563905015
 10
86.43216648241207
 20
14215.484292135076
 10
86.59296889447238
 20
14226.616020365138
 10
88.28141422110554
 20
14340.649709085308
 10
88.44221663316584
 20
14351.509931748782
 10
88.60301904522615
 20
14362.370154412256
 10
90.2914643718593
 20
14473.553000914426
 10
90.45226678391961
 20
14484.141718011311
 10
90.61306919597992
 20
14494.730435108198
 10
92.30151452261308
 20
14603.06243939236
 10
92.46231693467338
 20
14613.379650922661
 10
92.62311934673369
 20
14623.696862452962
 10
94.31156467336685
 20
14729.178024519124
 10
94.47236708542715
 20
14739.223730482836
 10
94.63316949748746
 20
14749.26943644655
 10
96.32161482412062
 20
14851.899756294704
 10
96.48241723618092
 20
14861.67395669183
 10
96.64321964824123
 20
14871.448157088957
 10
98.33166497487439
 20
14971.227634719107
 10
98.49246738693469
 20
14980.730329549648
 10
98.65326979899498
 20
14990.233024380184
 10
100.34171512562816
 20
15087.161659792333
 10
100.50251753768846
 20
15096.392849056285
 10
100.66331994974877
 20
15105.624038320238
 10
102.35176527638193
 20
15199.70183151438
 10
102.51256768844223
 20
15208.661515211745
 10
102.67337010050252
 20
15217.621198909112
 10
104.3618154271357
 20
15308.848149885249
 10
104.522617839196
 20
15317.536328016029
 10
104.68342025125631
 20
15326.224506146807
 10
106.37186557788947
 20
15414.600614904946
 10
106.53266798994977
 20
15423.01728746914
 10
106.69347040201006
 20
15431.43396003333
 10
108.38191572864324
 20
15516.95922657346
 10
108.54271814070354
 20
15525.104393571064
 10
108.70352055276385
 20
15533.249560568669
 10
110.391965879397
 20
15615.923984890795
 10
110.55276829145731
 20
15623.797646321813
 10
110.7135707035176
 20
15631.67130775283
 10
112.40201603015078
 20
15711.494889856951
 10
112.56281844221107
 20
15719.097045721383
 10
112.72362085427139
 20
15726.699201585814
 10
114.41206618090453
 20
15803.671941471934
 10
114.57286859296484
 20
15811.002591769779
 10
114.73367100502514
 20
15818.333242067623
 10
116.4221163316583
 20
15892.455139735732
 10
116.58291874371861
 20
15899.51428446699
 10
116.74372115577893
 20
15906.573429198248
 10
118.43216648241207
 20
15977.844484648358
 10
118.59296889447238
 20
15984.63212381303
 10
118.75377130653268
 20
15991.4197629777
 10
120.44221663316584
 20
16059.839976209802
 10
120.60301904522615
 20
16066.356109807886
 10
120.76382145728647
 20
16072.87224340597
 10
122.45226678391961
 20
16138.441614420068
 10
122.61306919597992
 20
16144.686242451566
 10
122.77387160804022
 20
16150.930870483064
 10
124.46231693467338
 20
16213.649399279162
 10
124.62311934673369
 20
16219.622521744071
 10
124.78392175879401
 20
16225.595644208985
 10
126.47236708542715
 20
16285.463330787072
 10
126.63316949748746
 20
16291.164947685395
 10
126.79397190954776
 20
16296.866564583717
 10
128.48241723618094
 20
16353.883408943804
 10
128.64321964824123
 20
16359.313520275542
 10
128.80402206030155
 20
16364.74363160728
 10
130.4924673869347
 20
16418.90963374936
 10
130.65326979899498
 20
16424.068239514512
 10
130.8140722110553
 20
16429.226845279663
 10
132.50251753768845
 20
16480.542005203737
 10
132.66331994974877
 20
16485.429105402305
 10
132.82412236180906
 20
16490.316205600866
 10
134.51256768844223
 20
16538.780523306938
 10
134.67337010050252
 20
16543.396117938915
 10
134.83417251256284
 20
16548.011712570893
 10
136.52261783919602
 20
16593.625188058963
 10
136.6834202512563
 20
16597.96927712435
 10
136.8442226633166
 20
16602.31336618974
 10
138.53266798994977
 20
16645.0759994598
 10
138.69347040201006
 20
16649.148582958605
 10
138.85427281407038
 20
16653.221166457406
 10
140.54271814070353
 20
16693.13295750947
 10
140.70352055276385
 20
16696.93403544169
 10
140.86432296482414
 20
16700.735113373907
 10
142.5527682914573
 20
16737.79606220796
 10
142.7135707035176
 20
16741.32563457359
 10
142.87437311557792
 20
16744.855206939217
 10
144.56281844221107
 20
16779.065313555267
 10
144.7236208542714
 20
16782.323380354308
 10
144.88442326633168
 20
16785.581447153352
 10
146.57286859296482
 20
16816.940711551397
 10
146.73367100502514
 20
16819.927272783854
 10
146.89447341708546
 20
16822.913834016308
 10
148.5829187437186
 20
16851.422256196354
 10
148.74372115577893
 20
16854.137311862225
 10
148.90452356783922
 20
16856.852367528092
 10
150.5929688944724
 20
16882.50994749013
 10
150.75377130653268
 20
16884.95349758941
 10
150.914573718593
 20
16887.39704768869
 10
152.60301904522615
 20
16910.20378543273
 10
152.76382145728647
 20
16912.375829965422
 10
152.92462386934676
 20
16914.54787449812
 10
154.6130691959799
 20
16934.503770024145
 10
154.77387160804022
 20
16936.404308990255
 10
154.93467402010054
 20
16938.304847956362
 10
156.6231193467337
 20
16955.40990126439
 10
156.783921758794
 20
16957.03893466391
 10
156.9447241708543
 20
16958.667968063433
 10
158.63316949748747
 20
16972.922179153455
 10
158.79397190954776
 20
16974.279706986385
 10
158.95477432160808
 20
16975.63723481932
 10
160.64321964824123
 20
16987.04060369134
 10
160.80402206030155
 20
16988.126625957688
 10
160.96482447236184
 20
16989.212648224035
 10
162.65326979899498
 20
16997.765174878044
 10
162.8140722110553
 20
16998.579691577805
 10
162.9748746231156
 20
16999.394208277565
 10
164.66331994974877
 20
17005.095892713576
 10
164.82412236180906
 20
17005.63890384675
 10
164.98492477386938
 20
17006.181914979923
 10
166.67337010050252
 20
17009.03275719793
 10
166.83417251256284
 20
17009.30426276452
 10
166.99497492462314
 20
17009.575768331106
 10
168.6834202512563
 20
17009.575768331106
 10
168.8442226633166
 20
17009.575768331106
 10
169.00502507537692
 20
17009.575768331106
 10
170.69347040201006
 20
17009.575768331106
 10
170.85427281407038
 20
17009.575768331106
 10
171.01507522613068
 20
17009.575768331106
 10
172.70352055276385
 20
17009.575768331106
 10
172.86432296482414
 20
17009.575768331106
 10
173.02512537688446
 20
17009.575768331106
 10
174.7135707035176
 20
17009.575768331106
 10
174.87437311557792
 20
17009.575768331106
 10
175.03517552763822
 20
17009.575768331106
 10
176.7236208542714
 20
17009.575768331106
 10
176.88442326633168
 20
17009.575768331106
 10
177.045225678392
 20
17009.575768331106
 10
178.73367100502514
 20
17009.575768331106
 10
178.89447341708546
 20
17009.575768331106
 10
179.05527582914576
 20
17009.575768331106
 10
180.74372115577893
 20
17009.575768331106
 10
180.90452356783922
 20
17009.575768331106
 10
181.06532597989954
 20
17009.575768331106
 10
182.75377130653268
 20
17009.575768331106
 10
182.914573718593
 20
17009.575768331106
 10
183.0753761306533
 20
17009.575768331106
 10
184.76382145728647
 20
17009.575768331106
 10
184.92462386934676
 20
17009.575768331106
 10
185.08542628140708
 20
17009.575768331106
 10
186.77387160804022
 20
17009.575768331106
 10
186.93467402010054
 20
17009.575768331106
 10
187.09547643216084
 20
17009.575768331106
 10
188.783921758794
 20
17009.575768331106
 10
188.9447241708543
 20
17009.575768331106
 10
189.10552658291462
 20
17009.575768331106
 10
190.79397190954776
 20
17009.575768331106
 10
190.95477432160808
 20
17009.575768331106
 10
191.11557673366838
 20
17009.575768331106
 10
192.80402206030155
 20
17009.575768331106
 10
192.96482447236184
 20
17009.575768331106
 10
193.12562688442213
 20
17009.575768331106
 10
194.8140722110553
 20
17009.575768331106
 10
194.9748746231156
 20
17009.575768331106
 10
195.13567703517592
 20
17009.575768331106
 10
196.82412236180906
 20
17009.575768331106
 10
196.98492477386938
 20
17009.575768331106
 10
197.14572718592967
 20
17009.575768331106
 10
198.83417251256284
 20
17009.575768331106
 10
198.99497492462314
 20
17009.575768331106
 10
199.15577733668346
 20
17009.575768331106
 10
200.8442226633166
 20
17009.575768331106
 10
201.00502507537692
 20
17009.575768331106
 10
201.1658274874372
 20
17009.575768331106
 10
202.85427281407038
 20
17009.575768331106
 10
203.01507522613068
 20
17009.575768331106
 10
203.175877638191
 20
17009.575768331106
 10
204.86432296482414
 20
17009.575768331106
 10
205.02512537688446
 20
17009.575768331106
 10
205.18592778894475
 20
17009.575768331106
 10
206.87437311557792
 20
17009.575768331106
 10
207.03517552763822
 20
17009.575768331106
 10
207.19597793969854
 20
17009.575768331106
 10
208.88442326633168
 20
17009.575768331106
 10
209.045225678392
 20
17009.575768331106
 10
209.2060280904523
 20
17009.575768331106
 10
210.89447341708546
 20
17009.575768331106
 10
211.05527582914576
 20
17009.575768331106
 10
211.21607824120608
 20
17009.575768331106
 10
212.90452356783922
 20
17009.575768331106
 10
213.06532597989954
 20
17009.575768331106
 10
213.22612839195983
 20
17009.575768331106
 10
214.914573718593
 20
17009.575768331106
 10
215.0753761306533
 20
17009.575768331106
 10
215.23617854271362
 20
17009.575768331106
 10
216.92462386934676
 20
17009.575768331106
 10
217.08542628140708
 20
17009.575768331106
 10
217.24622869346737
 20
17009.575768331106
 10
218.93467402010054
 20
17009.575768331106
 10
219.09547643216084
 20
17009.575768331106
 10
219.25627884422116
 20
17009.575768331106
 10
220.9447241708543
 20
17009.575768331106
 10
221.10552658291462
 20
17009.575768331106
 10
221.2663289949749
 20
17009.575768331106
 10
222.95477432160808
 20
17009.575768331106
 10
223.11557673366838
 20
17009.575768331106
 10
223.2763791457287
 20
17009.575768331106
 10
224.96482447236184
 20
17009.575768331106
 10
225.12562688442213
 20
17009.575768331106
 10
225.28642929648242
 20
17009.575768331106
 10
226.9748746231156
 20
17009.575768331106
 10
227.13567703517592
 20
17009.575768331106
 10
227.2964794472362
 20
17009.575768331106
 10
228.98492477386938
 20
17009.575768331106
 10
229.14572718592967
 20
17009.575768331106
 10
229.30652959798994
 20
17009.575768331106
 10
230.99497492462314
 20
17009.575768331106
 10
231.15577733668346
 20
17009.575768331106
 10
231.31657974874372
 20
17009.575768331106
 10
233.00502507537692
 20
17009.5757683311
 10
233.1658274874372
 20
17009.30426276451
 10
233.3266298994975
 20
17009.03275719793
 10
235.01507522613068
 20
17006.181914979923
 10
235.175877638191
 20
17005.63890384675
 10
235.3366800502513
 20
17005.095892713576
 10
237.02512537688446
 20
16999.39420827757
 10
237.18592778894475
 20
16998.57969157781
 10
237.34673020100502
 20
16997.765174878048
 10
239.03517552763822
 20
16989.21264822403
 10
239.19597793969854
 20
16988.126625957684
 10
239.3567803517588
 20
16987.040603691337
 10
241.045225678392
 20
16975.63723481932
 10
241.2060280904523
 20
16974.279706986385
 10
241.36683050251258
 20
16972.922179153455
 10
243.05527582914576
 20
16958.667968063433
 10
243.21607824120608
 20
16957.03893466391
 10
243.37688065326637
 20
16955.40990126439
 10
245.06532597989954
 20
16938.304847956362
 10
245.22612839195983
 20
16936.404308990255
 10
245.3869308040201
 20
16934.503770024145
 10
247.0753761306533
 20
16914.547874498116
 10
247.23617854271362
 20
16912.37582996542
 10
247.39698095477388
 20
16910.203785432725
 10
249.08542628140708
 20
16887.39704768869
 10
249.24622869346737
 20
16884.95349758941
 10
249.40703110552766
 20
16882.50994749013
 10
251.09547643216084
 20
16856.85236752809
 10
251.25627884422116
 20
16854.137311862218
 10
251.41708125628145
 20
16851.42225619635
 10
253.10552658291462
 20
16822.913834016308
 10
253.2663289949749
 20
16819.927272783854
 10
253.42713140703518
 20
16816.9407115514
 10
255.11557673366838
 20
16785.581447153352
 10
255.2763791457287
 20
16782.323380354308
 10
255.43718155778896
 20
16779.065313555267
 10
257.1256268844221
 20
16744.855206939214
 10
257.2864292964824
 20
16741.325634573586
 10
257.44723170854274
 20
16737.796062207955
 10
259.13567703517595
 20
16700.735113373907
 10
259.2964794472362
 20
16696.93403544169
 10
259.4572818592965
 20
16693.132957509475
 10
261.1457271859297
 20
16653.221166457406
 10
261.30652959798994
 20
16649.148582958605
 10
261.46733201005026
 20
16645.0759994598
 10
263.15577733668346
 20
16602.31336618974
 10
263.3165797487437
 20
16597.96927712435
 10
263.47738216080404
 20
16593.625188058963
 10
265.16582748743724
 20
16548.011712570893
 10
265.3266298994975
 20
16543.39611793892
 10
265.4874323115578
 20
16538.78052330694
 10
267.17587763819097
 20
16490.316205600866
 10
267.3366800502513
 20
16485.429105402305
 10
267.49748246231155
 20
16480.542005203737
 10
269.18592778894475
 20
16429.226845279663
 10
269.346730201005
 20
16424.068239514512
 10
269.50753261306534
 20
16418.90963374937
 10
271.19597793969854
 20
16364.743631607282
 10
271.3567803517588
 20
16359.313520275547
 10
271.5175827638191
 20
16353.883408943808
 10
273.20602809045226
 20
16296.866564583715
 10
273.3668305025126
 20
16291.164947685393
 10
273.5276329145729
 20
16285.463330787068
 10
275.2160782412061
 20
16225.59564420898
 10
275.37688065326637
 20
16219.62252174407
 10
275.53768306532663
 20
16213.649399279162
 10
277.22612839195983
 20
16150.930870483067
 10
277.3869308040201
 20
16144.686242451573
 10
277.5477332160804
 20
16138.441614420071
 10
279.2361785427136
 20
16072.872243405967
 10
279.3969809547739
 20
16066.356109807886
 10
279.5577833668342
 20
16059.8399762098
 10
281.2462286934674
 20
15991.419762977695
 10
281.40703110552766
 20
15984.632123813026
 10
281.567833517588
 20
15977.844484648356
 10
283.25627884422113
 20
15906.57342919825
 10
283.41708125628145
 20
15899.514284466992
 10
283.5778836683417
 20
15892.455139735735
 10
285.2663289949749
 20
15818.33324206762
 10
285.4271314070352
 20
15811.002591769779
 10
285.5879338190955
 20
15803.671941471932
 10
287.2763791457287
 20
15726.699201585814
 10
287.43718155778896
 20
15719.097045721384
 10
287.5979839698493
 20
15711.494889856951
 10
289.2864292964824
 20
15631.67130775283
 10
289.44723170854274
 20
15623.797646321811
 10
289.60803412060307
 20
15615.923984890791
 10
291.2964794472362
 20
15533.249560568665
 10
291.4572818592965
 20
15525.104393571062
 10
291.6180842713568
 20
15516.959226573455
 10
293.30652959798994
 20
15431.433960033324
 10
293.46733201005026
 20
15423.01728746913
 10
293.6281344221106
 20
15414.60061490494
 10
295.3165797487437
 20
15326.224506146811
 10
295.47738216080404
 20
15317.53632801603
 10
295.63818457286436
 20
15308.84814988525
 10
297.3266298994975
 20
15217.621198909112
 10
297.4874323115578
 20
15208.661515211745
 10
297.6482347236181
 20
15199.70183151438
 10
299.3366800502513
 20
15105.624038320237
 10
299.49748246231155
 20
15096.392849056285
 10
299.6582848743719
 20
15087.161659792333
 10
301.346730201005
 20
14990.233024380188
 10
301.50753261306534
 20
14980.730329549648
 10
301.66833502512566
 20
14971.227634719107
 10
303.3567803517588
 20
14871.448157088958
 10
303.5175827638191
 20
14861.67395669183
 10
303.67838517587944
 20
14851.899756294702
 10
305.3668305025126
 20
14749.26943644654
 10
305.5276329145729
 20
14739.223730482825
 10
305.68843532663317
 20
14729.178024519117
 10
307.37688065326637
 20
14623.696862452962
 10
307.53768306532663
 20
14613.379650922663
 10
307.69848547738695
 20
14603.062439392363
 10
309.3869308040201
 20
14494.730435108193
 10
309.5477332160804
 20
14484.141718011304
 10
309.70853562814074
 20
14473.553000914419
 10
311.3969809547739
 20
14362.37015441225
 10
311.5577833668342
 20
14351.509931748775
 10
311.7185857788945
 20
14340.649709085303
 10
313.40703110552766
 20
14226.616020365138
 10
313.567833517588
 20
14215.484292135076
 10
313.72863592964825
 20
14204.352563905019
 10
315.41708125628145
 20
14087.468032966834
 10
315.5778836683417
 20
14076.06479917019
 10
315.73868608040203
 20
14064.66156537354
 10
317.4271314070352
 20
13944.926192217357
 10
317.5879338190955
 20
13933.251452854121
 10
317.7487362311558
 20
13921.576713490887
 10
319.43718155778896
 20
13798.99049811671
 10
319.5979839698493
 20
13787.044253186888
 10
319.7587863819096
 20
13775.098008257064
 10
321.44723170854274
 20
13649.660950664871
 10
321.60803412060307
 20
13637.443200168462
 10
321.76883653266333
 20
13625.225449672056
 10
323.4572818592965
 20
13496.93754986186
 10
323.6180842713568
 20
13484.448293798863
 10
323.7788866834171
 20
13471.959037735867
 10
325.46733201005026
 20
13340.820295707677
 10
325.6281344221106
 20
13328.059534078096
 10
325.7889368341709
 20
13315.298772448512
 10
327.47738216080404
 20
13181.309188202305
 10
327.63818457286436
 20
13168.276921006136
 10
327.7989869849246
 20
13155.24465380997
 10
329.4874323115578
 20
13018.40422734576
 10
329.6482347236181
 20
13005.100454583007
 10
329.8090371356784
 20
12991.796681820251
 10
331.49748246231155
 20
12852.105413138048
 10
331.6582848743719
 20
12838.530134808703
 10
331.8190872864322
 20
12824.95485647936
 10
333.50753261306534
 20
12682.412745579137
 10
333.66833502512566
 20
12668.565961683205
 10
333.829137437186
 20
12654.719177787274
 10
335.5175827638191
 20
12509.326224669056
 10
335.67838517587944
 20
12495.207935206538
 10
335.8391875879397
 20
12481.089645744029
 10
337.5276329145729
 20
12332.84585040781
 10
337.68843532663317
 20
12318.456055378709
 10
337.8492377386935
 20
12304.066260349606
 10
339.53768306532663
 20
12152.971622795374
 10
339.69848547738695
 20
12138.310322199683
 10
339.8592878894473
 20
12123.649021603991
 10
341.5477332160804
 20
11969.703541831757
 10
341.70853562814074
 20
11954.770735669481
 10
341.86933804020106
 20
11939.837929507203
 10
343.5577833668342
 20
11783.041607516967
 10
343.7185857788945
 20
11767.837295788102
 10
343.8793881909548
 20
11752.632984059243
 10
345.567833517588
 20
11592.985819850992
 10
345.72863592964825
 20
11577.510002555548
 10
345.88943834170857
 20
11562.034185260094
 10
347.5778836683417
 20
11399.536178833852
 10
347.73868608040203
 20
11383.788855971814
 10
347.89948849246235
 20
11368.041533109776
 10
349.5879338190955
 20
11202.692684465532
 10
349.7487362311558
 20
11186.673856036907
 10
349.90953864321614
 20
11170.655027608282
 10
351.5979839698493
 20
11002.455336746023
 10
351.7587863819096
 20
10986.16500275081
 10
351.91958879396987
 20
10969.874668755605
 10
353.60803412060307
 20
10798.824135675339
 10
353.76883653266333
 20
10782.262296113544
 10
353.92963894472365
 20
10765.700456551745
 10
355.6180842713568
 20
10591.799081253488
 10
355.7788866834171
 20
10574.965736125103
 10
355.93968909547743
 20
10558.132390996718
 10
357.6281344221106
 20
10381.38017348045
 10
357.7889368341709
 20
10364.275322785477
 10
357.94973924623116
 20
10347.170472090509
 10
359.63818457286436
 20
10167.567412356226
 10
359.7989869849246
 20
10150.191056094673
 10
359.95978939698495
 20
10132.814699833114
 10
361.6482347236181
 20
9950.360797880847
 10
361.8090371356784
 20
9932.7129360527
 10
361.96983954773873
 20
9915.065074224553
 10
363.6582848743719
 20
9729.760330054269
 10
363.8190872864322
 20
9711.840962659535
 10
363.9798896984925
 20
9693.921595264801
 10
365.66833502512566
 20
9505.766008876519
 10
365.829137437186
 20
9487.575135915198
 10
365.98993984924624
 20
9469.384262953885
 10
367.67838517587944
 20
9278.377834347591
 10
367.8391875879397
 20
9259.915455819691
 10
367.99999
 20
9241.453077291784
 10
369.68843532663317
 20
9047.595806467492
 10
369.8492377386935
 20
9028.861922372998
 10
371.69848547738695
 20
8813.419925236205
 10
371.8592878894473
 20
8794.414535575126
 10
373.70853562814074
 20
8575.850190653748
 10
373.86933804020106
 20
8556.57329542608
 10
375.7185857788945
 20
8334.886602720111
 10
375.8793881909548
 20
8315.33820192586
 10
377.72863592964825
 20
8090.529161435293
 10
377.88943834170857
 20
8070.709255074452
 10
379.73868608040203
 20
7842.777866799305
 10
379.89948849246235
 20
7822.686454871876
 10
381.7487362311558
 20
7591.632718812128
 10
381.90953864321614
 20
7571.269801318113
 10
383.7587863819096
 20
7337.093717473771
 10
383.91958879396987
 20
7316.459294413176
 10
385.76883653266333
 20
7079.160862784254
 10
385.92963894472365
 20
7058.254934157065
 10
387.7788866834171
 20
6817.8341547435375
 10
387.93968909547743
 20
6796.656720549762
 10
389.7889368341709
 20
6553.113593351652
 10
389.94973924623116
 20
6531.664653591296
 10
391.7989869849246
 20
6284.999178608596
 10
391.95978939698495
 20
6263.278733281645
 10
393.8090371356784
 20
6013.490910514349
 10
393.96983954773873
 20
5991.498959620813
 10
395.8190872864322
 20
5738.588789068934
 10
395.9798896984925
 20
5716.32533260881
 10
397.829137437186
 20
5460.292814272338
 10
397.98993984924624
 20
5437.757852245635
 10
399.8391875879397
 20
5178.602986124562
 10
399.99999
 20
5155.796518531265
 10
401.8492377386935
 20
4893.519304625606
 10
403.8592878894473
 20
4605.041769775482
 10
405.86933804020106
 20
4313.170381574167
 10
407.8793881909548
 20
4017.9051400216817
 10
409.88943834170857
 20
3719.2460451180173
 10
411.89948849246235
 20
3417.1930968631727
 10
413.90953864321614
 20
3111.746295257148
 10
415.91958879396987
 20
2802.905640299954
 10
417.92963894472365
 20
2490.6711319915803
 10
419.93968909547743
 20
2175.0427703320165
 10
421.94973924623116
 20
1856.0205553213032
 10
423.95978939698495
 20
1533.6044869593795
 10
425.96983954773873
 20
1207.7945652462863
 10
427.9798896984925
 20
878.5907901820232
 10
429.98993984924624
 20
545.9931617665904
 10
431.99999
 20
210.00167999995756
  0
LWPOLYLINE
  5
55
330
17
100
AcDbEntity
  8
0
100
AcDbPolyline
 90
5
 70
0
 43
0.0
 10
0.0
 20
210.0
 10
1.0
 20
210.0
 10
1.0
 20
211.0
 10
0.0
 20
211.0
 10
0.0
 20
210.0
  0
LWPOLYLINE
  5
56
330
17
100
AcDbEntity
  8
0
100
AcDbPolyline
 90
200
 70
0
 43
0.0
 10
1e-05
 20
17227.575759931107
 10
2.010060150753769
 20
17225.887317804474
 10
4.020110301507538
 20
17224.19887567784
 10
6.030160452261307
 20
17222.510433551208
 10
8.040210603015076
 20
17220.821991424575
 10
10.050260753768846
 20
17219.13354929794
 10
12.060310904522614
 20
17217.44510717131
 10
14.070361055276383
 20
17215.756665044675
 10
16.080411206030153
 20
17214.068222918042
 10
18.090461356783923
 20
17212.37978079141
 10
20.100511507537693
 20
17210.691338664776
 10
22.11056165829146
 20
17209.002896538143
 10
24.12061180904523
 20
17207.31445441151
 10
26.130661959799
 20
17205.626012284876
 10
28.140712110552766
 20
17203.937570158243
 10
30.150762261306536
 20
17202.24912803161
 10
32.16081241206031
 20
17200.560685904977
 10
34.17086256281408
 20
17198.872243778344
 10
36.18091271356785
 20
17197.18380165171
 10
38.19096286432162
 20
17195.495359525077
 10
40.20101301507539
 20
17193.806917398444
 10
42.21106316582915
 20
17192.11847527181
 10
44.22111331658292
 20
17190.430033145178
 10
46.23116346733669
 20
17188.741591018545
 10
48.24121361809046
 20
17187.05314889191
 10
50.25126376884423
 20
17185.36470676528
 10
52.261313919598
 20
17183.676264638645
 10
54.27136407035177
 20
17181.987822512012
 10
56.281414221105535
 20
17180.29938038538
 10
58.291464371859306
 20
17178.610938258746
 10
60.301514522613076
 20
17176.922496132112
 10
62.311564673366846
 20
17175.23405400548
 10
64.32161482412062
 20
17173.545611878846
 10
66.33166497487439
 20
17171.857169752213
 10
68.34171512562816
 20
17170.16872762558
 10
70.35176527638193
 20
17168.480285498947
 10
72.3618154271357
 20
17166.791843372313
 10
74.37186557788947
 20
17165.10340124568
 10
76.38191572864324
 20
17163.414959119047
 10
78.391965879397
 20
17161.726516992414
 10
80.40201603015078
 20
17160.03807486578
 10
82.41206618090453
 20
17158.349632739148
 10
84.4221163316583
 20
17156.661190612514
 10
86.43216648241207
 20
17154.97274848588
 10
88.44221663316584
 20
17153.284306359248
 10
90.45226678391961
 20
17151.595864232615
 10
92.46231693467338
 20
17149.907422105982
 10
94.47236708542715
 20
17148.21897997935
 10
96.48241723618092
 20
17146.530537852715
 10
98.49246738693469
 20
17144.842095726082
 10
100.50251753768846
 20
17143.15365359945
 10
102.51256768844223
 20
17141.465211472816
 10
104.522617839196
 20
17139.776769346183
 10
106.53266798994977
 20
17138.08832721955
 10
108.54271814070354
 20
17136.399885092917
 10
110.55276829145731
 20
17134.711442966283
 10
112.56281844221107
 20
17133.02300083965
 10
114.57286859296484
 20
17131.334558713017
 10
116.58291874371861
 20
17129.646116586384
 10
118.59296889447238
 20
17127.95767445975
 10
120.60301904522615
 20
17126.269232333118
 10
122.61306919597992
 20
17124.580790206484
 10
124.62311934673369
 20
17122.89234807985
 10
126.63316949748746
 20
17121.203905953218
 10
128.64321964824123
 20
17119.515463826585
 10
130.65326979899498
 20
17117.82702169995
 10
132.66331994974877
 20
17116.13857957332
 10
134.67337010050252
 20
17114.450137446685
 10
136.6834202512563
 20
17112.761695320052
 10
138.69347040201006
 20
17111.07325319342
 10
140.70352055276385
 20
17109.384811066786
 10
142.7135707035176
 20
17107.696368940153
 10
144.7236208542714
 20
17106.00792681352
 10
146.73367100502514
 20
17104.319484686886
 10
148.74372115577893
 20
17102.631042560253
 10
150.75377130653268
 20
17100.94260043362
 10
152.76382145728647
 20
17099.254158306987
 10
154.77387160804022
 20
17097.565716180354
 10
156.783921758794
 20
17095.87727405372
 10
158.79397190954776
 20
17094.188831927087
 10
160.80402206030155
 20
17092.500389800454
 10
162.8140722110553
 20
17090.81194767382
 10
164.82412236180906
 20
17089.123505547188
 10
166.83417251256284
 20
17087.435063420555
 10
168.8442226633166
 20
17085.74662129392
 10
170.85427281407038
 20
17084.05817916729
 10
172.86432296482414
 20
17082.369737040655
 10
174.87437311557792
 20
17080.681294914022
 10
176.88442326633168
 20
17078.99285278739
 10
178.89447341708546
 20
17077.304410660756
 10
180.90452356783922
 20
17075.615968534123
 10
182.914573718593
 20
17073.927526407486
 10
184.92462386934676
 20
17072.239084280853
 10
186.93467402010054
 20
17070.55064215422
 10
188.9447241708543
 20
17068.862200027586
 10
190.95477432160808
 20
17067.173757900953
 10
192.96482447236184
 20
17065.48531577432
 10
194.9748746231156
 20
17063.79687364769
 10
196.98492477386938
 20
17062.108431521054
 10
198.99497492462314
 20
17060.419989394424
 10
201.00502507537692
 20
17058.731547267787
 10
203.01507522613068
 20
17057.043105141154
 10
205.02512537688446
 20
17055.35466301452
 10
207.03517552763822
 20
17053.666220887888
 10
209.045225678392
 20
17051.977778761255
 10
211.05527582914576
 20
17050.28933663462
 10
213.06532597989954
 20
17048.60089450799
 10
215.0753761306533
 20
17046.912452381355
 10
217.08542628140708
 20
17045.224010254722
 10
219.09547643216084
 20
17043.53556812809
 10
221.10552658291462
 20
17041.847126001456
 10
223.11557673366838
 20
17040.158683874823
 10
225.12562688442213
 20
17038.47024174819
 10
227.13567703517592
 20
17036.781799621556
 10
229.14572718592967
 20
17035.093357494923
 10
231.15577733668346
 20
17033.40491536829
 10
233.1658274874372
 20
17031.716473241657
 10
235.175877638191
 20
17030.028031115024
 10
237.18592778894475
 20
17028.33958898839
 10
239.19597793969854
 20
17026.651146861757
 10
241.2060280904523
 20
17024.962704735124
 10
243.21607824120608
 20
17023.27426260849
 10
245.22612839195983
 20
17021.585820481858
 10
247.23617854271362
 20
17019.897378355225
 10
249.24622869346737
 20
17018.20893622859
 10
251.25627884422116
 20
17016.52049410196
 10
253.2663289949749
 20
17014.832051975325
 10
255.2763791457287
 20
17013.143609848692
 10
257.2864292964824
 20
17011.45516772206
 10
259.2964794472362
 20
17009.766725595426
 10
261.30652959798994
 20
17008.078283468793
 10
263.3165797487437
 20
17006.38984134216
 10
265.3266298994975
 20
17004.701399215526
 10
267.3366800502513
 20
17003.012957088893
 10
269.346730201005
 20
17001.32451496226
 10
271.3567803517588
 20
16999.636072835627
 10
273.3668305025126
 20
16997.947630708994
 10
275.37688065326637
 20
16996.25918858236
 10
277.3869308040201
 20
16994.570746455727
 10
279.3969809547739
 20
16992.882304329094
 10
281.40703110552766
 20
16991.19386220246
 10
283.41708125628145
 20
16989.505420075828
 10
285.4271314070352
 20
16987.816977949195
 10
287.43718155778896
 20
16986.12853582256
 10
289.44723170854274
 20
16984.44009369593
 10
291.4572818592965
 20
16982.751651569295
 10
293.46733201005026
 20
16981.063209442662
 10
295.47738216080404
 20
16979.37476731603
 10
297.4874323115578
 20
16977.686325189396
 10
299.49748246231155
 20
16975.997883062762
 10
301.50753261306534
 20
16974.30944093613
 10
303.5175827638191
 20
16972.620998809496
 10
305.5276329145729
 20
16970.932556682863
 10
307.53768306532663
 20
16969.24411455623
 10
309.5477332160804
 20
16967.555672429597
 10
311.5577833668342
 20
16965.867230302963
 10
313.567833517588
 20
16964.17878817633
 10
315.5778836683417
 20
16962.490346049697
 10
317.5879338190955
 20
16960.801903923064
 10
319.5979839698493
 20
16959.11346179643
 10
321.60803412060307
 20
16957.425019669798
 10
323.6180842713568
 20
16955.736577543164
 10
325.6281344221106
 20
16954.04813541653
 10
327.63818457286436
 20
16952.359693289898
 10
329.6482347236181
 20
16950.671251163265
 10
331.6582848743719
 20
16948.98280903663
 10
333.66833502512566
 20
16947.29436691
 10
335.67838517587944
 20
16945.605924783365
 10
337.68843532663317
 20
16943.917482656732
 10
339.69848547738695
 20
16942.2290405301
 10
341.70853562814074
 20
16940.540598403466
 10
343.7185857788945
 20
16938.852156276833
 10
345.72863592964825
 20
16937.1637141502
 10
347.73868608040203
 20
16935.475272023567
 10
349.7487362311558
 20
16933.786829896933
 10
351.7587863819096
 20
16932.0983877703
 10
353.76883653266333
 20
16930.409945643667
 10
355.7788866834171
 20
16928.721503517034
 10
357.7889368341709
 20
16927.0330613904
 10
359.7989869849246
 20
16925.344619263768
 10
361.8090371356784
 20
16923.656177137134
 10
363.8190872864322
 20
16921.9677350105
 10
365.829137437186
 20
16920.279292883868
 10
367.8391875879397
 20
16918.590850757235
 10
369.8492377386935
 20
16916.9024086306
 10
371.8592878894473
 20
16915.21396650397
 10
373.86933804020106
 20
16913.525524377335
 10
375.8793881909548
 20
16911.837082250702
 10
377.88943834170857
 20
16910.14864012407
 10
379.89948849246235
 20
16908.460197997436
 10
381.90953864321614
 20
16906.771755870803
 10
383.91958879396987
 20
16905.08331374417
 10
385.92963894472365
 20
16903.394871617536
 10
387.93968909547743
 20
16901.706429490903
 10
389.94973924623116
 20
16900.01798736427
 10
391.95978939698495
 20
16898.329545237637
 10
393.96983954773873
 20
16896.641103111004
 10
395.9798896984925
 20
16894.95266098437
 10
397.98993984924624
 20
16893.264218857737
 10
399.99999
 20
16891.575776731104
  0
LWPOLYLINE
  5
57
330
17
100
AcDbEntity
  8
0
100
AcDbPolyline
 90
5
 70
0
 43
0.0
 10
0.0
 20
17059.575768331106
 10
1.0
 20
17059.575768331106
 10
1.0
 20
17060.575768331106
 10
0.0
 20
17060.575768331106
 10
0.0
 20
17059.575768331106
  0
LWPOLYLINE
  5
58
330
17
100
AcDbEntity
  8
0
100
AcDbPolyline
 90
2
 70
0
 43
0.0
 10
480.0
 20
0.0
 10
480.0
 20
0.0
  0
LWPOLYLINE
  5
59
330
17
100
AcDbEntity
  8
0
100
AcDbPolyline
 90
100
 70
0
 43
0.0
 10
495.0
 20
0.0
 10
495.0
 20
0.8080808080808081
 10
495.0
 20
1.6161616161616161
 10
495.0
 20
2.4242424242424243
 10
495.0
 20
3.2323232323232323
 10
495.0
 20
4.040404040404041
 10
495.0
 20
4.848484848484849
 10
495.0
 20
5.656565656565657
 10
495.0
 20
6.4646464646464645
 10
495.0
 20
7.2727272727272725
 10
495.0
 20
8.080808080808081
 10
495.0
 20
8.88888888888889
 10
495.0
 20
9.696969696969697
 10
495.0
 20
10.505050505050505
 10
495.0
 20
11.313131313131313
 10
495.0
 20
12.121212121212121
 10
495.0
 20
12.929292929292929
 10
495.0
 20
13.737373737373737
 10
495.0
 20
14.545454545454545
 10
495.0
 20
15.353535353535353
 10
495.0
 20
16.161616161616163
 10
495.0
 20
16.96969696969697
 10
495.0
 20
17.77777777777778
 10
495.0
 20
18.585858585858585
 10
495.0
 20
19.393939393939394
 10
495.0
 20
20.2020202020202
 10
495.0
 20
21.01010101010101
 10
495.0
 20
21.818181818181817
 10
495.0
 20
22.626262626262626
 10
495.0
 20
23.434343434343432
 10
495.0
 20
24.242424242424242
 10
495.0
 20
25.05050505050505
 10
495.0
 20
25.858585858585858
 10
495.0
 20
26.666666666666668
 10
495.0
 20
27.474747474747474
 10
495.0
 20
28.282828282828284
 10
495.0
 20
29.09090909090909
 10
495.0
 20
29.8989898989899
 10
495.0
 20
30.707070707070706
 10
495.0
 20
31.515151515151516
 10
495.0
 20
32.323232323232325
 10
495.0
 20
33.13131313131313
 10
495.0
 20
33.93939393939394
 10
495.0
 20
34.74747474747475
 10
495.0
 20
35.55555555555556
 10
495.0
 20
36.36363636363636
 10
495.0
 20
37.17171717171717
 10
495.0
 20
37.97979797979798
 10
495.0
 20
38.78787878787879
 10
495.0
 20
39.5959595959596
 10
495.0
 20
40.4040404040404
 10
495.0
 20
41.21212121212121
 10
495.0
 20
42.02020202020202
 10
495.0
 20
42.82828282828283
 10
495.0
 20
43.63636363636363
 10
495.0
 20
44.44444444444444
 10
495.0
 20
45.25252525252525
 10
495.0
 20
46.06060606060606
 10
495.0
 20
46.868686868686865
 10
495.0
 20
47.676767676767675
 10
495.0
 20
48.484848484848484
 10
495.0
 20
49.292929292929294
 10
495.0
 20
50.1010101010101
 10
495.0
 20
50.90909090909091
 10
495.0
 20
51.717171717171716
 10
495.0
 20
52.525252525252526
 10
495.0
 20
53.333333333333336
 10
495.0
 20
54.14141414141414
 10
495.0
 20
54.94949494949495
 10
495.0
 20
55.75757575757576
 10
495.0
 20
56.56565656565657
 10
495.0
 20
57.37373737373737
 10
495.0
 20
58.18181818181818
 10
495.0
 20
58.98989898989899
 10
495.0
 20
59.7979797979798
 10
495.0
 20
60.6060606060606
 10
495.0
 20
61.41414141414141
 10
495.0
 20
62.22222222222222
 10
495.0
 20
63.03030303030303
 10
495.0
 20
63.838383838383834
 10
495.0
 20
64.64646464646465
 10
495.0
 20
65.45454545454545
 10
495.0
 20
66.26262626262626
 10
495.0
 20
67.07070707070707
 10
495.0
 20
67.87878787878788
 10
495.0
 20
68.68686868686869
 10
495.0
 20
69.4949494949495
 10
495.0
 20
70.3030303030303
 10
495.0
 20
71.11111111111111
 10
495.0
 20
71.91919191919192
 10
495.0
 20
72.72727272727272
 10
495.0
 20
73.53535353535354
 10
495.0
 20
74.34343434343434
 10
495.0
 20
75.15151515151516
 10
495.0
 20
75.95959595959596
 10
495.0
 20
76.76767676767676
 10
495.0
 20
77.57575757575758
 10
495.0
 20
78.38383838383838
 10
495.0
 20
79.1919191919192
 10
495.0
 20
80.0
  0
LWPOLYLINE
  5
5A
330
17
100
AcDbEntity
  8
0
100
AcDbPolyline
 90
100
 70
0
 43
0.0
 10
465.0
 20
0.0
 10
465.0
 20
0.8080808080808081
 10
465.0
 20
1.6161616161616161
 10
465.0
 20
2.4242424242424243
 10
465.0
 20
3.2323232323232323
 10
465.0
 20
4.040404040404041
 10
465.0
 20
4.848484848484849
 10
465.0
 20
5.656565656565657
 10
465.0
 20
6.4646464646464645
 10
465.0
 20
7.2727272727272725
 10
465.0
 20
8.080808080808081
 10
465.0
 20
8.88888888888889
 10
465.0
 20
9.696969696969697
 10
465.0
 20
10.505050505050505
 10
465.0
 20
11.313131313131313
 10
465.0
 20
12.121212121212121
 10
465.0
 20
12.929292929292929
 10
465.0
 20
13.737373737373737
 10
465.0
 20
14.545454545454545
 10
465.0
 20
15.353535353535353
 10
465.0
 20
16.161616161616163
 10
465.0
 20
16.96969696969697
 10
465.0
 20
17.77777777777778
 10
465.0
 20
18.585858585858585
 10
465.0
 20
19.393939393939394
 10
465.0
 20
20.2020202020202
 10
465.0
 20
21.01010101010101
 10
465.0
 20
21.818181818181817
 10
465.0
 20
22.626262626262626
 10
465.0
 20
23.434343434343432
 10
465.0
 20
24.242424242424242
 10
465.0
 20
25.05050505050505
 10
465.0
 20
25.858585858585858
 10
465.0
 20
26.666666666666668
 10
465.0
 20
27.474747474747474
 10
465.0
 20
28.282828282828284
 10
465.0
 20
29.09090909090909
 10
465.0
 20
29.8989898989899
 10
465.0
 20
30.707070707070706
 10
465.0
 20
31.515151515151516
 10
465.0
 20
32.323232323232325
 10
465.0
 20
33.13131313131313
 10
465.0
 20
33.93939393939394
 10
465.0
 20
34.74747474747475
 10
465.0
 20
35.55555555555556
 10
465.0
 20
36.36363636363636
 10
465.0
 20
37.17171717171717
 10
465.0
 20
37.97979797979798
 10
465.0
 20
38.78787878787879
 10
465.0
 20
39.5959595959596
 10
465.0
 20
40.4040404040404
 10
465.0
 20
41.21212121212121
 10
465.0
 20
42.02020202020202
 10
465.0
 20
42.82828282828283
 10
465.0
 20
43.63636363636363
 10
465.0
 20
44.44444444444444
 10
465.0
 20
45.25252525252525
 10
465.0
 20
46.06060606060606
 10
465.0
 20
46.868686868686865
 10
465.0
 20
47.676767676767675
 10
465.0
 20
48.484848484848484
 10
465.0
 20
49.292929292929294
 10
465.0
 20
50.1010101010101
 10
465.0
 20
50.90909090909091
 10
465.0
 20
51.717171717171716
 10
465.0
 20
52.525252525252526
 10
465.0
 20
53.333333333333336
 10
465.0
 20
54.14141414141414
 10
465.0
 20
54.94949494949495
 10
465.0
 20
55.75757575757576
 10
465.0
 20
56.56565656565657
 10
465.0
 20
57.37373737373737
 10
465.0
 20
58.18181818181818
 10
465.0
 20
58.98989898989899
 10
465.0
 20
59.7979797979798
 10
465.0
 20
60.6060606060606
 10
465.0
 20
61.41414141414141
 10
465.0
 20
62.22222222222222
 10
465.0
 20
63.03030303030303
 10
465.0
 20
63.838383838383834
 10
465.0
 20
64.64646464646465
 10
465.0
 20
65.45454545454545
 10
465.0
 20
66.26262626262626
 10
465.0
 20
67.07070707070707
 10
465.0
 20
67.87878787878788
 10
465.0
 20
68.68686868686869
 10
465.0
 20
69.4949494949495
 10
465.0
 20
70.3030303030303
 10
465.0
 20
71.11111111111111
 10
465.0
 20
71.91919191919192
 10
465.0
 20
72.72727272727272
 10
465.0
 20
73.53535353535354
 10
465.0
 20
74.34343434343434
 10
465.0
 20
75.15151515151516
 10
465.0
 20
75.95959595959596
 10
465.0
 20
76.76767676767676
 10
465.0
 20
77.57575757575758
 10
465.0
 20
78.38383838383838
 10
465.0
 20
79.1919191919192
 10
465.0
 20
80.0
  0
LWPOLYLINE
  5
5B
330
17
100
AcDbEntity
  8
0
100
AcDbPolyline
 90
100
 70
0
 43
0.0
 10
465.0
 20
0.0
 10
465.3030303030303
 20
0.0
 10
465.6060606060606
 20
0.0
 10
465.90909090909093
 20
0.0
 10
466.2121212121212
 20
0.0
 10
466.5151515151515
 20
0.0
 10
466.8181818181818
 20
0.0
 10
467.1212121212121
 20
0.0
 10
467.42424242424244
 20
0.0
 10
467.72727272727275
 20
0.0
 10
468.030303030303
 20
0.0
 10
468.3333333333333
 20
0.0
 10
468.6363636363636
 20
0.0
 10
468.93939393939394
 20
0.0
 10
469.24242424242425
 20
0.0
 10
469.54545454545456
 20
0.0
 10
469.8484848484849
 20
0.0
 10
470.1515151515151
 20
0.0
 10
470.45454545454544
 20
0.0
 10
470.75757575757575
 20
0.0
 10
471.06060606060606
 20
0.0
 10
471.3636363636364
 20
0.0
 10
471.6666666666667
 20
0.0
 10
471.969696969697
 20
0.0
 10
472.27272727272725
 20
0.0
 10
472.57575757575756
 20
0.0
 10
472.8787878787879
 20
0.0
 10
473.1818181818182
 20
0.0
 10
473.4848484848485
 20
0.0
 10
473.7878787878788
 20
0.0
 10
474.09090909090907
 20
0.0
 10
474.3939393939394
 20
0.0
 10
474.6969696969697
 20
0.0
 10
475.0
 20
0.0
 10
475.3030303030303
 20
0.0
 10
475.6060606060606
 20
0.0
 10
475.90909090909093
 20
0.0
 10
476.2121212121212
 20
0.0
 10
476.5151515151515
 20
0.0
 10
476.8181818181818
 20
0.0
 10
477.1212121212121
 20
0.0
 10
477.42424242424244
 20
0.0
 10
477.72727272727275
 20
0.0
 10
478.030303030303
 20
0.0
 10
478.3333333333333
 20
0.0
 10
478.6363636363636
 20
0.0
 10
478.93939393939394
 20
0.0
 10
479.24242424242425
 20
0.0
 10
479.54545454545456
 20
0.0
 10
479.8484848484849
 20
0.0
 10
480.1515151515151
 20
0.0
 10
480.45454545454544
 20
0.0
 10
480.75757575757575
 20
0.0
 10
481.06060606060606
 20
0.0
 10
481.3636363636364
 20
0.0
 10
481.6666666666667
 20
0.0
 10
481.969696969697
 20
0.0
 10
482.27272727272725
 20
0.0
 10
482.57575757575756
 20
0.0
 10
482.8787878787879
 20
0.0
 10
483.1818181818182
 20
0.0
 10
483.4848484848485
 20
0.0
 10
483.7878787878788
 20
0.0
 10
484.09090909090907
 20
0.0
 10
484.3939393939394
 20
0.0
 10
484.6969696969697
 20
0.0
 10
485.0
 20
0.0
 10
485.3030303030303
 20
0.0
 10
485.6060606060606
 20
0.0
 10
485.90909090909093
 20
0.0
 10
486.2121212121212
 20
0.0
 10
486.5151515151515
 20
0.0
 10
486.8181818181818
 20
0.0
 10
487.1212121212121
 20
0.0
 10
487.42424242424244
 20
0.0
 10
487.72727272727275
 20
0.0
 10
488.030303030303
 20
0.0
 10
488.3333333333333
 20
0.0
 10
488.6363636363636
 20
0.0
 10
488.93939393939394
 20
0.0
 10
489.24242424242425
 20
0.0
 10
489.54545454545456
 20
0.0
 10
489.8484848484849
 20
0.0
 10
490.1515151515151
 20
0.0
 10
490.45454545454544
 20
0.0
 10
490.75757575757575
 20
0.0
 10
491.06060606060606
 20
0.0
 10
491.3636363636364
 20
0.0
 10
491.6666666666667
 20
0.0
 10
491.969696969697
 20
0.0
 10
492.27272727272725
 20
0.0
 10
492.57575757575756
 20
0.0
 10
492.8787878787879
 20
0.0
 10
493.1818181818182
 20
0.0
 10
493.4848484848485
 20
0.0
 10
493.7878787878788
 20
0.0
 10
494.0909090909091
 20
0.0
 10
494.3939393939394
 20
0.0
 10
494.6969696969697
 20
0.0
 10
495.0
 20
0.0
  0
LWPOLYLINE
  5
5C
330
17
100
AcDbEntity
  8
0
100
AcDbPolyline
 90
100
 70
0
 43
0.0
 10
465.0
 20
80.0
 10
465.3030303030303
 20
80.0
 10
465.6060606060606
 20
80.0
 10
465.90909090909093
 20
80.0
 10
466.2121212121212
 20
80.0
 10
466.5151515151515
 20
80.0
 10
466.8181818181818
 20
80.0
 10
467.1212121212121
 20
80.0
 10
467.42424242424244
 20
80.0
 10
467.72727272727275
 20
80.0
 10
468.030303030303
 20
80.0
 10
468.3333333333333
 20
80.0
 10
468.6363636363636
 20
80.0
 10
468.93939393939394
 20
80.0
 10
469.24242424242425
 20
80.0
 10
469.54545454545456
 20
80.0
 10
469.8484848484849
 20
80.0
 10
470.1515151515151
 20
80.0
 10
470.45454545454544
 20
80.0
 10
470.75757575757575
 20
80.0
 10
471.06060606060606
 20
80.0
 10
471.3636363636364
 20
80.0
 10
471.6666666666667
 20
80.0
 10
471.969696969697
 20
80.0
 10
472.27272727272725
 20
80.0
 10
472.57575757575756
 20
80.0
 10
472.8787878787879
 20
80.0
 10
473.1818181818182
 20
80.0
 10
473.4848484848485
 20
80.0
 10
473.7878787878788
 20
80.0
 10
474.09090909090907
 20
80.0
 10
474.3939393939394
 20
80.0
 10
474.6969696969697
 20
80.0
 10
475.0
 20
80.0
 10
475.3030303030303
 20
80.0
 10
475.6060606060606
 20
80.0
 10
475.90909090909093
 20
80.0
 10
476.2121212121212
 20
80.0
 10
476.5151515151515
 20
80.0
 10
476.8181818181818
 20
80.0
 10
477.1212121212121
 20
80.0
 10
477.42424242424244
 20
80.0
 10
477.72727272727275
 20
80.0
 10
478.030303030303
 20
80.0
 10
478.3333333333333
 20
80.0
 10
478.6363636363636
 20
80.0
 10
478.93939393939394
 20
80.0
 10
479.24242424242425
 20
80.0
 10
479.54545454545456
 20
80.0
 10
479.8484848484849
 20
80.0
 10
480.1515151515151
 20
80.0
 10
480.45454545454544
 20
80.0
 10
480.75757575757575
 20
80.0
 10
481.06060606060606
 20
80.0
 10
481.3636363636364
 20
80.0
 10
481.6666666666667
 20
80.0
 10
481.969696969697
 20
80.0
 10
482.27272727272725
 20
80.0
 10
482.57575757575756
 20
80.0
 10
482.8787878787879
 20
80.0
 10
483.1818181818182
 20
80.0
 10
483.4848484848485
 20
80.0
 10
483.7878787878788
 20
80.0
 10
484.09090909090907
 20
80.0
 10
484.3939393939394
 20
80.0
 10
484.6969696969697
 20
80.0
 10
485.0
 20
80.0
 10
485.3030303030303
 20
80.0
 10
485.6060606060606
 20
80.0
 10
485.90909090909093
 20
80.0
 10
486.2121212121212
 20
80.0
 10
486.5151515151515
 20
80.0
 10
486.8181818181818
 20
80.0
 10
487.1212121212121
 20
80.0
 10
487.42424242424244
 20
80.0
 10
487.72727272727275
 20
80.0
 10
488.030303030303
 20
80.0
 10
488.3333333333333
 20
80.0
 10
488.6363636363636
 20
80.0
 10
488.93939393939394
 20
80.0
 10
489.24242424242425
 20
80.0
 10
489.54545454545456
 20
80.0
 10
489.8484848484849
 20
80.0
 10
490.1515151515151
 20
80.0
 10
490.45454545454544
 20
80.0
 10
490.75757575757575
 20
80.0
 10
491.06060606060606
 20
80.0
 10
491.3636363636364
 20
80.0
 10
491.6666666666667
 20
80.0
 10
491.969696969697
 20
80.0
 10
492.27272727272725
 20
80.0
 10
492.57575757575756
 20
80.0
 10
492.8787878787879
 20
80.0
 10
493.1818181818182
 20
80.0
 10
493.4848484848485
 20
80.0
 10
493.7878787878788
 20
80.0
 10
494.0909090909091
 20
80.0
 10
494.3939393939394
 20
80.0
 10
494.6969696969697
 20
80.0
 10
495.0
 20
80.0
  0
LWPOLYLINE
  5
5D
330
17
100
AcDbEntity
  8
0
100
AcDbPolyline
 90
5
 70
0
 43
0.0
 10
469.0
 20
4.0
 10
469.8
 20
4.0
 10
469.8
 20
76.0
 10
469.0
 20
76.0
 10
469.0
 20
4.0
  0
HATCH
  5
5E
330
17
100
AcDbEntity
  8
0
 62
7
100
AcDbHatch
 10
0.0
 20
0.0
 30
0.0
210
0.0
220
0.0
230
1.0
  2
ANSI31
 70
0
 71
0
 91
1
 92
3
 72
0
 73
1
 93
5
 10
469.0
 20
4.0
 10
469.8
 20
4.0
 10
469.8
 20
76.0
 10
469.0
 20
76.0
 10
469.0
 20
4.0
 97
0
 75
1
 76
1
 52
0.0
 41
0.5
 77
0
 78
1
 53
45.0
 43
0.0
 44
0.0
 45
-1.1314
 46
1.1314
 79
0
 98
0
  0
LWPOLYLINE
  5
5F
330
17
100
AcDbEntity
  8
0
100
AcDbPolyline
 90
5
 70
0
 43
0.0
 10
490.2
 20
4.0
 10
491.0
 20
4.0
 10
491.0
 20
76.0
 10
490.2
 20
76.0
 10
490.2
 20
4.0
  0
HATCH
  5
60
330
17
100
AcDbEntity
  8
0
 62
7
100
AcDbHatch
 10
0.0
 20
0.0
 30
0.0
210
0.0
220
0.0
230
1.0
  2
ANSI31
 70
0
 71
0
 91
1
 92
3
 72
0
 73
1
 93
5
 10
490.2
 20
4.0
 10
491.0
 20
4.0
 10
491.0
 20
76.0
 10
490.2
 20
76.0
 10
490.2
 20
4.0
 97
0
 75
1
 76
1
 52
0.0
 41
0.5
 77
0
 78
1
 53
45.0
 43
0.0
 44
0.0
 45
-1.1314
 46
1.1314
 79
0
 98
0
  0
LWPOLYLINE
  5
61
330
17
100
AcDbEntity
  8
0
100
AcDbPolyline
 90
5
 70
0
 43
0.0
 10
469.8
 20
75.2
 10
490.2
 20
75.2
 10
490.2
 20
76.0
 10
469.8
 20
76.0
 10
469.8
 20
75.2
  0
HATCH
  5
62
330
17
100
AcDbEntity
  8
0
 62
7
100
AcDbHatch
 10
0.0
 20
0.0
 30
0.0
210
0.0
220
0.0
230
1.0
  2
ANSI31
 70
0
 71
0
 91
1
 92
3
 72
0
 73
1
 93
5
 10
469.8
 20
75.2
 10
490.2
 20
75.2
 10
490.2
 20
76.0
 10
469.8
 20
76.0
 10
469.8
 20
75.2
 97
0
 75
1
 76
1
 52
0.0
 41
0.5
 77
0
 78
1
 53
45.0
 43
0.0
 44
0.0
 45
-1.1314
 46
1.1314
 79
0
 98
0
  0
LWPOLYLINE
  5
63
330
17
100
AcDbEntity
  8
0
100
AcDbPolyline
 90
5
 70
0
 43
0.0
 10
469.8
 20
4.0
 10
490.2
 20
4.0
 10
490.2
 20
4.8
 10
469.8
 20
4.8
 10
469.8
 20
4.0
  0
HATCH
  5
64
330
17
100
AcDbEntity
  8
0
 62
7
100
AcDbHatch
 10
0.0
 20
0.0
 30
0.0
210
0.0
220
0.0
230
1.0
  2
ANSI31
 70
0
 71
0
 91
1
 92
3
 72
0
 73
1
 93
5
 10
469.8
 20
4.0
 10
490.2
 20
4.0
 10
490.2
 20
4.8
 10
469.8
 20
4.8
 10
469.8
 20
4.0
 97
0
 75
1
 76
1
 52
0.0
 41
0.5
 77
0
 78
1
 53
45.0
 43
0.0
 44
0.0
 45
-1.1314
 46
1.1314
 79
0
 98
0
  0
LWPOLYLINE
  5
65
330
17
100
AcDbEntity
  8
0
100
AcDbPolyline
 90
5
 70
0
 43
0.0
 10
491.4
 20
75.6
 10
490.83431457505077
 20
76.16568542494923
 10
487.298780669118
 20
72.6301515190165
 10
487.86446609406727
 20
72.06446609406726
 10
491.4
 20
75.6
  0
HATCH
  5
66
330
17
100
AcDbEntity
  8
0
 62
7
100
AcDbHatch
 10
0.0
 20
0.0
 30
0.0
210
0.0
220
0.0
230
1.0
  2
ANSI31
 70
0
 71
0
 91
1
 92
3
 72
0
 73
1
 93
5
 10
491.4
 20
75.6
 10
490.83431457505077
 20
76.16568542494923
 10
487.298780669118
 20
72.6301515190165
 10
487.86446609406727
 20
72.06446609406726
 10
491.4
 20
75.6
 97
0
 75
1
 76
1
 52
135.0
 41
0.5
 77
0
 78
1
 53
45.0
 43
0.0
 44
0.0
 45
-1.1314
 46
1.1314
 79
0
 98
0
  0
CIRCLE
  5
67
330
17
100
AcDbEntity
  8
0
100
AcDbCircle
 10
470.2
 20
5.2
 30
0.0
 40
0.4
  0
CIRCLE
  5
68
330
17
100
AcDbEntity
  8
0
100
AcDbCircle
 10
489.8
 20
5.2
 30
0.0
 40
0.4
  0
CIRCLE
  5
69
330
17
100
AcDbEntity
  8
0
100
AcDbCircle
 10
473.0
 20
5.2
 30
0.0
 40
0.4
  0
CIRCLE
  5
6A
330
17
100
AcDbEntity
  8
0
100
AcDbCircle
 10
487.0
 20
5.2
 30
0.0
 40
0.4
  0
CIRCLE
  5
6B
330
17
100
AcDbEntity
  8
0
100
AcDbCircle
 10
475.8
 20
5.2
 30
0.0
 40
0.4
  0
CIRCLE
  5
6C
330
17
100
AcDbEntity
  8
0
100
AcDbCircle
 10
484.2
 20
5.2
 30
0.0
 40
0.4
  0
CIRCLE
  5
6D
330
17
100
AcDbEntity
  8
0
100
AcDbCircle
 10
478.6
 20
5.2
 30
0.0
 40
0.4
  0
CIRCLE
  5
6E
330
17
100
AcDbEntity
  8
0
100
AcDbCircle
 10
481.4
 20
5.2
 30
0.0
 40
0.4
  0
LWPOLYLINE
  5
6F
330
17
100
AcDbEntity
  8
0
100
AcDbPolyline
 90
5
 70
0
 43
0.0
 10
480.0
 20
0.0
 10
481.0
 20
0.0
 10
481.0
 20
1.0
 10
480.0
 20
1.0
 10
480.0
 20
0.0
  0
LWPOLYLINE
  5
70
330
17
100
AcDbEntity
  8
0
100
AcDbPolyline
 90
2
 70
0
 43
0.0
 10
560.0
 20
0.0
 10
560.0
 20
0.0
  0
LWPOLYLINE
  5
71
330
17
100
AcDbEntity
  8
0
100
AcDbPolyline
 90
100
 70
0
 43
0.0
 10
575.0
 20
0.0
 10
575.0
 20
0.8080808080808081
 10
575.0
 20
1.6161616161616161
 10
575.0
 20
2.4242424242424243
 10
575.0
 20
3.2323232323232323
 10
575.0
 20
4.040404040404041
 10
575.0
 20
4.848484848484849
 10
575.0
 20
5.656565656565657
 10
575.0
 20
6.4646464646464645
 10
575.0
 20
7.2727272727272725
 10
575.0
 20
8.080808080808081
 10
575.0
 20
8.88888888888889
 10
575.0
 20
9.696969696969697
 10
575.0
 20
10.505050505050505
 10
575.0
 20
11.313131313131313
 10
575.0
 20
12.121212121212121
 10
575.0
 20
12.929292929292929
 10
575.0
 20
13.737373737373737
 10
575.0
 20
14.545454545454545
 10
575.0
 20
15.353535353535353
 10
575.0
 20
16.161616161616163
 10
575.0
 20
16.96969696969697
 10
575.0
 20
17.77777777777778
 10
575.0
 20
18.585858585858585
 10
575.0
 20
19.393939393939394
 10
575.0
 20
20.2020202020202
 10
575.0
 20
21.01010101010101
 10
575.0
 20
21.818181818181817
 10
575.0
 20
22.626262626262626
 10
575.0
 20
23.434343434343432
 10
575.0
 20
24.242424242424242
 10
575.0
 20
25.05050505050505
 10
575.0
 20
25.858585858585858
 10
575.0
 20
26.666666666666668
 10
575.0
 20
27.474747474747474
 10
575.0
 20
28.282828282828284
 10
575.0
 20
29.09090909090909
 10
575.0
 20
29.8989898989899
 10
575.0
 20
30.707070707070706
 10
575.0
 20
31.515151515151516
 10
575.0
 20
32.323232323232325
 10
575.0
 20
33.13131313131313
 10
575.0
 20
33.93939393939394
 10
575.0
 20
34.74747474747475
 10
575.0
 20
35.55555555555556
 10
575.0
 20
36.36363636363636
 10
575.0
 20
37.17171717171717
 10
575.0
 20
37.97979797979798
 10
575.0
 20
38.78787878787879
 10
575.0
 20
39.5959595959596
 10
575.0
 20
40.4040404040404
 10
575.0
 20
41.21212121212121
 10
575.0
 20
42.02020202020202
 10
575.0
 20
42.82828282828283
 10
575.0
 20
43.63636363636363
 10
575.0
 20
44.44444444444444
 10
575.0
 20
45.25252525252525
 10
575.0
 20
46.06060606060606
 10
575.0
 20
46.868686868686865
 10
575.0
 20
47.676767676767675
 10
575.0
 20
48.484848484848484
 10
575.0
 20
49.292929292929294
 10
575.0
 20
50.1010101010101
 10
575.0
 20
50.90909090909091
 10
575.0
 20
51.717171717171716
 10
575.0
 20
52.525252525252526
 10
575.0
 20
53.333333333333336
 10
575.0
 20
54.14141414141414
 10
575.0
 20
54.94949494949495
 10
575.0
 20
55.75757575757576
 10
575.0
 20
56.56565656565657
 10
575.0
 20
57.37373737373737
 10
575.0
 20
58.18181818181818
 10
575.0
 20
58.98989898989899
 10
575.0
 20
59.7979797979798
 10
575.0
 20
60.6060606060606
 10
575.0
 20
61.41414141414141
 10
575.0
 20
62.22222222222222
 10
575.0
 20
63.03030303030303
 10
575.0
 20
63.838383838383834
 10
575.0
 20
64.64646464646465
 10
575.0
 20
65.45454545454545
 10
575.0
 20
66.26262626262626
 10
575.0
 20
67.07070707070707
 10
575.0
 20
67.87878787878788
 10
575.0
 20
68.68686868686869
 10
575.0
 20
69.4949494949495
 10
575.0
 20
70.3030303030303
 10
575.0
 20
71.11111111111111
 10
575.0
 20
71.91919191919192
 10
575.0
 20
72.72727272727272
 10
575.0
 20
73.53535353535354
 10
575.0
 20
74.34343434343434
 10
575.0
 20
75.15151515151516
 10
575.0
 20
75.95959595959596
 10
575.0
 20
76.76767676767676
 10
575.0
 20
77.57575757575758
 10
575.0
 20
78.38383838383838
 10
575.0
 20
79.1919191919192
 10
575.0
 20
80.0
  0
LWPOLYLINE
  5
72
330
17
100
AcDbEntity
  8
0
100
AcDbPolyline
 90
100
 70
0
 43
0.0
 10
545.0
 20
0.0
 10
545.0
 20
0.8080808080808081
 10
545.0
 20
1.6161616161616161
 10
545.0
 20
2.4242424242424243
 10
545.0
 20
3.2323232323232323
 10
545.0
 20
4.040404040404041
 10
545.0
 20
4.848484848484849
 10
545.0
 20
5.656565656565657
 10
545.0
 20
6.4646464646464645
 10
545.0
 20
7.2727272727272725
 10
545.0
 20
8.080808080808081
 10
545.0
 20
8.88888888888889
 10
545.0
 20
9.696969696969697
 10
545.0
 20
10.505050505050505
 10
545.0
 20
11.313131313131313
 10
545.0
 20
12.121212121212121
 10
545.0
 20
12.929292929292929
 10
545.0
 20
13.737373737373737
 10
545.0
 20
14.545454545454545
 10
545.0
 20
15.353535353535353
 10
545.0
 20
16.161616161616163
 10
545.0
 20
16.96969696969697
 10
545.0
 20
17.77777777777778
 10
545.0
 20
18.585858585858585
 10
545.0
 20
19.393939393939394
 10
545.0
 20
20.2020202020202
 10
545.0
 20
21.01010101010101
 10
545.0
 20
21.818181818181817
 10
545.0
 20
22.626262626262626
 10
545.0
 20
23.434343434343432
 10
545.0
 20
24.242424242424242
 10
545.0
 20
25.05050505050505
 10
545.0
 20
25.858585858585858
 10
545.0
 20
26.666666666666668
 10
545.0
 20
27.474747474747474
 10
545.0
 20
28.282828282828284
 10
545.0
 20
29.09090909090909
 10
545.0
 20
29.8989898989899
 10
545.0
 20
30.707070707070706
 10
545.0
 20
31.515151515151516
 10
545.0
 20
32.323232323232325
 10
545.0
 20
33.13131313131313
 10
545.0
 20
33.93939393939394
 10
545.0
 20
34.74747474747475
 10
545.0
 20
35.55555555555556
 10
545.0
 20
36.36363636363636
 10
545.0
 20
37.17171717171717
 10
545.0
 20
37.97979797979798
 10
545.0
 20
38.78787878787879
 10
545.0
 20
39.5959595959596
 10
545.0
 20
40.4040404040404
 10
545.0
 20
41.21212121212121
 10
545.0
 20
42.02020202020202
 10
545.0
 20
42.82828282828283
 10
545.0
 20
43.63636363636363
 10
545.0
 20
44.44444444444444
 10
545.0
 20
45.25252525252525
 10
545.0
 20
46.06060606060606
 10
545.0
 20
46.868686868686865
 10
545.0
 20
47.676767676767675
 10
545.0
 20
48.484848484848484
 10
545.0
 20
49.292929292929294
 10
545.0
 20
50.1010101010101
 10
545.0
 20
50.90909090909091
 10
545.0
 20
51.717171717171716
 10
545.0
 20
52.525252525252526
 10
545.0
 20
53.333333333333336
 10
545.0
 20
54.14141414141414
 10
545.0
 20
54.94949494949495
 10
545.0
 20
55.75757575757576
 10
545.0
 20
56.56565656565657
 10
545.0
 20
57.37373737373737
 10
545.0
 20
58.18181818181818
 10
545.0
 20
58.98989898989899
 10
545.0
 20
59.7979797979798
 10
545.0
 20
60.6060606060606
 10
545.0
 20
61.41414141414141
 10
545.0
 20
62.22222222222222
 10
545.0
 20
63.03030303030303
 10
545.0
 20
63.838383838383834
 10
545.0
 20
64.64646464646465
 10
545.0
 20
65.45454545454545
 10
545.0
 20
66.26262626262626
 10
545.0
 20
67.07070707070707
 10
545.0
 20
67.87878787878788
 10
545.0
 20
68.68686868686869
 10
545.0
 20
69.4949494949495
 10
545.0
 20
70.3030303030303
 10
545.0
 20
71.11111111111111
 10
545.0
 20
71.91919191919192
 10
545.0
 20
72.72727272727272
 10
545.0
 20
73.53535353535354
 10
545.0
 20
74.34343434343434
 10
545.0
 20
75.15151515151516
 10
545.0
 20
75.95959595959596
 10
545.0
 20
76.76767676767676
 10
545.0
 20
77.57575757575758
 10
545.0
 20
78.38383838383838
 10
545.0
 20
79.1919191919192
 10
545.0
 20
80.0
  0
LWPOLYLINE
  5
73
330
17
100
AcDbEntity
  8
0
100
AcDbPolyline
 90
100
 70
0
 43
0.0
 10
545.0
 20
0.0
 10
545.3030303030303
 20
0.0
 10
545.6060606060606
 20
0.0
 10
545.9090909090909
 20
0.0
 10
546.2121212121212
 20
0.0
 10
546.5151515151515
 20
0.0
 10
546.8181818181819
 20
0.0
 10
547.1212121212121
 20
0.0
 10
547.4242424242424
 20
0.0
 10
547.7272727272727
 20
0.0
 10
548.030303030303
 20
0.0
 10
548.3333333333334
 20
0.0
 10
548.6363636363636
 20
0.0
 10
548.939393939394
 20
0.0
 10
549.2424242424242
 20
0.0
 10
549.5454545454545
 20
0.0
 10
549.8484848484849
 20
0.0
 10
550.1515151515151
 20
0.0
 10
550.4545454545455
 20
0.0
 10
550.7575757575758
 20
0.0
 10
551.060606060606
 20
0.0
 10
551.3636363636364
 20
0.0
 10
551.6666666666666
 20
0.0
 10
551.969696969697
 20
0.0
 10
552.2727272727273
 20
0.0
 10
552.5757575757576
 20
0.0
 10
552.8787878787879
 20
0.0
 10
553.1818181818181
 20
0.0
 10
553.4848484848485
 20
0.0
 10
553.7878787878788
 20
0.0
 10
554.0909090909091
 20
0.0
 10
554.3939393939394
 20
0.0
 10
554.6969696969697
 20
0.0
 10
555.0
 20
0.0
 10
555.3030303030303
 20
0.0
 10
555.6060606060606
 20
0.0
 10
555.9090909090909
 20
0.0
 10
556.2121212121212
 20
0.0
 10
556.5151515151515
 20
0.0
 10
556.8181818181819
 20
0.0
 10
557.1212121212121
 20
0.0
 10
557.4242424242424
 20
0.0
 10
557.7272727272727
 20
0.0
 10
558.030303030303
 20
0.0
 10
558.3333333333334
 20
0.0
 10
558.6363636363636
 20
0.0
 10
558.939393939394
 20
0.0
 10
559.2424242424242
 20
0.0
 10
559.5454545454545
 20
0.0
 10
559.8484848484849
 20
0.0
 10
560.1515151515151
 20
0.0
 10
560.4545454545455
 20
0.0
 10
560.7575757575758
 20
0.0
 10
561.060606060606
 20
0.0
 10
561.3636363636364
 20
0.0
 10
561.6666666666666
 20
0.0
 10
561.969696969697
 20
0.0
 10
562.2727272727273
 20
0.0
 10
562.5757575757576
 20
0.0
 10
562.8787878787879
 20
0.0
 10
563.1818181818181
 20
0.0
 10
563.4848484848485
 20
0.0
 10
563.7878787878788
 20
0.0
 10
564.0909090909091
 20
0.0
 10
564.3939393939394
 20
0.0
 10
564.6969696969697
 20
0.0
 10
565.0
 20
0.0
 10
565.3030303030303
 20
0.0
 10
565.6060606060606
 20
0.0
 10
565.9090909090909
 20
0.0
 10
566.2121212121212
 20
0.0
 10
566.5151515151515
 20
0.0
 10
566.8181818181819
 20
0.0
 10
567.1212121212121
 20
0.0
 10
567.4242424242424
 20
0.0
 10
567.7272727272727
 20
0.0
 10
568.030303030303
 20
0.0
 10
568.3333333333334
 20
0.0
 10
568.6363636363636
 20
0.0
 10
568.939393939394
 20
0.0
 10
569.2424242424242
 20
0.0
 10
569.5454545454545
 20
0.0
 10
569.8484848484849
 20
0.0
 10
570.1515151515151
 20
0.0
 10
570.4545454545455
 20
0.0
 10
570.7575757575758
 20
0.0
 10
571.060606060606
 20
0.0
 10
571.3636363636364
 20
0.0
 10
571.6666666666666
 20
0.0
 10
571.969696969697
 20
0.0
 10
572.2727272727273
 20
0.0
 10
572.5757575757576
 20
0.0
 10
572.8787878787879
 20
0.0
 10
573.1818181818181
 20
0.0
 10
573.4848484848485
 20
0.0
 10
573.7878787878788
 20
0.0
 10
574.0909090909091
 20
0.0
 10
574.3939393939394
 20
0.0
 10
574.6969696969697
 20
0.0
 10
575.0
 20
0.0
  0
LWPOLYLINE
  5
74
330
17
100
AcDbEntity
  8
0
100
AcDbPolyline
 90
100
 70
0
 43
0.0
 10
545.0
 20
80.0
 10
545.3030303030303
 20
80.0
 10
545.6060606060606
 20
80.0
 10
545.9090909090909
 20
80.0
 10
546.2121212121212
 20
80.0
 10
546.5151515151515
 20
80.0
 10
546.8181818181819
 20
80.0
 10
547.1212121212121
 20
80.0
 10
547.4242424242424
 20
80.0
 10
547.7272727272727
 20
80.0
 10
548.030303030303
 20
80.0
 10
548.3333333333334
 20
80.0
 10
548.6363636363636
 20
80.0
 10
548.939393939394
 20
80.0
 10
549.2424242424242
 20
80.0
 10
549.5454545454545
 20
80.0
 10
549.8484848484849
 20
80.0
 10
550.1515151515151
 20
80.0
 10
550.4545454545455
 20
80.0
 10
550.7575757575758
 20
80.0
 10
551.060606060606
 20
80.0
 10
551.3636363636364
 20
80.0
 10
551.6666666666666
 20
80.0
 10
551.969696969697
 20
80.0
 10
552.2727272727273
 20
80.0
 10
552.5757575757576
 20
80.0
 10
552.8787878787879
 20
80.0
 10
553.1818181818181
 20
80.0
 10
553.4848484848485
 20
80.0
 10
553.7878787878788
 20
80.0
 10
554.0909090909091
 20
80.0
 10
554.3939393939394
 20
80.0
 10
554.6969696969697
 20
80.0
 10
555.0
 20
80.0
 10
555.3030303030303
 20
80.0
 10
555.6060606060606
 20
80.0
 10
555.9090909090909
 20
80.0
 10
556.2121212121212
 20
80.0
 10
556.5151515151515
 20
80.0
 10
556.8181818181819
 20
80.0
 10
557.1212121212121
 20
80.0
 10
557.4242424242424
 20
80.0
 10
557.7272727272727
 20
80.0
 10
558.030303030303
 20
80.0
 10
558.3333333333334
 20
80.0
 10
558.6363636363636
 20
80.0
 10
558.939393939394
 20
80.0
 10
559.2424242424242
 20
80.0
 10
559.5454545454545
 20
80.0
 10
559.8484848484849
 20
80.0
 10
560.1515151515151
 20
80.0
 10
560.4545454545455
 20
80.0
 10
560.7575757575758
 20
80.0
 10
561.060606060606
 20
80.0
 10
561.3636363636364
 20
80.0
 10
561.6666666666666
 20
80.0
 10
561.969696969697
 20
80.0
 10
562.2727272727273
 20
80.0
 10
562.5757575757576
 20
80.0
 10
562.8787878787879
 20
80.0
 10
563.1818181818181
 20
80.0
 10
563.4848484848485
 20
80.0
 10
563.7878787878788
 20
80.0
 10
564.0909090909091
 20
80.0
 10
564.3939393939394
 20
80.0
 10
564.6969696969697
 20
80.0
 10
565.0
 20
80.0
 10
565.3030303030303
 20
80.0
 10
565.6060606060606
 20
80.0
 10
565.9090909090909
 20
80.0
 10
566.2121212121212
 20
80.0
 10
566.5151515151515
 20
80.0
 10
566.8181818181819
 20
80.0
 10
567.1212121212121
 20
80.0
 10
567.4242424242424
 20
80.0
 10
567.7272727272727
 20
80.0
 10
568.030303030303
 20
80.0
 10
568.3333333333334
 20
80.0
 10
568.6363636363636
 20
80.0
 10
568.939393939394
 20
80.0
 10
569.2424242424242
 20
80.0
 10
569.5454545454545
 20
80.0
 10
569.8484848484849
 20
80.0
 10
570.1515151515151
 20
80.0
 10
570.4545454545455
 20
80.0
 10
570.7575757575758
 20
80.0
 10
571.060606060606
 20
80.0
 10
571.3636363636364
 20
80.0
 10
571.6666666666666
 20
80.0
 10
571.969696969697
 20
80.0
 10
572.2727272727273
 20
80.0
 10
572.5757575757576
 20
80.0
 10
572.8787878787879
 20
80.0
 10
573.1818181818181
 20
80.0
 10
573.4848484848485
 20
80.0
 10
573.7878787878788
 20
80.0
 10
574.0909090909091
 20
80.0
 10
574.3939393939394
 20
80.0
 10
574.6969696969697
 20
80.0
 10
575.0
 20
80.0
  0
LWPOLYLINE
  5
75
330
17
100
AcDbEntity
  8
0
100
AcDbPolyline
 90
5
 70
0
 43
0.0
 10
549.0
 20
4.0
 10
549.8
 20
4.0
 10
549.8
 20
76.0
 10
549.0
 20
76.0
 10
549.0
 20
4.0
  0
HATCH
  5
76
330
17
100
AcDbEntity
  8
0
 62
7
100
AcDbHatch
 10
0.0
 20
0.0
 30
0.0
210
0.0
220
0.0
230
1.0
  2
ANSI31
 70
0
 71
0
 91
1
 92
3
 72
0
 73
1
 93
5
 10
549.0
 20
4.0
 10
549.8
 20
4.0
 10
549.8
 20
76.0
 10
549.0
 20
76.0
 10
549.0
 20
4.0
 97
0
 75
1
 76
1
 52
0.0
 41
0.5
 77
0
 78
1
 53
45.0
 43
0.0
 44
0.0
 45
-1.1314
 46
1.1314
 79
0
 98
0
  0
LWPOLYLINE
  5
77
330
17
100
AcDbEntity
  8
0
100
AcDbPolyline
 90
5
 70
0
 43
0.0
 10
570.2
 20
4.0
 10
571.0
 20
4.0
 10
571.0
 20
76.0
 10
570.2
 20
76.0
 10
570.2
 20
4.0
  0
HATCH
  5
78
330
17
100
AcDbEntity
  8
0
 62
7
100
AcDbHatch
 10
0.0
 20
0.0
 30
0.0
210
0.0
220
0.0
230
1.0
  2
ANSI31
 70
0
 71
0
 91
1
 92
3
 72
0
 73
1
 93
5
 10
570.2
 20
4.0
 10
571.0
 20
4.0
 10
571.0
 20
76.0
 10
570.2
 20
76.0
 10
570.2
 20
4.0
 97
0
 75
1
 76
1
 52
0.0
 41
0.5
 77
0
 78
1
 53
45.0
 43
0.0
 44
0.0
 45
-1.1314
 46
1.1314
 79
0
 98
0
  0
LWPOLYLINE
  5
79
330
17
100
AcDbEntity
  8
0
100
AcDbPolyline
 90
5
 70
0
 43
0.0
 10
549.8
 20
75.2
 10
570.2
 20
75.2
 10
570.2
 20
76.0
 10
549.8
 20
76.0
 10
549.8
 20
75.2
  0
HATCH
  5
7A
330
17
100
AcDbEntity
  8
0
 62
7
100
AcDbHatch
 10
0.0
 20
0.0
 30
0.0
210
0.0
220
0.0
230
1.0
  2
ANSI31
 70
0
 71
0
 91
1
 92
3
 72
0
 73
1
 93
5
 10
549.8
 20
75.2
 10
570.2
 20
75.2
 10
570.2
 20
76.0
 10
549.8
 20
76.0
 10
549.8
 20
75.2
 97
0
 75
1
 76
1
 52
0.0
 41
0.5
 77
0
 78
1
 53
45.0
 43
0.0
 44
0.0
 45
-1.1314
 46
1.1314
 79
0
 98
0
  0
LWPOLYLINE
  5
7B
330
17
100
AcDbEntity
  8
0
100
AcDbPolyline
 90
5
 70
0
 43
0.0
 10
549.8
 20
4.0
 10
570.2
 20
4.0
 10
570.2
 20
4.8
 10
549.8
 20
4.8
 10
549.8
 20
4.0
  0
HATCH
  5
7C
330
17
100
AcDbEntity
  8
0
 62
7
100
AcDbHatch
 10
0.0
 20
0.0
 30
0.0
210
0.0
220
0.0
230
1.0
  2
ANSI31
 70
0
 71
0
 91
1
 92
3
 72
0
 73
1
 93
5
 10
549.8
 20
4.0
 10
570.2
 20
4.0
 10
570.2
 20
4.8
 10
549.8
 20
4.8
 10
549.8
 20
4.0
 97
0
 75
1
 76
1
 52
0.0
 41
0.5
 77
0
 78
1
 53
45.0
 43
0.0
 44
0.0
 45
-1.1314
 46
1.1314
 79
0
 98
0
  0
LWPOLYLINE
  5
7D
330
17
100
AcDbEntity
  8
0
100
AcDbPolyline
 90
5
 70
0
 43
0.0
 10
571.4
 20
75.6
 10
570.8343145750507
 20
76.16568542494923
 10
567.2987806691181
 20
72.6301515190165
 10
567.8644660940672
 20
72.06446609406726
 10
571.4
 20
75.6
  0
HATCH
  5
7E
330
17
100
AcDbEntity
  8
0
 62
7
100
AcDbHatch
 10
0.0
 20
0.0
 30
0.0
210
0.0
220
0.0
230
1.0
  2
ANSI31
 70
0
 71
0
 91
1
 92
3
 72
0
 73
1
 93
5
 10
571.4
 20
75.6
 10
570.8343145750507
 20
76.16568542494923
 10
567.2987806691181
 20
72.6301515190165
 10
567.8644660940672
 20
72.06446609406726
 10
571.4
 20
75.6
 97
0
 75
1
 76
1
 52
135.0
 41
0.5
 77
0
 78
1
 53
45.0
 43
0.0
 44
0.0
 45
-1.1314
 46
1.1314
 79
0
 98
0
  0
CIRCLE
  5
7F
330
17
100
AcDbEntity
  8
0
100
AcDbCircle
 10
550.2
 20
5.2
 30
0.0
 40
0.4
  0
CIRCLE
  5
80
330
17
100
AcDbEntity
  8
0
100
AcDbCircle
 10
569.8
 20
5.2
 30
0.0
 40
0.4
  0
CIRCLE
  5
81
330
17
100
AcDbEntity
  8
0
100
AcDbCircle
 10
553.0
 20
5.2
 30
0.0
 40
0.4
  0
CIRCLE
  5
82
330
17
100
AcDbEntity
  8
0
100
AcDbCircle
 10
567.0
 20
5.2
 30
0.0
 40
0.4
  0
CIRCLE
  5
83
330
17
100
AcDbEntity
  8
0
100
AcDbCircle
 10
555.8
 20
5.2
 30
0.0
 40
0.4
  0
CIRCLE
  5
84
330
17
100
AcDbEntity
  8
0
100
AcDbCircle
 10
564.2
 20
5.2
 30
0.0
 40
0.4
  0
CIRCLE
  5
85
330
17
100
AcDbEntity
  8
0
100
AcDbCircle
 10
558.6
 20
5.2
 30
0.0
 40
0.4
  0
CIRCLE
  5
86
330
17
100
AcDbEntity
  8
0
100
AcDbCircle
 10
561.4
 20
5.2
 30
0.0
 40
0.4
  0
CIRCLE
  5
87
330
17
100
AcDbEntity
  8
0
100
AcDbCircle
 10
550.2
 20
7.6
 30
0.0
 40
0.4
  0
CIRCLE
  5
88
330
17
100
AcDbEntity
  8
0
100
AcDbCircle
 10
569.8
 20
7.6
 30
0.0
 40
0.4
  0
CIRCLE
  5
89
330
17
100
AcDbEntity
  8
0
100
AcDbCircle
 10
553.0
 20
7.6
 30
0.0
 40
0.4
  0
CIRCLE
  5
8A
330
17
100
AcDbEntity
  8
0
100
AcDbCircle
 10
567.0
 20
7.6
 30
0.0
 40
0.4
  0
CIRCLE
  5
8B
330
17
100
AcDbEntity
  8
0
100
AcDbCircle
 10
560.0
 20
7.6
 30
0.0
 40
0.4
  0
LWPOLYLINE
  5
8C
330
17
100
AcDbEntity
  8
0
100
AcDbPolyline
 90
5
 70
0
 43
0.0
 10
560.0
 20
0.0
 10
561.0
 20
0.0
 10
561.0
 20
1.0
 10
560.0
 20
1.0
 10
560.0
 20
0.0
  0
ENDSEC
  0
SECTION
  2
OBJECTS
  0
DICTIONARY
  5
A
330
0
100
AcDbDictionary
281
1
  3
ACAD_COLOR
350
B
  3
ACAD_GROUP
350
C
  3
ACAD_LAYOUT
350
D
  3
ACAD_MATERIAL
350
E
  3
ACAD_MLEADERSTYLE
350
F
  3
ACAD_MLINESTYLE
350
10
  3
ACAD_PLOTSETTINGS
350
11
  3
ACAD_PLOTSTYLENAME
350
12
  3
ACAD_SCALELIST
350
14
  3
ACAD_TABLESTYLE
350
15
  3
ACAD_VISUALSTYLE
350
16
  0
DICTIONARY
  5
B
330
A
100
AcDbDictionary
281
1
  0
DICTIONARY
  5
C
330
A
100
AcDbDictionary
281
1
  0
DICTIONARY
  5
D
330
A
100
AcDbDictionary
281
1
  3
Model
350
1A
  3
Layout1
350
1E
  0
DICTIONARY
  5
E
330
A
100
AcDbDictionary
281
1
  3
ByBlock
350
1F
  3
ByLayer
350
20
  3
Global
350
21
  0
DICTIONARY
  5
F
330
A
100
AcDbDictionary
281
1
  3
Standard
350
2C
  0
DICTIONARY
  5
10
330
A
100
AcDbDictionary
281
1
  3
Standard
350
22
  0
DICTIONARY
  5
11
330
A
100
AcDbDictionary
281
1
  0
ACDBDICTIONARYWDFLT
  5
12
330
A
100
AcDbDictionary
281
1
  3
Normal
350
13
100
AcDbDictionaryWithDefault
340
13
  0
ACDBPLACEHOLDER
  5
13
330
12
  0
DICTIONARY
  5
14
330
A
100
AcDbDictionary
281
1
  0
DICTIONARY
  5
15
330
A
100
AcDbDictionary
281
1
  0
DICTIONARY
  5
16
330
A
100
AcDbDictionary
281
1
  0
LAYOUT
  5
1A
330
D
100
AcDbPlotSettings
  1

  2
Adobe PDF
  4
A4
  6

 40
3.175
 41
3.175
 42
3.175
 43
3.175
 44
209.91
 45
297.03
 46
0.0
 47
0.0
 48
0.0
 49
0.0
140
0.0
141
0.0
142
1.0
143
1.0
 70
1024
 72
0
 73
1
 74
5
  7

 75
16
 76
0
 77
2
 78
300
147
1.0
148
0.0
149
0.0
100
AcDbLayout
  1
Model
 70
1
 71
0
 10
-3.175
 20
-3.175
 11
293.857
 21
206.735
 12
0.0
 22
0.0
 32
0.0
 14
29.068
 24
20.356
 34
0.0
 15
261.614
 25
183.204
 35
0.0
146
0.0
 13
0.0
 23
0.0
 33
0.0
 16
1.0
 26
0.0
 36
0.0
 17
0.0
 27
1.0
 37
0.0
 76
1
330
17
  0
LAYOUT
  5
1E
330
D
100
AcDbPlotSettings
  1

  2
Adobe PDF
  4
A4
  6

 40
3.175
 41
3.175
 42
3.175
 43
3.175
 44
209.91
 45
297.03
 46
0.0
 47
0.0
 48
0.0
 49
0.0
140
0.0
141
0.0
142
1.0
143
1.0
 70
0
 72
0
 73
1
 74
5
  7

 75
16
 76
0
 77
2
 78
300
147
1.0
148
0.0
149
0.0
100
AcDbLayout
  1
Layout1
 70
1
 71
1
 10
-3.175
 20
-3.175
 11
293.857
 21
206.735
 12
0.0
 22
0.0
 32
0.0
 14
29.068
 24
20.356
 34
0.0
 15
261.614
 25
183.204
 35
0.0
146
0.0
 13
0.0
 23
0.0
 33
0.0
 16
1.0
 26
0.0
 36
0.0
 17
0.0
 27
1.0
 37
0.0
 76
1
330
1B
  0
MATERIAL
  5
1F
102
{ACAD_REACTORS
330
E
102
}
330
E
100
AcDbMaterial
  1
ByBlock
  2

 70
0
 40
1.0
 71
1
 41
1.0
 91
-1023410177
 42
1.0
 72
1
  3

 73
1
 74
1
 75
1
 44
0.5
 73
0
 45
1.0
 46
1.0
 77
1
  4

 78
1
 79
1
170
1
 48
1.0
171
1
  6

172
1
173
1
174
1
140
1.0
141
1.0
175
1
  7

176
1
177
1
178
1
143
1.0
179
1
  8

270
1
271
1
272
1
145
1.0
146
1.0
273
1
  9

274
1
275
1
276
1
 42
1.0
 72
1
  3

 73
1
 74
1
 75
1
 94
63
  0
MATERIAL
  5
20
102
{ACAD_REACTORS
330
E
102
}
330
E
100
AcDbMaterial
  1
ByLayer
  2

 70
0
 40
1.0
 71
1
 41
1.0
 91
-1023410177
 42
1.0
 72
1
  3

 73
1
 74
1
 75
1
 44
0.5
 73
0
 45
1.0
 46
1.0
 77
1
  4

 78
1
 79
1
170
1
 48
1.0
171
1
  6

172
1
173
1
174
1
140
1.0
141
1.0
175
1
  7

176
1
177
1
178
1
143
1.0
179
1
  8

270
1
271
1
272
1
145
1.0
146
1.0
273
1
  9

274
1
275
1
276
1
 42
1.0
 72
1
  3

 73
1
 74
1
 75
1
 94
63
  0
MATERIAL
  5
21
102
{ACAD_REACTORS
330
E
102
}
330
E
100
AcDbMaterial
  1
Global
  2

 70
0
 40
1.0
 71
1
 41
1.0
 91
-1023410177
 42
1.0
 72
1
  3

 73
1
 74
1
 75
1
 44
0.5
 73
0
 45
1.0
 46
1.0
 77
1
  4

 78
1
 79
1
170
1
 48
1.0
171
1
  6

172
1
173
1
174
1
140
1.0
141
1.0
175
1
  7

176
1
177
1
178
1
143
1.0
179
1
  8

270
1
271
1
272
1
145
1.0
146
1.0
273
1
  9

274
1
275
1
276
1
 42
1.0
 72
1
  3

 73
1
 74
1
 75
1
 94
63
  0
MLINESTYLE
  5
22
102
{ACAD_REACTORS
330
10
102
}
330
10
100
AcDbMlineStyle
  2
Standard
 70
0
  3

 62
256
 51
90.0
 52
90.0
 71
2
 49
0.5
 62
256
  6
BYLAYER
 49
-0.5
 62
256
  6
BYLAYER
  0
MLEADERSTYLE
  5
2C
102
{ACAD_REACTORS
330
F
102
}
330
F
100
AcDbMLeaderStyle
179
2
170
2
171
1
172
0
 90
2
 40
0.0
 41
0.0
173
1
 91
-1056964608
 92
-2
290
1
 42
2.0
291
1
 43
8.0
  3
Standard
 44
4.0
300

342
29
174
1
175
1
176
0
178
1
 93
-1056964608
 45
4.0
292
0
297
0
 46
4.0
 94
-1056964608
 47
1.0
 49
0.0
140
1.0
294
1
141
0.0
177
0
142
1.0
295
0
296
0
143
3.75
271
0
272
9
272
9
  0
ENDSEC
  0
EOF
