  0
SECTION
  2
HEADER
  9
$ACADVER
  1
AC1032
  9
$ACADMAINTVER
 90
4
  9
$DWGCODEPAGE
  3
ANSI_1252
  9
$LASTSAVEDBY
  1
ezdxf
  9
$REQUIREDVERSIONS
160
0
  9
$INSBASE
 10
0.0
 20
0.0
 30
0.0
  9
$EXTMIN
 10
-100
 20
-100
 30
-100
  9
$EXTMAX
 10
100
 20
100
 30
100
  9
$LIMMIN
 10
0.0
 20
0.0
  9
$LIMMAX
 10
420.0
 20
297.0
  9
$ORTHOMODE
 70
0
  9
$REGENMODE
 70
1
  9
$FILLMODE
 70
1
  9
$QTEXTMODE
 70
0
  9
$MIRRTEXT
 70
1
  9
$LTSCALE
 40
1.0
  9
$ATTMODE
 70
1
  9
$TEXTSIZE
 40
2.5
  9
$TRACEWID
 40
1.0
  9
$TEXTSTYLE
  7
Standard
  9
$CLAYER
  8
0
  9
$CELTYPE
  6
ByLayer
  9
$CECOLOR
 62
256
  9
$CELTSCALE
 40
1.0
  9
$DISPSILH
 70
0
  9
$DIMSCALE
 40
1.0
  9
$DIMASZ
 40
2.5
  9
$DIMEXO
 40
0.625
  9
$DIMDLI
 40
3.75
  9
$DIMRND
 40
0.0
  9
$DIMDLE
 40
0.0
  9
$DIMEXE
 40
1.25
  9
$DIMTP
 40
0.0
  9
$DIMTM
 40
0.0
  9
$DIMTXT
 40
2.5
  9
$DIMCEN
 40
2.5
  9
$DIMTSZ
 40
0.0
  9
$DIMTOL
 70
0
  9
$DIMLIM
 70
0
  9
$DIMTIH
 70
0
  9
$DIMTOH
 70
0
  9
$DIMSE1
 70
0
  9
$DIMSE2
 70
0
  9
$DIMTAD
 70
1
  9
$DIMZIN
 70
8
  9
$DIMBLK
  1

  9
$DIMASO
 70
1
  9
$DIMSHO
 70
1
  9
$DIMPOST
  1

  9
$DIMAPOST
  1

  9
$DIMALT
 70
0
  9
$DIMALTD
 70
3
  9
$DIMALTF
 40
0.03937007874
  9
$DIMLFAC
 40
1.0
  9
$DIMTOFL
 70
1
  9
$DIMTVP
 40
0.0
  9
$DIMTIX
 70
0
  9
$DIMSOXD
 70
0
  9
$DIMSAH
 70
0
  9
$DIMBLK1
  1

  9
$DIMBLK2
  1

  9
$DIMSTYLE
  2
ISO-25
  9
$DIMCLRD
 70
0
  9
$DIMCLRE
 70
0
  9
$DIMCLRT
 70
0
  9
$DIMTFAC
 40
1.0
  9
$DIMGAP
 40
0.625
  9
$DIMJUST
 70
0
  9
$DIMSD1
 70
0
  9
$DIMSD2
 70
0
  9
$DIMTOLJ
 70
0
  9
$DIMTZIN
 70
8
  9
$DIMALTZ
 70
0
  9
$DIMALTTZ
 70
0
  9
$DIMUPT
 70
0
  9
$DIMDEC
 70
2
  9
$DIMTDEC
 70
2
  9
$DIMALTU
 70
2
  9
$DIMALTTD
 70
3
  9
$DIMTXSTY
  7
Standard
  9
$DIMAUNIT
 70
0
  9
$DIMADEC
 70
0
  9
$DIMALTRND
 40
0.0
  9
$DIMAZIN
 70
0
  9
$DIMDSEP
 70
44
  9
$DIMATFIT
 70
3
  9
$DIMFRAC
 70
0
  9
$DIMLDRBLK
  1

  9
$DIMLUNIT
 70
2
  9
$DIMLWD
 70
-2
  9
$DIMLWE
 70
-2
  9
$DIMTMOVE
 70
0
  9
$DIMFXL
 40
1.0
  9
$DIMFXLON
 70
0
  9
$DIMJOGANG
 40
0.785398163397
  9
$DIMTFILL
 70
0
  9
$DIMTFILLCLR
 70
0
  9
$DIMARCSYM
 70
0
  9
$DIMLTYPE
  6

  9
$DIMLTEX1
  6

  9
$DIMLTEX2
  6

  9
$DIMTXTDIRECTION
 70
0
  9
$LUNITS
 70
2
  9
$LUPREC
 70
4
  9
$SKETCHINC
 40
1.0
  9
$FILLETRAD
 40
10.0
  9
$AUNITS
 70
0
  9
$AUPREC
 70
2
  9
$MENU
  1
.
  9
$ELEVATION
 40
0.0
  9
$PELEVATION
 40
0.0
  9
$THICKNESS
 40
0.0
  9
$LIMCHECK
 70
0
  9
$CHAMFERA
 40
0.0
  9
$CHAMFERB
 40
0.0
  9
$CHAMFERC
 40
0.0
  9
$CHAMFERD
 40
0.0
  9
$SKPOLY
 70
0
  9
$TDCREATE
 40
2458928.8404282406
  9
$TDUCREATE
 40
2458532.153996898
  9
$TDUPDATE
 40
2458928.8404282406
  9
$TDUUPDATE
 40
2458532.1544311
  9
$TDINDWG
 40
0.0
  9
$TDUSRTIMER
 40
0.0
  9
$USRTIMER
 70
1
  9
$ANGBASE
 50
0.0
  9
$ANGDIR
 70
0
  9
$PDMODE
 70
0
  9
$PDSIZE
 40
0.0
  9
$PLINEWID
 40
0.0
  9
$SPLFRAME
 70
0
  9
$SPLINETYPE
 70
6
  9
$SPLINESEGS
 70
8
  9
$HANDSEED
  5
59
  9
$SURFTAB1
 70
6
  9
$SURFTAB2
 70
6
  9
$SURFTYPE
 70
6
  9
$SURFU
 70
6
  9
$SURFV
 70
6
  9
$UCSBASE
  2

  9
$UCSNAME
  2

  9
$UCSORG
 10
0.0
 20
0.0
 30
0.0
  9
$UCSXDIR
 10
1.0
 20
0.0
 30
0.0
  9
$UCSYDIR
 10
0.0
 20
1.0
 30
0.0
  9
$UCSORTHOREF
  2

  9
$UCSORTHOVIEW
 70
0
  9
$UCSORGTOP
 10
0.0
 20
0.0
 30
0.0
  9
$UCSORGBOTTOM
 10
0.0
 20
0.0
 30
0.0
  9
$UCSORGLEFT
 10
0.0
 20
0.0
 30
0.0
  9
$UCSORGRIGHT
 10
0.0
 20
0.0
 30
0.0
  9
$UCSORGFRONT
 10
0.0
 20
0.0
 30
0.0
  9
$UCSORGBACK
 10
0.0
 20
0.0
 30
0.0
  9
$PUCSBASE
  2

  9
$PUCSNAME
  2

  9
$PUCSORG
 10
0.0
 20
0.0
 30
0.0
  9
$PUCSXDIR
 10
1.0
 20
0.0
 30
0.0
  9
$PUCSYDIR
 10
0.0
 20
1.0
 30
0.0
  9
$PUCSORTHOREF
  2

  9
$PUCSORTHOVIEW
 70
0
  9
$PUCSORGTOP
 10
0.0
 20
0.0
 30
0.0
  9
$PUCSORGBOTTOM
 10
0.0
 20
0.0
 30
0.0
  9
$PUCSORGLEFT
 10
0.0
 20
0.0
 30
0.0
  9
$PUCSORGRIGHT
 10
0.0
 20
0.0
 30
0.0
  9
$PUCSORGFRONT
 10
0.0
 20
0.0
 30
0.0
  9
$PUCSORGBACK
 10
0.0
 20
0.0
 30
0.0
  9
$USERI1
 70
0
  9
$USERI2
 70
0
  9
$USERI3
 70
0
  9
$USERI4
 70
0
  9
$USERI5
 70
0
  9
$USERR1
 40
0.0
  9
$USERR2
 40
0.0
  9
$USERR3
 40
0.0
  9
$USERR4
 40
0.0
  9
$USERR5
 40
0.0
  9
$WORLDVIEW
 70
1
  9
$SHADEDGE
 70
3
  9
$SHADEDIF
 70
70
  9
$TILEMODE
 70
1
  9
$MAXACTVP
 70
64
  9
$PINSBASE
 10
0.0
 20
0.0
 30
0.0
  9
$PLIMCHECK
 70
0
  9
$PEXTMIN
 10
1e+20
 20
1e+20
 30
1e+20
  9
$PEXTMAX
 10
-1e+20
 20
-1e+20
 30
-1e+20
  9
$PLIMMIN
 10
0.0
 20
0.0
  9
$PLIMMAX
 10
420.0
 20
297.0
  9
$UNITMODE
 70
0
  9
$VISRETAIN
 70
1
  9
$PLINEGEN
 70
0
  9
$PSLTSCALE
 70
1
  9
$TREEDEPTH
 70
3020
  9
$CMLSTYLE
  2
Standard
  9
$CMLJUST
 70
0
  9
$CMLSCALE
 40
20.0
  9
$PROXYGRAPHICS
 70
1
  9
$MEASUREMENT
 70
1
  9
$CELWEIGHT
370
-1
  9
$ENDCAPS
280
0
  9
$JOINSTYLE
280
0
  9
$LWDISPLAY
290
0
  9
$INSUNITS
 70
6
  9
$HYPERLINKBASE
  1

  9
$STYLESHEET
  1

  9
$XEDIT
290
1
  9
$CEPSNTYPE
380
0
  9
$PSTYLEMODE
290
1
  9
$FINGERPRINTGUID
  2
CA01A3E8-6A36-11EA-8E8C-3C07545DF518
  9
$VERSIONGUID
  2
CA16194C-6A36-11EA-8C74-3C07545DF518
  9
$EXTNAMES
290
1
  9
$PSVPSCALE
 40
0.0
  9
$OLESTARTUP
290
0
  9
$SORTENTS
280
127
  9
$INDEXCTL
280
0
  9
$HIDETEXT
280
1
  9
$XCLIPFRAME
280
2
  9
$HALOGAP
280
0
  9
$OBSCOLOR
 70
257
  9
$OBSLTYPE
280
0
  9
$INTERSECTIONDISPLAY
280
0
  9
$INTERSECTIONCOLOR
 70
257
  9
$DIMASSOC
280
2
  9
$PROJECTNAME
  1

  9
$CAMERADISPLAY
290
0
  9
$LENSLENGTH
 40
50.0
  9
$CAMERAHEIGHT
 40
0.0
  9
$STEPSPERSEC
 40
24.0
  9
$STEPSIZE
 40
100.0
  9
$3DDWFPREC
 40
2.0
  9
$PSOLWIDTH
 40
0.005
  9
$PSOLHEIGHT
 40
0.08
  9
$LOFTANG1
 40
1.570796326795
  9
$LOFTANG2
 40
1.570796326795
  9
$LOFTMAG1
 40
0.0
  9
$LOFTMAG2
 40
0.0
  9
$LOFTPARAM
 70
7
  9
$LOFTNORMALS
280
1
  9
$LATITUDE
 40
37.795
  9
$LONGITUDE
 40
-122.394
  9
$NORTHDIRECTION
 40
0.0
  9
$TIMEZONE
 70
-8000
  9
$LIGHTGLYPHDISPLAY
280
1
  9
$TILEMODELIGHTSYNCH
280
1
  9
$CMATERIAL
347
20
  9
$SOLIDHIST
280
0
  9
$SHOWHIST
280
1
  9
$DWFFRAME
280
2
  9
$DGNFRAME
280
2
  9
$REALWORLDSCALE
290
1
  9
$INTERFERECOLOR
 62
256
  9
$CSHADOW
280
0
  9
$SHADOWPLANELOCATION
 40
0.0
  0
ENDSEC
  0
SECTION
  2
CLASSES
  0
CLASS
  1
ACDBDICTIONARYWDFLT
  2
AcDbDictionaryWithDefault
  3
ObjectDBX Classes
 90
0
 91
0
280
0
281
0
  0
CLASS
  1
SUN
  2
AcDbSun
  3
SCENEOE
 90
1153
 91
0
280
0
281
0
  0
CLASS
  1
VISUALSTYLE
  2
AcDbVisualStyle
  3
ObjectDBX Classes
 90
4095
 91
0
280
0
281
0
  0
CLASS
  1
MATERIAL
  2
AcDbMaterial
  3
ObjectDBX Classes
 90
1153
 91
0
280
0
281
0
  0
CLASS
  1
SCALE
  2
AcDbScale
  3
ObjectDBX Classes
 90
1153
 91
0
280
0
281
0
  0
CLASS
  1
TABLESTYLE
  2
AcDbTableStyle
  3
ObjectDBX Classes
 90
4095
 91
0
280
0
281
0
  0
CLASS
  1
MLEADERSTYLE
  2
AcDbMLeaderStyle
  3
ACDB_MLEADERSTYLE_CLASS
 90
4095
 91
0
280
0
281
0
  0
CLASS
  1
DICTIONARYVAR
  2
AcDbDictionaryVar
  3
ObjectDBX Classes
 90
0
 91
0
280
0
281
0
  0
CLASS
  1
CELLSTYLEMAP
  2
AcDbCellStyleMap
  3
ObjectDBX Classes
 90
1152
 91
0
280
0
281
0
  0
CLASS
  1
MENTALRAYRENDERSETTINGS
  2
AcDbMentalRayRenderSettings
  3
SCENEOE
 90
1024
 91
0
280
0
281
0
  0
CLASS
  1
ACDBDETAILVIEWSTYLE
  2
AcDbDetailViewStyle
  3
ObjectDBX Classes
 90
1025
 91
0
280
0
281
0
  0
CLASS
  1
ACDBSECTIONVIEWSTYLE
  2
AcDbSectionViewStyle
  3
ObjectDBX Classes
 90
1025
 91
0
280
0
281
0
  0
CLASS
  1
RASTERVARIABLES
  2
AcDbRasterVariables
  3
ISM
 90
0
 91
0
280
0
281
0
  0
CLASS
  1
LAYOUT
  2
AcDbLayout
  3
ObjectDBX Classes
 90
0
 91
0
280
0
281
0
  0
CLASS
  1
ACDBPLACEHOLDER
  2
AcDbPlaceHolder
  3
ObjectDBX Classes
 90
0
 91
0
280
0
281
0
  0
ENDSEC
  0
SECTION
  2
TABLES
  0
TABLE
  2
VPORT
  5
8
330
0
100
AcDbSymbolTable
 70
1
  0
VPORT
  5
23
330
8
100
AcDbSymbolTableRecord
100
AcDbViewportTableRecord
  2
*Active
 70
0
 10
0.0
 20
0.0
 11
1.0
 21
1.0
 12
70.0
 22
50.0
 13
0.0
 23
0.0
 14
0.5
 24
0.5
 15
0.5
 25
0.5
 16
0.0
 26
0.0
 36
1.0
 17
0.0
 27
0.0
 37
0.0
 40
1.0
 41
1.34
 42
50.0
 43
0.0
 44
0.0
 50
0.0
 51
0.0
 71
0
 72
1000
 73
1
 74
3
 75
0
 76
0
 77
0
 78
0
281
0
 65
0
146
0.0
  0
ENDTAB
  0
TABLE
  2
LTYPE
  5
2
330
0
100
AcDbSymbolTable
 70
3
  0
LTYPE
  5
24
330
2
100
AcDbSymbolTableRecord
100
AcDbLinetypeTableRecord
  2
ByBlock
 70
0
  3

 72
65
 73
0
 40
0.0
  0
LTYPE
  5
25
330
2
100
AcDbSymbolTableRecord
100
AcDbLinetypeTableRecord
  2
ByLayer
 70
0
  3

 72
65
 73
0
 40
0.0
  0
LTYPE
  5
26
330
2
100
AcDbSymbolTableRecord
100
AcDbLinetypeTableRecord
  2
Continuous
 70
0
  3

 72
65
 73
0
 40
0.0
  0
ENDTAB
  0
TABLE
  2
LAYER
  5
1
330
0
100
AcDbSymbolTable
 70
2
  0
LAYER
  5
27
330
1
100
AcDbSymbolTableRecord
100
AcDbLayerTableRecord
  2
0
 70
0
 62
7
  6
Continuous
370
-3
390
13
347
21
  0
LAYER
  5
28
330
1
100
AcDbSymbolTableRecord
100
AcDbLayerTableRecord
  2
Defpoints
 70
0
 62
7
  6
Continuous
290
0
370
-3
390
13
347
21
  0
ENDTAB
  0
TABLE
  2
STYLE
  5
5
330
0
100
AcDbSymbolTable
 70
1
  0
STYLE
  5
29
330
5
100
AcDbSymbolTableRecord
100
AcDbTextStyleTableRecord
  2
Standard
 70
0
 40
0.0
 41
1.0
 50
0.0
 71
0
 42
2.5
  3
txt
  4

  0
ENDTAB
  0
TABLE
  2
VIEW
  5
7
330
0
100
AcDbSymbolTable
 70
0
  0
ENDTAB
  0
TABLE
  2
UCS
  5
6
330
0
100
AcDbSymbolTable
 70
0
  0
ENDTAB
  0
TABLE
  2
APPID
  5
3
330
0
100
AcDbSymbolTable
 70
2
  0
APPID
  5
2A
330
3
100
AcDbSymbolTableRecord
100
AcDbRegAppTableRecord
  2
ACAD
 70
0
  0
APPID
  5
58
330
3
100
AcDbSymbolTableRecord
100
AcDbRegAppTableRecord
  2
HATCHBACKGROUNDCOLOR
 70
0
  0
ENDTAB
  0
TABLE
  2
DIMSTYLE
  5
4
330
0
100
AcDbSymbolTable
 70
1
100
AcDbDimStyleTable
  0
DIMSTYLE
105
2B
330
4
100
AcDbSymbolTableRecord
100
AcDbDimStyleTableRecord
  2
Standard
 70
0
 40
1.0
 41
2.5
 42
0.625
 43
3.75
 44
1.25
 45
0.0
 46
0.0
 47
0.0
 48
0.0
 49
2.5
140
2.5
141
2.5
142
0.0
143
0.03937007874
144
1.0
145
0.0
146
1.0
147
0.625
148
0.0
 69
0
 70
0
 71
0
 72
0
 73
0
 74
0
 75
0
 76
0
 77
1
 78
8
 79
0
170
0
171
3
172
1
173
0
174
0
175
0
176
0
177
0
178
0
179
0
271
0
272
2
273
2
274
3
275
0
276
0
277
2
278
44
279
0
280
0
281
0
282
0
283
0
284
8
285
0
286
0
288
0
289
3
290
0
371
-2
372
-2
  0
ENDTAB
  0
TABLE
  2
BLOCK_RECORD
  5
9
330
0
100
AcDbSymbolTable
 70
2
  0
BLOCK_RECORD
  5
17
330
9
100
AcDbSymbolTableRecord
100
AcDbBlockTableRecord
  2
*Model_Space
340
1A
 70
0
280
1
281
1
  0
BLOCK_RECORD
  5
1B
330
9
100
AcDbSymbolTableRecord
100
AcDbBlockTableRecord
  2
*Paper_Space
340
1E
 70
0
280
1
281
1
  0
ENDTAB
  0
ENDSEC
  0
SECTION
  2
BLOCKS
  0
BLOCK
  5
18
330
17
100
AcDbEntity
  8
0
100
AcDbBlockBegin
  2
*Model_Space
 70
0
 10
0.0
 20
0.0
 30
0.0
  3
*Model_Space
  1

  0
ENDBLK
  5
19
330
17
100
AcDbEntity
  8
0
100
AcDbBlockEnd
  0
BLOCK
  5
1C
330
1B
100
AcDbEntity
  8
0
100
AcDbBlockBegin
  2
*Paper_Space
 70
0
 10
0.0
 20
0.0
 30
0.0
  3
*Paper_Space
  1

  0
ENDBLK
  5
1D
330
1B
100
AcDbEntity
  8
0
100
AcDbBlockEnd
  0
ENDSEC
  0
SECTION
  2
ENTITIES
  0
LWPOLYLINE
  5
2D
330
17
100
AcDbEntity
  8
0
100
AcDbPolyline
 90
2
 70
0
 43
0.0
 10
0.0
 20
0.0
 10
0.0
 20
0.0
  0
LWPOLYLINE
  5
2E
330
17
100
AcDbEntity
  8
0
100
AcDbPolyline
 90
100
 70
0
 43
0.0
 10
10.0
 20
0.0
 10
10.0
 20
0.40404040404040403
 10
10.0
 20
0.8080808080808081
 10
10.0
 20
1.2121212121212122
 10
10.0
 20
1.6161616161616161
 10
10.0
 20
2.0202020202020203
 10
10.0
 20
2.4242424242424243
 10
10.0
 20
2.8282828282828283
 10
10.0
 20
3.2323232323232323
 10
10.0
 20
3.6363636363636362
 10
10.0
 20
4.040404040404041
 10
10.0
 20
4.444444444444445
 10
10.0
 20
4.848484848484849
 10
10.0
 20
5.252525252525253
 10
10.0
 20
5.656565656565657
 10
10.0
 20
6.0606060606060606
 10
10.0
 20
6.4646464646464645
 10
10.0
 20
6.8686868686868685
 10
10.0
 20
7.2727272727272725
 10
10.0
 20
7.6767676767676765
 10
10.0
 20
8.080808080808081
 10
10.0
 20
8.484848484848484
 10
10.0
 20
8.88888888888889
 10
10.0
 20
9.292929292929292
 10
10.0
 20
9.696969696969697
 10
10.0
 20
10.1010101010101
 10
10.0
 20
10.505050505050505
 10
10.0
 20
10.909090909090908
 10
10.0
 20
11.313131313131313
 10
10.0
 20
11.717171717171716
 10
10.0
 20
12.121212121212121
 10
10.0
 20
12.525252525252524
 10
10.0
 20
12.929292929292929
 10
10.0
 20
13.333333333333334
 10
10.0
 20
13.737373737373737
 10
10.0
 20
14.141414141414142
 10
10.0
 20
14.545454545454545
 10
10.0
 20
14.94949494949495
 10
10.0
 20
15.353535353535353
 10
10.0
 20
15.757575757575758
 10
10.0
 20
16.161616161616163
 10
10.0
 20
16.565656565656564
 10
10.0
 20
16.96969696969697
 10
10.0
 20
17.373737373737374
 10
10.0
 20
17.77777777777778
 10
10.0
 20
18.18181818181818
 10
10.0
 20
18.585858585858585
 10
10.0
 20
18.98989898989899
 10
10.0
 20
19.393939393939394
 10
10.0
 20
19.7979797979798
 10
10.0
 20
20.2020202020202
 10
10.0
 20
20.606060606060606
 10
10.0
 20
21.01010101010101
 10
10.0
 20
21.414141414141415
 10
10.0
 20
21.818181818181817
 10
10.0
 20
22.22222222222222
 10
10.0
 20
22.626262626262626
 10
10.0
 20
23.03030303030303
 10
10.0
 20
23.434343434343432
 10
10.0
 20
23.838383838383837
 10
10.0
 20
24.242424242424242
 10
10.0
 20
24.646464646464647
 10
10.0
 20
25.05050505050505
 10
10.0
 20
25.454545454545453
 10
10.0
 20
25.858585858585858
 10
10.0
 20
26.262626262626263
 10
10.0
 20
26.666666666666668
 10
10.0
 20
27.07070707070707
 10
10.0
 20
27.474747474747474
 10
10.0
 20
27.87878787878788
 10
10.0
 20
28.282828282828284
 10
10.0
 20
28.686868686868685
 10
10.0
 20
29.09090909090909
 10
10.0
 20
29.494949494949495
 10
10.0
 20
29.8989898989899
 10
10.0
 20
30.3030303030303
 10
10.0
 20
30.707070707070706
 10
10.0
 20
31.11111111111111
 10
10.0
 20
31.515151515151516
 10
10.0
 20
31.919191919191917
 10
10.0
 20
32.323232323232325
 10
10.0
 20
32.72727272727273
 10
10.0
 20
33.13131313131313
 10
10.0
 20
33.535353535353536
 10
10.0
 20
33.93939393939394
 10
10.0
 20
34.343434343434346
 10
10.0
 20
34.74747474747475
 10
10.0
 20
35.15151515151515
 10
10.0
 20
35.55555555555556
 10
10.0
 20
35.95959595959596
 10
10.0
 20
36.36363636363636
 10
10.0
 20
36.76767676767677
 10
10.0
 20
37.17171717171717
 10
10.0
 20
37.57575757575758
 10
10.0
 20
37.97979797979798
 10
10.0
 20
38.38383838383838
 10
10.0
 20
38.78787878787879
 10
10.0
 20
39.19191919191919
 10
10.0
 20
39.5959595959596
 10
10.0
 20
40.0
  0
LWPOLYLINE
  5
2F
330
17
100
AcDbEntity
  8
0
100
AcDbPolyline
 90
100
 70
0
 43
0.0
 10
-10.0
 20
0.0
 10
-10.0
 20
0.40404040404040403
 10
-10.0
 20
0.8080808080808081
 10
-10.0
 20
1.2121212121212122
 10
-10.0
 20
1.6161616161616161
 10
-10.0
 20
2.0202020202020203
 10
-10.0
 20
2.4242424242424243
 10
-10.0
 20
2.8282828282828283
 10
-10.0
 20
3.2323232323232323
 10
-10.0
 20
3.6363636363636362
 10
-10.0
 20
4.040404040404041
 10
-10.0
 20
4.444444444444445
 10
-10.0
 20
4.848484848484849
 10
-10.0
 20
5.252525252525253
 10
-10.0
 20
5.656565656565657
 10
-10.0
 20
6.0606060606060606
 10
-10.0
 20
6.4646464646464645
 10
-10.0
 20
6.8686868686868685
 10
-10.0
 20
7.2727272727272725
 10
-10.0
 20
7.6767676767676765
 10
-10.0
 20
8.080808080808081
 10
-10.0
 20
8.484848484848484
 10
-10.0
 20
8.88888888888889
 10
-10.0
 20
9.292929292929292
 10
-10.0
 20
9.696969696969697
 10
-10.0
 20
10.1010101010101
 10
-10.0
 20
10.505050505050505
 10
-10.0
 20
10.909090909090908
 10
-10.0
 20
11.313131313131313
 10
-10.0
 20
11.717171717171716
 10
-10.0
 20
12.121212121212121
 10
-10.0
 20
12.525252525252524
 10
-10.0
 20
12.929292929292929
 10
-10.0
 20
13.333333333333334
 10
-10.0
 20
13.737373737373737
 10
-10.0
 20
14.141414141414142
 10
-10.0
 20
14.545454545454545
 10
-10.0
 20
14.94949494949495
 10
-10.0
 20
15.353535353535353
 10
-10.0
 20
15.757575757575758
 10
-10.0
 20
16.161616161616163
 10
-10.0
 20
16.565656565656564
 10
-10.0
 20
16.96969696969697
 10
-10.0
 20
17.373737373737374
 10
-10.0
 20
17.77777777777778
 10
-10.0
 20
18.18181818181818
 10
-10.0
 20
18.585858585858585
 10
-10.0
 20
18.98989898989899
 10
-10.0
 20
19.393939393939394
 10
-10.0
 20
19.7979797979798
 10
-10.0
 20
20.2020202020202
 10
-10.0
 20
20.606060606060606
 10
-10.0
 20
21.01010101010101
 10
-10.0
 20
21.414141414141415
 10
-10.0
 20
21.818181818181817
 10
-10.0
 20
22.22222222222222
 10
-10.0
 20
22.626262626262626
 10
-10.0
 20
23.03030303030303
 10
-10.0
 20
23.434343434343432
 10
-10.0
 20
23.838383838383837
 10
-10.0
 20
24.242424242424242
 10
-10.0
 20
24.646464646464647
 10
-10.0
 20
25.05050505050505
 10
-10.0
 20
25.454545454545453
 10
-10.0
 20
25.858585858585858
 10
-10.0
 20
26.262626262626263
 10
-10.0
 20
26.666666666666668
 10
-10.0
 20
27.07070707070707
 10
-10.0
 20
27.474747474747474
 10
-10.0
 20
27.87878787878788
 10
-10.0
 20
28.282828282828284
 10
-10.0
 20
28.686868686868685
 10
-10.0
 20
29.09090909090909
 10
-10.0
 20
29.494949494949495
 10
-10.0
 20
29.8989898989899
 10
-10.0
 20
30.3030303030303
 10
-10.0
 20
30.707070707070706
 10
-10.0
 20
31.11111111111111
 10
-10.0
 20
31.515151515151516
 10
-10.0
 20
31.919191919191917
 10
-10.0
 20
32.323232323232325
 10
-10.0
 20
32.72727272727273
 10
-10.0
 20
33.13131313131313
 10
-10.0
 20
33.535353535353536
 10
-10.0
 20
33.93939393939394
 10
-10.0
 20
34.343434343434346
 10
-10.0
 20
34.74747474747475
 10
-10.0
 20
35.15151515151515
 10
-10.0
 20
35.55555555555556
 10
-10.0
 20
35.95959595959596
 10
-10.0
 20
36.36363636363636
 10
-10.0
 20
36.76767676767677
 10
-10.0
 20
37.17171717171717
 10
-10.0
 20
37.57575757575758
 10
-10.0
 20
37.97979797979798
 10
-10.0
 20
38.38383838383838
 10
-10.0
 20
38.78787878787879
 10
-10.0
 20
39.19191919191919
 10
-10.0
 20
39.5959595959596
 10
-10.0
 20
40.0
  0
LWPOLYLINE
  5
30
330
17
100
AcDbEntity
  8
0
100
AcDbPolyline
 90
100
 70
0
 43
0.0
 10
-10.0
 20
0.0
 10
-9.797979797979798
 20
0.0
 10
-9.595959595959595
 20
0.0
 10
-9.393939393939394
 20
0.0
 10
-9.191919191919192
 20
0.0
 10
-8.98989898989899
 20
0.0
 10
-8.787878787878787
 20
0.0
 10
-8.585858585858587
 20
0.0
 10
-8.383838383838384
 20
0.0
 10
-8.181818181818182
 20
0.0
 10
-7.979797979797979
 20
0.0
 10
-7.777777777777778
 20
0.0
 10
-7.575757575757576
 20
0.0
 10
-7.373737373737374
 20
0.0
 10
-7.171717171717171
 20
0.0
 10
-6.96969696969697
 20
0.0
 10
-6.767676767676768
 20
0.0
 10
-6.565656565656566
 20
0.0
 10
-6.363636363636363
 20
0.0
 10
-6.161616161616162
 20
0.0
 10
-5.959595959595959
 20
0.0
 10
-5.757575757575758
 20
0.0
 10
-5.555555555555555
 20
0.0
 10
-5.353535353535354
 20
0.0
 10
-5.151515151515151
 20
0.0
 10
-4.94949494949495
 20
0.0
 10
-4.747474747474747
 20
0.0
 10
-4.545454545454546
 20
0.0
 10
-4.343434343434343
 20
0.0
 10
-4.141414141414142
 20
0.0
 10
-3.9393939393939394
 20
0.0
 10
-3.737373737373738
 20
0.0
 10
-3.5353535353535355
 20
0.0
 10
-3.333333333333333
 20
0.0
 10
-3.1313131313131315
 20
0.0
 10
-2.929292929292929
 20
0.0
 10
-2.7272727272727275
 20
0.0
 10
-2.525252525252525
 20
0.0
 10
-2.3232323232323235
 20
0.0
 10
-2.121212121212121
 20
0.0
 10
-1.9191919191919187
 20
0.0
 10
-1.717171717171718
 20
0.0
 10
-1.5151515151515156
 20
0.0
 10
-1.3131313131313131
 20
0.0
 10
-1.1111111111111107
 20
0.0
 10
-0.9090909090909101
 20
0.0
 10
-0.7070707070707076
 20
0.0
 10
-0.5050505050505052
 20
0.0
 10
-0.30303030303030276
 20
0.0
 10
-0.10101010101010033
 20
0.0
 10
0.10101010101010033
 20
0.0
 10
0.30303030303030276
 20
0.0
 10
0.5050505050505052
 20
0.0
 10
0.7070707070707076
 20
0.0
 10
0.9090909090909083
 20
0.0
 10
1.1111111111111107
 20
0.0
 10
1.3131313131313131
 20
0.0
 10
1.5151515151515156
 20
0.0
 10
1.7171717171717162
 20
0.0
 10
1.9191919191919187
 20
0.0
 10
2.121212121212121
 20
0.0
 10
2.3232323232323235
 20
0.0
 10
2.525252525252524
 20
0.0
 10
2.7272727272727266
 20
0.0
 10
2.929292929292929
 20
0.0
 10
3.1313131313131315
 20
0.0
 10
3.333333333333334
 20
0.0
 10
3.5353535353535346
 20
0.0
 10
3.737373737373737
 20
0.0
 10
3.9393939393939394
 20
0.0
 10
4.141414141414142
 20
0.0
 10
4.3434343434343425
 20
0.0
 10
4.545454545454545
 20
0.0
 10
4.747474747474747
 20
0.0
 10
4.94949494949495
 20
0.0
 10
5.1515151515151505
 20
0.0
 10
5.353535353535353
 20
0.0
 10
5.555555555555555
 20
0.0
 10
5.757575757575758
 20
0.0
 10
5.9595959595959584
 20
0.0
 10
6.161616161616163
 20
0.0
 10
6.363636363636363
 20
0.0
 10
6.565656565656564
 20
0.0
 10
6.767676767676768
 20
0.0
 10
6.969696969696969
 20
0.0
 10
7.171717171717173
 20
0.0
 10
7.373737373737374
 20
0.0
 10
7.575757575757574
 20
0.0
 10
7.777777777777779
 20
0.0
 10
7.979797979797979
 20
0.0
 10
8.18181818181818
 20
0.0
 10
8.383838383838384
 20
0.0
 10
8.585858585858585
 20
0.0
 10
8.787878787878789
 20
0.0
 10
8.98989898989899
 20
0.0
 10
9.19191919191919
 20
0.0
 10
9.393939393939394
 20
0.0
 10
9.595959595959595
 20
0.0
 10
9.7979797979798
 20
0.0
 10
10.0
 20
0.0
  0
LWPOLYLINE
  5
31
330
17
100
AcDbEntity
  8
0
100
AcDbPolyline
 90
100
 70
0
 43
0.0
 10
-10.0
 20
40.0
 10
-9.797979797979798
 20
40.0
 10
-9.595959595959595
 20
40.0
 10
-9.393939393939394
 20
40.0
 10
-9.191919191919192
 20
40.0
 10
-8.98989898989899
 20
40.0
 10
-8.787878787878787
 20
40.0
 10
-8.585858585858587
 20
40.0
 10
-8.383838383838384
 20
40.0
 10
-8.181818181818182
 20
40.0
 10
-7.979797979797979
 20
40.0
 10
-7.777777777777778
 20
40.0
 10
-7.575757575757576
 20
40.0
 10
-7.373737373737374
 20
40.0
 10
-7.171717171717171
 20
40.0
 10
-6.96969696969697
 20
40.0
 10
-6.767676767676768
 20
40.0
 10
-6.565656565656566
 20
40.0
 10
-6.363636363636363
 20
40.0
 10
-6.161616161616162
 20
40.0
 10
-5.959595959595959
 20
40.0
 10
-5.757575757575758
 20
40.0
 10
-5.555555555555555
 20
40.0
 10
-5.353535353535354
 20
40.0
 10
-5.151515151515151
 20
40.0
 10
-4.94949494949495
 20
40.0
 10
-4.747474747474747
 20
40.0
 10
-4.545454545454546
 20
40.0
 10
-4.343434343434343
 20
40.0
 10
-4.141414141414142
 20
40.0
 10
-3.9393939393939394
 20
40.0
 10
-3.737373737373738
 20
40.0
 10
-3.5353535353535355
 20
40.0
 10
-3.333333333333333
 20
40.0
 10
-3.1313131313131315
 20
40.0
 10
-2.929292929292929
 20
40.0
 10
-2.7272727272727275
 20
40.0
 10
-2.525252525252525
 20
40.0
 10
-2.3232323232323235
 20
40.0
 10
-2.121212121212121
 20
40.0
 10
-1.9191919191919187
 20
40.0
 10
-1.717171717171718
 20
40.0
 10
-1.5151515151515156
 20
40.0
 10
-1.3131313131313131
 20
40.0
 10
-1.1111111111111107
 20
40.0
 10
-0.9090909090909101
 20
40.0
 10
-0.7070707070707076
 20
40.0
 10
-0.5050505050505052
 20
40.0
 10
-0.30303030303030276
 20
40.0
 10
-0.10101010101010033
 20
40.0
 10
0.10101010101010033
 20
40.0
 10
0.30303030303030276
 20
40.0
 10
0.5050505050505052
 20
40.0
 10
0.7070707070707076
 20
40.0
 10
0.9090909090909083
 20
40.0
 10
1.1111111111111107
 20
40.0
 10
1.3131313131313131
 20
40.0
 10
1.5151515151515156
 20
40.0
 10
1.7171717171717162
 20
40.0
 10
1.9191919191919187
 20
40.0
 10
2.121212121212121
 20
40.0
 10
2.3232323232323235
 20
40.0
 10
2.525252525252524
 20
40.0
 10
2.7272727272727266
 20
40.0
 10
2.929292929292929
 20
40.0
 10
3.1313131313131315
 20
40.0
 10
3.333333333333334
 20
40.0
 10
3.5353535353535346
 20
40.0
 10
3.737373737373737
 20
40.0
 10
3.9393939393939394
 20
40.0
 10
4.141414141414142
 20
40.0
 10
4.3434343434343425
 20
40.0
 10
4.545454545454545
 20
40.0
 10
4.747474747474747
 20
40.0
 10
4.94949494949495
 20
40.0
 10
5.1515151515151505
 20
40.0
 10
5.353535353535353
 20
40.0
 10
5.555555555555555
 20
40.0
 10
5.757575757575758
 20
40.0
 10
5.9595959595959584
 20
40.0
 10
6.161616161616163
 20
40.0
 10
6.363636363636363
 20
40.0
 10
6.565656565656564
 20
40.0
 10
6.767676767676768
 20
40.0
 10
6.969696969696969
 20
40.0
 10
7.171717171717173
 20
40.0
 10
7.373737373737374
 20
40.0
 10
7.575757575757574
 20
40.0
 10
7.777777777777779
 20
40.0
 10
7.979797979797979
 20
40.0
 10
8.18181818181818
 20
40.0
 10
8.383838383838384
 20
40.0
 10
8.585858585858585
 20
40.0
 10
8.787878787878789
 20
40.0
 10
8.98989898989899
 20
40.0
 10
9.19191919191919
 20
40.0
 10
9.393939393939394
 20
40.0
 10
9.595959595959595
 20
40.0
 10
9.7979797979798
 20
40.0
 10
10.0
 20
40.0
  0
LWPOLYLINE
  5
32
330
17
100
AcDbEntity
  8
0
100
AcDbPolyline
 90
5
 70
0
 43
0.0
 10
-7.5
 20
2.5
 10
-6.7
 20
2.5
 10
-6.7
 20
37.5
 10
-7.5
 20
37.5
 10
-7.5
 20
2.5
  0
HATCH
  5
33
330
17
100
AcDbEntity
  8
0
 62
7
100
AcDbHatch
 10
0.0
 20
0.0
 30
0.0
210
0.0
220
0.0
230
1.0
  2
ANSI31
 70
0
 71
0
 91
1
 92
3
 72
0
 73
1
 93
5
 10
-7.5
 20
2.5
 10
-6.7
 20
2.5
 10
-6.7
 20
37.5
 10
-7.5
 20
37.5
 10
-7.5
 20
2.5
 97
0
 75
1
 76
1
 52
0.0
 41
0.5
 77
0
 78
1
 53
45.0
 43
0.0
 44
0.0
 45
-1.1314
 46
1.1314
 79
0
 98
0
  0
LWPOLYLINE
  5
34
330
17
100
AcDbEntity
  8
0
100
AcDbPolyline
 90
5
 70
0
 43
0.0
 10
6.7
 20
2.5
 10
7.5
 20
2.5
 10
7.5
 20
37.5
 10
6.7
 20
37.5
 10
6.7
 20
2.5
  0
HATCH
  5
35
330
17
100
AcDbEntity
  8
0
 62
7
100
AcDbHatch
 10
0.0
 20
0.0
 30
0.0
210
0.0
220
0.0
230
1.0
  2
ANSI31
 70
0
 71
0
 91
1
 92
3
 72
0
 73
1
 93
5
 10
6.7
 20
2.5
 10
7.5
 20
2.5
 10
7.5
 20
37.5
 10
6.7
 20
37.5
 10
6.7
 20
2.5
 97
0
 75
1
 76
1
 52
0.0
 41
0.5
 77
0
 78
1
 53
45.0
 43
0.0
 44
0.0
 45
-1.1314
 46
1.1314
 79
0
 98
0
  0
LWPOLYLINE
  5
36
330
17
100
AcDbEntity
  8
0
100
AcDbPolyline
 90
5
 70
0
 43
0.0
 10
-6.7
 20
36.7
 10
6.7
 20
36.7
 10
6.7
 20
37.5
 10
-6.7
 20
37.5
 10
-6.7
 20
36.7
  0
HATCH
  5
37
330
17
100
AcDbEntity
  8
0
 62
7
100
AcDbHatch
 10
0.0
 20
0.0
 30
0.0
210
0.0
220
0.0
230
1.0
  2
ANSI31
 70
0
 71
0
 91
1
 92
3
 72
0
 73
1
 93
5
 10
-6.7
 20
36.7
 10
6.7
 20
36.7
 10
6.7
 20
37.5
 10
-6.7
 20
37.5
 10
-6.7
 20
36.7
 97
0
 75
1
 76
1
 52
0.0
 41
0.5
 77
0
 78
1
 53
45.0
 43
0.0
 44
0.0
 45
-1.1314
 46
1.1314
 79
0
 98
0
  0
LWPOLYLINE
  5
38
330
17
100
AcDbEntity
  8
0
100
AcDbPolyline
 90
5
 70
0
 43
0.0
 10
-6.7
 20
2.5
 10
6.7
 20
2.5
 10
6.7
 20
3.3
 10
-6.7
 20
3.3
 10
-6.7
 20
2.5
  0
HATCH
  5
39
330
17
100
AcDbEntity
  8
0
 62
7
100
AcDbHatch
 10
0.0
 20
0.0
 30
0.0
210
0.0
220
0.0
230
1.0
  2
ANSI31
 70
0
 71
0
 91
1
 92
3
 72
0
 73
1
 93
5
 10
-6.7
 20
2.5
 10
6.7
 20
2.5
 10
6.7
 20
3.3
 10
-6.7
 20
3.3
 10
-6.7
 20
2.5
 97
0
 75
1
 76
1
 52
0.0
 41
0.5
 77
0
 78
1
 53
45.0
 43
0.0
 44
0.0
 45
-1.1314
 46
1.1314
 79
0
 98
0
  0
LWPOLYLINE
  5
3A
330
17
100
AcDbEntity
  8
0
100
AcDbPolyline
 90
5
 70
0
 43
0.0
 10
7.899999999999999
 20
37.099999999999994
 10
7.33431457505076
 20
37.66568542494923
 10
3.798780669118022
 20
34.13015151901649
 10
4.364466094067261
 20
33.56446609406726
 10
7.899999999999999
 20
37.099999999999994
  0
HATCH
  5
3B
330
17
100
AcDbEntity
  8
0
 62
7
100
AcDbHatch
 10
0.0
 20
0.0
 30
0.0
210
0.0
220
0.0
230
1.0
  2
ANSI31
 70
0
 71
0
 91
1
 92
3
 72
0
 73
1
 93
5
 10
7.899999999999999
 20
37.099999999999994
 10
7.33431457505076
 20
37.66568542494923
 10
3.798780669118022
 20
34.13015151901649
 10
4.364466094067261
 20
33.56446609406726
 10
7.899999999999999
 20
37.099999999999994
 97
0
 75
1
 76
1
 52
135.0
 41
0.5
 77
0
 78
1
 53
45.0
 43
0.0
 44
0.0
 45
-1.1314
 46
1.1314
 79
0
 98
0
  0
CIRCLE
  5
3C
330
17
100
AcDbEntity
  8
0
100
AcDbCircle
 10
-6.3
 20
3.6999999999999997
 30
0.0
 40
0.4
  0
CIRCLE
  5
3D
330
17
100
AcDbEntity
  8
0
100
AcDbCircle
 10
6.3
 20
3.6999999999999997
 30
0.0
 40
0.4
  0
CIRCLE
  5
3E
330
17
100
AcDbEntity
  8
0
100
AcDbCircle
 10
-3.5000000000000004
 20
3.6999999999999997
 30
0.0
 40
0.4
  0
CIRCLE
  5
3F
330
17
100
AcDbEntity
  8
0
100
AcDbCircle
 10
3.5000000000000004
 20
3.6999999999999997
 30
0.0
 40
0.4
  0
CIRCLE
  5
40
330
17
100
AcDbEntity
  8
0
100
AcDbCircle
 10
0.0
 20
3.6999999999999997
 30
0.0
 40
0.4
  0
CIRCLE
  5
41
330
17
100
AcDbEntity
  8
0
100
AcDbCircle
 10
-6.3
 20
36.3
 30
0.0
 40
0.4
  0
CIRCLE
  5
42
330
17
100
AcDbEntity
  8
0
100
AcDbCircle
 10
6.3
 20
36.3
 30
0.0
 40
0.4
  0
CIRCLE
  5
43
330
17
100
AcDbEntity
  8
0
100
AcDbCircle
 10
0.0
 20
36.3
 30
0.0
 40
0.4
  0
LWPOLYLINE
  5
44
330
17
100
AcDbEntity
  8
0
100
AcDbPolyline
 90
5
 70
0
 43
0.0
 10
0.0
 20
0.0
 10
1.0
 20
0.0
 10
1.0
 20
1.0
 10
0.0
 20
1.0
 10
0.0
 20
0.0
  0
LWPOLYLINE
  5
45
330
17
100
AcDbEntity
  8
0
100
AcDbPolyline
 90
2
 70
0
 43
0.0
 10
100.0
 20
0.0
 10
100.0
 20
0.0
  0
LWPOLYLINE
  5
46
330
17
100
AcDbEntity
  8
0
100
AcDbPolyline
 90
100
 70
0
 43
0.0
 10
110.0
 20
0.0
 10
110.0
 20
0.40404040404040403
 10
110.0
 20
0.8080808080808081
 10
110.0
 20
1.2121212121212122
 10
110.0
 20
1.6161616161616161
 10
110.0
 20
2.0202020202020203
 10
110.0
 20
2.4242424242424243
 10
110.0
 20
2.8282828282828283
 10
110.0
 20
3.2323232323232323
 10
110.0
 20
3.6363636363636362
 10
110.0
 20
4.040404040404041
 10
110.0
 20
4.444444444444445
 10
110.0
 20
4.848484848484849
 10
110.0
 20
5.252525252525253
 10
110.0
 20
5.656565656565657
 10
110.0
 20
6.0606060606060606
 10
110.0
 20
6.4646464646464645
 10
110.0
 20
6.8686868686868685
 10
110.0
 20
7.2727272727272725
 10
110.0
 20
7.6767676767676765
 10
110.0
 20
8.080808080808081
 10
110.0
 20
8.484848484848484
 10
110.0
 20
8.88888888888889
 10
110.0
 20
9.292929292929292
 10
110.0
 20
9.696969696969697
 10
110.0
 20
10.1010101010101
 10
110.0
 20
10.505050505050505
 10
110.0
 20
10.909090909090908
 10
110.0
 20
11.313131313131313
 10
110.0
 20
11.717171717171716
 10
110.0
 20
12.121212121212121
 10
110.0
 20
12.525252525252524
 10
110.0
 20
12.929292929292929
 10
110.0
 20
13.333333333333334
 10
110.0
 20
13.737373737373737
 10
110.0
 20
14.141414141414142
 10
110.0
 20
14.545454545454545
 10
110.0
 20
14.94949494949495
 10
110.0
 20
15.353535353535353
 10
110.0
 20
15.757575757575758
 10
110.0
 20
16.161616161616163
 10
110.0
 20
16.565656565656564
 10
110.0
 20
16.96969696969697
 10
110.0
 20
17.373737373737374
 10
110.0
 20
17.77777777777778
 10
110.0
 20
18.18181818181818
 10
110.0
 20
18.585858585858585
 10
110.0
 20
18.98989898989899
 10
110.0
 20
19.393939393939394
 10
110.0
 20
19.7979797979798
 10
110.0
 20
20.2020202020202
 10
110.0
 20
20.606060606060606
 10
110.0
 20
21.01010101010101
 10
110.0
 20
21.414141414141415
 10
110.0
 20
21.818181818181817
 10
110.0
 20
22.22222222222222
 10
110.0
 20
22.626262626262626
 10
110.0
 20
23.03030303030303
 10
110.0
 20
23.434343434343432
 10
110.0
 20
23.838383838383837
 10
110.0
 20
24.242424242424242
 10
110.0
 20
24.646464646464647
 10
110.0
 20
25.05050505050505
 10
110.0
 20
25.454545454545453
 10
110.0
 20
25.858585858585858
 10
110.0
 20
26.262626262626263
 10
110.0
 20
26.666666666666668
 10
110.0
 20
27.07070707070707
 10
110.0
 20
27.474747474747474
 10
110.0
 20
27.87878787878788
 10
110.0
 20
28.282828282828284
 10
110.0
 20
28.686868686868685
 10
110.0
 20
29.09090909090909
 10
110.0
 20
29.494949494949495
 10
110.0
 20
29.8989898989899
 10
110.0
 20
30.3030303030303
 10
110.0
 20
30.707070707070706
 10
110.0
 20
31.11111111111111
 10
110.0
 20
31.515151515151516
 10
110.0
 20
31.919191919191917
 10
110.0
 20
32.323232323232325
 10
110.0
 20
32.72727272727273
 10
110.0
 20
33.13131313131313
 10
110.0
 20
33.535353535353536
 10
110.0
 20
33.93939393939394
 10
110.0
 20
34.343434343434346
 10
110.0
 20
34.74747474747475
 10
110.0
 20
35.15151515151515
 10
110.0
 20
35.55555555555556
 10
110.0
 20
35.95959595959596
 10
110.0
 20
36.36363636363636
 10
110.0
 20
36.76767676767677
 10
110.0
 20
37.17171717171717
 10
110.0
 20
37.57575757575758
 10
110.0
 20
37.97979797979798
 10
110.0
 20
38.38383838383838
 10
110.0
 20
38.78787878787879
 10
110.0
 20
39.19191919191919
 10
110.0
 20
39.5959595959596
 10
110.0
 20
40.0
  0
LWPOLYLINE
  5
47
330
17
100
AcDbEntity
  8
0
100
AcDbPolyline
 90
100
 70
0
 43
0.0
 10
90.0
 20
0.0
 10
90.0
 20
0.40404040404040403
 10
90.0
 20
0.8080808080808081
 10
90.0
 20
1.2121212121212122
 10
90.0
 20
1.6161616161616161
 10
90.0
 20
2.0202020202020203
 10
90.0
 20
2.4242424242424243
 10
90.0
 20
2.8282828282828283
 10
90.0
 20
3.2323232323232323
 10
90.0
 20
3.6363636363636362
 10
90.0
 20
4.040404040404041
 10
90.0
 20
4.444444444444445
 10
90.0
 20
4.848484848484849
 10
90.0
 20
5.252525252525253
 10
90.0
 20
5.656565656565657
 10
90.0
 20
6.0606060606060606
 10
90.0
 20
6.4646464646464645
 10
90.0
 20
6.8686868686868685
 10
90.0
 20
7.2727272727272725
 10
90.0
 20
7.6767676767676765
 10
90.0
 20
8.080808080808081
 10
90.0
 20
8.484848484848484
 10
90.0
 20
8.88888888888889
 10
90.0
 20
9.292929292929292
 10
90.0
 20
9.696969696969697
 10
90.0
 20
10.1010101010101
 10
90.0
 20
10.505050505050505
 10
90.0
 20
10.909090909090908
 10
90.0
 20
11.313131313131313
 10
90.0
 20
11.717171717171716
 10
90.0
 20
12.121212121212121
 10
90.0
 20
12.525252525252524
 10
90.0
 20
12.929292929292929
 10
90.0
 20
13.333333333333334
 10
90.0
 20
13.737373737373737
 10
90.0
 20
14.141414141414142
 10
90.0
 20
14.545454545454545
 10
90.0
 20
14.94949494949495
 10
90.0
 20
15.353535353535353
 10
90.0
 20
15.757575757575758
 10
90.0
 20
16.161616161616163
 10
90.0
 20
16.565656565656564
 10
90.0
 20
16.96969696969697
 10
90.0
 20
17.373737373737374
 10
90.0
 20
17.77777777777778
 10
90.0
 20
18.18181818181818
 10
90.0
 20
18.585858585858585
 10
90.0
 20
18.98989898989899
 10
90.0
 20
19.393939393939394
 10
90.0
 20
19.7979797979798
 10
90.0
 20
20.2020202020202
 10
90.0
 20
20.606060606060606
 10
90.0
 20
21.01010101010101
 10
90.0
 20
21.414141414141415
 10
90.0
 20
21.818181818181817
 10
90.0
 20
22.22222222222222
 10
90.0
 20
22.626262626262626
 10
90.0
 20
23.03030303030303
 10
90.0
 20
23.434343434343432
 10
90.0
 20
23.838383838383837
 10
90.0
 20
24.242424242424242
 10
90.0
 20
24.646464646464647
 10
90.0
 20
25.05050505050505
 10
90.0
 20
25.454545454545453
 10
90.0
 20
25.858585858585858
 10
90.0
 20
26.262626262626263
 10
90.0
 20
26.666666666666668
 10
90.0
 20
27.07070707070707
 10
90.0
 20
27.474747474747474
 10
90.0
 20
27.87878787878788
 10
90.0
 20
28.282828282828284
 10
90.0
 20
28.686868686868685
 10
90.0
 20
29.09090909090909
 10
90.0
 20
29.494949494949495
 10
90.0
 20
29.8989898989899
 10
90.0
 20
30.3030303030303
 10
90.0
 20
30.707070707070706
 10
90.0
 20
31.11111111111111
 10
90.0
 20
31.515151515151516
 10
90.0
 20
31.919191919191917
 10
90.0
 20
32.323232323232325
 10
90.0
 20
32.72727272727273
 10
90.0
 20
33.13131313131313
 10
90.0
 20
33.535353535353536
 10
90.0
 20
33.93939393939394
 10
90.0
 20
34.343434343434346
 10
90.0
 20
34.74747474747475
 10
90.0
 20
35.15151515151515
 10
90.0
 20
35.55555555555556
 10
90.0
 20
35.95959595959596
 10
90.0
 20
36.36363636363636
 10
90.0
 20
36.76767676767677
 10
90.0
 20
37.17171717171717
 10
90.0
 20
37.57575757575758
 10
90.0
 20
37.97979797979798
 10
90.0
 20
38.38383838383838
 10
90.0
 20
38.78787878787879
 10
90.0
 20
39.19191919191919
 10
90.0
 20
39.5959595959596
 10
90.0
 20
40.0
  0
LWPOLYLINE
  5
48
330
17
100
AcDbEntity
  8
0
100
AcDbPolyline
 90
100
 70
0
 43
0.0
 10
90.0
 20
0.0
 10
90.20202020202021
 20
0.0
 10
90.4040404040404
 20
0.0
 10
90.60606060606061
 20
0.0
 10
90.8080808080808
 20
0.0
 10
91.01010101010101
 20
0.0
 10
91.21212121212122
 20
0.0
 10
91.41414141414141
 20
0.0
 10
91.61616161616162
 20
0.0
 10
91.81818181818181
 20
0.0
 10
92.02020202020202
 20
0.0
 10
92.22222222222223
 20
0.0
 10
92.42424242424242
 20
0.0
 10
92.62626262626263
 20
0.0
 10
92.82828282828282
 20
0.0
 10
93.03030303030303
 20
0.0
 10
93.23232323232324
 20
0.0
 10
93.43434343434343
 20
0.0
 10
93.63636363636364
 20
0.0
 10
93.83838383838383
 20
0.0
 10
94.04040404040404
 20
0.0
 10
94.24242424242425
 20
0.0
 10
94.44444444444444
 20
0.0
 10
94.64646464646465
 20
0.0
 10
94.84848484848484
 20
0.0
 10
95.05050505050505
 20
0.0
 10
95.25252525252526
 20
0.0
 10
95.45454545454545
 20
0.0
 10
95.65656565656566
 20
0.0
 10
95.85858585858585
 20
0.0
 10
96.06060606060606
 20
0.0
 10
96.26262626262626
 20
0.0
 10
96.46464646464646
 20
0.0
 10
96.66666666666667
 20
0.0
 10
96.86868686868686
 20
0.0
 10
97.07070707070707
 20
0.0
 10
97.27272727272727
 20
0.0
 10
97.47474747474747
 20
0.0
 10
97.67676767676768
 20
0.0
 10
97.87878787878788
 20
0.0
 10
98.08080808080808
 20
0.0
 10
98.28282828282828
 20
0.0
 10
98.48484848484848
 20
0.0
 10
98.68686868686869
 20
0.0
 10
98.88888888888889
 20
0.0
 10
99.0909090909091
 20
0.0
 10
99.29292929292929
 20
0.0
 10
99.4949494949495
 20
0.0
 10
99.6969696969697
 20
0.0
 10
99.8989898989899
 20
0.0
 10
100.1010101010101
 20
0.0
 10
100.3030303030303
 20
0.0
 10
100.5050505050505
 20
0.0
 10
100.70707070707071
 20
0.0
 10
100.9090909090909
 20
0.0
 10
101.11111111111111
 20
0.0
 10
101.31313131313131
 20
0.0
 10
101.51515151515152
 20
0.0
 10
101.71717171717171
 20
0.0
 10
101.91919191919192
 20
0.0
 10
102.12121212121212
 20
0.0
 10
102.32323232323232
 20
0.0
 10
102.52525252525253
 20
0.0
 10
102.72727272727272
 20
0.0
 10
102.92929292929293
 20
0.0
 10
103.13131313131314
 20
0.0
 10
103.33333333333333
 20
0.0
 10
103.53535353535354
 20
0.0
 10
103.73737373737373
 20
0.0
 10
103.93939393939394
 20
0.0
 10
104.14141414141415
 20
0.0
 10
104.34343434343434
 20
0.0
 10
104.54545454545455
 20
0.0
 10
104.74747474747474
 20
0.0
 10
104.94949494949495
 20
0.0
 10
105.15151515151516
 20
0.0
 10
105.35353535353535
 20
0.0
 10
105.55555555555556
 20
0.0
 10
105.75757575757575
 20
0.0
 10
105.95959595959596
 20
0.0
 10
106.16161616161617
 20
0.0
 10
106.36363636363636
 20
0.0
 10
106.56565656565657
 20
0.0
 10
106.76767676767676
 20
0.0
 10
106.96969696969697
 20
0.0
 10
107.17171717171718
 20
0.0
 10
107.37373737373737
 20
0.0
 10
107.57575757575758
 20
0.0
 10
107.77777777777777
 20
0.0
 10
107.97979797979798
 20
0.0
 10
108.18181818181819
 20
0.0
 10
108.38383838383838
 20
0.0
 10
108.58585858585859
 20
0.0
 10
108.78787878787878
 20
0.0
 10
108.98989898989899
 20
0.0
 10
109.1919191919192
 20
0.0
 10
109.39393939393939
 20
0.0
 10
109.5959595959596
 20
0.0
 10
109.79797979797979
 20
0.0
 10
110.0
 20
0.0
  0
LWPOLYLINE
  5
49
330
17
100
AcDbEntity
  8
0
100
AcDbPolyline
 90
100
 70
0
 43
0.0
 10
90.0
 20
40.0
 10
90.20202020202021
 20
40.0
 10
90.4040404040404
 20
40.0
 10
90.60606060606061
 20
40.0
 10
90.8080808080808
 20
40.0
 10
91.01010101010101
 20
40.0
 10
91.21212121212122
 20
40.0
 10
91.41414141414141
 20
40.0
 10
91.61616161616162
 20
40.0
 10
91.81818181818181
 20
40.0
 10
92.02020202020202
 20
40.0
 10
92.22222222222223
 20
40.0
 10
92.42424242424242
 20
40.0
 10
92.62626262626263
 20
40.0
 10
92.82828282828282
 20
40.0
 10
93.03030303030303
 20
40.0
 10
93.23232323232324
 20
40.0
 10
93.43434343434343
 20
40.0
 10
93.63636363636364
 20
40.0
 10
93.83838383838383
 20
40.0
 10
94.04040404040404
 20
40.0
 10
94.24242424242425
 20
40.0
 10
94.44444444444444
 20
40.0
 10
94.64646464646465
 20
40.0
 10
94.84848484848484
 20
40.0
 10
95.05050505050505
 20
40.0
 10
95.25252525252526
 20
40.0
 10
95.45454545454545
 20
40.0
 10
95.65656565656566
 20
40.0
 10
95.85858585858585
 20
40.0
 10
96.06060606060606
 20
40.0
 10
96.26262626262626
 20
40.0
 10
96.46464646464646
 20
40.0
 10
96.66666666666667
 20
40.0
 10
96.86868686868686
 20
40.0
 10
97.07070707070707
 20
40.0
 10
97.27272727272727
 20
40.0
 10
97.47474747474747
 20
40.0
 10
97.67676767676768
 20
40.0
 10
97.87878787878788
 20
40.0
 10
98.08080808080808
 20
40.0
 10
98.28282828282828
 20
40.0
 10
98.48484848484848
 20
40.0
 10
98.68686868686869
 20
40.0
 10
98.88888888888889
 20
40.0
 10
99.0909090909091
 20
40.0
 10
99.29292929292929
 20
40.0
 10
99.4949494949495
 20
40.0
 10
99.6969696969697
 20
40.0
 10
99.8989898989899
 20
40.0
 10
100.1010101010101
 20
40.0
 10
100.3030303030303
 20
40.0
 10
100.5050505050505
 20
40.0
 10
100.70707070707071
 20
40.0
 10
100.9090909090909
 20
40.0
 10
101.11111111111111
 20
40.0
 10
101.31313131313131
 20
40.0
 10
101.51515151515152
 20
40.0
 10
101.71717171717171
 20
40.0
 10
101.91919191919192
 20
40.0
 10
102.12121212121212
 20
40.0
 10
102.32323232323232
 20
40.0
 10
102.52525252525253
 20
40.0
 10
102.72727272727272
 20
40.0
 10
102.92929292929293
 20
40.0
 10
103.13131313131314
 20
40.0
 10
103.33333333333333
 20
40.0
 10
103.53535353535354
 20
40.0
 10
103.73737373737373
 20
40.0
 10
103.93939393939394
 20
40.0
 10
104.14141414141415
 20
40.0
 10
104.34343434343434
 20
40.0
 10
104.54545454545455
 20
40.0
 10
104.74747474747474
 20
40.0
 10
104.94949494949495
 20
40.0
 10
105.15151515151516
 20
40.0
 10
105.35353535353535
 20
40.0
 10
105.55555555555556
 20
40.0
 10
105.75757575757575
 20
40.0
 10
105.95959595959596
 20
40.0
 10
106.16161616161617
 20
40.0
 10
106.36363636363636
 20
40.0
 10
106.56565656565657
 20
40.0
 10
106.76767676767676
 20
40.0
 10
106.96969696969697
 20
40.0
 10
107.17171717171718
 20
40.0
 10
107.37373737373737
 20
40.0
 10
107.57575757575758
 20
40.0
 10
107.77777777777777
 20
40.0
 10
107.97979797979798
 20
40.0
 10
108.18181818181819
 20
40.0
 10
108.38383838383838
 20
40.0
 10
108.58585858585859
 20
40.0
 10
108.78787878787878
 20
40.0
 10
108.98989898989899
 20
40.0
 10
109.1919191919192
 20
40.0
 10
109.39393939393939
 20
40.0
 10
109.5959595959596
 20
40.0
 10
109.79797979797979
 20
40.0
 10
110.0
 20
40.0
  0
LWPOLYLINE
  5
4A
330
17
100
AcDbEntity
  8
0
100
AcDbPolyline
 90
5
 70
0
 43
0.0
 10
92.5
 20
2.5
 10
93.3
 20
2.5
 10
93.3
 20
37.5
 10
92.5
 20
37.5
 10
92.5
 20
2.5
  0
HATCH
  5
4B
330
17
100
AcDbEntity
  8
0
 62
7
100
AcDbHatch
 10
0.0
 20
0.0
 30
0.0
210
0.0
220
0.0
230
1.0
  2
ANSI31
 70
0
 71
0
 91
1
 92
3
 72
0
 73
1
 93
5
 10
92.5
 20
2.5
 10
93.3
 20
2.5
 10
93.3
 20
37.5
 10
92.5
 20
37.5
 10
92.5
 20
2.5
 97
0
 75
1
 76
1
 52
0.0
 41
0.5
 77
0
 78
1
 53
45.0
 43
0.0
 44
0.0
 45
-1.1314
 46
1.1314
 79
0
 98
0
  0
LWPOLYLINE
  5
4C
330
17
100
AcDbEntity
  8
0
100
AcDbPolyline
 90
5
 70
0
 43
0.0
 10
106.7
 20
2.5
 10
107.5
 20
2.5
 10
107.5
 20
37.5
 10
106.7
 20
37.5
 10
106.7
 20
2.5
  0
HATCH
  5
4D
330
17
100
AcDbEntity
  8
0
 62
7
100
AcDbHatch
 10
0.0
 20
0.0
 30
0.0
210
0.0
220
0.0
230
1.0
  2
ANSI31
 70
0
 71
0
 91
1
 92
3
 72
0
 73
1
 93
5
 10
106.7
 20
2.5
 10
107.5
 20
2.5
 10
107.5
 20
37.5
 10
106.7
 20
37.5
 10
106.7
 20
2.5
 97
0
 75
1
 76
1
 52
0.0
 41
0.5
 77
0
 78
1
 53
45.0
 43
0.0
 44
0.0
 45
-1.1314
 46
1.1314
 79
0
 98
0
  0
LWPOLYLINE
  5
4E
330
17
100
AcDbEntity
  8
0
100
AcDbPolyline
 90
5
 70
0
 43
0.0
 10
93.3
 20
36.7
 10
106.7
 20
36.7
 10
106.7
 20
37.5
 10
93.3
 20
37.5
 10
93.3
 20
36.7
  0
HATCH
  5
4F
330
17
100
AcDbEntity
  8
0
 62
7
100
AcDbHatch
 10
0.0
 20
0.0
 30
0.0
210
0.0
220
0.0
230
1.0
  2
ANSI31
 70
0
 71
0
 91
1
 92
3
 72
0
 73
1
 93
5
 10
93.3
 20
36.7
 10
106.7
 20
36.7
 10
106.7
 20
37.5
 10
93.3
 20
37.5
 10
93.3
 20
36.7
 97
0
 75
1
 76
1
 52
0.0
 41
0.5
 77
0
 78
1
 53
45.0
 43
0.0
 44
0.0
 45
-1.1314
 46
1.1314
 79
0
 98
0
  0
LWPOLYLINE
  5
50
330
17
100
AcDbEntity
  8
0
100
AcDbPolyline
 90
5
 70
0
 43
0.0
 10
93.3
 20
2.5
 10
106.7
 20
2.5
 10
106.7
 20
3.3
 10
93.3
 20
3.3
 10
93.3
 20
2.5
  0
HATCH
  5
51
330
17
100
AcDbEntity
  8
0
 62
7
100
AcDbHatch
 10
0.0
 20
0.0
 30
0.0
210
0.0
220
0.0
230
1.0
  2
ANSI31
 70
0
 71
0
 91
1
 92
3
 72
0
 73
1
 93
5
 10
93.3
 20
2.5
 10
106.7
 20
2.5
 10
106.7
 20
3.3
 10
93.3
 20
3.3
 10
93.3
 20
2.5
 97
0
 75
1
 76
1
 52
0.0
 41
0.5
 77
0
 78
1
 53
45.0
 43
0.0
 44
0.0
 45
-1.1314
 46
1.1314
 79
0
 98
0
  0
LWPOLYLINE
  5
52
330
17
100
AcDbEntity
  8
0
100
AcDbPolyline
 90
5
 70
0
 43
0.0
 10
107.9
 20
37.099999999999994
 10
107.33431457505075
 20
37.66568542494923
 10
103.79878066911802
 20
34.13015151901649
 10
104.36446609406727
 20
33.56446609406726
 10
107.9
 20
37.099999999999994
  0
HATCH
  5
53
330
17
100
AcDbEntity
  8
0
 62
7
100
AcDbHatch
 10
0.0
 20
0.0
 30
0.0
210
0.0
220
0.0
230
1.0
  2
ANSI31
 70
0
 71
0
 91
1
 92
3
 72
0
 73
1
 93
5
 10
107.9
 20
37.099999999999994
 10
107.33431457505075
 20
37.66568542494923
 10
103.79878066911802
 20
34.13015151901649
 10
104.36446609406727
 20
33.56446609406726
 10
107.9
 20
37.099999999999994
 97
0
 75
1
 76
1
 52
135.0
 41
0.5
 77
0
 78
1
 53
45.0
 43
0.0
 44
0.0
 45
-1.1314
 46
1.1314
 79
0
 98
0
  0
CIRCLE
  5
54
330
17
100
AcDbEntity
  8
0
100
AcDbCircle
 10
93.7
 20
36.3
 30
0.0
 40
0.4
  0
CIRCLE
  5
55
330
17
100
AcDbEntity
  8
0
100
AcDbCircle
 10
106.3
 20
36.3
 30
0.0
 40
0.4
  0
CIRCLE
  5
56
330
17
100
AcDbEntity
  8
0
100
AcDbCircle
 10
100.0
 20
36.3
 30
0.0
 40
0.4
  0
LWPOLYLINE
  5
57
330
17
100
AcDbEntity
  8
0
100
AcDbPolyline
 90
5
 70
0
 43
0.0
 10
100.0
 20
0.0
 10
101.0
 20
0.0
 10
101.0
 20
1.0
 10
100.0
 20
1.0
 10
100.0
 20
0.0
  0
ENDSEC
  0
SECTION
  2
OBJECTS
  0
DICTIONARY
  5
A
330
0
100
AcDbDictionary
281
1
  3
ACAD_COLOR
350
B
  3
ACAD_GROUP
350
C
  3
ACAD_LAYOUT
350
D
  3
ACAD_MATERIAL
350
E
  3
ACAD_MLEADERSTYLE
350
F
  3
ACAD_MLINESTYLE
350
10
  3
ACAD_PLOTSETTINGS
350
11
  3
ACAD_PLOTSTYLENAME
350
12
  3
ACAD_SCALELIST
350
14
  3
ACAD_TABLESTYLE
350
15
  3
ACAD_VISUALSTYLE
350
16
  0
DICTIONARY
  5
B
330
A
100
AcDbDictionary
281
1
  0
DICTIONARY
  5
C
330
A
100
AcDbDictionary
281
1
  0
DICTIONARY
  5
D
330
A
100
AcDbDictionary
281
1
  3
Model
350
1A
  3
Layout1
350
1E
  0
DICTIONARY
  5
E
330
A
100
AcDbDictionary
281
1
  3
ByBlock
350
1F
  3
ByLayer
350
20
  3
Global
350
21
  0
DICTIONARY
  5
F
330
A
100
AcDbDictionary
281
1
  3
Standard
350
2C
  0
DICTIONARY
  5
10
330
A
100
AcDbDictionary
281
1
  3
Standard
350
22
  0
DICTIONARY
  5
11
330
A
100
AcDbDictionary
281
1
  0
ACDBDICTIONARYWDFLT
  5
12
330
A
100
AcDbDictionary
281
1
  3
Normal
350
13
100
AcDbDictionaryWithDefault
340
13
  0
ACDBPLACEHOLDER
  5
13
330
12
  0
DICTIONARY
  5
14
330
A
100
AcDbDictionary
281
1
  0
DICTIONARY
  5
15
330
A
100
AcDbDictionary
281
1
  0
DICTIONARY
  5
16
330
A
100
AcDbDictionary
281
1
  0
LAYOUT
  5
1A
330
D
100
AcDbPlotSettings
  1

  2
Adobe PDF
  4
A4
  6

 40
3.175
 41
3.175
 42
3.175
 43
3.175
 44
209.91
 45
297.03
 46
0.0
 47
0.0
 48
0.0
 49
0.0
140
0.0
141
0.0
142
1.0
143
1.0
 70
1024
 72
0
 73
1
 74
5
  7

 75
16
 76
0
 77
2
 78
300
147
1.0
148
0.0
149
0.0
100
AcDbLayout
  1
Model
 70
1
 71
0
 10
-3.175
 20
-3.175
 11
293.857
 21
206.735
 12
0.0
 22
0.0
 32
0.0
 14
29.068
 24
20.356
 34
0.0
 15
261.614
 25
183.204
 35
0.0
146
0.0
 13
0.0
 23
0.0
 33
0.0
 16
1.0
 26
0.0
 36
0.0
 17
0.0
 27
1.0
 37
0.0
 76
1
330
17
  0
LAYOUT
  5
1E
330
D
100
AcDbPlotSettings
  1

  2
Adobe PDF
  4
A4
  6

 40
3.175
 41
3.175
 42
3.175
 43
3.175
 44
209.91
 45
297.03
 46
0.0
 47
0.0
 48
0.0
 49
0.0
140
0.0
141
0.0
142
1.0
143
1.0
 70
0
 72
0
 73
1
 74
5
  7

 75
16
 76
0
 77
2
 78
300
147
1.0
148
0.0
149
0.0
100
AcDbLayout
  1
Layout1
 70
1
 71
1
 10
-3.175
 20
-3.175
 11
293.857
 21
206.735
 12
0.0
 22
0.0
 32
0.0
 14
29.068
 24
20.356
 34
0.0
 15
261.614
 25
183.204
 35
0.0
146
0.0
 13
0.0
 23
0.0
 33
0.0
 16
1.0
 26
0.0
 36
0.0
 17
0.0
 27
1.0
 37
0.0
 76
1
330
1B
  0
MATERIAL
  5
1F
102
{ACAD_REACTORS
330
E
102
}
330
E
100
AcDbMaterial
  1
ByBlock
  2

 70
0
 40
1.0
 71
1
 41
1.0
 91
-1023410177
 42
1.0
 72
1
  3

 73
1
 74
1
 75
1
 44
0.5
 73
0
 45
1.0
 46
1.0
 77
1
  4

 78
1
 79
1
170
1
 48
1.0
171
1
  6

172
1
173
1
174
1
140
1.0
141
1.0
175
1
  7

176
1
177
1
178
1
143
1.0
179
1
  8

270
1
271
1
272
1
145
1.0
146
1.0
273
1
  9

274
1
275
1
276
1
 42
1.0
 72
1
  3

 73
1
 74
1
 75
1
 94
63
  0
MATERIAL
  5
20
102
{ACAD_REACTORS
330
E
102
}
330
E
100
AcDbMaterial
  1
ByLayer
  2

 70
0
 40
1.0
 71
1
 41
1.0
 91
-1023410177
 42
1.0
 72
1
  3

 73
1
 74
1
 75
1
 44
0.5
 73
0
 45
1.0
 46
1.0
 77
1
  4

 78
1
 79
1
170
1
 48
1.0
171
1
  6

172
1
173
1
174
1
140
1.0
141
1.0
175
1
  7

176
1
177
1
178
1
143
1.0
179
1
  8

270
1
271
1
272
1
145
1.0
146
1.0
273
1
  9

274
1
275
1
276
1
 42
1.0
 72
1
  3

 73
1
 74
1
 75
1
 94
63
  0
MATERIAL
  5
21
102
{ACAD_REACTORS
330
E
102
}
330
E
100
AcDbMaterial
  1
Global
  2

 70
0
 40
1.0
 71
1
 41
1.0
 91
-1023410177
 42
1.0
 72
1
  3

 73
1
 74
1
 75
1
 44
0.5
 73
0
 45
1.0
 46
1.0
 77
1
  4

 78
1
 79
1
170
1
 48
1.0
171
1
  6

172
1
173
1
174
1
140
1.0
141
1.0
175
1
  7

176
1
177
1
178
1
143
1.0
179
1
  8

270
1
271
1
272
1
145
1.0
146
1.0
273
1
  9

274
1
275
1
276
1
 42
1.0
 72
1
  3

 73
1
 74
1
 75
1
 94
63
  0
MLINESTYLE
  5
22
102
{ACAD_REACTORS
330
10
102
}
330
10
100
AcDbMlineStyle
  2
Standard
 70
0
  3

 62
256
 51
90.0
 52
90.0
 71
2
 49
0.5
 62
256
  6
BYLAYER
 49
-0.5
 62
256
  6
BYLAYER
  0
MLEADERSTYLE
  5
2C
102
{ACAD_REACTORS
330
F
102
}
330
F
100
AcDbMLeaderStyle
179
2
170
2
171
1
172
0
 90
2
 40
0.0
 41
0.0
173
1
 91
-1056964608
 92
-2
290
1
 42
2.0
291
1
 43
8.0
  3
Standard
 44
4.0
300

342
29
174
1
175
1
176
0
178
1
 93
-1056964608
 45
4.0
292
0
297
0
 46
4.0
 94
-1056964608
 47
1.0
 49
0.0
140
1.0
294
1
141
0.0
177
0
142
1.0
295
0
296
0
143
3.75
271
0
272
9
272
9
  0
ENDSEC
  0
EOF
