  0
SECTION
  2
HEADER
  9
$ACADVER
  1
AC1032
  9
$ACADMAINTVER
 90
4
  9
$DWGCODEPAGE
  3
ANSI_1252
  9
$LASTSAVEDBY
  1
ezdxf
  9
$REQUIREDVERSIONS
160
0
  9
$INSBASE
 10
0.0
 20
0.0
 30
0.0
  9
$EXTMIN
 10
-100
 20
-100
 30
-100
  9
$EXTMAX
 10
100
 20
100
 30
100
  9
$LIMMIN
 10
0.0
 20
0.0
  9
$LIMMAX
 10
420.0
 20
297.0
  9
$ORTHOMODE
 70
0
  9
$REGENMODE
 70
1
  9
$FILLMODE
 70
1
  9
$QTEXTMODE
 70
0
  9
$MIRRTEXT
 70
1
  9
$LTSCALE
 40
1.0
  9
$ATTMODE
 70
1
  9
$TEXTSIZE
 40
2.5
  9
$TRACEWID
 40
1.0
  9
$TEXTSTYLE
  7
Standard
  9
$CLAYER
  8
0
  9
$CELTYPE
  6
ByLayer
  9
$CECOLOR
 62
256
  9
$CELTSCALE
 40
1.0
  9
$DISPSILH
 70
0
  9
$DIMSCALE
 40
1.0
  9
$DIMASZ
 40
2.5
  9
$DIMEXO
 40
0.625
  9
$DIMDLI
 40
3.75
  9
$DIMRND
 40
0.0
  9
$DIMDLE
 40
0.0
  9
$DIMEXE
 40
1.25
  9
$DIMTP
 40
0.0
  9
$DIMTM
 40
0.0
  9
$DIMTXT
 40
2.5
  9
$DIMCEN
 40
2.5
  9
$DIMTSZ
 40
0.0
  9
$DIMTOL
 70
0
  9
$DIMLIM
 70
0
  9
$DIMTIH
 70
0
  9
$DIMTOH
 70
0
  9
$DIMSE1
 70
0
  9
$DIMSE2
 70
0
  9
$DIMTAD
 70
1
  9
$DIMZIN
 70
8
  9
$DIMBLK
  1

  9
$DIMASO
 70
1
  9
$DIMSHO
 70
1
  9
$DIMPOST
  1

  9
$DIMAPOST
  1

  9
$DIMALT
 70
0
  9
$DIMALTD
 70
3
  9
$DIMALTF
 40
0.03937007874
  9
$DIMLFAC
 40
1.0
  9
$DIMTOFL
 70
1
  9
$DIMTVP
 40
0.0
  9
$DIMTIX
 70
0
  9
$DIMSOXD
 70
0
  9
$DIMSAH
 70
0
  9
$DIMBLK1
  1

  9
$DIMBLK2
  1

  9
$DIMSTYLE
  2
ISO-25
  9
$DIMCLRD
 70
0
  9
$DIMCLRE
 70
0
  9
$DIMCLRT
 70
0
  9
$DIMTFAC
 40
1.0
  9
$DIMGAP
 40
0.625
  9
$DIMJUST
 70
0
  9
$DIMSD1
 70
0
  9
$DIMSD2
 70
0
  9
$DIMTOLJ
 70
0
  9
$DIMTZIN
 70
8
  9
$DIMALTZ
 70
0
  9
$DIMALTTZ
 70
0
  9
$DIMUPT
 70
0
  9
$DIMDEC
 70
2
  9
$DIMTDEC
 70
2
  9
$DIMALTU
 70
2
  9
$DIMALTTD
 70
3
  9
$DIMTXSTY
  7
Standard
  9
$DIMAUNIT
 70
0
  9
$DIMADEC
 70
0
  9
$DIMALTRND
 40
0.0
  9
$DIMAZIN
 70
0
  9
$DIMDSEP
 70
44
  9
$DIMATFIT
 70
3
  9
$DIMFRAC
 70
0
  9
$DIMLDRBLK
  1

  9
$DIMLUNIT
 70
2
  9
$DIMLWD
 70
-2
  9
$DIMLWE
 70
-2
  9
$DIMTMOVE
 70
0
  9
$DIMFXL
 40
1.0
  9
$DIMFXLON
 70
0
  9
$DIMJOGANG
 40
0.785398163397
  9
$DIMTFILL
 70
0
  9
$DIMTFILLCLR
 70
0
  9
$DIMARCSYM
 70
0
  9
$DIMLTYPE
  6

  9
$DIMLTEX1
  6

  9
$DIMLTEX2
  6

  9
$DIMTXTDIRECTION
 70
0
  9
$LUNITS
 70
2
  9
$LUPREC
 70
4
  9
$SKETCHINC
 40
1.0
  9
$FILLETRAD
 40
10.0
  9
$AUNITS
 70
0
  9
$AUPREC
 70
2
  9
$MENU
  1
.
  9
$ELEVATION
 40
0.0
  9
$PELEVATION
 40
0.0
  9
$THICKNESS
 40
0.0
  9
$LIMCHECK
 70
0
  9
$CHAMFERA
 40
0.0
  9
$CHAMFERB
 40
0.0
  9
$CHAMFERC
 40
0.0
  9
$CHAMFERD
 40
0.0
  9
$SKPOLY
 70
0
  9
$TDCREATE
 40
2458938.942337963
  9
$TDUCREATE
 40
2458532.153996898
  9
$TDUPDATE
 40
2458938.942337963
  9
$TDUUPDATE
 40
2458532.1544311
  9
$TDINDWG
 40
0.0
  9
$TDUSRTIMER
 40
0.0
  9
$USRTIMER
 70
1
  9
$ANGBASE
 50
0.0
  9
$ANGDIR
 70
0
  9
$PDMODE
 70
0
  9
$PDSIZE
 40
0.0
  9
$PLINEWID
 40
0.0
  9
$SPLFRAME
 70
0
  9
$SPLINETYPE
 70
6
  9
$SPLINESEGS
 70
8
  9
$HANDSEED
  5
90
  9
$SURFTAB1
 70
6
  9
$SURFTAB2
 70
6
  9
$SURFTYPE
 70
6
  9
$SURFU
 70
6
  9
$SURFV
 70
6
  9
$UCSBASE
  2

  9
$UCSNAME
  2

  9
$UCSORG
 10
0.0
 20
0.0
 30
0.0
  9
$UCSXDIR
 10
1.0
 20
0.0
 30
0.0
  9
$UCSYDIR
 10
0.0
 20
1.0
 30
0.0
  9
$UCSORTHOREF
  2

  9
$UCSORTHOVIEW
 70
0
  9
$UCSORGTOP
 10
0.0
 20
0.0
 30
0.0
  9
$UCSORGBOTTOM
 10
0.0
 20
0.0
 30
0.0
  9
$UCSORGLEFT
 10
0.0
 20
0.0
 30
0.0
  9
$UCSORGRIGHT
 10
0.0
 20
0.0
 30
0.0
  9
$UCSORGFRONT
 10
0.0
 20
0.0
 30
0.0
  9
$UCSORGBACK
 10
0.0
 20
0.0
 30
0.0
  9
$PUCSBASE
  2

  9
$PUCSNAME
  2

  9
$PUCSORG
 10
0.0
 20
0.0
 30
0.0
  9
$PUCSXDIR
 10
1.0
 20
0.0
 30
0.0
  9
$PUCSYDIR
 10
0.0
 20
1.0
 30
0.0
  9
$PUCSORTHOREF
  2

  9
$PUCSORTHOVIEW
 70
0
  9
$PUCSORGTOP
 10
0.0
 20
0.0
 30
0.0
  9
$PUCSORGBOTTOM
 10
0.0
 20
0.0
 30
0.0
  9
$PUCSORGLEFT
 10
0.0
 20
0.0
 30
0.0
  9
$PUCSORGRIGHT
 10
0.0
 20
0.0
 30
0.0
  9
$PUCSORGFRONT
 10
0.0
 20
0.0
 30
0.0
  9
$PUCSORGBACK
 10
0.0
 20
0.0
 30
0.0
  9
$USERI1
 70
0
  9
$USERI2
 70
0
  9
$USERI3
 70
0
  9
$USERI4
 70
0
  9
$USERI5
 70
0
  9
$USERR1
 40
0.0
  9
$USERR2
 40
0.0
  9
$USERR3
 40
0.0
  9
$USERR4
 40
0.0
  9
$USERR5
 40
0.0
  9
$WORLDVIEW
 70
1
  9
$SHADEDGE
 70
3
  9
$SHADEDIF
 70
70
  9
$TILEMODE
 70
1
  9
$MAXACTVP
 70
64
  9
$PINSBASE
 10
0.0
 20
0.0
 30
0.0
  9
$PLIMCHECK
 70
0
  9
$PEXTMIN
 10
1e+20
 20
1e+20
 30
1e+20
  9
$PEXTMAX
 10
-1e+20
 20
-1e+20
 30
-1e+20
  9
$PLIMMIN
 10
0.0
 20
0.0
  9
$PLIMMAX
 10
420.0
 20
297.0
  9
$UNITMODE
 70
0
  9
$VISRETAIN
 70
1
  9
$PLINEGEN
 70
0
  9
$PSLTSCALE
 70
1
  9
$TREEDEPTH
 70
3020
  9
$CMLSTYLE
  2
Standard
  9
$CMLJUST
 70
0
  9
$CMLSCALE
 40
20.0
  9
$PROXYGRAPHICS
 70
1
  9
$MEASUREMENT
 70
1
  9
$CELWEIGHT
370
-1
  9
$ENDCAPS
280
0
  9
$JOINSTYLE
280
0
  9
$LWDISPLAY
290
0
  9
$INSUNITS
 70
5
  9
$HYPERLINKBASE
  1

  9
$STYLESHEET
  1

  9
$XEDIT
290
1
  9
$CEPSNTYPE
380
0
  9
$PSTYLEMODE
290
1
  9
$FINGERPRINTGUID
  2
F1DCEA26-7226-11EA-B84B-3C07545DF518
  9
$VERSIONGUID
  2
F21727E0-7226-11EA-B84B-3C07545DF518
  9
$EXTNAMES
290
1
  9
$PSVPSCALE
 40
0.0
  9
$OLESTARTUP
290
0
  9
$SORTENTS
280
127
  9
$INDEXCTL
280
0
  9
$HIDETEXT
280
1
  9
$XCLIPFRAME
280
2
  9
$HALOGAP
280
0
  9
$OBSCOLOR
 70
257
  9
$OBSLTYPE
280
0
  9
$INTERSECTIONDISPLAY
280
0
  9
$INTERSECTIONCOLOR
 70
257
  9
$DIMASSOC
280
2
  9
$PROJECTNAME
  1

  9
$CAMERADISPLAY
290
0
  9
$LENSLENGTH
 40
50.0
  9
$CAMERAHEIGHT
 40
0.0
  9
$STEPSPERSEC
 40
24.0
  9
$STEPSIZE
 40
100.0
  9
$3DDWFPREC
 40
2.0
  9
$PSOLWIDTH
 40
0.005
  9
$PSOLHEIGHT
 40
0.08
  9
$LOFTANG1
 40
1.570796326795
  9
$LOFTANG2
 40
1.570796326795
  9
$LOFTMAG1
 40
0.0
  9
$LOFTMAG2
 40
0.0
  9
$LOFTPARAM
 70
7
  9
$LOFTNORMALS
280
1
  9
$LATITUDE
 40
37.795
  9
$LONGITUDE
 40
-122.394
  9
$NORTHDIRECTION
 40
0.0
  9
$TIMEZONE
 70
-8000
  9
$LIGHTGLYPHDISPLAY
280
1
  9
$TILEMODELIGHTSYNCH
280
1
  9
$CMATERIAL
347
20
  9
$SOLIDHIST
280
0
  9
$SHOWHIST
280
1
  9
$DWFFRAME
280
2
  9
$DGNFRAME
280
2
  9
$REALWORLDSCALE
290
1
  9
$INTERFERECOLOR
 62
256
  9
$CSHADOW
280
0
  9
$SHADOWPLANELOCATION
 40
0.0
  0
ENDSEC
  0
SECTION
  2
CLASSES
  0
CLASS
  1
ACDBDICTIONARYWDFLT
  2
AcDbDictionaryWithDefault
  3
ObjectDBX Classes
 90
0
 91
0
280
0
281
0
  0
CLASS
  1
SUN
  2
AcDbSun
  3
SCENEOE
 90
1153
 91
0
280
0
281
0
  0
CLASS
  1
VISUALSTYLE
  2
AcDbVisualStyle
  3
ObjectDBX Classes
 90
4095
 91
0
280
0
281
0
  0
CLASS
  1
MATERIAL
  2
AcDbMaterial
  3
ObjectDBX Classes
 90
1153
 91
0
280
0
281
0
  0
CLASS
  1
SCALE
  2
AcDbScale
  3
ObjectDBX Classes
 90
1153
 91
0
280
0
281
0
  0
CLASS
  1
TABLESTYLE
  2
AcDbTableStyle
  3
ObjectDBX Classes
 90
4095
 91
0
280
0
281
0
  0
CLASS
  1
MLEADERSTYLE
  2
AcDbMLeaderStyle
  3
ACDB_MLEADERSTYLE_CLASS
 90
4095
 91
0
280
0
281
0
  0
CLASS
  1
DICTIONARYVAR
  2
AcDbDictionaryVar
  3
ObjectDBX Classes
 90
0
 91
0
280
0
281
0
  0
CLASS
  1
CELLSTYLEMAP
  2
AcDbCellStyleMap
  3
ObjectDBX Classes
 90
1152
 91
0
280
0
281
0
  0
CLASS
  1
MENTALRAYRENDERSETTINGS
  2
AcDbMentalRayRenderSettings
  3
SCENEOE
 90
1024
 91
0
280
0
281
0
  0
CLASS
  1
ACDBDETAILVIEWSTYLE
  2
AcDbDetailViewStyle
  3
ObjectDBX Classes
 90
1025
 91
0
280
0
281
0
  0
CLASS
  1
ACDBSECTIONVIEWSTYLE
  2
AcDbSectionViewStyle
  3
ObjectDBX Classes
 90
1025
 91
0
280
0
281
0
  0
CLASS
  1
RASTERVARIABLES
  2
AcDbRasterVariables
  3
ISM
 90
0
 91
0
280
0
281
0
  0
CLASS
  1
ACDBPLACEHOLDER
  2
AcDbPlaceHolder
  3
ObjectDBX Classes
 90
0
 91
0
280
0
281
0
  0
CLASS
  1
LAYOUT
  2
AcDbLayout
  3
ObjectDBX Classes
 90
0
 91
0
280
0
281
0
  0
ENDSEC
  0
SECTION
  2
TABLES
  0
TABLE
  2
VPORT
  5
8
330
0
100
AcDbSymbolTable
 70
1
  0
VPORT
  5
8E
330
8
100
AcDbSymbolTableRecord
100
AcDbViewportTableRecord
  2
*Active
 70
0
 10
0.0
 20
0.0
 11
1.0
 21
1.0
 12
280.0
 22
9264.766672582107
 13
0.0
 23
0.0
 14
0.5
 24
0.5
 15
0.5
 25
0.5
 16
0.0
 26
0.0
 36
1.0
 17
0.0
 27
0.0
 37
0.0
 40
18949.533345164215
 41
1.34
 42
50.0
 43
0.0
 44
0.0
 50
0.0
 51
0.0
 71
0
 72
1000
 73
1
 74
3
 75
0
 76
0
 77
0
 78
0
281
0
 65
0
146
0.0
  0
ENDTAB
  0
TABLE
  2
LTYPE
  5
2
330
0
100
AcDbSymbolTable
 70
3
  0
LTYPE
  5
24
330
2
100
AcDbSymbolTableRecord
100
AcDbLinetypeTableRecord
  2
ByBlock
 70
0
  3

 72
65
 73
0
 40
0.0
  0
LTYPE
  5
25
330
2
100
AcDbSymbolTableRecord
100
AcDbLinetypeTableRecord
  2
ByLayer
 70
0
  3

 72
65
 73
0
 40
0.0
  0
LTYPE
  5
26
330
2
100
AcDbSymbolTableRecord
100
AcDbLinetypeTableRecord
  2
Continuous
 70
0
  3

 72
65
 73
0
 40
0.0
  0
ENDTAB
  0
TABLE
  2
LAYER
  5
1
330
0
100
AcDbSymbolTable
 70
2
  0
LAYER
  5
27
330
1
100
AcDbSymbolTableRecord
100
AcDbLayerTableRecord
  2
0
 70
0
 62
7
  6
Continuous
370
-3
390
13
347
21
  0
LAYER
  5
28
330
1
100
AcDbSymbolTableRecord
100
AcDbLayerTableRecord
  2
Defpoints
 70
0
 62
7
  6
Continuous
290
0
370
-3
390
13
347
21
  0
ENDTAB
  0
TABLE
  2
STYLE
  5
5
330
0
100
AcDbSymbolTable
 70
1
  0
STYLE
  5
29
330
5
100
AcDbSymbolTableRecord
100
AcDbTextStyleTableRecord
  2
Standard
 70
0
 40
0.0
 41
1.0
 50
0.0
 71
0
 42
2.5
  3
txt
  4

  0
ENDTAB
  0
TABLE
  2
VIEW
  5
7
330
0
100
AcDbSymbolTable
 70
0
  0
ENDTAB
  0
TABLE
  2
UCS
  5
6
330
0
100
AcDbSymbolTable
 70
0
  0
ENDTAB
  0
TABLE
  2
APPID
  5
3
330
0
100
AcDbSymbolTable
 70
2
  0
APPID
  5
2A
330
3
100
AcDbSymbolTableRecord
100
AcDbRegAppTableRecord
  2
ACAD
 70
0
  0
APPID
  5
8F
330
3
100
AcDbSymbolTableRecord
100
AcDbRegAppTableRecord
  2
HATCHBACKGROUNDCOLOR
 70
0
  0
ENDTAB
  0
TABLE
  2
DIMSTYLE
  5
4
330
0
100
AcDbSymbolTable
 70
1
100
AcDbDimStyleTable
  0
DIMSTYLE
105
2B
330
4
100
AcDbSymbolTableRecord
100
AcDbDimStyleTableRecord
  2
Standard
 70
0
 40
1.0
 41
2.5
 42
0.625
 43
3.75
 44
1.25
 45
0.0
 46
0.0
 47
0.0
 48
0.0
 49
2.5
140
2.5
141
2.5
142
0.0
143
0.03937007874
144
1.0
145
0.0
146
1.0
147
0.625
148
0.0
 69
0
 70
0
 71
0
 72
0
 73
0
 74
0
 75
0
 76
0
 77
1
 78
8
 79
0
170
0
171
3
172
1
173
0
174
0
175
0
176
0
177
0
178
0
179
0
271
0
272
2
273
2
274
3
275
0
276
0
277
2
278
44
279
0
280
0
281
0
282
0
283
0
284
8
285
0
286
0
288
0
289
3
290
0
371
-2
372
-2
  0
ENDTAB
  0
TABLE
  2
BLOCK_RECORD
  5
9
330
0
100
AcDbSymbolTable
 70
2
  0
BLOCK_RECORD
  5
17
330
9
100
AcDbSymbolTableRecord
100
AcDbBlockTableRecord
  2
*Model_Space
340
1A
 70
0
280
1
281
1
  0
BLOCK_RECORD
  5
1B
330
9
100
AcDbSymbolTableRecord
100
AcDbBlockTableRecord
  2
*Paper_Space
340
1E
 70
0
280
1
281
1
  0
ENDTAB
  0
ENDSEC
  0
SECTION
  2
BLOCKS
  0
BLOCK
  5
18
330
17
100
AcDbEntity
  8
0
100
AcDbBlockBegin
  2
*Model_Space
 70
0
 10
0.0
 20
0.0
 30
0.0
  3
*Model_Space
  1

  0
ENDBLK
  5
19
330
17
100
AcDbEntity
  8
0
100
AcDbBlockEnd
  0
BLOCK
  5
1C
330
1B
100
AcDbEntity
  8
0
100
AcDbBlockBegin
  2
*Paper_Space
 70
0
 10
0.0
 20
0.0
 30
0.0
  3
*Paper_Space
  1

  0
ENDBLK
  5
1D
330
1B
100
AcDbEntity
  8
0
100
AcDbBlockEnd
  0
ENDSEC
  0
SECTION
  2
ENTITIES
  0
LWPOLYLINE
  5
2D
330
17
100
AcDbEntity
  8
0
100
AcDbPolyline
 90
2
 70
0
 43
0.0
 10
0.0
 20
-210.0
 10
0.0
 20
-210.0
  0
LWPOLYLINE
  5
2E
330
17
100
AcDbEntity
  8
0
100
AcDbPolyline
 90
2
 70
0
 43
0.0
 10
-56.67577994332124
 20
-180.0
 10
456.67577994332123
 20
-180.0
  0
LWPOLYLINE
  5
2F
330
17
100
AcDbEntity
  8
0
100
AcDbPolyline
 90
2
 70
0
 43
0.0
 10
-6.585328586537315
 20
-170.0
 10
406.58532858653734
 20
-170.0
  0
LWPOLYLINE
  5
30
330
17
100
AcDbEntity
  8
0
100
AcDbPolyline
 90
2
 70
0
 43
0.0
 10
13.354370508940068
 20
-160.0
 10
386.64562949105994
 20
-160.0
  0
LWPOLYLINE
  5
31
330
17
100
AcDbEntity
  8
0
100
AcDbPolyline
 90
2
 70
0
 43
0.0
 10
37.474972317985305
 20
-150.0
 10
362.5250276820147
 20
-150.0
  0
LWPOLYLINE
  5
32
330
17
100
AcDbEntity
  8
0
100
AcDbPolyline
 90
2
 70
0
 43
0.0
 10
69.63577473004561
 20
-140.0
 10
330.36422526995443
 20
-140.0
  0
LWPOLYLINE
  5
33
330
17
100
AcDbEntity
  8
0
100
AcDbPolyline
 90
5
 70
0
 43
0.0
 10
0.0
 20
-210.0
 10
1.0
 20
-210.0
 10
1.0
 20
-209.0
 10
0.0
 20
-209.0
 10
0.0
 20
-210.0
  0
LWPOLYLINE
  5
34
330
17
100
AcDbEntity
  8
0
100
AcDbPolyline
 90
2
 70
0
 43
0.0
 10
0.0
 20
-130.0
 10
0.0
 20
-58.0
  0
LWPOLYLINE
  5
35
330
17
100
AcDbEntity
  8
0
100
AcDbPolyline
 90
2
 70
0
 43
0.0
 10
25.0
 20
-130.0
 10
25.0
 20
-58.0
  0
LWPOLYLINE
  5
36
330
17
100
AcDbEntity
  8
0
100
AcDbPolyline
 90
2
 70
0
 43
0.0
 10
50.0
 20
-130.0
 10
50.0
 20
-58.0
  0
LWPOLYLINE
  5
37
330
17
100
AcDbEntity
  8
0
100
AcDbPolyline
 90
2
 70
0
 43
0.0
 10
75.0
 20
-130.0
 10
75.0
 20
-58.0
  0
LWPOLYLINE
  5
38
330
17
100
AcDbEntity
  8
0
100
AcDbPolyline
 90
2
 70
0
 43
0.0
 10
100.0
 20
-130.0
 10
100.0
 20
-58.0
  0
LWPOLYLINE
  5
39
330
17
100
AcDbEntity
  8
0
100
AcDbPolyline
 90
2
 70
0
 43
0.0
 10
125.0
 20
-130.0
 10
125.0
 20
-58.0
  0
LWPOLYLINE
  5
3A
330
17
100
AcDbEntity
  8
0
100
AcDbPolyline
 90
2
 70
0
 43
0.0
 10
150.0
 20
-130.0
 10
150.0
 20
-58.0
  0
LWPOLYLINE
  5
3B
330
17
100
AcDbEntity
  8
0
100
AcDbPolyline
 90
2
 70
0
 43
0.0
 10
175.0
 20
-130.0
 10
175.0
 20
-58.0
  0
LWPOLYLINE
  5
3C
330
17
100
AcDbEntity
  8
0
100
AcDbPolyline
 90
2
 70
0
 43
0.0
 10
200.0
 20
-130.0
 10
200.0
 20
-58.0
  0
LWPOLYLINE
  5
3D
330
17
100
AcDbEntity
  8
0
100
AcDbPolyline
 90
2
 70
0
 43
0.0
 10
225.0
 20
-130.0
 10
225.0
 20
-58.0
  0
LWPOLYLINE
  5
3E
330
17
100
AcDbEntity
  8
0
100
AcDbPolyline
 90
2
 70
0
 43
0.0
 10
250.0
 20
-130.0
 10
250.0
 20
-58.0
  0
LWPOLYLINE
  5
3F
330
17
100
AcDbEntity
  8
0
100
AcDbPolyline
 90
2
 70
0
 43
0.0
 10
275.0
 20
-130.0
 10
275.0
 20
-58.0
  0
LWPOLYLINE
  5
40
330
17
100
AcDbEntity
  8
0
100
AcDbPolyline
 90
2
 70
0
 43
0.0
 10
300.0
 20
-130.0
 10
300.0
 20
-58.0
  0
LWPOLYLINE
  5
41
330
17
100
AcDbEntity
  8
0
100
AcDbPolyline
 90
2
 70
0
 43
0.0
 10
325.0
 20
-130.0
 10
325.0
 20
-58.0
  0
LWPOLYLINE
  5
42
330
17
100
AcDbEntity
  8
0
100
AcDbPolyline
 90
2
 70
0
 43
0.0
 10
350.0
 20
-130.0
 10
350.0
 20
-58.0
  0
LWPOLYLINE
  5
43
330
17
100
AcDbEntity
  8
0
100
AcDbPolyline
 90
2
 70
0
 43
0.0
 10
375.0
 20
-130.0
 10
375.0
 20
-58.0
  0
LWPOLYLINE
  5
44
330
17
100
AcDbEntity
  8
0
100
AcDbPolyline
 90
2
 70
0
 43
0.0
 10
400.0
 20
-130.0
 10
400.0
 20
-58.0
  0
LWPOLYLINE
  5
45
330
17
100
AcDbEntity
  8
0
100
AcDbPolyline
 90
5
 70
0
 43
0.0
 10
0.0
 20
-130.0
 10
1.0
 20
-130.0
 10
1.0
 20
-129.0
 10
0.0
 20
-129.0
 10
0.0
 20
-130.0
  0
LWPOLYLINE
  5
46
330
17
100
AcDbEntity
  8
0
100
AcDbPolyline
 90
2
 70
0
 43
0.0
 10
0.0
 20
30.0
 10
0.0
 20
30.0
  0
LWPOLYLINE
  5
47
330
17
100
AcDbEntity
  8
0
100
AcDbPolyline
 90
2
 70
0
 43
0.0
 10
0.0
 20
30.0
 10
0.0
 20
110.0
  0
LWPOLYLINE
  5
48
330
17
100
AcDbEntity
  8
0
100
AcDbPolyline
 90
2
 70
0
 43
0.0
 10
400.0
 20
30.0
 10
400.0
 20
110.0
  0
LWPOLYLINE
  5
49
330
17
100
AcDbEntity
  8
0
100
AcDbPolyline
 90
2
 70
0
 43
0.0
 10
0.0
 20
30.0
 10
400.0
 20
30.0
  0
LWPOLYLINE
  5
4A
330
17
100
AcDbEntity
  8
0
100
AcDbPolyline
 90
2
 70
0
 43
0.0
 10
0.0
 20
110.0
 10
400.0
 20
110.0
  0
LWPOLYLINE
  5
4B
330
17
100
AcDbEntity
  8
0
100
AcDbPolyline
 90
2
 70
0
 43
0.0
 10
-10.0
 20
30.0
 10
-10.0
 20
0.0
  0
LWPOLYLINE
  5
4C
330
17
100
AcDbEntity
  8
0
100
AcDbPolyline
 90
2
 70
0
 43
0.0
 10
10.0
 20
30.0
 10
10.0
 20
0.0
  0
LWPOLYLINE
  5
4D
330
17
100
AcDbEntity
  8
0
100
AcDbPolyline
 90
2
 70
0
 43
0.0
 10
390.0
 20
30.0
 10
390.0
 20
0.0
  0
LWPOLYLINE
  5
4E
330
17
100
AcDbEntity
  8
0
100
AcDbPolyline
 90
2
 70
0
 43
0.0
 10
410.0
 20
30.0
 10
410.0
 20
0.0
  0
LWPOLYLINE
  5
4F
330
17
100
AcDbEntity
  8
0
100
AcDbPolyline
 90
5
 70
0
 43
0.0
 10
0.0
 20
30.0
 10
1.0
 20
30.0
 10
1.0
 20
31.0
 10
0.0
 20
31.0
 10
0.0
 20
30.0
  0
LWPOLYLINE
  5
50
330
17
100
AcDbEntity
  8
0
100
AcDbPolyline
 90
2
 70
0
 43
0.0
 10
0.0
 20
160.0
 10
0.0
 20
160.0
  0
LWPOLYLINE
  5
51
330
17
100
AcDbEntity
  8
0
100
AcDbPolyline
 90
5
 70
0
 43
0.0
 10
0.0
 20
160.0
 10
1.0
 20
160.0
 10
1.0
 20
161.0
 10
0.0
 20
161.0
 10
0.0
 20
160.0
  0
LWPOLYLINE
  5
52
330
17
100
AcDbEntity
  8
0
100
AcDbPolyline
 90
2
 70
0
 43
0.0
 10
0.0
 20
210.0
 10
0.0
 20
210.0
  0
LWPOLYLINE
  5
53
330
17
100
AcDbEntity
  8
0
100
AcDbPolyline
 90
600
 70
0
 43
0.0
 10
-31.99999
 20
210.0018479999538
 10
-29.98993984924623
 20
579.5924779432391
 10
-27.979889698492464
 20
945.4498692002284
 10
-25.969839547738694
 20
1307.574021770922
 10
-23.959789396984924
 20
1665.9649356553198
 10
-21.949739246231154
 20
2020.6226108534217
 10
-19.939689095477384
 20
2371.547047365228
 10
-17.929638944723617
 20
2718.7382451907383
 10
-15.919588793969847
 20
3062.1962043299527
 10
-13.909538643216077
 20
3401.9209247828717
 10
-11.899488492462307
 20
3737.9124065494943
 10
-9.88943834170854
 20
4070.1706496298207
 10
-7.879388190954771
 20
4398.6956540238525
 10
-5.869338040201001
 20
4723.4874197315885
 10
-3.859287889447234
 20
5044.545946753027
 10
-1.8492377386934642
 20
5361.8712350881715
 10
1e-05
 20
5650.376170384396
 10
0.16081241206030938
 20
5675.46328473702
 10
2.010060150753769
 20
5960.533637470193
 10
2.1708625628140794
 20
5985.322095699573
 10
4.020110301507538
 20
6266.9578658696955
 10
4.180912713567849
 20
6291.447667975829
 10
6.030160452261307
 20
6569.648855582901
 10
6.1909628643216195
 20
6593.84000156579
 10
8.040210603015076
 20
6868.606606609812
 10
8.20101301507539
 20
6892.499096469455
 10
10.050260753768846
 20
7163.831118950427
 10
10.211063165829152
 20
7187.424952686823
 10
12.060310904522614
 20
7455.322392604744
 10
12.221113316582922
 20
7478.617570217896
 10
14.070361055276383
 20
7743.080427572769
 10
14.231163467336692
 20
7766.076949062674
 10
16.080411206030153
 20
8027.105223854495
 10
16.241213618090462
 20
8049.803089221156
 10
18.090461356783923
 20
8307.396781449926
 10
18.251263768844233
 20
8329.795990693341
 10
20.100511507537693
 20
8583.955100359062
 10
20.261313919598003
 20
8606.055653479232
 10
22.11056165829146
 20
8856.7801805819
 10
22.271364070351773
 20
8878.582077578825
 10
24.12061180904523
 20
9125.872022118445
 10
24.281414221105535
 20
9147.375262992122
 10
26.130661959799
 20
9391.230624968694
 10
26.291464371859306
 20
9412.435209719126
 10
28.140712110552766
 20
9652.855989132644
 10
28.301514522613076
 20
9673.761917759834
 10
30.150762261306536
 20
9910.748114610302
 10
30.311564673366846
 20
9931.355387114243
 10
32.00001
 20
10144.598385020969
 10
32.16081241206031
 20
10164.907001401663
 10
32.321614824120616
 20
10185.21561778236
 10
34.010060150753766
 20
10395.322689249277
 10
34.17086256281408
 20
10415.332649506727
 10
34.331664974874386
 20
10435.342609764179
 10
36.020110301507536
 20
10642.31375479129
 10
36.18091271356785
 20
10662.025058925496
 10
36.341715125628156
 20
10681.736363059701
 10
38.030160452261306
 20
10885.57158164701
 10
38.19096286432162
 20
10904.984229657972
 10
38.351765276381926
 20
10924.39687766893
 10
40.040210603015076
 20
11125.096169816434
 10
40.20101301507539
 20
11144.210161704148
 10
40.361815427135696
 20
11163.32415359186
 10
42.050260753768846
 20
11360.88751929956
 10
42.21106316582915
 20
11379.702855064028
 10
42.371865577889466
 20
11398.518190828498
 10
44.060310904522616
 20
11592.945630096394
 10
44.22111331658292
 20
11611.462309737615
 10
44.381915728643236
 20
11629.97898937884
 10
46.07036105527638
 20
11821.270502206926
 10
46.23116346733669
 20
11839.488525724904
 10
46.391965879397006
 20
11857.706549242883
 10
48.08041120603015
 20
12045.862135631167
 10
48.24121361809046
 20
12063.781503025897
 10
48.402016030150776
 20
12081.700870420631
 10
50.09046135678392
 20
12266.72053036911
 10
50.25126376884423
 20
12284.341241640597
 10
50.41206618090453
 20
12301.961952912083
 10
52.10051150753769
 20
12483.845686420756
 10
52.261313919598
 20
12501.167741569
 10
52.4221163316583
 20
12518.489796717238
 10
54.11056165829146
 20
12697.23760378611
 10
54.27136407035177
 20
12714.261002811105
 10
54.43216648241207
 20
12731.284401836101
 10
56.12061180904523
 20
12906.896282465168
 10
56.281414221105535
 20
12923.62102536692
 10
56.44221663316584
 20
12940.34576826867
 10
58.130661959799
 20
13112.821722457928
 10
58.291464371859306
 20
13129.247809236433
 10
58.45226678391961
 20
13145.673896014936
 10
60.14071211055277
 20
13315.013923764393
 10
60.301514522613076
 20
13331.14135441965
 10
60.46231693467338
 20
13347.26878507491
 10
62.15076226130654
 20
13513.472886384561
 10
62.311564673366846
 20
13529.301660916575
 10
62.47236708542715
 20
13545.13043544859
 10
64.16081241206031
 20
13708.198610318435
 10
64.32161482412062
 20
13723.728728727201
 10
64.48241723618092
 20
13739.258847135969
 10
66.17086256281408
 20
13899.191095566011
 10
66.33166497487439
 20
13914.422557851534
 10
66.49246738693469
 20
13929.654020137055
 10
68.18091271356785
 20
14086.450342127297
 10
68.34171512562816
 20
14101.383148289571
 10
68.50251753768846
 20
14116.31595445185
 10
70.19096286432162
 20
14269.976350002278
 10
70.35176527638193
 20
14284.610500041308
 10
70.51256768844223
 20
14299.24465008034
 10
72.20101301507539
 20
14449.76911919097
 10
72.3618154271357
 20
14464.104613106756
 10
72.522617839196
 20
14478.440107022541
 10
74.21106316582916
 20
14625.828649693363
 10
74.37186557788947
 20
14639.865487485906
 10
74.53266798994977
 20
14653.902325278445
 10
76.22111331658292
 20
14798.154941509461
 10
76.38191572864324
 20
14811.893123178756
 10
76.54271814070354
 20
14825.631304848052
 10
78.2311634673367
 20
14966.747994639265
 10
78.391965879397
 20
14980.18752018531
 10
78.55276829145731
 20
14993.62704573136
 10
80.24121361809046
 20
15131.607809082769
 10
80.40201603015078
 20
15144.748678505572
 10
80.56281844221107
 20
15157.889547928376
 10
82.25126376884424
 20
15292.734384839983
 10
82.41206618090453
 20
15305.57659813954
 10
82.57286859296484
 20
15318.418811439096
 10
84.261313919598
 20
15450.127721910894
 10
84.4221163316583
 20
15462.671279087208
 10
84.58291874371861
 20
15475.21483626352
 10
86.27136407035178
 20
15603.787820295518
 10
86.43216648241207
 20
15616.032721348583
 10
86.59296889447238
 20
15628.27762240165
 10
88.28141422110554
 20
15753.71467999384
 10
88.44221663316584
 20
15765.66092492366
 10
88.60301904522615
 20
15777.607169853483
 10
90.2914643718593
 20
15899.908301005866
 10
90.45226678391961
 20
15911.555889812442
 10
90.61306919597992
 20
15923.203478619016
 10
92.30151452261308
 20
16042.3686833316
 10
92.46231693467338
 20
16053.717616014932
 10
92.62311934673369
 20
16065.066548698262
 10
94.31156467336685
 20
16181.095826971035
 10
94.47236708542715
 20
16192.146103531119
 10
94.63316949748746
 20
16203.196380091205
 10
96.32161482412062
 20
16316.089731924176
 10
96.48241723618092
 20
16326.841352361014
 10
96.64321964824123
 20
16337.592972797855
 10
98.33166497487439
 20
16447.350398191018
 10
98.49246738693469
 20
16457.803362504616
 10
98.65326979899498
 20
16468.256326818206
 10
100.34171512562816
 20
16574.877825771568
 10
100.50251753768846
 20
16585.03213396192
 10
100.66331994974877
 20
16595.186442152266
 10
102.35176527638193
 20
16698.67201466582
 10
102.51256768844223
 20
16708.52766673292
 10
102.67337010050252
 20
16718.383318800024
 10
104.3618154271357
 20
16818.732964873776
 10
104.522617839196
 20
16828.289960817634
 10
104.68342025125631
 20
16837.846956761492
 10
106.37186557788947
 20
16935.060676395442
 10
106.53266798994977
 20
16944.319016216054
 10
106.69347040201006
 20
16953.577356036665
 10
108.38191572864324
 20
17047.655149230806
 10
108.54271814070354
 20
17056.61483292817
 10
108.70352055276385
 20
17065.574516625536
 10
110.391965879397
 20
17156.516383379876
 10
110.55276829145731
 20
17165.177410954
 10
110.7135707035176
 20
17173.838438528117
 10
112.40201603015078
 20
17261.64437884265
 10
112.56281844221107
 20
17270.006750293524
 10
112.72362085427139
 20
17278.3691217444
 10
114.41206618090453
 20
17363.039135619125
 10
114.57286859296484
 20
17371.10285094675
 10
114.73367100502514
 20
17379.166566274384
 10
116.4221163316583
 20
17460.700653709308
 10
116.58291874371861
 20
17468.46571291369
 10
116.74372115577893
 20
17476.230772118077
 10
118.43216648241207
 20
17554.628933113192
 10
118.59296889447238
 20
17562.095336194332
 10
118.75377130653268
 20
17569.561739275472
 10
120.44221663316584
 20
17644.823973830782
 10
120.60301904522615
 20
17651.991720788672
 10
120.76382145728647
 20
17659.159467746565
 10
122.45226678391961
 20
17731.285775862078
 10
122.61306919597992
 20
17738.15486669673
 10
122.77387160804022
 20
17745.023957531375
 10
124.46231693467338
 20
17814.01433920708
 10
124.62311934673369
 20
17820.584773918483
 10
124.78392175879401
 20
17827.155208629883
 10
126.47236708542715
 20
17893.00966386578
 10
126.63316949748746
 20
17899.281442453936
 10
126.79397190954776
 20
17905.55322104209
 10
128.48241723618094
 20
17968.27174983819
 10
128.64321964824123
 20
17974.244872303098
 10
128.80402206030155
 20
17980.21799476801
 10
130.4924673869347
 20
18039.8005971243
 10
130.65326979899498
 20
18045.475063465965
 10
130.8140722110553
 20
18051.14952980763
 10
132.50251753768845
 20
18107.596205724112
 10
132.66331994974877
 20
18112.972015942534
 10
132.82412236180906
 20
18118.347826160953
 10
134.51256768844223
 20
18171.658575637637
 10
134.67337010050252
 20
18176.735729732813
 10
134.83417251256284
 20
18181.812883827984
 10
136.52261783919602
 20
18231.98770686486
 10
136.6834202512563
 20
18236.76620483679
 10
136.8442226633166
 20
18241.544702808715
 10
138.53266798994977
 20
18288.583599405785
 10
138.69347040201006
 20
18293.063441254468
 10
138.85427281407038
 20
18297.54328310315
 10
140.54271814070353
 20
18341.44625326042
 10
140.70352055276385
 20
18345.62743898586
 10
140.86432296482414
 20
18349.808624711295
 10
142.5527682914573
 20
18390.57566842876
 10
142.7135707035176
 20
18394.45819803095
 10
142.87437311557792
 20
18398.34072763314
 10
144.56281844221107
 20
18435.971844910797
 10
144.7236208542714
 20
18439.555718389744
 10
144.88442326633168
 20
18443.13959186869
 10
146.57286859296482
 20
18477.63478270654
 10
146.73367100502514
 20
18480.92000006224
 10
146.89447341708546
 20
18484.20521741794
 10
148.5829187437186
 20
18515.564481815993
 10
148.74372115577893
 20
18518.55104304845
 10
148.90452356783922
 20
18521.537604280904
 10
150.5929688944724
 20
18549.76094223914
 10
150.75377130653268
 20
18552.44884734835
 10
150.914573718593
 20
18555.13675245756
 10
152.60301904522615
 20
18580.224163976003
 10
152.76382145728647
 20
18582.613412961968
 10
152.92462386934676
 20
18585.002661947932
 10
154.6130691959799
 20
18606.95414702656
 10
154.77387160804022
 20
18609.044739889283
 10
154.93467402010054
 20
18611.135332752
 10
156.6231193467337
 20
18629.95089139083
 10
156.783921758794
 20
18631.7428281303
 10
156.9447241708543
 20
18633.534764869775
 10
158.63316949748747
 20
18649.214397068798
 10
158.79397190954776
 20
18650.707677685026
 10
158.95477432160808
 20
18652.200958301255
 10
160.64321964824123
 20
18664.744664060476
 10
160.80402206030155
 20
18665.939288553458
 10
160.96482447236184
 20
18667.13391304644
 10
162.65326979899498
 20
18676.541692365852
 10
162.8140722110553
 20
18677.437660735588
 10
162.9748746231156
 20
18678.333629105324
 10
164.66331994974877
 20
18684.605481984938
 10
164.82412236180906
 20
18685.202794231427
 10
164.98492477386938
 20
18685.80010647792
 10
166.67337010050252
 20
18688.936032917725
 10
166.83417251256284
 20
18689.234689040968
 10
166.99497492462314
 20
18689.533345164215
 10
168.6834202512563
 20
18689.533345164215
 10
168.8442226633166
 20
18689.533345164215
 10
169.00502507537692
 20
18689.533345164215
 10
170.69347040201006
 20
18689.533345164215
 10
170.85427281407038
 20
18689.533345164215
 10
171.01507522613068
 20
18689.533345164215
 10
172.70352055276385
 20
18689.533345164215
 10
172.86432296482414
 20
18689.533345164215
 10
173.02512537688446
 20
18689.533345164215
 10
174.7135707035176
 20
18689.533345164215
 10
174.87437311557792
 20
18689.533345164215
 10
175.03517552763822
 20
18689.533345164215
 10
176.7236208542714
 20
18689.533345164215
 10
176.88442326633168
 20
18689.533345164215
 10
177.045225678392
 20
18689.533345164215
 10
178.73367100502514
 20
18689.533345164215
 10
178.89447341708546
 20
18689.533345164215
 10
179.05527582914576
 20
18689.533345164215
 10
180.74372115577893
 20
18689.533345164215
 10
180.90452356783922
 20
18689.533345164215
 10
181.06532597989954
 20
18689.533345164215
 10
182.75377130653268
 20
18689.533345164215
 10
182.914573718593
 20
18689.533345164215
 10
183.0753761306533
 20
18689.533345164215
 10
184.76382145728647
 20
18689.533345164215
 10
184.92462386934676
 20
18689.533345164215
 10
185.08542628140708
 20
18689.533345164215
 10
186.77387160804022
 20
18689.533345164215
 10
186.93467402010054
 20
18689.533345164215
 10
187.09547643216084
 20
18689.533345164215
 10
188.783921758794
 20
18689.533345164215
 10
188.9447241708543
 20
18689.533345164215
 10
189.10552658291462
 20
18689.533345164215
 10
190.79397190954776
 20
18689.533345164215
 10
190.95477432160808
 20
18689.533345164215
 10
191.11557673366838
 20
18689.533345164215
 10
192.80402206030155
 20
18689.533345164215
 10
192.96482447236184
 20
18689.533345164215
 10
193.12562688442213
 20
18689.533345164215
 10
194.8140722110553
 20
18689.533345164215
 10
194.9748746231156
 20
18689.533345164215
 10
195.13567703517592
 20
18689.533345164215
 10
196.82412236180906
 20
18689.533345164215
 10
196.98492477386938
 20
18689.533345164215
 10
197.14572718592967
 20
18689.533345164215
 10
198.83417251256284
 20
18689.533345164215
 10
198.99497492462314
 20
18689.533345164215
 10
199.15577733668346
 20
18689.533345164215
 10
200.8442226633166
 20
18689.533345164215
 10
201.00502507537692
 20
18689.533345164215
 10
201.1658274874372
 20
18689.533345164215
 10
202.85427281407038
 20
18689.533345164215
 10
203.01507522613068
 20
18689.533345164215
 10
203.175877638191
 20
18689.533345164215
 10
204.86432296482414
 20
18689.533345164215
 10
205.02512537688446
 20
18689.533345164215
 10
205.18592778894475
 20
18689.533345164215
 10
206.87437311557792
 20
18689.533345164215
 10
207.03517552763822
 20
18689.533345164215
 10
207.19597793969854
 20
18689.533345164215
 10
208.88442326633168
 20
18689.533345164215
 10
209.045225678392
 20
18689.533345164215
 10
209.2060280904523
 20
18689.533345164215
 10
210.89447341708546
 20
18689.533345164215
 10
211.05527582914576
 20
18689.533345164215
 10
211.21607824120608
 20
18689.533345164215
 10
212.90452356783922
 20
18689.533345164215
 10
213.06532597989954
 20
18689.533345164215
 10
213.22612839195983
 20
18689.533345164215
 10
214.914573718593
 20
18689.533345164215
 10
215.0753761306533
 20
18689.533345164215
 10
215.23617854271362
 20
18689.533345164215
 10
216.92462386934676
 20
18689.533345164215
 10
217.08542628140708
 20
18689.533345164215
 10
217.24622869346737
 20
18689.533345164215
 10
218.93467402010054
 20
18689.533345164215
 10
219.09547643216084
 20
18689.533345164215
 10
219.25627884422116
 20
18689.533345164215
 10
220.9447241708543
 20
18689.533345164215
 10
221.10552658291462
 20
18689.533345164215
 10
221.2663289949749
 20
18689.533345164215
 10
222.95477432160808
 20
18689.533345164215
 10
223.11557673366838
 20
18689.533345164215
 10
223.2763791457287
 20
18689.533345164215
 10
224.96482447236184
 20
18689.533345164215
 10
225.12562688442213
 20
18689.533345164215
 10
225.28642929648242
 20
18689.533345164215
 10
226.9748746231156
 20
18689.533345164215
 10
227.13567703517592
 20
18689.533345164215
 10
227.2964794472362
 20
18689.533345164215
 10
228.98492477386938
 20
18689.533345164215
 10
229.14572718592967
 20
18689.533345164215
 10
229.30652959798994
 20
18689.533345164215
 10
230.99497492462314
 20
18689.533345164215
 10
231.15577733668346
 20
18689.533345164215
 10
231.31657974874372
 20
18689.533345164215
 10
233.00502507537692
 20
18689.53334516421
 10
233.1658274874372
 20
18689.234689040964
 10
233.3266298994975
 20
18688.93603291772
 10
235.01507522613068
 20
18685.80010647792
 10
235.175877638191
 20
18685.202794231427
 10
235.3366800502513
 20
18684.605481984938
 10
237.02512537688446
 20
18678.333629105324
 10
237.18592778894475
 20
18677.437660735588
 10
237.34673020100502
 20
18676.54169236585
 10
239.03517552763822
 20
18667.133913046437
 10
239.19597793969854
 20
18665.939288553454
 10
239.3567803517588
 20
18664.744664060472
 10
241.045225678392
 20
18652.20095830125
 10
241.2060280904523
 20
18650.707677685026
 10
241.36683050251258
 20
18649.214397068798
 10
243.05527582914576
 20
18633.534764869775
 10
243.21607824120608
 20
18631.742828130304
 10
243.37688065326637
 20
18629.950891390832
 10
245.06532597989954
 20
18611.135332751997
 10
245.22612839195983
 20
18609.04473988928
 10
245.3869308040201
 20
18606.95414702656
 10
247.0753761306533
 20
18585.002661947925
 10
247.23617854271362
 20
18582.613412961964
 10
247.39698095477388
 20
18580.224163976
 10
249.08542628140708
 20
18555.136752457565
 10
249.24622869346737
 20
18552.448847348358
 10
249.40703110552766
 20
18549.760942239147
 10
251.09547643216084
 20
18521.537604280897
 10
251.25627884422116
 20
18518.55104304844
 10
251.41708125628145
 20
18515.56448181599
 10
253.10552658291462
 20
18484.20521741794
 10
253.2663289949749
 20
18480.92000006224
 10
253.42713140703518
 20
18477.63478270654
 10
255.11557673366838
 20
18443.139591868687
 10
255.2763791457287
 20
18439.55571838974
 10
255.43718155778896
 20
18435.971844910797
 10
257.1256268844221
 20
18398.340727633135
 10
257.2864292964824
 20
18394.458198030945
 10
257.44723170854274
 20
18390.57566842875
 10
259.13567703517595
 20
18349.80862471129
 10
259.2964794472362
 20
18345.627438985855
 10
259.4572818592965
 20
18341.44625326042
 10
261.1457271859297
 20
18297.543283103154
 10
261.30652959798994
 20
18293.06344125447
 10
261.46733201005026
 20
18288.58359940579
 10
263.15577733668346
 20
18241.54470280871
 10
263.3165797487437
 20
18236.766204836782
 10
263.47738216080404
 20
18231.987706864857
 10
265.16582748743724
 20
18181.81288382798
 10
265.3266298994975
 20
18176.735729732805
 10
265.4874323115578
 20
18171.658575637633
 10
267.17587763819097
 20
18118.347826160956
 10
267.3366800502513
 20
18112.972015942534
 10
267.49748246231155
 20
18107.596205724116
 10
269.18592778894475
 20
18051.149529807626
 10
269.346730201005
 20
18045.475063465965
 10
269.50753261306534
 20
18039.800597124296
 10
271.19597793969854
 20
17980.21799476801
 10
271.3567803517588
 20
17974.2448723031
 10
271.5175827638191
 20
17968.27174983819
 10
273.20602809045226
 20
17905.55322104209
 10
273.3668305025126
 20
17899.281442453932
 10
273.5276329145729
 20
17893.009663865774
 10
275.2160782412061
 20
17827.155208629873
 10
275.37688065326637
 20
17820.584773918476
 10
275.53768306532663
 20
17814.014339207075
 10
277.22612839195983
 20
17745.023957531375
 10
277.3869308040201
 20
17738.15486669673
 10
277.5477332160804
 20
17731.28577586208
 10
279.2361785427136
 20
17659.159467746565
 10
279.3969809547739
 20
17651.991720788676
 10
279.5577833668342
 20
17644.823973830782
 10
281.2462286934674
 20
17569.561739275465
 10
281.40703110552766
 20
17562.095336194332
 10
281.567833517588
 20
17554.628933113192
 10
283.25627884422113
 20
17476.230772118077
 10
283.41708125628145
 20
17468.46571291369
 10
283.5778836683417
 20
17460.700653709308
 10
285.2663289949749
 20
17379.166566274384
 10
285.4271314070352
 20
17371.102850946754
 10
285.5879338190955
 20
17363.039135619125
 10
287.2763791457287
 20
17278.3691217444
 10
287.43718155778896
 20
17270.006750293527
 10
287.5979839698493
 20
17261.64437884265
 10
289.2864292964824
 20
17173.838438528113
 10
289.44723170854274
 20
17165.17741095399
 10
289.60803412060307
 20
17156.51638337987
 10
291.2964794472362
 20
17065.574516625526
 10
291.4572818592965
 20
17056.614832928164
 10
291.6180842713568
 20
17047.6551492308
 10
293.30652959798994
 20
16953.57735603666
 10
293.46733201005026
 20
16944.31901621605
 10
293.6281344221106
 20
16935.06067639544
 10
295.3165797487437
 20
16837.84695676149
 10
295.47738216080404
 20
16828.28996081763
 10
295.63818457286436
 20
16818.732964873776
 10
297.3266298994975
 20
16718.383318800024
 10
297.4874323115578
 20
16708.52766673292
 10
297.6482347236181
 20
16698.67201466582
 10
299.3366800502513
 20
16595.186442152262
 10
299.49748246231155
 20
16585.03213396192
 10
299.6582848743719
 20
16574.877825771568
 10
301.346730201005
 20
16468.256326818202
 10
301.50753261306534
 20
16457.80336250461
 10
301.66833502512566
 20
16447.350398191018
 10
303.3567803517588
 20
16337.592972797855
 10
303.5175827638191
 20
16326.841352361014
 10
303.67838517587944
 20
16316.089731924176
 10
305.3668305025126
 20
16203.196380091202
 10
305.5276329145729
 20
16192.146103531117
 10
305.68843532663317
 20
16181.095826971035
 10
307.37688065326637
 20
16065.066548698256
 10
307.53768306532663
 20
16053.71761601493
 10
307.69848547738695
 20
16042.368683331597
 10
309.3869308040201
 20
15923.20347861901
 10
309.5477332160804
 20
15911.555889812436
 10
309.70853562814074
 20
15899.90830100586
 10
311.3969809547739
 20
15777.607169853483
 10
311.5577833668342
 20
15765.66092492366
 10
311.7185857788945
 20
15753.714679993838
 10
313.40703110552766
 20
15628.277622401645
 10
313.567833517588
 20
15616.032721348578
 10
313.72863592964825
 20
15603.787820295513
 10
315.41708125628145
 20
15475.214836263514
 10
315.5778836683417
 20
15462.671279087206
 10
315.73868608040203
 20
15450.127721910892
 10
317.4271314070352
 20
15318.4188114391
 10
317.5879338190955
 20
15305.57659813954
 10
317.7487362311558
 20
15292.73438483998
 10
319.43718155778896
 20
15157.889547928376
 10
319.5979839698493
 20
15144.74867850557
 10
319.7587863819096
 20
15131.607809082767
 10
321.44723170854274
 20
14993.627045731353
 10
321.60803412060307
 20
14980.187520185304
 10
321.76883653266333
 20
14966.74799463926
 10
323.4572818592965
 20
14825.631304848052
 10
323.6180842713568
 20
14811.893123178756
 10
323.7788866834171
 20
14798.154941509461
 10
325.46733201005026
 20
14653.902325278441
 10
325.6281344221106
 20
14639.8654874859
 10
325.7889368341709
 20
14625.828649693358
 10
327.47738216080404
 20
14478.440107022532
 10
327.63818457286436
 20
14464.104613106747
 10
327.7989869849246
 20
14449.769119190965
 10
329.4874323115578
 20
14299.24465008034
 10
329.6482347236181
 20
14284.610500041314
 10
329.8090371356784
 20
14269.97635000228
 10
331.49748246231155
 20
14116.31595445185
 10
331.6582848743719
 20
14101.383148289571
 10
331.8190872864322
 20
14086.450342127291
 10
333.50753261306534
 20
13929.654020137048
 10
333.66833502512566
 20
13914.422557851525
 10
333.829137437186
 20
13899.191095566004
 10
335.5175827638191
 20
13739.258847135969
 10
335.67838517587944
 20
13723.7287287272
 10
335.8391875879397
 20
13708.198610318437
 10
337.5276329145729
 20
13545.130435448586
 10
337.68843532663317
 20
13529.301660916577
 10
337.8492377386935
 20
13513.472886384561
 10
339.53768306532663
 20
13347.26878507491
 10
339.69848547738695
 20
13331.14135441965
 10
339.8592878894473
 20
13315.01392376439
 10
341.5477332160804
 20
13145.673896014938
 10
341.70853562814074
 20
13129.247809236433
 10
341.86933804020106
 20
13112.821722457926
 10
343.5577833668342
 20
12940.345768268659
 10
343.7185857788945
 20
12923.621025366907
 10
343.8793881909548
 20
12906.89628246516
 10
345.567833517588
 20
12731.284401836085
 10
345.72863592964825
 20
12714.261002811096
 10
345.88943834170857
 20
12697.2376037861
 10
347.5778836683417
 20
12518.48979671725
 10
347.73868608040203
 20
12501.167741569005
 10
347.89948849246235
 20
12483.845686420762
 10
349.5879338190955
 20
12301.961952912077
 10
349.7487362311558
 20
12284.34124164059
 10
349.90953864321614
 20
12266.720530369103
 10
351.5979839698493
 20
12081.700870420624
 10
351.7587863819096
 20
12063.78150302589
 10
351.91958879396987
 20
12045.862135631163
 10
353.60803412060307
 20
11857.706549242874
 10
353.76883653266333
 20
11839.488525724903
 10
353.92963894472365
 20
11821.270502206922
 10
355.6180842713568
 20
11629.978989378833
 10
355.7788866834171
 20
11611.462309737608
 10
355.93968909547743
 20
11592.945630096383
 10
357.6281344221106
 20
11398.518190828487
 10
357.7889368341709
 20
11379.702855064017
 10
357.94973924623116
 20
11360.887519299555
 10
359.63818457286436
 20
11163.324153591857
 10
359.7989869849246
 20
11144.210161704148
 10
359.95978939698495
 20
11125.096169816432
 10
361.6482347236181
 20
10924.396877668933
 10
361.8090371356784
 20
10904.984229657972
 10
361.96983954773873
 20
10885.57158164701
 10
363.6582848743719
 20
10681.736363059696
 10
363.8190872864322
 20
10662.025058925488
 10
363.9798896984925
 20
10642.313754791283
 10
365.66833502512566
 20
10435.342609764173
 10
365.829137437186
 20
10415.332649506721
 10
365.98993984924624
 20
10395.322689249275
 10
367.67838517587944
 20
10185.215617782349
 10
367.8391875879397
 20
10164.907001401658
 10
367.99999
 20
10144.59838502096
 10
369.68843532663317
 20
9931.35538711424
 10
369.8492377386935
 20
9910.748114610298
 10
371.69848547738695
 20
9673.761917759837
 10
371.8592878894473
 20
9652.855989132648
 10
373.70853562814074
 20
9412.43520971912
 10
373.86933804020106
 20
9391.230624968686
 10
375.7185857788945
 20
9147.37526299212
 10
375.8793881909548
 20
9125.872022118447
 10
377.72863592964825
 20
8878.582077578825
 10
377.88943834170857
 20
8856.7801805819
 10
379.73868608040203
 20
8606.055653479229
 10
379.89948849246235
 20
8583.955100359057
 10
381.7487362311558
 20
8329.795990693336
 10
381.90953864321614
 20
8307.39678144992
 10
383.7587863819096
 20
8049.80308922115
 10
383.91958879396987
 20
8027.105223854495
 10
385.76883653266333
 20
7766.076949062671
 10
385.92963894472365
 20
7743.080427572762
 10
387.7788866834171
 20
7478.617570217887
 10
387.93968909547743
 20
7455.322392604734
 10
389.7889368341709
 20
7187.424952686821
 10
389.94973924623116
 20
7163.831118950429
 10
391.7989869849246
 20
6892.49909646945
 10
391.95978939698495
 20
6868.606606609805
 10
393.8090371356784
 20
6593.840001565775
 10
393.96983954773873
 20
6569.6488555828855
 10
395.8190872864322
 20
6291.447667975826
 10
395.9798896984925
 20
6266.95786586969
 10
397.829137437186
 20
5985.322095699565
 10
397.98993984924624
 20
5960.533637470192
 10
399.8391875879397
 20
5675.4632847370185
 10
399.99999
 20
5650.376170384392
 10
401.8492377386935
 20
5361.871235088169
 10
403.8592878894473
 20
5044.5459467530245
 10
405.86933804020106
 20
4723.487419731588
 10
407.8793881909548
 20
4398.695654023856
 10
409.88943834170857
 20
4070.1706496298107
 10
411.89948849246235
 20
3737.912406549492
 10
413.90953864321614
 20
3401.9209247828694
 10
415.91958879396987
 20
3062.1962043299427
 10
417.92963894472365
 20
2718.7382451907424
 10
419.93968909547743
 20
2371.547047365218
 10
421.94973924623116
 20
2020.6226108534304
 10
423.95978939698495
 20
1665.9649356553184
 10
425.96983954773873
 20
1307.5740217709229
 10
427.9798896984925
 20
945.4498692002235
 10
429.98993984924624
 20
579.5924779432505
 10
431.99999
 20
210.00184799995333
  0
LWPOLYLINE
  5
55
330
17
100
AcDbEntity
  8
0
100
AcDbPolyline
 90
5
 70
0
 43
0.0
 10
0.0
 20
210.0
 10
1.0
 20
210.0
 10
1.0
 20
211.0
 10
0.0
 20
211.0
 10
0.0
 20
210.0
  0
LWPOLYLINE
  5
56
330
17
100
AcDbEntity
  8
0
100
AcDbPolyline
 90
200
 70
0
 43
0.0
 10
1e-05
 20
18924.333335924213
 10
2.010060150753769
 20
18922.47604958492
 10
4.020110301507538
 20
18920.61876324562
 10
6.030160452261307
 20
18918.761476906326
 10
8.040210603015076
 20
18916.904190567027
 10
10.050260753768846
 20
18915.046904227733
 10
12.060310904522614
 20
18913.189617888434
 10
14.070361055276383
 20
18911.33233154914
 10
16.080411206030153
 20
18909.47504520984
 10
18.090461356783923
 20
18907.617758870547
 10
20.100511507537693
 20
18905.76047253125
 10
22.11056165829146
 20
18903.903186191954
 10
24.12061180904523
 20
18902.045899852656
 10
26.130661959799
 20
18900.18861351336
 10
28.140712110552766
 20
18898.331327174063
 10
30.150762261306536
 20
18896.474040834768
 10
32.16081241206031
 20
18894.61675449547
 10
34.17086256281408
 20
18892.759468156175
 10
36.18091271356785
 20
18890.902181816877
 10
38.19096286432162
 20
18889.044895477582
 10
40.20101301507539
 20
18887.187609138284
 10
42.21106316582915
 20
18885.33032279899
 10
44.22111331658292
 20
18883.47303645969
 10
46.23116346733669
 20
18881.615750120396
 10
48.24121361809046
 20
18879.758463781098
 10
50.25126376884423
 20
18877.901177441803
 10
52.261313919598
 20
18876.043891102505
 10
54.27136407035177
 20
18874.18660476321
 10
56.281414221105535
 20
18872.329318423912
 10
58.291464371859306
 20
18870.472032084617
 10
60.301514522613076
 20
18868.61474574532
 10
62.311564673366846
 20
18866.757459406024
 10
64.32161482412062
 20
18864.900173066726
 10
66.33166497487439
 20
18863.04288672743
 10
68.34171512562816
 20
18861.185600388133
 10
70.35176527638193
 20
18859.32831404884
 10
72.3618154271357
 20
18857.47102770954
 10
74.37186557788947
 20
18855.613741370245
 10
76.38191572864324
 20
18853.756455030947
 10
78.391965879397
 20
18851.899168691652
 10
80.40201603015078
 20
18850.041882352354
 10
82.41206618090453
 20
18848.18459601306
 10
84.4221163316583
 20
18846.32730967376
 10
86.43216648241207
 20
18844.470023334467
 10
88.44221663316584
 20
18842.61273699517
 10
90.45226678391961
 20
18840.755450655874
 10
92.46231693467338
 20
18838.898164316575
 10
94.47236708542715
 20
18837.04087797728
 10
96.48241723618092
 20
18835.183591637982
 10
98.49246738693469
 20
18833.326305298688
 10
100.50251753768846
 20
18831.46901895939
 10
102.51256768844223
 20
18829.611732620095
 10
104.522617839196
 20
18827.754446280796
 10
106.53266798994977
 20
18825.8971599415
 10
108.54271814070354
 20
18824.039873602203
 10
110.55276829145731
 20
18822.18258726291
 10
112.56281844221107
 20
18820.32530092361
 10
114.57286859296484
 20
18818.468014584316
 10
116.58291874371861
 20
18816.610728245018
 10
118.59296889447238
 20
18814.753441905723
 10
120.60301904522615
 20
18812.896155566425
 10
122.61306919597992
 20
18811.03886922713
 10
124.62311934673369
 20
18809.18158288783
 10
126.63316949748746
 20
18807.324296548537
 10
128.64321964824123
 20
18805.46701020924
 10
130.65326979899498
 20
18803.609723869944
 10
132.66331994974877
 20
18801.752437530646
 10
134.67337010050252
 20
18799.89515119135
 10
136.6834202512563
 20
18798.037864852053
 10
138.69347040201006
 20
18796.180578512758
 10
140.70352055276385
 20
18794.32329217346
 10
142.7135707035176
 20
18792.466005834165
 10
144.7236208542714
 20
18790.608719494867
 10
146.73367100502514
 20
18788.751433155572
 10
148.74372115577893
 20
18786.894146816274
 10
150.75377130653268
 20
18785.03686047698
 10
152.76382145728647
 20
18783.17957413768
 10
154.77387160804022
 20
18781.322287798386
 10
156.783921758794
 20
18779.465001459088
 10
158.79397190954776
 20
18777.607715119793
 10
160.80402206030155
 20
18775.750428780495
 10
162.8140722110553
 20
18773.8931424412
 10
164.82412236180906
 20
18772.035856101902
 10
166.83417251256284
 20
18770.178569762607
 10
168.8442226633166
 20
18768.32128342331
 10
170.85427281407038
 20
18766.463997084014
 10
172.86432296482414
 20
18764.606710744716
 10
174.87437311557792
 20
18762.74942440542
 10
176.88442326633168
 20
18760.892138066123
 10
178.89447341708546
 20
18759.03485172683
 10
180.90452356783922
 20
18757.17756538753
 10
182.914573718593
 20
18755.320279048236
 10
184.92462386934676
 20
18753.462992708937
 10
186.93467402010054
 20
18751.605706369643
 10
188.9447241708543
 20
18749.748420030344
 10
190.95477432160808
 20
18747.89113369105
 10
192.96482447236184
 20
18746.03384735175
 10
194.9748746231156
 20
18744.176561012457
 10
196.98492477386938
 20
18742.31927467316
 10
198.99497492462314
 20
18740.461988333864
 10
201.00502507537692
 20
18738.604701994565
 10
203.01507522613068
 20
18736.74741565527
 10
205.02512537688446
 20
18734.890129315972
 10
207.03517552763822
 20
18733.032842976678
 10
209.045225678392
 20
18731.17555663738
 10
211.05527582914576
 20
18729.318270298085
 10
213.06532597989954
 20
18727.460983958787
 10
215.0753761306533
 20
18725.603697619492
 10
217.08542628140708
 20
18723.746411280194
 10
219.09547643216084
 20
18721.8891249409
 10
221.10552658291462
 20
18720.0318386016
 10
223.11557673366838
 20
18718.174552262306
 10
225.12562688442213
 20
18716.317265923008
 10
227.13567703517592
 20
18714.459979583713
 10
229.14572718592967
 20
18712.602693244415
 10
231.15577733668346
 20
18710.74540690512
 10
233.1658274874372
 20
18708.88812056582
 10
235.175877638191
 20
18707.030834226527
 10
237.18592778894475
 20
18705.17354788723
 10
239.19597793969854
 20
18703.316261547934
 10
241.2060280904523
 20
18701.458975208636
 10
243.21607824120608
 20
18699.60168886934
 10
245.22612839195983
 20
18697.744402530043
 10
247.23617854271362
 20
18695.88711619075
 10
249.24622869346737
 20
18694.02982985145
 10
251.25627884422116
 20
18692.172543512155
 10
253.2663289949749
 20
18690.315257172857
 10
255.2763791457287
 20
18688.457970833562
 10
257.2864292964824
 20
18686.600684494264
 10
259.2964794472362
 20
18684.74339815497
 10
261.30652959798994
 20
18682.88611181567
 10
263.3165797487437
 20
18681.028825476376
 10
265.3266298994975
 20
18679.171539137078
 10
267.3366800502513
 20
18677.314252797783
 10
269.346730201005
 20
18675.456966458485
 10
271.3567803517588
 20
18673.59968011919
 10
273.3668305025126
 20
18671.742393779892
 10
275.37688065326637
 20
18669.885107440597
 10
277.3869308040201
 20
18668.0278211013
 10
279.3969809547739
 20
18666.170534762005
 10
281.40703110552766
 20
18664.313248422706
 10
283.41708125628145
 20
18662.45596208341
 10
285.4271314070352
 20
18660.598675744113
 10
287.43718155778896
 20
18658.74138940482
 10
289.44723170854274
 20
18656.88410306552
 10
291.4572818592965
 20
18655.026816726226
 10
293.46733201005026
 20
18653.169530386927
 10
295.47738216080404
 20
18651.312244047633
 10
297.4874323115578
 20
18649.454957708334
 10
299.49748246231155
 20
18647.59767136904
 10
301.50753261306534
 20
18645.74038502974
 10
303.5175827638191
 20
18643.883098690447
 10
305.5276329145729
 20
18642.02581235115
 10
307.53768306532663
 20
18640.168526011854
 10
309.5477332160804
 20
18638.311239672556
 10
311.5577833668342
 20
18636.45395333326
 10
313.567833517588
 20
18634.596666993963
 10
315.5778836683417
 20
18632.739380654668
 10
317.5879338190955
 20
18630.88209431537
 10
319.5979839698493
 20
18629.024807976075
 10
321.60803412060307
 20
18627.167521636777
 10
323.6180842713568
 20
18625.310235297482
 10
325.6281344221106
 20
18623.452948958184
 10
327.63818457286436
 20
18621.59566261889
 10
329.6482347236181
 20
18619.73837627959
 10
331.6582848743719
 20
18617.881089940296
 10
333.66833502512566
 20
18616.023803600998
 10
335.67838517587944
 20
18614.166517261703
 10
337.68843532663317
 20
18612.309230922405
 10
339.69848547738695
 20
18610.45194458311
 10
341.70853562814074
 20
18608.594658243812
 10
343.7185857788945
 20
18606.737371904517
 10
345.72863592964825
 20
18604.88008556522
 10
347.73868608040203
 20
18603.022799225924
 10
349.7487362311558
 20
18601.165512886626
 10
351.7587863819096
 20
18599.30822654733
 10
353.76883653266333
 20
18597.450940208033
 10
355.7788866834171
 20
18595.59365386874
 10
357.7889368341709
 20
18593.73636752944
 10
359.7989869849246
 20
18591.879081190145
 10
361.8090371356784
 20
18590.021794850847
 10
363.8190872864322
 20
18588.164508511552
 10
365.829137437186
 20
18586.307222172254
 10
367.8391875879397
 20
18584.44993583296
 10
369.8492377386935
 20
18582.59264949366
 10
371.8592878894473
 20
18580.735363154366
 10
373.86933804020106
 20
18578.87807681507
 10
375.8793881909548
 20
18577.020790475774
 10
377.88943834170857
 20
18575.163504136475
 10
379.89948849246235
 20
18573.30621779718
 10
381.90953864321614
 20
18571.448931457882
 10
383.91958879396987
 20
18569.591645118588
 10
385.92963894472365
 20
18567.73435877929
 10
387.93968909547743
 20
18565.877072439995
 10
389.94973924623116
 20
18564.019786100696
 10
391.95978939698495
 20
18562.1624997614
 10
393.96983954773873
 20
18560.305213422103
 10
395.9798896984925
 20
18558.44792708281
 10
397.98993984924624
 20
18556.59064074351
 10
399.99999
 20
18554.733354404216
  0
LWPOLYLINE
  5
57
330
17
100
AcDbEntity
  8
0
100
AcDbPolyline
 90
5
 70
0
 43
0.0
 10
0.0
 20
18739.533345164215
 10
1.0
 20
18739.533345164215
 10
1.0
 20
18740.533345164215
 10
0.0
 20
18740.533345164215
 10
0.0
 20
18739.533345164215
  0
LWPOLYLINE
  5
58
330
17
100
AcDbEntity
  8
0
100
AcDbPolyline
 90
2
 70
0
 43
0.0
 10
480.0
 20
0.0
 10
480.0
 20
0.0
  0
LWPOLYLINE
  5
59
330
17
100
AcDbEntity
  8
0
100
AcDbPolyline
 90
100
 70
0
 43
0.0
 10
495.0
 20
0.0
 10
495.0
 20
0.8080808080808081
 10
495.0
 20
1.6161616161616161
 10
495.0
 20
2.4242424242424243
 10
495.0
 20
3.2323232323232323
 10
495.0
 20
4.040404040404041
 10
495.0
 20
4.848484848484849
 10
495.0
 20
5.656565656565657
 10
495.0
 20
6.4646464646464645
 10
495.0
 20
7.2727272727272725
 10
495.0
 20
8.080808080808081
 10
495.0
 20
8.88888888888889
 10
495.0
 20
9.696969696969697
 10
495.0
 20
10.505050505050505
 10
495.0
 20
11.313131313131313
 10
495.0
 20
12.121212121212121
 10
495.0
 20
12.929292929292929
 10
495.0
 20
13.737373737373737
 10
495.0
 20
14.545454545454545
 10
495.0
 20
15.353535353535353
 10
495.0
 20
16.161616161616163
 10
495.0
 20
16.96969696969697
 10
495.0
 20
17.77777777777778
 10
495.0
 20
18.585858585858585
 10
495.0
 20
19.393939393939394
 10
495.0
 20
20.2020202020202
 10
495.0
 20
21.01010101010101
 10
495.0
 20
21.818181818181817
 10
495.0
 20
22.626262626262626
 10
495.0
 20
23.434343434343432
 10
495.0
 20
24.242424242424242
 10
495.0
 20
25.05050505050505
 10
495.0
 20
25.858585858585858
 10
495.0
 20
26.666666666666668
 10
495.0
 20
27.474747474747474
 10
495.0
 20
28.282828282828284
 10
495.0
 20
29.09090909090909
 10
495.0
 20
29.8989898989899
 10
495.0
 20
30.707070707070706
 10
495.0
 20
31.515151515151516
 10
495.0
 20
32.323232323232325
 10
495.0
 20
33.13131313131313
 10
495.0
 20
33.93939393939394
 10
495.0
 20
34.74747474747475
 10
495.0
 20
35.55555555555556
 10
495.0
 20
36.36363636363636
 10
495.0
 20
37.17171717171717
 10
495.0
 20
37.97979797979798
 10
495.0
 20
38.78787878787879
 10
495.0
 20
39.5959595959596
 10
495.0
 20
40.4040404040404
 10
495.0
 20
41.21212121212121
 10
495.0
 20
42.02020202020202
 10
495.0
 20
42.82828282828283
 10
495.0
 20
43.63636363636363
 10
495.0
 20
44.44444444444444
 10
495.0
 20
45.25252525252525
 10
495.0
 20
46.06060606060606
 10
495.0
 20
46.868686868686865
 10
495.0
 20
47.676767676767675
 10
495.0
 20
48.484848484848484
 10
495.0
 20
49.292929292929294
 10
495.0
 20
50.1010101010101
 10
495.0
 20
50.90909090909091
 10
495.0
 20
51.717171717171716
 10
495.0
 20
52.525252525252526
 10
495.0
 20
53.333333333333336
 10
495.0
 20
54.14141414141414
 10
495.0
 20
54.94949494949495
 10
495.0
 20
55.75757575757576
 10
495.0
 20
56.56565656565657
 10
495.0
 20
57.37373737373737
 10
495.0
 20
58.18181818181818
 10
495.0
 20
58.98989898989899
 10
495.0
 20
59.7979797979798
 10
495.0
 20
60.6060606060606
 10
495.0
 20
61.41414141414141
 10
495.0
 20
62.22222222222222
 10
495.0
 20
63.03030303030303
 10
495.0
 20
63.838383838383834
 10
495.0
 20
64.64646464646465
 10
495.0
 20
65.45454545454545
 10
495.0
 20
66.26262626262626
 10
495.0
 20
67.07070707070707
 10
495.0
 20
67.87878787878788
 10
495.0
 20
68.68686868686869
 10
495.0
 20
69.4949494949495
 10
495.0
 20
70.3030303030303
 10
495.0
 20
71.11111111111111
 10
495.0
 20
71.91919191919192
 10
495.0
 20
72.72727272727272
 10
495.0
 20
73.53535353535354
 10
495.0
 20
74.34343434343434
 10
495.0
 20
75.15151515151516
 10
495.0
 20
75.95959595959596
 10
495.0
 20
76.76767676767676
 10
495.0
 20
77.57575757575758
 10
495.0
 20
78.38383838383838
 10
495.0
 20
79.1919191919192
 10
495.0
 20
80.0
  0
LWPOLYLINE
  5
5A
330
17
100
AcDbEntity
  8
0
100
AcDbPolyline
 90
100
 70
0
 43
0.0
 10
465.0
 20
0.0
 10
465.0
 20
0.8080808080808081
 10
465.0
 20
1.6161616161616161
 10
465.0
 20
2.4242424242424243
 10
465.0
 20
3.2323232323232323
 10
465.0
 20
4.040404040404041
 10
465.0
 20
4.848484848484849
 10
465.0
 20
5.656565656565657
 10
465.0
 20
6.4646464646464645
 10
465.0
 20
7.2727272727272725
 10
465.0
 20
8.080808080808081
 10
465.0
 20
8.88888888888889
 10
465.0
 20
9.696969696969697
 10
465.0
 20
10.505050505050505
 10
465.0
 20
11.313131313131313
 10
465.0
 20
12.121212121212121
 10
465.0
 20
12.929292929292929
 10
465.0
 20
13.737373737373737
 10
465.0
 20
14.545454545454545
 10
465.0
 20
15.353535353535353
 10
465.0
 20
16.161616161616163
 10
465.0
 20
16.96969696969697
 10
465.0
 20
17.77777777777778
 10
465.0
 20
18.585858585858585
 10
465.0
 20
19.393939393939394
 10
465.0
 20
20.2020202020202
 10
465.0
 20
21.01010101010101
 10
465.0
 20
21.818181818181817
 10
465.0
 20
22.626262626262626
 10
465.0
 20
23.434343434343432
 10
465.0
 20
24.242424242424242
 10
465.0
 20
25.05050505050505
 10
465.0
 20
25.858585858585858
 10
465.0
 20
26.666666666666668
 10
465.0
 20
27.474747474747474
 10
465.0
 20
28.282828282828284
 10
465.0
 20
29.09090909090909
 10
465.0
 20
29.8989898989899
 10
465.0
 20
30.707070707070706
 10
465.0
 20
31.515151515151516
 10
465.0
 20
32.323232323232325
 10
465.0
 20
33.13131313131313
 10
465.0
 20
33.93939393939394
 10
465.0
 20
34.74747474747475
 10
465.0
 20
35.55555555555556
 10
465.0
 20
36.36363636363636
 10
465.0
 20
37.17171717171717
 10
465.0
 20
37.97979797979798
 10
465.0
 20
38.78787878787879
 10
465.0
 20
39.5959595959596
 10
465.0
 20
40.4040404040404
 10
465.0
 20
41.21212121212121
 10
465.0
 20
42.02020202020202
 10
465.0
 20
42.82828282828283
 10
465.0
 20
43.63636363636363
 10
465.0
 20
44.44444444444444
 10
465.0
 20
45.25252525252525
 10
465.0
 20
46.06060606060606
 10
465.0
 20
46.868686868686865
 10
465.0
 20
47.676767676767675
 10
465.0
 20
48.484848484848484
 10
465.0
 20
49.292929292929294
 10
465.0
 20
50.1010101010101
 10
465.0
 20
50.90909090909091
 10
465.0
 20
51.717171717171716
 10
465.0
 20
52.525252525252526
 10
465.0
 20
53.333333333333336
 10
465.0
 20
54.14141414141414
 10
465.0
 20
54.94949494949495
 10
465.0
 20
55.75757575757576
 10
465.0
 20
56.56565656565657
 10
465.0
 20
57.37373737373737
 10
465.0
 20
58.18181818181818
 10
465.0
 20
58.98989898989899
 10
465.0
 20
59.7979797979798
 10
465.0
 20
60.6060606060606
 10
465.0
 20
61.41414141414141
 10
465.0
 20
62.22222222222222
 10
465.0
 20
63.03030303030303
 10
465.0
 20
63.838383838383834
 10
465.0
 20
64.64646464646465
 10
465.0
 20
65.45454545454545
 10
465.0
 20
66.26262626262626
 10
465.0
 20
67.07070707070707
 10
465.0
 20
67.87878787878788
 10
465.0
 20
68.68686868686869
 10
465.0
 20
69.4949494949495
 10
465.0
 20
70.3030303030303
 10
465.0
 20
71.11111111111111
 10
465.0
 20
71.91919191919192
 10
465.0
 20
72.72727272727272
 10
465.0
 20
73.53535353535354
 10
465.0
 20
74.34343434343434
 10
465.0
 20
75.15151515151516
 10
465.0
 20
75.95959595959596
 10
465.0
 20
76.76767676767676
 10
465.0
 20
77.57575757575758
 10
465.0
 20
78.38383838383838
 10
465.0
 20
79.1919191919192
 10
465.0
 20
80.0
  0
LWPOLYLINE
  5
5B
330
17
100
AcDbEntity
  8
0
100
AcDbPolyline
 90
100
 70
0
 43
0.0
 10
465.0
 20
0.0
 10
465.3030303030303
 20
0.0
 10
465.6060606060606
 20
0.0
 10
465.90909090909093
 20
0.0
 10
466.2121212121212
 20
0.0
 10
466.5151515151515
 20
0.0
 10
466.8181818181818
 20
0.0
 10
467.1212121212121
 20
0.0
 10
467.42424242424244
 20
0.0
 10
467.72727272727275
 20
0.0
 10
468.030303030303
 20
0.0
 10
468.3333333333333
 20
0.0
 10
468.6363636363636
 20
0.0
 10
468.93939393939394
 20
0.0
 10
469.24242424242425
 20
0.0
 10
469.54545454545456
 20
0.0
 10
469.8484848484849
 20
0.0
 10
470.1515151515151
 20
0.0
 10
470.45454545454544
 20
0.0
 10
470.75757575757575
 20
0.0
 10
471.06060606060606
 20
0.0
 10
471.3636363636364
 20
0.0
 10
471.6666666666667
 20
0.0
 10
471.969696969697
 20
0.0
 10
472.27272727272725
 20
0.0
 10
472.57575757575756
 20
0.0
 10
472.8787878787879
 20
0.0
 10
473.1818181818182
 20
0.0
 10
473.4848484848485
 20
0.0
 10
473.7878787878788
 20
0.0
 10
474.09090909090907
 20
0.0
 10
474.3939393939394
 20
0.0
 10
474.6969696969697
 20
0.0
 10
475.0
 20
0.0
 10
475.3030303030303
 20
0.0
 10
475.6060606060606
 20
0.0
 10
475.90909090909093
 20
0.0
 10
476.2121212121212
 20
0.0
 10
476.5151515151515
 20
0.0
 10
476.8181818181818
 20
0.0
 10
477.1212121212121
 20
0.0
 10
477.42424242424244
 20
0.0
 10
477.72727272727275
 20
0.0
 10
478.030303030303
 20
0.0
 10
478.3333333333333
 20
0.0
 10
478.6363636363636
 20
0.0
 10
478.93939393939394
 20
0.0
 10
479.24242424242425
 20
0.0
 10
479.54545454545456
 20
0.0
 10
479.8484848484849
 20
0.0
 10
480.1515151515151
 20
0.0
 10
480.45454545454544
 20
0.0
 10
480.75757575757575
 20
0.0
 10
481.06060606060606
 20
0.0
 10
481.3636363636364
 20
0.0
 10
481.6666666666667
 20
0.0
 10
481.969696969697
 20
0.0
 10
482.27272727272725
 20
0.0
 10
482.57575757575756
 20
0.0
 10
482.8787878787879
 20
0.0
 10
483.1818181818182
 20
0.0
 10
483.4848484848485
 20
0.0
 10
483.7878787878788
 20
0.0
 10
484.09090909090907
 20
0.0
 10
484.3939393939394
 20
0.0
 10
484.6969696969697
 20
0.0
 10
485.0
 20
0.0
 10
485.3030303030303
 20
0.0
 10
485.6060606060606
 20
0.0
 10
485.90909090909093
 20
0.0
 10
486.2121212121212
 20
0.0
 10
486.5151515151515
 20
0.0
 10
486.8181818181818
 20
0.0
 10
487.1212121212121
 20
0.0
 10
487.42424242424244
 20
0.0
 10
487.72727272727275
 20
0.0
 10
488.030303030303
 20
0.0
 10
488.3333333333333
 20
0.0
 10
488.6363636363636
 20
0.0
 10
488.93939393939394
 20
0.0
 10
489.24242424242425
 20
0.0
 10
489.54545454545456
 20
0.0
 10
489.8484848484849
 20
0.0
 10
490.1515151515151
 20
0.0
 10
490.45454545454544
 20
0.0
 10
490.75757575757575
 20
0.0
 10
491.06060606060606
 20
0.0
 10
491.3636363636364
 20
0.0
 10
491.6666666666667
 20
0.0
 10
491.969696969697
 20
0.0
 10
492.27272727272725
 20
0.0
 10
492.57575757575756
 20
0.0
 10
492.8787878787879
 20
0.0
 10
493.1818181818182
 20
0.0
 10
493.4848484848485
 20
0.0
 10
493.7878787878788
 20
0.0
 10
494.0909090909091
 20
0.0
 10
494.3939393939394
 20
0.0
 10
494.6969696969697
 20
0.0
 10
495.0
 20
0.0
  0
LWPOLYLINE
  5
5C
330
17
100
AcDbEntity
  8
0
100
AcDbPolyline
 90
100
 70
0
 43
0.0
 10
465.0
 20
80.0
 10
465.3030303030303
 20
80.0
 10
465.6060606060606
 20
80.0
 10
465.90909090909093
 20
80.0
 10
466.2121212121212
 20
80.0
 10
466.5151515151515
 20
80.0
 10
466.8181818181818
 20
80.0
 10
467.1212121212121
 20
80.0
 10
467.42424242424244
 20
80.0
 10
467.72727272727275
 20
80.0
 10
468.030303030303
 20
80.0
 10
468.3333333333333
 20
80.0
 10
468.6363636363636
 20
80.0
 10
468.93939393939394
 20
80.0
 10
469.24242424242425
 20
80.0
 10
469.54545454545456
 20
80.0
 10
469.8484848484849
 20
80.0
 10
470.1515151515151
 20
80.0
 10
470.45454545454544
 20
80.0
 10
470.75757575757575
 20
80.0
 10
471.06060606060606
 20
80.0
 10
471.3636363636364
 20
80.0
 10
471.6666666666667
 20
80.0
 10
471.969696969697
 20
80.0
 10
472.27272727272725
 20
80.0
 10
472.57575757575756
 20
80.0
 10
472.8787878787879
 20
80.0
 10
473.1818181818182
 20
80.0
 10
473.4848484848485
 20
80.0
 10
473.7878787878788
 20
80.0
 10
474.09090909090907
 20
80.0
 10
474.3939393939394
 20
80.0
 10
474.6969696969697
 20
80.0
 10
475.0
 20
80.0
 10
475.3030303030303
 20
80.0
 10
475.6060606060606
 20
80.0
 10
475.90909090909093
 20
80.0
 10
476.2121212121212
 20
80.0
 10
476.5151515151515
 20
80.0
 10
476.8181818181818
 20
80.0
 10
477.1212121212121
 20
80.0
 10
477.42424242424244
 20
80.0
 10
477.72727272727275
 20
80.0
 10
478.030303030303
 20
80.0
 10
478.3333333333333
 20
80.0
 10
478.6363636363636
 20
80.0
 10
478.93939393939394
 20
80.0
 10
479.24242424242425
 20
80.0
 10
479.54545454545456
 20
80.0
 10
479.8484848484849
 20
80.0
 10
480.1515151515151
 20
80.0
 10
480.45454545454544
 20
80.0
 10
480.75757575757575
 20
80.0
 10
481.06060606060606
 20
80.0
 10
481.3636363636364
 20
80.0
 10
481.6666666666667
 20
80.0
 10
481.969696969697
 20
80.0
 10
482.27272727272725
 20
80.0
 10
482.57575757575756
 20
80.0
 10
482.8787878787879
 20
80.0
 10
483.1818181818182
 20
80.0
 10
483.4848484848485
 20
80.0
 10
483.7878787878788
 20
80.0
 10
484.09090909090907
 20
80.0
 10
484.3939393939394
 20
80.0
 10
484.6969696969697
 20
80.0
 10
485.0
 20
80.0
 10
485.3030303030303
 20
80.0
 10
485.6060606060606
 20
80.0
 10
485.90909090909093
 20
80.0
 10
486.2121212121212
 20
80.0
 10
486.5151515151515
 20
80.0
 10
486.8181818181818
 20
80.0
 10
487.1212121212121
 20
80.0
 10
487.42424242424244
 20
80.0
 10
487.72727272727275
 20
80.0
 10
488.030303030303
 20
80.0
 10
488.3333333333333
 20
80.0
 10
488.6363636363636
 20
80.0
 10
488.93939393939394
 20
80.0
 10
489.24242424242425
 20
80.0
 10
489.54545454545456
 20
80.0
 10
489.8484848484849
 20
80.0
 10
490.1515151515151
 20
80.0
 10
490.45454545454544
 20
80.0
 10
490.75757575757575
 20
80.0
 10
491.06060606060606
 20
80.0
 10
491.3636363636364
 20
80.0
 10
491.6666666666667
 20
80.0
 10
491.969696969697
 20
80.0
 10
492.27272727272725
 20
80.0
 10
492.57575757575756
 20
80.0
 10
492.8787878787879
 20
80.0
 10
493.1818181818182
 20
80.0
 10
493.4848484848485
 20
80.0
 10
493.7878787878788
 20
80.0
 10
494.0909090909091
 20
80.0
 10
494.3939393939394
 20
80.0
 10
494.6969696969697
 20
80.0
 10
495.0
 20
80.0
  0
LWPOLYLINE
  5
5D
330
17
100
AcDbEntity
  8
0
100
AcDbPolyline
 90
5
 70
0
 43
0.0
 10
469.0
 20
4.0
 10
469.8
 20
4.0
 10
469.8
 20
76.0
 10
469.0
 20
76.0
 10
469.0
 20
4.0
  0
HATCH
  5
5E
330
17
100
AcDbEntity
  8
0
 62
7
100
AcDbHatch
 10
0.0
 20
0.0
 30
0.0
210
0.0
220
0.0
230
1.0
  2
ANSI31
 70
0
 71
0
 91
1
 92
3
 72
0
 73
1
 93
5
 10
469.0
 20
4.0
 10
469.8
 20
4.0
 10
469.8
 20
76.0
 10
469.0
 20
76.0
 10
469.0
 20
4.0
 97
0
 75
1
 76
1
 52
0.0
 41
0.5
 77
0
 78
1
 53
45.0
 43
0.0
 44
0.0
 45
-1.1314
 46
1.1314
 79
0
 98
0
  0
LWPOLYLINE
  5
5F
330
17
100
AcDbEntity
  8
0
100
AcDbPolyline
 90
5
 70
0
 43
0.0
 10
490.2
 20
4.0
 10
491.0
 20
4.0
 10
491.0
 20
76.0
 10
490.2
 20
76.0
 10
490.2
 20
4.0
  0
HATCH
  5
60
330
17
100
AcDbEntity
  8
0
 62
7
100
AcDbHatch
 10
0.0
 20
0.0
 30
0.0
210
0.0
220
0.0
230
1.0
  2
ANSI31
 70
0
 71
0
 91
1
 92
3
 72
0
 73
1
 93
5
 10
490.2
 20
4.0
 10
491.0
 20
4.0
 10
491.0
 20
76.0
 10
490.2
 20
76.0
 10
490.2
 20
4.0
 97
0
 75
1
 76
1
 52
0.0
 41
0.5
 77
0
 78
1
 53
45.0
 43
0.0
 44
0.0
 45
-1.1314
 46
1.1314
 79
0
 98
0
  0
LWPOLYLINE
  5
61
330
17
100
AcDbEntity
  8
0
100
AcDbPolyline
 90
5
 70
0
 43
0.0
 10
469.8
 20
75.2
 10
490.2
 20
75.2
 10
490.2
 20
76.0
 10
469.8
 20
76.0
 10
469.8
 20
75.2
  0
HATCH
  5
62
330
17
100
AcDbEntity
  8
0
 62
7
100
AcDbHatch
 10
0.0
 20
0.0
 30
0.0
210
0.0
220
0.0
230
1.0
  2
ANSI31
 70
0
 71
0
 91
1
 92
3
 72
0
 73
1
 93
5
 10
469.8
 20
75.2
 10
490.2
 20
75.2
 10
490.2
 20
76.0
 10
469.8
 20
76.0
 10
469.8
 20
75.2
 97
0
 75
1
 76
1
 52
0.0
 41
0.5
 77
0
 78
1
 53
45.0
 43
0.0
 44
0.0
 45
-1.1314
 46
1.1314
 79
0
 98
0
  0
LWPOLYLINE
  5
63
330
17
100
AcDbEntity
  8
0
100
AcDbPolyline
 90
5
 70
0
 43
0.0
 10
469.8
 20
4.0
 10
490.2
 20
4.0
 10
490.2
 20
4.8
 10
469.8
 20
4.8
 10
469.8
 20
4.0
  0
HATCH
  5
64
330
17
100
AcDbEntity
  8
0
 62
7
100
AcDbHatch
 10
0.0
 20
0.0
 30
0.0
210
0.0
220
0.0
230
1.0
  2
ANSI31
 70
0
 71
0
 91
1
 92
3
 72
0
 73
1
 93
5
 10
469.8
 20
4.0
 10
490.2
 20
4.0
 10
490.2
 20
4.8
 10
469.8
 20
4.8
 10
469.8
 20
4.0
 97
0
 75
1
 76
1
 52
0.0
 41
0.5
 77
0
 78
1
 53
45.0
 43
0.0
 44
0.0
 45
-1.1314
 46
1.1314
 79
0
 98
0
  0
LWPOLYLINE
  5
65
330
17
100
AcDbEntity
  8
0
100
AcDbPolyline
 90
5
 70
0
 43
0.0
 10
491.4
 20
75.6
 10
490.83431457505077
 20
76.16568542494923
 10
487.298780669118
 20
72.6301515190165
 10
487.86446609406727
 20
72.06446609406726
 10
491.4
 20
75.6
  0
HATCH
  5
66
330
17
100
AcDbEntity
  8
0
 62
7
100
AcDbHatch
 10
0.0
 20
0.0
 30
0.0
210
0.0
220
0.0
230
1.0
  2
ANSI31
 70
0
 71
0
 91
1
 92
3
 72
0
 73
1
 93
5
 10
491.4
 20
75.6
 10
490.83431457505077
 20
76.16568542494923
 10
487.298780669118
 20
72.6301515190165
 10
487.86446609406727
 20
72.06446609406726
 10
491.4
 20
75.6
 97
0
 75
1
 76
1
 52
135.0
 41
0.5
 77
0
 78
1
 53
45.0
 43
0.0
 44
0.0
 45
-1.1314
 46
1.1314
 79
0
 98
0
  0
CIRCLE
  5
67
330
17
100
AcDbEntity
  8
0
100
AcDbCircle
 10
470.2
 20
5.2
 30
0.0
 40
0.4
  0
CIRCLE
  5
68
330
17
100
AcDbEntity
  8
0
100
AcDbCircle
 10
489.8
 20
5.2
 30
0.0
 40
0.4
  0
CIRCLE
  5
69
330
17
100
AcDbEntity
  8
0
100
AcDbCircle
 10
473.0
 20
5.2
 30
0.0
 40
0.4
  0
CIRCLE
  5
6A
330
17
100
AcDbEntity
  8
0
100
AcDbCircle
 10
487.0
 20
5.2
 30
0.0
 40
0.4
  0
CIRCLE
  5
6B
330
17
100
AcDbEntity
  8
0
100
AcDbCircle
 10
475.8
 20
5.2
 30
0.0
 40
0.4
  0
CIRCLE
  5
6C
330
17
100
AcDbEntity
  8
0
100
AcDbCircle
 10
484.2
 20
5.2
 30
0.0
 40
0.4
  0
CIRCLE
  5
6D
330
17
100
AcDbEntity
  8
0
100
AcDbCircle
 10
478.6
 20
5.2
 30
0.0
 40
0.4
  0
CIRCLE
  5
6E
330
17
100
AcDbEntity
  8
0
100
AcDbCircle
 10
481.4
 20
5.2
 30
0.0
 40
0.4
  0
LWPOLYLINE
  5
6F
330
17
100
AcDbEntity
  8
0
100
AcDbPolyline
 90
5
 70
0
 43
0.0
 10
480.0
 20
0.0
 10
481.0
 20
0.0
 10
481.0
 20
1.0
 10
480.0
 20
1.0
 10
480.0
 20
0.0
  0
LWPOLYLINE
  5
70
330
17
100
AcDbEntity
  8
0
100
AcDbPolyline
 90
2
 70
0
 43
0.0
 10
560.0
 20
0.0
 10
560.0
 20
0.0
  0
LWPOLYLINE
  5
71
330
17
100
AcDbEntity
  8
0
100
AcDbPolyline
 90
100
 70
0
 43
0.0
 10
575.0
 20
0.0
 10
575.0
 20
0.8080808080808081
 10
575.0
 20
1.6161616161616161
 10
575.0
 20
2.4242424242424243
 10
575.0
 20
3.2323232323232323
 10
575.0
 20
4.040404040404041
 10
575.0
 20
4.848484848484849
 10
575.0
 20
5.656565656565657
 10
575.0
 20
6.4646464646464645
 10
575.0
 20
7.2727272727272725
 10
575.0
 20
8.080808080808081
 10
575.0
 20
8.88888888888889
 10
575.0
 20
9.696969696969697
 10
575.0
 20
10.505050505050505
 10
575.0
 20
11.313131313131313
 10
575.0
 20
12.121212121212121
 10
575.0
 20
12.929292929292929
 10
575.0
 20
13.737373737373737
 10
575.0
 20
14.545454545454545
 10
575.0
 20
15.353535353535353
 10
575.0
 20
16.161616161616163
 10
575.0
 20
16.96969696969697
 10
575.0
 20
17.77777777777778
 10
575.0
 20
18.585858585858585
 10
575.0
 20
19.393939393939394
 10
575.0
 20
20.2020202020202
 10
575.0
 20
21.01010101010101
 10
575.0
 20
21.818181818181817
 10
575.0
 20
22.626262626262626
 10
575.0
 20
23.434343434343432
 10
575.0
 20
24.242424242424242
 10
575.0
 20
25.05050505050505
 10
575.0
 20
25.858585858585858
 10
575.0
 20
26.666666666666668
 10
575.0
 20
27.474747474747474
 10
575.0
 20
28.282828282828284
 10
575.0
 20
29.09090909090909
 10
575.0
 20
29.8989898989899
 10
575.0
 20
30.707070707070706
 10
575.0
 20
31.515151515151516
 10
575.0
 20
32.323232323232325
 10
575.0
 20
33.13131313131313
 10
575.0
 20
33.93939393939394
 10
575.0
 20
34.74747474747475
 10
575.0
 20
35.55555555555556
 10
575.0
 20
36.36363636363636
 10
575.0
 20
37.17171717171717
 10
575.0
 20
37.97979797979798
 10
575.0
 20
38.78787878787879
 10
575.0
 20
39.5959595959596
 10
575.0
 20
40.4040404040404
 10
575.0
 20
41.21212121212121
 10
575.0
 20
42.02020202020202
 10
575.0
 20
42.82828282828283
 10
575.0
 20
43.63636363636363
 10
575.0
 20
44.44444444444444
 10
575.0
 20
45.25252525252525
 10
575.0
 20
46.06060606060606
 10
575.0
 20
46.868686868686865
 10
575.0
 20
47.676767676767675
 10
575.0
 20
48.484848484848484
 10
575.0
 20
49.292929292929294
 10
575.0
 20
50.1010101010101
 10
575.0
 20
50.90909090909091
 10
575.0
 20
51.717171717171716
 10
575.0
 20
52.525252525252526
 10
575.0
 20
53.333333333333336
 10
575.0
 20
54.14141414141414
 10
575.0
 20
54.94949494949495
 10
575.0
 20
55.75757575757576
 10
575.0
 20
56.56565656565657
 10
575.0
 20
57.37373737373737
 10
575.0
 20
58.18181818181818
 10
575.0
 20
58.98989898989899
 10
575.0
 20
59.7979797979798
 10
575.0
 20
60.6060606060606
 10
575.0
 20
61.41414141414141
 10
575.0
 20
62.22222222222222
 10
575.0
 20
63.03030303030303
 10
575.0
 20
63.838383838383834
 10
575.0
 20
64.64646464646465
 10
575.0
 20
65.45454545454545
 10
575.0
 20
66.26262626262626
 10
575.0
 20
67.07070707070707
 10
575.0
 20
67.87878787878788
 10
575.0
 20
68.68686868686869
 10
575.0
 20
69.4949494949495
 10
575.0
 20
70.3030303030303
 10
575.0
 20
71.11111111111111
 10
575.0
 20
71.91919191919192
 10
575.0
 20
72.72727272727272
 10
575.0
 20
73.53535353535354
 10
575.0
 20
74.34343434343434
 10
575.0
 20
75.15151515151516
 10
575.0
 20
75.95959595959596
 10
575.0
 20
76.76767676767676
 10
575.0
 20
77.57575757575758
 10
575.0
 20
78.38383838383838
 10
575.0
 20
79.1919191919192
 10
575.0
 20
80.0
  0
LWPOLYLINE
  5
72
330
17
100
AcDbEntity
  8
0
100
AcDbPolyline
 90
100
 70
0
 43
0.0
 10
545.0
 20
0.0
 10
545.0
 20
0.8080808080808081
 10
545.0
 20
1.6161616161616161
 10
545.0
 20
2.4242424242424243
 10
545.0
 20
3.2323232323232323
 10
545.0
 20
4.040404040404041
 10
545.0
 20
4.848484848484849
 10
545.0
 20
5.656565656565657
 10
545.0
 20
6.4646464646464645
 10
545.0
 20
7.2727272727272725
 10
545.0
 20
8.080808080808081
 10
545.0
 20
8.88888888888889
 10
545.0
 20
9.696969696969697
 10
545.0
 20
10.505050505050505
 10
545.0
 20
11.313131313131313
 10
545.0
 20
12.121212121212121
 10
545.0
 20
12.929292929292929
 10
545.0
 20
13.737373737373737
 10
545.0
 20
14.545454545454545
 10
545.0
 20
15.353535353535353
 10
545.0
 20
16.161616161616163
 10
545.0
 20
16.96969696969697
 10
545.0
 20
17.77777777777778
 10
545.0
 20
18.585858585858585
 10
545.0
 20
19.393939393939394
 10
545.0
 20
20.2020202020202
 10
545.0
 20
21.01010101010101
 10
545.0
 20
21.818181818181817
 10
545.0
 20
22.626262626262626
 10
545.0
 20
23.434343434343432
 10
545.0
 20
24.242424242424242
 10
545.0
 20
25.05050505050505
 10
545.0
 20
25.858585858585858
 10
545.0
 20
26.666666666666668
 10
545.0
 20
27.474747474747474
 10
545.0
 20
28.282828282828284
 10
545.0
 20
29.09090909090909
 10
545.0
 20
29.8989898989899
 10
545.0
 20
30.707070707070706
 10
545.0
 20
31.515151515151516
 10
545.0
 20
32.323232323232325
 10
545.0
 20
33.13131313131313
 10
545.0
 20
33.93939393939394
 10
545.0
 20
34.74747474747475
 10
545.0
 20
35.55555555555556
 10
545.0
 20
36.36363636363636
 10
545.0
 20
37.17171717171717
 10
545.0
 20
37.97979797979798
 10
545.0
 20
38.78787878787879
 10
545.0
 20
39.5959595959596
 10
545.0
 20
40.4040404040404
 10
545.0
 20
41.21212121212121
 10
545.0
 20
42.02020202020202
 10
545.0
 20
42.82828282828283
 10
545.0
 20
43.63636363636363
 10
545.0
 20
44.44444444444444
 10
545.0
 20
45.25252525252525
 10
545.0
 20
46.06060606060606
 10
545.0
 20
46.868686868686865
 10
545.0
 20
47.676767676767675
 10
545.0
 20
48.484848484848484
 10
545.0
 20
49.292929292929294
 10
545.0
 20
50.1010101010101
 10
545.0
 20
50.90909090909091
 10
545.0
 20
51.717171717171716
 10
545.0
 20
52.525252525252526
 10
545.0
 20
53.333333333333336
 10
545.0
 20
54.14141414141414
 10
545.0
 20
54.94949494949495
 10
545.0
 20
55.75757575757576
 10
545.0
 20
56.56565656565657
 10
545.0
 20
57.37373737373737
 10
545.0
 20
58.18181818181818
 10
545.0
 20
58.98989898989899
 10
545.0
 20
59.7979797979798
 10
545.0
 20
60.6060606060606
 10
545.0
 20
61.41414141414141
 10
545.0
 20
62.22222222222222
 10
545.0
 20
63.03030303030303
 10
545.0
 20
63.838383838383834
 10
545.0
 20
64.64646464646465
 10
545.0
 20
65.45454545454545
 10
545.0
 20
66.26262626262626
 10
545.0
 20
67.07070707070707
 10
545.0
 20
67.87878787878788
 10
545.0
 20
68.68686868686869
 10
545.0
 20
69.4949494949495
 10
545.0
 20
70.3030303030303
 10
545.0
 20
71.11111111111111
 10
545.0
 20
71.91919191919192
 10
545.0
 20
72.72727272727272
 10
545.0
 20
73.53535353535354
 10
545.0
 20
74.34343434343434
 10
545.0
 20
75.15151515151516
 10
545.0
 20
75.95959595959596
 10
545.0
 20
76.76767676767676
 10
545.0
 20
77.57575757575758
 10
545.0
 20
78.38383838383838
 10
545.0
 20
79.1919191919192
 10
545.0
 20
80.0
  0
LWPOLYLINE
  5
73
330
17
100
AcDbEntity
  8
0
100
AcDbPolyline
 90
100
 70
0
 43
0.0
 10
545.0
 20
0.0
 10
545.3030303030303
 20
0.0
 10
545.6060606060606
 20
0.0
 10
545.9090909090909
 20
0.0
 10
546.2121212121212
 20
0.0
 10
546.5151515151515
 20
0.0
 10
546.8181818181819
 20
0.0
 10
547.1212121212121
 20
0.0
 10
547.4242424242424
 20
0.0
 10
547.7272727272727
 20
0.0
 10
548.030303030303
 20
0.0
 10
548.3333333333334
 20
0.0
 10
548.6363636363636
 20
0.0
 10
548.939393939394
 20
0.0
 10
549.2424242424242
 20
0.0
 10
549.5454545454545
 20
0.0
 10
549.8484848484849
 20
0.0
 10
550.1515151515151
 20
0.0
 10
550.4545454545455
 20
0.0
 10
550.7575757575758
 20
0.0
 10
551.060606060606
 20
0.0
 10
551.3636363636364
 20
0.0
 10
551.6666666666666
 20
0.0
 10
551.969696969697
 20
0.0
 10
552.2727272727273
 20
0.0
 10
552.5757575757576
 20
0.0
 10
552.8787878787879
 20
0.0
 10
553.1818181818181
 20
0.0
 10
553.4848484848485
 20
0.0
 10
553.7878787878788
 20
0.0
 10
554.0909090909091
 20
0.0
 10
554.3939393939394
 20
0.0
 10
554.6969696969697
 20
0.0
 10
555.0
 20
0.0
 10
555.3030303030303
 20
0.0
 10
555.6060606060606
 20
0.0
 10
555.9090909090909
 20
0.0
 10
556.2121212121212
 20
0.0
 10
556.5151515151515
 20
0.0
 10
556.8181818181819
 20
0.0
 10
557.1212121212121
 20
0.0
 10
557.4242424242424
 20
0.0
 10
557.7272727272727
 20
0.0
 10
558.030303030303
 20
0.0
 10
558.3333333333334
 20
0.0
 10
558.6363636363636
 20
0.0
 10
558.939393939394
 20
0.0
 10
559.2424242424242
 20
0.0
 10
559.5454545454545
 20
0.0
 10
559.8484848484849
 20
0.0
 10
560.1515151515151
 20
0.0
 10
560.4545454545455
 20
0.0
 10
560.7575757575758
 20
0.0
 10
561.060606060606
 20
0.0
 10
561.3636363636364
 20
0.0
 10
561.6666666666666
 20
0.0
 10
561.969696969697
 20
0.0
 10
562.2727272727273
 20
0.0
 10
562.5757575757576
 20
0.0
 10
562.8787878787879
 20
0.0
 10
563.1818181818181
 20
0.0
 10
563.4848484848485
 20
0.0
 10
563.7878787878788
 20
0.0
 10
564.0909090909091
 20
0.0
 10
564.3939393939394
 20
0.0
 10
564.6969696969697
 20
0.0
 10
565.0
 20
0.0
 10
565.3030303030303
 20
0.0
 10
565.6060606060606
 20
0.0
 10
565.9090909090909
 20
0.0
 10
566.2121212121212
 20
0.0
 10
566.5151515151515
 20
0.0
 10
566.8181818181819
 20
0.0
 10
567.1212121212121
 20
0.0
 10
567.4242424242424
 20
0.0
 10
567.7272727272727
 20
0.0
 10
568.030303030303
 20
0.0
 10
568.3333333333334
 20
0.0
 10
568.6363636363636
 20
0.0
 10
568.939393939394
 20
0.0
 10
569.2424242424242
 20
0.0
 10
569.5454545454545
 20
0.0
 10
569.8484848484849
 20
0.0
 10
570.1515151515151
 20
0.0
 10
570.4545454545455
 20
0.0
 10
570.7575757575758
 20
0.0
 10
571.060606060606
 20
0.0
 10
571.3636363636364
 20
0.0
 10
571.6666666666666
 20
0.0
 10
571.969696969697
 20
0.0
 10
572.2727272727273
 20
0.0
 10
572.5757575757576
 20
0.0
 10
572.8787878787879
 20
0.0
 10
573.1818181818181
 20
0.0
 10
573.4848484848485
 20
0.0
 10
573.7878787878788
 20
0.0
 10
574.0909090909091
 20
0.0
 10
574.3939393939394
 20
0.0
 10
574.6969696969697
 20
0.0
 10
575.0
 20
0.0
  0
LWPOLYLINE
  5
74
330
17
100
AcDbEntity
  8
0
100
AcDbPolyline
 90
100
 70
0
 43
0.0
 10
545.0
 20
80.0
 10
545.3030303030303
 20
80.0
 10
545.6060606060606
 20
80.0
 10
545.9090909090909
 20
80.0
 10
546.2121212121212
 20
80.0
 10
546.5151515151515
 20
80.0
 10
546.8181818181819
 20
80.0
 10
547.1212121212121
 20
80.0
 10
547.4242424242424
 20
80.0
 10
547.7272727272727
 20
80.0
 10
548.030303030303
 20
80.0
 10
548.3333333333334
 20
80.0
 10
548.6363636363636
 20
80.0
 10
548.939393939394
 20
80.0
 10
549.2424242424242
 20
80.0
 10
549.5454545454545
 20
80.0
 10
549.8484848484849
 20
80.0
 10
550.1515151515151
 20
80.0
 10
550.4545454545455
 20
80.0
 10
550.7575757575758
 20
80.0
 10
551.060606060606
 20
80.0
 10
551.3636363636364
 20
80.0
 10
551.6666666666666
 20
80.0
 10
551.969696969697
 20
80.0
 10
552.2727272727273
 20
80.0
 10
552.5757575757576
 20
80.0
 10
552.8787878787879
 20
80.0
 10
553.1818181818181
 20
80.0
 10
553.4848484848485
 20
80.0
 10
553.7878787878788
 20
80.0
 10
554.0909090909091
 20
80.0
 10
554.3939393939394
 20
80.0
 10
554.6969696969697
 20
80.0
 10
555.0
 20
80.0
 10
555.3030303030303
 20
80.0
 10
555.6060606060606
 20
80.0
 10
555.9090909090909
 20
80.0
 10
556.2121212121212
 20
80.0
 10
556.5151515151515
 20
80.0
 10
556.8181818181819
 20
80.0
 10
557.1212121212121
 20
80.0
 10
557.4242424242424
 20
80.0
 10
557.7272727272727
 20
80.0
 10
558.030303030303
 20
80.0
 10
558.3333333333334
 20
80.0
 10
558.6363636363636
 20
80.0
 10
558.939393939394
 20
80.0
 10
559.2424242424242
 20
80.0
 10
559.5454545454545
 20
80.0
 10
559.8484848484849
 20
80.0
 10
560.1515151515151
 20
80.0
 10
560.4545454545455
 20
80.0
 10
560.7575757575758
 20
80.0
 10
561.060606060606
 20
80.0
 10
561.3636363636364
 20
80.0
 10
561.6666666666666
 20
80.0
 10
561.969696969697
 20
80.0
 10
562.2727272727273
 20
80.0
 10
562.5757575757576
 20
80.0
 10
562.8787878787879
 20
80.0
 10
563.1818181818181
 20
80.0
 10
563.4848484848485
 20
80.0
 10
563.7878787878788
 20
80.0
 10
564.0909090909091
 20
80.0
 10
564.3939393939394
 20
80.0
 10
564.6969696969697
 20
80.0
 10
565.0
 20
80.0
 10
565.3030303030303
 20
80.0
 10
565.6060606060606
 20
80.0
 10
565.9090909090909
 20
80.0
 10
566.2121212121212
 20
80.0
 10
566.5151515151515
 20
80.0
 10
566.8181818181819
 20
80.0
 10
567.1212121212121
 20
80.0
 10
567.4242424242424
 20
80.0
 10
567.7272727272727
 20
80.0
 10
568.030303030303
 20
80.0
 10
568.3333333333334
 20
80.0
 10
568.6363636363636
 20
80.0
 10
568.939393939394
 20
80.0
 10
569.2424242424242
 20
80.0
 10
569.5454545454545
 20
80.0
 10
569.8484848484849
 20
80.0
 10
570.1515151515151
 20
80.0
 10
570.4545454545455
 20
80.0
 10
570.7575757575758
 20
80.0
 10
571.060606060606
 20
80.0
 10
571.3636363636364
 20
80.0
 10
571.6666666666666
 20
80.0
 10
571.969696969697
 20
80.0
 10
572.2727272727273
 20
80.0
 10
572.5757575757576
 20
80.0
 10
572.8787878787879
 20
80.0
 10
573.1818181818181
 20
80.0
 10
573.4848484848485
 20
80.0
 10
573.7878787878788
 20
80.0
 10
574.0909090909091
 20
80.0
 10
574.3939393939394
 20
80.0
 10
574.6969696969697
 20
80.0
 10
575.0
 20
80.0
  0
LWPOLYLINE
  5
75
330
17
100
AcDbEntity
  8
0
100
AcDbPolyline
 90
5
 70
0
 43
0.0
 10
549.0
 20
4.0
 10
549.8
 20
4.0
 10
549.8
 20
76.0
 10
549.0
 20
76.0
 10
549.0
 20
4.0
  0
HATCH
  5
76
330
17
100
AcDbEntity
  8
0
 62
7
100
AcDbHatch
 10
0.0
 20
0.0
 30
0.0
210
0.0
220
0.0
230
1.0
  2
ANSI31
 70
0
 71
0
 91
1
 92
3
 72
0
 73
1
 93
5
 10
549.0
 20
4.0
 10
549.8
 20
4.0
 10
549.8
 20
76.0
 10
549.0
 20
76.0
 10
549.0
 20
4.0
 97
0
 75
1
 76
1
 52
0.0
 41
0.5
 77
0
 78
1
 53
45.0
 43
0.0
 44
0.0
 45
-1.1314
 46
1.1314
 79
0
 98
0
  0
LWPOLYLINE
  5
77
330
17
100
AcDbEntity
  8
0
100
AcDbPolyline
 90
5
 70
0
 43
0.0
 10
570.2
 20
4.0
 10
571.0
 20
4.0
 10
571.0
 20
76.0
 10
570.2
 20
76.0
 10
570.2
 20
4.0
  0
HATCH
  5
78
330
17
100
AcDbEntity
  8
0
 62
7
100
AcDbHatch
 10
0.0
 20
0.0
 30
0.0
210
0.0
220
0.0
230
1.0
  2
ANSI31
 70
0
 71
0
 91
1
 92
3
 72
0
 73
1
 93
5
 10
570.2
 20
4.0
 10
571.0
 20
4.0
 10
571.0
 20
76.0
 10
570.2
 20
76.0
 10
570.2
 20
4.0
 97
0
 75
1
 76
1
 52
0.0
 41
0.5
 77
0
 78
1
 53
45.0
 43
0.0
 44
0.0
 45
-1.1314
 46
1.1314
 79
0
 98
0
  0
LWPOLYLINE
  5
79
330
17
100
AcDbEntity
  8
0
100
AcDbPolyline
 90
5
 70
0
 43
0.0
 10
549.8
 20
75.2
 10
570.2
 20
75.2
 10
570.2
 20
76.0
 10
549.8
 20
76.0
 10
549.8
 20
75.2
  0
HATCH
  5
7A
330
17
100
AcDbEntity
  8
0
 62
7
100
AcDbHatch
 10
0.0
 20
0.0
 30
0.0
210
0.0
220
0.0
230
1.0
  2
ANSI31
 70
0
 71
0
 91
1
 92
3
 72
0
 73
1
 93
5
 10
549.8
 20
75.2
 10
570.2
 20
75.2
 10
570.2
 20
76.0
 10
549.8
 20
76.0
 10
549.8
 20
75.2
 97
0
 75
1
 76
1
 52
0.0
 41
0.5
 77
0
 78
1
 53
45.0
 43
0.0
 44
0.0
 45
-1.1314
 46
1.1314
 79
0
 98
0
  0
LWPOLYLINE
  5
7B
330
17
100
AcDbEntity
  8
0
100
AcDbPolyline
 90
5
 70
0
 43
0.0
 10
549.8
 20
4.0
 10
570.2
 20
4.0
 10
570.2
 20
4.8
 10
549.8
 20
4.8
 10
549.8
 20
4.0
  0
HATCH
  5
7C
330
17
100
AcDbEntity
  8
0
 62
7
100
AcDbHatch
 10
0.0
 20
0.0
 30
0.0
210
0.0
220
0.0
230
1.0
  2
ANSI31
 70
0
 71
0
 91
1
 92
3
 72
0
 73
1
 93
5
 10
549.8
 20
4.0
 10
570.2
 20
4.0
 10
570.2
 20
4.8
 10
549.8
 20
4.8
 10
549.8
 20
4.0
 97
0
 75
1
 76
1
 52
0.0
 41
0.5
 77
0
 78
1
 53
45.0
 43
0.0
 44
0.0
 45
-1.1314
 46
1.1314
 79
0
 98
0
  0
LWPOLYLINE
  5
7D
330
17
100
AcDbEntity
  8
0
100
AcDbPolyline
 90
5
 70
0
 43
0.0
 10
571.4
 20
75.6
 10
570.8343145750507
 20
76.16568542494923
 10
567.2987806691181
 20
72.6301515190165
 10
567.8644660940672
 20
72.06446609406726
 10
571.4
 20
75.6
  0
HATCH
  5
7E
330
17
100
AcDbEntity
  8
0
 62
7
100
AcDbHatch
 10
0.0
 20
0.0
 30
0.0
210
0.0
220
0.0
230
1.0
  2
ANSI31
 70
0
 71
0
 91
1
 92
3
 72
0
 73
1
 93
5
 10
571.4
 20
75.6
 10
570.8343145750507
 20
76.16568542494923
 10
567.2987806691181
 20
72.6301515190165
 10
567.8644660940672
 20
72.06446609406726
 10
571.4
 20
75.6
 97
0
 75
1
 76
1
 52
135.0
 41
0.5
 77
0
 78
1
 53
45.0
 43
0.0
 44
0.0
 45
-1.1314
 46
1.1314
 79
0
 98
0
  0
CIRCLE
  5
7F
330
17
100
AcDbEntity
  8
0
100
AcDbCircle
 10
550.2
 20
5.2
 30
0.0
 40
0.4
  0
CIRCLE
  5
80
330
17
100
AcDbEntity
  8
0
100
AcDbCircle
 10
569.8
 20
5.2
 30
0.0
 40
0.4
  0
CIRCLE
  5
81
330
17
100
AcDbEntity
  8
0
100
AcDbCircle
 10
553.0
 20
5.2
 30
0.0
 40
0.4
  0
CIRCLE
  5
82
330
17
100
AcDbEntity
  8
0
100
AcDbCircle
 10
567.0
 20
5.2
 30
0.0
 40
0.4
  0
CIRCLE
  5
83
330
17
100
AcDbEntity
  8
0
100
AcDbCircle
 10
555.8
 20
5.2
 30
0.0
 40
0.4
  0
CIRCLE
  5
84
330
17
100
AcDbEntity
  8
0
100
AcDbCircle
 10
564.2
 20
5.2
 30
0.0
 40
0.4
  0
CIRCLE
  5
85
330
17
100
AcDbEntity
  8
0
100
AcDbCircle
 10
558.6
 20
5.2
 30
0.0
 40
0.4
  0
CIRCLE
  5
86
330
17
100
AcDbEntity
  8
0
100
AcDbCircle
 10
561.4
 20
5.2
 30
0.0
 40
0.4
  0
CIRCLE
  5
87
330
17
100
AcDbEntity
  8
0
100
AcDbCircle
 10
550.2
 20
7.6
 30
0.0
 40
0.4
  0
CIRCLE
  5
88
330
17
100
AcDbEntity
  8
0
100
AcDbCircle
 10
569.8
 20
7.6
 30
0.0
 40
0.4
  0
CIRCLE
  5
89
330
17
100
AcDbEntity
  8
0
100
AcDbCircle
 10
553.0
 20
7.6
 30
0.0
 40
0.4
  0
CIRCLE
  5
8A
330
17
100
AcDbEntity
  8
0
100
AcDbCircle
 10
567.0
 20
7.6
 30
0.0
 40
0.4
  0
CIRCLE
  5
8B
330
17
100
AcDbEntity
  8
0
100
AcDbCircle
 10
555.8
 20
7.6
 30
0.0
 40
0.4
  0
CIRCLE
  5
8C
330
17
100
AcDbEntity
  8
0
100
AcDbCircle
 10
564.2
 20
7.6
 30
0.0
 40
0.4
  0
LWPOLYLINE
  5
8D
330
17
100
AcDbEntity
  8
0
100
AcDbPolyline
 90
5
 70
0
 43
0.0
 10
560.0
 20
0.0
 10
561.0
 20
0.0
 10
561.0
 20
1.0
 10
560.0
 20
1.0
 10
560.0
 20
0.0
  0
ENDSEC
  0
SECTION
  2
OBJECTS
  0
DICTIONARY
  5
A
330
0
100
AcDbDictionary
281
1
  3
ACAD_COLOR
350
B
  3
ACAD_GROUP
350
C
  3
ACAD_LAYOUT
350
D
  3
ACAD_MATERIAL
350
E
  3
ACAD_MLEADERSTYLE
350
F
  3
ACAD_MLINESTYLE
350
10
  3
ACAD_PLOTSETTINGS
350
11
  3
ACAD_PLOTSTYLENAME
350
12
  3
ACAD_SCALELIST
350
14
  3
ACAD_TABLESTYLE
350
15
  3
ACAD_VISUALSTYLE
350
16
  0
DICTIONARY
  5
B
330
A
100
AcDbDictionary
281
1
  0
DICTIONARY
  5
C
330
A
100
AcDbDictionary
281
1
  0
DICTIONARY
  5
D
330
A
100
AcDbDictionary
281
1
  3
Model
350
1A
  3
Layout1
350
1E
  0
DICTIONARY
  5
E
330
A
100
AcDbDictionary
281
1
  3
ByBlock
350
1F
  3
ByLayer
350
20
  3
Global
350
21
  0
DICTIONARY
  5
F
330
A
100
AcDbDictionary
281
1
  3
Standard
350
2C
  0
DICTIONARY
  5
10
330
A
100
AcDbDictionary
281
1
  3
Standard
350
22
  0
DICTIONARY
  5
11
330
A
100
AcDbDictionary
281
1
  0
ACDBDICTIONARYWDFLT
  5
12
330
A
100
AcDbDictionary
281
1
  3
Normal
350
13
100
AcDbDictionaryWithDefault
340
13
  0
ACDBPLACEHOLDER
  5
13
330
12
  0
DICTIONARY
  5
14
330
A
100
AcDbDictionary
281
1
  0
DICTIONARY
  5
15
330
A
100
AcDbDictionary
281
1
  0
DICTIONARY
  5
16
330
A
100
AcDbDictionary
281
1
  0
LAYOUT
  5
1A
330
D
100
AcDbPlotSettings
  1

  2
Adobe PDF
  4
A4
  6

 40
3.175
 41
3.175
 42
3.175
 43
3.175
 44
209.91
 45
297.03
 46
0.0
 47
0.0
 48
0.0
 49
0.0
140
0.0
141
0.0
142
1.0
143
1.0
 70
1024
 72
0
 73
1
 74
5
  7

 75
16
 76
0
 77
2
 78
300
147
1.0
148
0.0
149
0.0
100
AcDbLayout
  1
Model
 70
1
 71
0
 10
-3.175
 20
-3.175
 11
293.857
 21
206.735
 12
0.0
 22
0.0
 32
0.0
 14
29.068
 24
20.356
 34
0.0
 15
261.614
 25
183.204
 35
0.0
146
0.0
 13
0.0
 23
0.0
 33
0.0
 16
1.0
 26
0.0
 36
0.0
 17
0.0
 27
1.0
 37
0.0
 76
1
330
17
  0
LAYOUT
  5
1E
330
D
100
AcDbPlotSettings
  1

  2
Adobe PDF
  4
A4
  6

 40
3.175
 41
3.175
 42
3.175
 43
3.175
 44
209.91
 45
297.03
 46
0.0
 47
0.0
 48
0.0
 49
0.0
140
0.0
141
0.0
142
1.0
143
1.0
 70
0
 72
0
 73
1
 74
5
  7

 75
16
 76
0
 77
2
 78
300
147
1.0
148
0.0
149
0.0
100
AcDbLayout
  1
Layout1
 70
1
 71
1
 10
-3.175
 20
-3.175
 11
293.857
 21
206.735
 12
0.0
 22
0.0
 32
0.0
 14
29.068
 24
20.356
 34
0.0
 15
261.614
 25
183.204
 35
0.0
146
0.0
 13
0.0
 23
0.0
 33
0.0
 16
1.0
 26
0.0
 36
0.0
 17
0.0
 27
1.0
 37
0.0
 76
1
330
1B
  0
MATERIAL
  5
1F
102
{ACAD_REACTORS
330
E
102
}
330
E
100
AcDbMaterial
  1
ByBlock
  2

 70
0
 40
1.0
 71
1
 41
1.0
 91
-1023410177
 42
1.0
 72
1
  3

 73
1
 74
1
 75
1
 44
0.5
 73
0
 45
1.0
 46
1.0
 77
1
  4

 78
1
 79
1
170
1
 48
1.0
171
1
  6

172
1
173
1
174
1
140
1.0
141
1.0
175
1
  7

176
1
177
1
178
1
143
1.0
179
1
  8

270
1
271
1
272
1
145
1.0
146
1.0
273
1
  9

274
1
275
1
276
1
 42
1.0
 72
1
  3

 73
1
 74
1
 75
1
 94
63
  0
MATERIAL
  5
20
102
{ACAD_REACTORS
330
E
102
}
330
E
100
AcDbMaterial
  1
ByLayer
  2

 70
0
 40
1.0
 71
1
 41
1.0
 91
-1023410177
 42
1.0
 72
1
  3

 73
1
 74
1
 75
1
 44
0.5
 73
0
 45
1.0
 46
1.0
 77
1
  4

 78
1
 79
1
170
1
 48
1.0
171
1
  6

172
1
173
1
174
1
140
1.0
141
1.0
175
1
  7

176
1
177
1
178
1
143
1.0
179
1
  8

270
1
271
1
272
1
145
1.0
146
1.0
273
1
  9

274
1
275
1
276
1
 42
1.0
 72
1
  3

 73
1
 74
1
 75
1
 94
63
  0
MATERIAL
  5
21
102
{ACAD_REACTORS
330
E
102
}
330
E
100
AcDbMaterial
  1
Global
  2

 70
0
 40
1.0
 71
1
 41
1.0
 91
-1023410177
 42
1.0
 72
1
  3

 73
1
 74
1
 75
1
 44
0.5
 73
0
 45
1.0
 46
1.0
 77
1
  4

 78
1
 79
1
170
1
 48
1.0
171
1
  6

172
1
173
1
174
1
140
1.0
141
1.0
175
1
  7

176
1
177
1
178
1
143
1.0
179
1
  8

270
1
271
1
272
1
145
1.0
146
1.0
273
1
  9

274
1
275
1
276
1
 42
1.0
 72
1
  3

 73
1
 74
1
 75
1
 94
63
  0
MLINESTYLE
  5
22
102
{ACAD_REACTORS
330
10
102
}
330
10
100
AcDbMlineStyle
  2
Standard
 70
0
  3

 62
256
 51
90.0
 52
90.0
 71
2
 49
0.5
 62
256
  6
BYLAYER
 49
-0.5
 62
256
  6
BYLAYER
  0
MLEADERSTYLE
  5
2C
102
{ACAD_REACTORS
330
F
102
}
330
F
100
AcDbMLeaderStyle
179
2
170
2
171
1
172
0
 90
2
 40
0.0
 41
0.0
173
1
 91
-1056964608
 92
-2
290
1
 42
2.0
291
1
 43
8.0
  3
Standard
 44
4.0
300

342
29
174
1
175
1
176
0
178
1
 93
-1056964608
 45
4.0
292
0
297
0
 46
4.0
 94
-1056964608
 47
1.0
 49
0.0
140
1.0
294
1
141
0.0
177
0
142
1.0
295
0
296
0
143
3.75
271
0
272
9
272
9
  0
ENDSEC
  0
EOF
